<?xml version="1.0" encoding="utf-8"?>
<!-- Generator: Adobe Illustrator 15.0.0, SVG Export Plug-In . SVG Version: 6.00 Build 0)  -->
<!DOCTYPE svg PUBLIC "-//W3C//DTD SVG 1.1//EN" "http://www.w3.org/Graphics/SVG/1.1/DTD/svg11.dtd">
<svg version="1.1" id="Layer_1" xmlns="http://www.w3.org/2000/svg" xmlns:xlink="http://www.w3.org/1999/xlink" x="0px" y="0px"
	 width="388px" height="232px" viewBox="0 0 388 232" enable-background="new 0 0 388 232" xml:space="preserve">
<g>
	<g opacity="0.22">
		<path fill-rule="evenodd" clip-rule="evenodd" d="M192.825,212c106.32,0,192.51,4.477,192.51,10s-86.189,10-192.51,10
			C86.503,232,0.313,227.523,0.313,222S86.503,212,192.825,212z"/>
	</g>
	<g>
		<g>
			<path fill="#99CCD7" d="M387.687,208.885c-5.615,6.482-13.939,10.607-23.197,10.607H24.051c-9.25,0-17.565-4.125-23.184-10.607
				H387.687z"/>
		</g>
	</g>
	<g>
		<g>
			<path fill="#DBEAF0" d="M387.681,208.955H0.868v-4.57c0-0.469,0.176-0.943,0.523-1.307c0.339-0.354,0.793-0.527,1.232-0.527
				h383.307c0.449,0,0.891,0.174,1.24,0.527c0.34,0.363,0.51,0.838,0.51,1.307V208.955z"/>
		</g>
	</g>
	<g>
		<path fill="#7DAAD6" d="M234.208,203.504c0,0.566-0.205,1.148-0.619,1.588c-0.41,0.424-0.92,0.646-1.459,0.646h-67.711
			c-0.534,0-1.056-0.223-1.454-0.646c-0.403-0.439-0.607-1.021-0.607-1.588v-1.119h71.851V203.504z"/>
	</g>
	<g>
		<g>
			<path fill="#1F3252" d="M49.695,1.086c-4.053,0-7.381,3.348-7.381,7.416v186.947c0,4.076,3.328,7.41,7.381,7.41h289.203
				c4.075,0,7.416-3.334,7.416-7.41V8.502c0-4.068-3.341-7.416-7.416-7.416H49.695z"/>
		</g>
	</g>
	<path opacity="0.17" d="M331.314,17.297v170h-274v-170H331.314 M331.314,14.297h-274c-1.657,0-3,1.343-3,3v170c0,1.658,1.343,3,3,3
		h274c1.657,0,3-1.342,3-3v-170C334.314,15.64,332.972,14.297,331.314,14.297L331.314,14.297z"/>
	<rect x="57.314" y="17.297" fill="#30ACE2" width="274" height="170"/>
	<g>
		<g>
			<g>
				<rect x="162.379" y="27.322" fill="#84AF17" width="65" height="22"/>
				<rect x="162.379" y="49.336" fill="#B8E3F5" width="65" height="48"/>
				<path fill="#FFFFFF" d="M187.816,89.039l-16.883-16.885l3.363-3.363l16.883,16.883L187.816,89.039L187.816,89.039z
					 M187.836,89.092l-3.361-3.363l30.514-30.514l3.365,3.363L187.836,89.092L187.836,89.092z"/>
			</g>
			<g>
				<rect x="246.635" y="27.322" fill="#84AF17" width="65.001" height="22"/>
				<rect x="246.635" y="49.336" fill="#B8E3F5" width="65.001" height="48"/>
				<path fill="#FFFFFF" d="M272.074,89.039l-16.885-16.885l3.365-3.363l16.883,16.883L272.074,89.039L272.074,89.039z
					 M272.094,89.092l-3.363-3.363l30.515-30.514l3.365,3.363L272.094,89.092L272.094,89.092z"/>
			</g>
			<g>
				<rect x="162.379" y="107.257" fill="#84AF17" width="65" height="22"/>
				<rect x="162.379" y="129.273" fill="#B8E3F5" width="65" height="48"/>
				<path fill="#FFFFFF" d="M187.816,168.975l-16.883-16.885l3.363-3.363l16.883,16.883L187.816,168.975L187.816,168.975z
					 M187.836,169.029l-3.361-3.363l30.514-30.514l3.365,3.363L187.836,169.029L187.836,169.029z"/>
			</g>
			<g>
				<rect x="246.635" y="107.257" fill="#84AF17" width="65.001" height="22"/>
				<rect x="246.635" y="129.273" fill="#B8E3F5" width="65.001" height="48"/>
				<path fill="#FFFFFF" d="M272.074,168.975l-16.885-16.885l3.365-3.363l16.883,16.883L272.074,168.975L272.074,168.975z
					 M272.094,169.029l-3.363-3.363l30.515-30.514l3.365,3.363L272.094,169.029L272.094,169.029z"/>
			</g>
		</g>
		<g>
			<rect x="77.319" y="27.379" fill="#276F9A" width="65" height="62.372"/>
			<rect x="77.319" y="97.544" fill="#276F9A" width="65" height="14"/>
			<rect x="77.319" y="119.379" fill="#276F9A" width="65" height="14"/>
			<rect x="77.319" y="141.211" fill="#276F9A" width="65" height="14"/>
			<rect x="77.319" y="163.045" fill="#276F9A" width="65" height="14"/>
		</g>
	</g>
</g>
</svg>
