<?xml version="1.0" encoding="utf-8"?>
<!-- Generator: Adobe Illustrator 15.0.0, SVG Export Plug-In . SVG Version: 6.00 Build 0)  -->
<!DOCTYPE svg PUBLIC "-//W3C//DTD SVG 1.1//EN" "http://www.w3.org/Graphics/SVG/1.1/DTD/svg11.dtd">
<svg version="1.1" id="Isolation_Mode" xmlns="http://www.w3.org/2000/svg" xmlns:xlink="http://www.w3.org/1999/xlink" x="0px"
	 y="0px" width="281.986px" height="206.018px" viewBox="0 0 281.986 206.018" enable-background="new 0 0 281.986 206.018"
	 xml:space="preserve">
<g>
	<path fill="#F6901E" d="M29.057,171.593c-0.558,0.076-10.696,13.19-27.629,9.448c0,0,15.509,10.696,30.483,7.128
		C46.885,184.606,37.972,170.346,29.057,171.593"/>
	<path fill="#F6901E" d="M29.057,171.593c-0.558,0.076-10.696,13.19-27.629,9.448c0,0,15.509,10.696,30.483,7.128
		C46.885,184.606,37.972,170.346,29.057,171.593"/>
	<path fill="#0D4C9C" d="M25.508,190.323L25.508,190.323c-12.982,0-24.409-7.777-24.891-8.113c-0.563-0.386-0.77-1.113-0.499-1.742
		c0.273-0.623,0.95-0.967,1.616-0.822c1.915,0.428,3.838,0.643,5.712,0.643c10.708,0,17.623-6.826,19.895-9.067
		c0.711-0.704,0.978-0.967,1.519-1.042c0.431-0.059,0.872-0.092,1.313-0.092c5.334,0,10.542,4.516,11.146,9.66
		c0.546,4.66-2.846,8.328-9.078,9.809C30.105,190.067,27.84,190.323,25.508,190.323 M8.14,183.13
		c4.381,2.063,10.725,4.34,17.367,4.34h0.001c2.109,0,4.152-0.23,6.073-0.688c4.824-1.146,7.274-3.528,6.904-6.703
		c-0.453-3.842-4.863-7.432-8.85-7.118c-0.082,0.083-0.18,0.177-0.291,0.287C22.889,179.62,15.76,182.937,8.14,183.13"/>
	<path fill="#FFC10E" d="M29.345,173.248c0,0-7.271,8.582-21.205,9.882c0,0,15.75,3.97,27.067-7.438L29.345,173.248z"/>
	<path fill="#FFC10E" d="M77.604,176.646c0,0-0.239,4.753,0.476,13.075c0.713,8.317,1.662,11.169,0,11.646
		c-1.665,0.477-24.721,7.842-41.834-1.428c0,0-4.041-15.212,6.417-28.285C53.121,158.581,76.653,169.517,77.604,176.646"/>
	<path fill="#0D4C9C" d="M56.908,206.018c-8.253,0-15.433-1.625-21.344-4.821l-0.539-0.296l-0.159-0.594
		c-0.171-0.649-4.102-16.063,6.683-29.542c3.475-4.344,8.61-6.639,14.855-6.639c10.19,0,21.814,6.342,22.613,12.333l0.018,0.128
		l-0.009,0.129c-0.002,0.051-0.222,4.777,0.473,12.883c0.189,2.205,0.396,4.049,0.565,5.525c0.523,4.615,0.786,6.932-1.594,7.615
		l-0.237,0.066C71.265,204.876,63.692,206.018,56.908,206.018 M37.494,198.987c5.382,2.773,11.907,4.181,19.414,4.181
		c6.516,0,13.802-1.101,20.514-3.093l0.113-0.035c0.144-0.637-0.074-2.564-0.305-4.596c-0.169-1.497-0.381-3.354-0.573-5.605
		c-0.652-7.607-0.521-12.229-0.485-13.113c-0.668-3.718-10.337-9.746-19.768-9.746c-3.729,0-8.946,0.965-12.628,5.564
		C35.041,183.466,36.924,196.138,37.494,198.987"/>
	<path fill="#0D4C9C" d="M73.232,198.083c-0.394-4.921-2.519-8.328-5.989-9.6c-2.736-1.008-5.384-0.219-7.33,2.163
		c-2.609,3.19-3.855,9.175-2.893,13.919l0.229,1.123l1.145,0.018c0,0,0.224,0.002,0.614,0.002h0.002
		c2.967,0,10.198-0.181,13.259-1.899C73.497,203.117,73.353,199.576,73.232,198.083"/>
	<path fill="#0D4C9C" d="M47.45,188.913c-2.349-0.674-4.435-0.029-5.857,1.782c-2.394,3.048-2.355,8.534-1.805,10.795l0.14,0.571
		l0.502,0.306c0.195,0.12,4.816,2.903,10.221,2.903h1.169l0.23-1.146C52.156,203.589,54.594,190.97,47.45,188.913"/>
	<path fill="#F6901E" d="M75.79,177.007c0.502-0.053,0.401,3.878,0.639,6.137c0,0-18.498-0.166-25.986-1.596
		c-7.488-1.42-10.285-3.024-10.285-3.024s1.792-5.204,2.861-5.444C43.019,173.079,60.46,178.67,75.79,177.007"/>
	<path fill="#FFC10E" d="M94.424,176.699c0,0,0.951,18.306,7.845,26.623c0,0,26.146,4.277,53.005-3.327
		c0,0-3.803-17.825-11.174-27.096c0,0,16.877,2.141,22.344,11.884c0,0,20.678-7.606,25.906-14.736c0,0-3.799-9.745-14.496-15.925
		c-10.697-6.182-55.858,2.14-59.9,3.8C113.913,159.587,95.851,170.759,94.424,176.699"/>
	<path fill="#0D4C9C" d="M120.481,205.948h-0.004c-10.872,0-18.136-1.168-18.441-1.217l-0.524-0.087l-0.343-0.409
		c-7.111-8.588-8.131-26.692-8.168-27.461l-0.013-0.203l0.049-0.201c1.656-6.902,20.957-18.359,24.375-19.764
		c3.028-1.25,28.6-6.162,46.157-6.162c7.246,0,12.15,0.799,14.998,2.441c11.002,6.357,14.953,16.226,15.113,16.643l0.287,0.732
		l-0.467,0.63c-5.42,7.389-25.703,14.913-26.564,15.229l-1.141,0.423l-0.594-1.061c-3.625-6.453-12.889-9.381-17.914-10.529
		c6.123,9.715,9.238,24.076,9.381,24.746l0.279,1.304l-1.287,0.366C144.928,204.409,133.091,205.948,120.481,205.948
		 M103.03,201.997c1.866,0.262,8.464,1.098,17.447,1.098h0.004c11.835,0,22.958-1.381,33.091-4.11
		c-1.031-4.235-4.65-17.728-10.588-25.198l-2.18-2.744l3.475,0.443c0.691,0.086,16.48,2.188,22.758,11.545
		c4.125-1.605,18.795-7.578,23.658-13.193c-1.107-2.311-5.109-9.6-13.557-14.48c-1.627-0.939-5.303-2.061-13.57-2.061
		c-17.236,0-42.15,4.742-45.072,5.947c-4.658,1.918-21.087,12.581-22.638,17.606C95.997,178.888,97.206,194.447,103.03,201.997"/>
	<path fill="#1192CC" d="M126.988,162.2c0,0,15.688-8.553,34.227-5.702c18.539,2.854,25.434,8.08,33.99,0.954
		c8.557-7.133,6.416-24.961-2.377-38.033c0,0-26.859,12.121-31.137,13.549c-4.279,1.424-8.32,0.475-12.125,3.328
		C145.764,139.146,123.185,159.352,126.988,162.2"/>
	<path fill="#0D4C9C" d="M126.865,163.895l-0.733-0.553c-0.645-0.479-1.001-1.224-1.001-2.093c0-6.16,21.752-24.723,23.581-26.094
		c2.662-1.998,5.391-2.34,8.031-2.668c1.545-0.195,3.006-0.375,4.498-0.874c4.16-1.39,30.734-13.374,31.002-13.495l1.096-0.494
		l0.674,0.998c8.639,12.847,11.902,31.761,2.105,39.924c-3.248,2.705-6.461,3.915-10.406,3.915c-3.318,0-6.93-0.84-11.502-1.897
		c-3.742-0.864-7.982-1.851-13.209-2.658c-2.441-0.374-4.969-0.563-7.52-0.563c-14.399,0-25.699,6.052-25.81,6.113L126.865,163.895z
		 M192.303,121.222c-5.184,2.33-26.314,11.815-30.162,13.101c-1.758,0.582-3.432,0.793-5.045,0.995
		c-2.479,0.311-4.617,0.577-6.672,2.117c-1.656,1.246-7.559,6.375-12.928,11.748c-5.981,5.987-8.208,9.15-9.032,10.719
		c4.076-1.834,13.5-5.41,25.017-5.41c2.693,0,5.369,0.201,7.951,0.598c5.334,0.819,9.633,1.818,13.422,2.695
		c4.395,1.018,7.865,1.823,10.857,1.823c3.279,0,5.844-0.97,8.58-3.253C201.627,150.242,200.661,134.356,192.303,121.222"/>
	<path fill="#1192CC" d="M28.819,149.368c0,0,10.312-12.291,14.265-34.466c4.277-24.006,9.981-44.21,32.798-58.472
		c24.49-15.305,68.457-18.065,90.087,14.735c21.629,32.803-28.284,74.639-42.31,83.195c-14.023,8.553-72.496,14.496-80.339,12.121
		C35.477,164.106,25.73,157.45,28.819,149.368"/>
	<path fill="#0D4C9C" d="M49.985,168.437c-3.457,0-5.771-0.191-7.08-0.588c-5.238-1.591-12.313-5.396-15.01-10.898
		c-1.307-2.66-1.442-5.382-0.408-8.093l0.086-0.222l0.154-0.186c0.102-0.119,10.12-12.304,13.951-33.801
		c4.07-22.844,9.69-44.582,33.448-59.431c11.362-7.099,26.091-11.173,40.407-11.173c22.095,0,40.427,9.354,51.626,26.336
		c5.283,8.015,6.832,17.134,4.604,27.105c-5.654,25.291-34.891,50.479-47.361,58.09C112.229,163.005,68.247,168.437,49.985,168.437
		 M30.075,150.086c-0.654,1.868-0.527,3.754,0.381,5.606c2.147,4.379,8.215,7.889,13.277,9.426c0.573,0.174,2.148,0.465,6.252,0.465
		c17.523,0,61.356-5.377,72.933-12.44c12.144-7.415,40.604-31.868,46.061-56.275c2.055-9.187,0.641-17.57-4.201-24.917
		c-10.652-16.153-28.142-25.05-49.244-25.05c-13.796,0.001-27.974,3.913-38.894,10.741c-22.796,14.248-28.05,34.476-32.153,57.512
		C40.738,136.187,31.475,148.345,30.075,150.086"/>
	<path fill="#1192CC" d="M167.764,87.028c0,0-13.383,3.449-22.652,26.625c-9.271,23.177-27.395,35.238-56.395,40.943
		c-28.997,5.705-53.478-0.714-59.896-5.229c0,0,6.182-7.369,7.606-12.359c0,0-14.737-8.322-26.384,1.188
		c-11.646,9.508,4.99,31.137,31.849,38.268c26.861,7.129,62.039,1.9,87.236-15.688c25.193-17.587,25.669-27.097,30.185-36.603
		c4.516-9.51,11.5-23.036,18.393-26.125C177.706,98.049,169.309,94.575,167.764,87.028"/>
	<path fill="#0D4C9C" d="M66.775,180.976L66.775,180.976c-8.923,0-17.417-1.053-25.249-3.133
		c-18.221-4.837-33.846-17.223-36.348-28.814c-1.046-4.841,0.325-8.969,3.962-11.936c3.965-3.242,8.668-4.881,13.978-4.881
		c7.627,0,13.752,3.41,14.009,3.555l0.979,0.549l-0.307,1.084c-1.141,3.984-4.977,9.211-6.849,11.598
		c5.113,2.762,17.643,6.424,34.697,6.424c7.632,0,15.301-0.747,22.795-2.224c29.514-5.808,46.58-18.165,55.343-40.072
		c9.484-23.706,24.971-28.662,25.434-28.708l1.283-0.134l0.258,1.265c1.426,6.972,8.352,12.735,8.424,12.794l1.773,1.46l-2.1,0.941
		c-4.189,7.851-12.973,12.611-16.482,20.236c-0.576,1.242-1.162,2.516-1.773,3.805c-0.699,1.473-1.295,2.935-1.926,4.484
		c-3.371,8.268-7.189,17.639-28.733,32.678C112.623,174.037,89.595,180.976,66.775,180.976 M23.118,135.064
		c-4.636,0-8.731,1.424-12.175,4.235c-2.791,2.279-3.791,5.352-2.978,9.127c1.949,9.031,14.629,21.439,34.295,26.66
		c7.591,2.016,15.838,3.035,24.514,3.035c22.252,0,44.68-6.747,61.535-18.515c20.855-14.558,24.503-23.514,27.726-31.417
		c0.646-1.586,1.256-3.083,1.99-4.629c0.607-1.281,1.189-2.544,1.758-3.776c3.375-7.321,10.801-17.321,16.049-20.645
		c-2.148-2.105-5.945-6.372-7.49-11.54c-2.859,1.115-14.945,9.183-21.906,26.583c-9.162,22.903-26.878,35.798-57.442,41.811
		c-7.675,1.51-15.529,2.276-23.347,2.276c-19.554,0-33.227-4.627-37.648-7.736l-1.268-0.896l0.996-1.189
		c0.057-0.064,5.123-6.139,6.944-10.721C32.71,136.827,28.235,135.064,23.118,135.064"/>
	<path fill="#0D4C9C" d="M29.49,151.178c-5.353-1.913-8.887-9.595-9.121-9.835c0.054,0.053,5.355,5.463,10.081,7.152L29.49,151.178z
		"/>
	<path fill="#0D4C9C" d="M181.317,146.255c-3.625,0-8.063-0.617-13.432-2.295l0.852-2.719c17.906,5.596,24.096-1.393,24.158-1.465
		l0.027,0.105C192.708,140.134,190.987,146.255,181.317,146.255"/>
	<path fill="#0D4C9C" d="M80.844,97.924c-6.12,0-11.089-2.286-13.987-6.435c-5.884-8.414-1.043-21.994,10.795-30.272
		c5.704-3.99,12.152-6.188,18.151-6.188c6.12,0,11.086,2.287,13.987,6.431c5.884,8.416,1.042,21.994-10.797,30.275
		C93.289,95.726,86.844,97.924,80.844,97.924 M95.803,60.02c-4.913,0-10.486,1.929-15.291,5.289
		c-9.419,6.586-13.8,17.27-9.566,23.324c1.94,2.77,5.455,4.299,9.898,4.299c4.913,0,10.488-1.924,15.288-5.288
		c9.421-6.587,13.803-17.268,9.568-23.321C103.761,61.548,100.244,60.02,95.803,60.02"/>
	<path fill="#0D4C9C" d="M72.497,146.881h-0.004c-12.722,0-26.031-3.009-26.59-3.136c-0.675-0.155-1.254-0.58-1.601-1.178
		c-0.349-0.598-0.432-1.314-0.232-1.973l9.943-33.068c0.257-0.859,0.952-1.512,1.822-1.713c2.628-0.614,6.644-0.928,11.932-0.928
		c9.081,0,18.835,0.893,19.247,0.932c1.354,0.124,2.359,1.313,2.26,2.668l-2.604,34.856c-0.081,1.065-0.829,1.96-1.862,2.229
		C81.449,146.441,77.305,146.881,72.497,146.881 M49.635,139.419c4.469,0.864,13.949,2.473,22.858,2.473h0.004
		c3.568,0,6.701-0.256,9.332-0.767l2.282-30.542c-3.489-0.265-10.159-0.703-16.344-0.703c-4.001,0-7.157,0.176-9.409,0.527
		L49.635,139.419z"/>
	<path fill="#0D4C9C" d="M102.542,142.701c-0.521,0-1.038-0.165-1.471-0.481c-0.668-0.484-1.05-1.271-1.024-2.1l1.426-43.497
		c0.026-0.783,0.424-1.513,1.065-1.96c0.645-0.454,1.463-0.572,2.208-0.328l34.728,11.396c0.656,0.219,1.193,0.693,1.485,1.318
		c0.292,0.627,0.31,1.346,0.054,1.986c-9.321,23.161-36.479,33.107-37.63,33.515C103.108,142.65,102.824,142.701,102.542,142.701
		 M106.354,100.115l-1.191,36.273c7.029-3.225,22.895-11.872,30.137-26.773L106.354,100.115z"/>
	<path fill="#0D4C9C" d="M132.829,89.432c-0.704,0-1.374-0.301-1.847-0.817L118.801,75.22c-0.662-0.727-0.833-1.772-0.442-2.674
		l5.921-13.625c0.391-0.901,1.273-1.489,2.257-1.502l18.103-0.232c0.697,0.007,1.396,0.289,1.875,0.817l12.184,13.392
		c0.662,0.727,0.834,1.773,0.439,2.675l-5.92,13.625c-0.389,0.899-1.273,1.489-2.256,1.499l-18.1,0.238H132.829z M123.58,73.056
		l10.34,11.366l15.364-0.199l4.635-10.664l-10.336-11.368l-15.369,0.198L123.58,73.056z"/>
	<path fill="#0D4C9C" d="M144.247,175.425c-5.35-7.414-12.768-14.611-12.858-14.674l1.652-2.324
		c0.383,0.268,9.381,6.73,13.77,15.748L144.247,175.425z"/>
	<path fill="#0D4C9C" d="M121.375,204.344c-0.537-9.493-4.985-16.124-10.814-16.124c-1.354,0-2.702,0.371-4.008,1.105
		c-6.866,3.855-4.26,14.081-4.146,14.516l0.186,0.707l0.678,0.262c1.931,0.75,5.887,1.133,11.752,1.133
		c2.778,0,4.899-0.09,4.988-0.096l1.446-0.059L121.375,204.344z"/>
	<path fill="#0D4C9C" d="M148.036,201.724c-0.654-12.1-5.645-16.405-10.094-16.405c-1.894,0-3.818,0.706-5.717,2.104
		c-7.071,5.221-4.538,16.728-4.426,17.216l0.247,1.073l1.104,0.033c0.089,0.002,0.184,0.002,0.277,0.002
		c4.261,0,16.921-2.443,17.457-2.545l1.221-0.235L148.036,201.724z"/>
	<path fill="#00002A" d="M191.85,170.891c-2.529-5.304-7.193-8.87-11.611-8.87c-2.969,0-5.229,1.643-6.199,4.506
		c-2.42,7.145,5.313,12.827,5.641,13.064l0.838,0.606l0.834-0.61c2.17-1.576,9.932-6.854,10.012-6.906l1.012-0.684L191.85,170.891z"
		/>
	<path fill="#F6901E" d="M174.307,172.899c0,0-13.963-7.337-30.881-4.203c0,0-5.819-7.612-7.965-8.416c0,0,9.579-3.578,20.139-3.044
		c10.563,0.538,20.586,3.761,24.346,4.385c3.762,0.63,5.766,0.84,5.766,0.84l2.381,3.638c0,0-6.625-2.773-8.953-1.522
		C176.813,165.831,174.307,172.899,174.307,172.899"/>
	<path fill="#F6901E" d="M139.942,170.047c0,0-7.289,1.108-12.043,3.483c-4.756,2.378-12.41,5.833-20.727,7.494
		c-8.319,1.664-11.318,2.313-11.318,2.313s-0.718-4.986-0.479-6.057c0,0,15.026-4.769,21.683-8.214
		c6.655-3.442,14.088-7.694,15.159-7.694C132.217,161.372,138.991,167.669,139.942,170.047"/>
	<path fill="#0D4C9C" d="M191.85,170.891c-2.529-5.304-7.193-8.87-11.611-8.87c-2.969,0-5.229,1.643-6.199,4.506
		c-2.42,7.145,5.313,12.827,5.641,13.064l0.838,0.606l0.834-0.61c2.17-1.576,9.932-6.854,10.012-6.906l1.012-0.684L191.85,170.891z"
		/>
	<path fill="#FFC10E" d="M178.903,97.983c0,0-17.742-9.142-10.484-34.145c0,0-5.105-18.551,8.066-33.339
		c13.172-14.79,57-32.534,80.387-28.229c23.393,4.3,31.729,42.477,13.98,80.121c0,0-6.719,4.57-18.281,4.301
		c0,0-2.418,18.281-18.283,20.699c-15.863,2.422-30.111-5.241-30.111-5.241s-6.988,27.289-32.533,40.998
		c0,0-10.213-2.687-14.248-7.254c0,0,1.078-10.218,3.766-15.058C163.846,115.995,173.528,109.274,178.903,97.983"/>
	<path fill="#0D4C9C" d="M187.776,55.368c0,0,9.412,7.125,22.721,7.529c0,0,11.693-4.839,9.943-18.82
		c-1.744-13.98-20.297-16.537-26.748-10.352c-10.844,10.393-2.824,21.91-2.688,22.317L187.776,55.368z"/>
	<path fill="#0D4C9C" d="M210.571,63.301l-0.09-0.001c-13.281-0.402-22.854-7.539-22.949-7.611l-1.43-1.081l4.117,0.856
		c-2.264-4.135-5.701-13.506,3.193-22.03c2.176-2.085,5.748-3.284,9.799-3.284c7.656,0,16.439,4.342,17.631,13.876
		c1.764,14.12-10.072,19.191-10.191,19.241L210.571,63.301z M189.754,56.192c3.285,2.01,10.957,5.983,20.664,6.298
		c1.086-0.474,11.256-5.304,9.625-18.362c-1.131-9.05-9.518-13.172-16.832-13.172c-3.844,0-7.213,1.116-9.242,3.06
		c-8.879,8.512-4.889,17.919-2.76,21.569c0.113,0.195,0.152,0.26,0.176,0.33l0.223,0.666L189.754,56.192z"/>
	<path fill="#FFFFFF" d="M193.422,56.443c0,0-6.857-8.602-1.344-17.476c5.512-8.871,18.012-7.665,24.197-1.077
		c6.186,6.589,1.883,19.628-6.588,23.391C209.688,61.282,199.069,61.821,193.422,56.443"/>
	<path fill="#0D4C9C" d="M208.875,61.702c-2.465,0-10.895-0.358-15.732-4.965c-0.107-0.13-7.004-8.972-1.406-17.98
		c2.576-4.149,6.994-6.526,12.127-6.526c4.789,0,9.539,2.012,12.705,5.386c2.631,2.799,3.613,7.004,2.699,11.533
		c-1.123,5.551-4.818,10.459-9.416,12.502l-0.143,0.034C209.709,61.685,209.407,61.702,208.875,61.702 M203.864,33.036
		c-4.918,0-8.982,2.182-11.439,6.144c-5.305,8.534,1.246,16.928,1.313,17.012c4.586,4.361,12.748,4.703,15.139,4.703
		c0.354,0,0.602-0.009,0.719-0.011c4.334-1.959,7.816-6.62,8.881-11.895c0.865-4.268-0.045-8.211-2.492-10.821
		C212.963,34.955,208.434,33.036,203.864,33.036"/>
	<path fill="#0D4C9C" d="M253.952,31.399c-1.83,0-3.262-2.482-3.262-5.65c0-3.167,1.432-5.647,3.262-5.647s3.264,2.48,3.264,5.646
		C257.215,28.917,255.782,31.399,253.952,31.399 M253.952,20.909c-1.332,0-2.459,2.216-2.459,4.841s1.127,4.842,2.459,4.842
		s2.457-2.218,2.457-4.843C256.409,23.125,255.284,20.909,253.952,20.909"/>
	<path fill="#0D4C9C" d="M204.122,39.292c-4.781,0-8.672,3.918-8.672,8.737c0,4.819,3.891,8.738,8.672,8.738s8.67-3.918,8.67-8.738
		C212.792,43.21,208.903,39.292,204.122,39.292"/>
	<path fill="#FFFFFF" d="M212.762,44.787c0,1.931-1.564,3.498-3.494,3.498c-1.932,0-3.498-1.566-3.498-3.498
		c0-1.928,1.566-3.493,3.498-3.493C211.198,41.294,212.762,42.859,212.762,44.787"/>
	<path fill="#FFFFFF" d="M208.258,48.689c0,1.152-0.932,2.084-2.084,2.084s-2.084-0.932-2.084-2.084
		c0-1.151,0.932-2.085,2.084-2.085S208.258,47.538,208.258,48.689"/>
	<path fill="#0D4C9C" d="M169.659,65.703l-3.133-0.778c1.754-7.065,7.441-7.35,8.486-8.114l-0.006,0.171
		c-0.014,0.009,0.105-0.147,0,0l0.006-0.171c-0.182,0.245-0.377,0.39-0.605,0.558C172.233,58.962,170.633,61.767,169.659,65.703"/>
	<path fill="#F6901E" d="M233.29,5.305c0,0-24.074,6.492-41.855,18.577c-17.777,12.087-19.475,26.74-16.428,33.099
		c0,0-2.25,1.266-3.447,1.864c-1.199,0.598-2.799,1.498-2.799,1.498s-2.598-15.182,5.795-27.37
		c8.391-12.187,22.773-15.485,28.465-18.68C208.715,11.096,230.592,5.705,233.29,5.305"/>
	<path fill="#F6901E" d="M250.153,85.614c0,0-34.281-0.604-44.365-6.048c-10.078-5.443-5.707-6.717-5.707-6.717
		s-3.971-0.138-5.178,3.489c-1.211,3.631-0.551,6.914-0.551,6.914s3.254-0.052,8.971,1.458c5.719,1.511,29.346,3.671,33.877,10.034
		c4.533,6.366-0.213,10.681-3.666,11.654c-3.453,0.968-26.865-4.532-28.807-5.181c-1.941-0.646-1.6-1.458-1.6-1.458l-5.521-1.991
		c0,0-4.639,21.25-17.479,29.448c-12.84,8.205-7.553-6.578-2.266-13.916c5.285-7.334,11.895-14.985,11.895-14.985
		s-3.047,0.529-5.205,0.637s-5.396,0.431-5.396,0.431s-8.416,11.22-10.895,13.701c-2.482,2.483-5.721,6.149-7.338,9.709
		c-1.619,3.562-2.48,11.007-2.586,12.3c-0.107,1.295,5.285,4.749,6.146,5.397c0.863,0.644,5.826,1.938,6.15,1.938
		s4.748-3.018,5.504-3.667c0.752-0.646,11.541-7.553,14.564-11.761c3.02-4.208,7.768-13.053,9.172-15.967
		c1.4-2.91,3.449-7.336,4.314-7.767c0.863-0.433,4.422,0.108,5.932,0.863c1.51,0.756,15.971,5.287,21.9,3.67
		c5.934-1.618,11.654-3.994,13.49-6.369c1.834-2.371,3.232-5.499,4.207-7.547c0.969-2.054,2.479-6.909,2.373-7.337
		C251.983,86.113,250.153,85.614,250.153,85.614"/>
	<path fill="#F6901E" d="M250.325,20.327c-0.303,0.288,3.654,0.508,4.619,3.589c0.965,3.078-0.166,7.902-0.166,7.902
		s2.365,0.417,3.963-1.407c0.729-0.831,2.336-4.345,0.516-7.676C257.43,19.406,253.692,17.127,250.325,20.327"/>
	<g opacity="0.17">
		<g>
			<defs>
				<rect id="SVGID_1_" x="184.042" y="22.66" width="42.615" height="40.469"/>
			</defs>
			<clipPath id="SVGID_2_">
				<use xlink:href="#SVGID_1_"  overflow="visible"/>
			</clipPath>
			<path clip-path="url(#SVGID_2_)" fill="#8F0508" d="M186.102,54.608c0,0-6.248-15.958,3.018-25.455
				c9.27-9.494,23.975-7.627,32.455-0.504c8.477,7.122,7.232,29.279-10.514,34.479l-1.373-1.847c0,0,8.381-6.178,8.154-15.11
				c-0.227-8.933-10.289-13.002-18.199-10.515c-7.916,2.487-10.289,13.001-6.787,19.105c0,0-0.994,1.424-1.852,1.279
				C190.145,55.894,186.102,54.608,186.102,54.608"/>
		</g>
	</g>
	<path fill="#0D4C9C" d="M171.848,144.875l-0.615-0.165c-0.438-0.113-10.742-2.871-15.049-7.748l-0.467-0.537l0.072-0.699
		c0.047-0.434,1.143-10.605,3.959-15.672c1.107-1.995,3.193-4.176,5.607-6.699c3.688-3.854,8.221-8.588,11.453-14.79
		c-4.16-2.871-16.105-13.268-10.063-34.753c-0.73-3.067-4.072-20.237,8.533-34.385C187.081,16.182,223.417,0,248.997,0
		c2.963,0,5.709,0.23,8.17,0.682c8.178,1.504,14.846,6.864,19.279,15.504c8.68,16.903,7.055,43.159-4.133,66.89l-0.186,0.398
		l-0.363,0.249c-0.275,0.185-6.75,4.5-17.859,4.594c-0.996,4.525-5.205,18.51-19.373,20.67c-2.135,0.326-4.355,0.493-6.609,0.493
		c-10.365,0-19.117-3.405-22.738-5.05c-2.102,6.534-10.516,28.193-32.775,40.14L171.848,144.875z M159.086,135.327
		c3.072,2.971,9.412,5.246,12.359,6.095c24.135-13.298,31.1-39.408,31.168-39.676l0.514-1.987l1.813,0.972
		c0.104,0.053,10.449,5.522,22.982,5.52c2.088,0,4.148-0.15,6.123-0.451c14.453-2.207,16.836-18.624,16.928-19.321l0.191-1.434
		l1.445,0.033c0.316,0.006,0.631,0.012,0.938,0.012h0.004c8.873,0,14.613-2.985,16.045-3.82
		c10.594-22.746,12.164-47.664,3.979-63.61c-3.959-7.714-9.834-12.488-16.992-13.805c-2.266-0.417-4.818-0.629-7.586-0.629
		c-24.369,0-60.18,15.852-71.309,28.345c-12.445,13.973-7.764,31.662-7.715,31.838l0.121,0.44l-0.125,0.438
		c-6.809,23.456,9.508,32.174,9.672,32.262l1.391,0.712l-0.672,1.416c-3.475,7.298-8.572,12.627-12.67,16.906
		c-2.26,2.367-4.215,4.405-5.119,6.039C160.469,125.402,159.385,132.95,159.086,135.327"/>
	<path fill="#0D4C9C" d="M196.385,75.973c1.172-1.707,2.623-2.638,3.695-3.125l0.184-0.085c-7.918-0.323-9.127,5.054-5.912,10.488
		c0.025-1.7,0.262-3.138,0.639-4.356c15.063,8.863,37.045,8.896,49.209,8.896c6.588,0,10.484-0.5,10.99-0.558l7.176-3.03
		C262.024,84.244,218.723,89.353,196.385,75.973"/>
	<path fill="#0D4C9C" d="M189.756,98.315c-0.328,0.021-7.941,3.693-12.25,0.675l1.85-2.642
		C182.163,98.315,187.817,98.435,189.756,98.315"/>
	<path fill="#FFF580" d="M238.715,4.059c0,0,21.758-5.398,31.205,7.759c9.445,13.158,13.861,36.678-0.324,69.453
		c0,0-4.906,6.792-41.678,3.081c0,0,25.639,0.673,35.762-2.699c0,0,15.52-32.724,8.436-56.678
		C265.028,1.022,245.629,3.552,238.715,4.059"/>
	<path fill="#FFF580" d="M250.75,87.784c0,0-2.195,13.285-13.072,16.947c-10.883,3.66-27.363,0.201-34.551-4.972
		c0,0,13.211,6.646,27.646,4.238c14.436-2.406,17.678-12.239,17.883-16.213H250.75z"/>
	<path fill="#FFF580" d="M200.288,72.652c0,0-5.35-0.179-6.744,2.714c-1.707,3.548-0.162,6.125,0.721,7.766
		c0,0-3.246-1.973-3.234-6.145C191.042,72.346,196.321,71.102,200.288,72.652"/>
	<path fill="#FFC10E" d="M106.667,61.516c-2.536-3.626-6.878-5.624-12.228-5.624c-5.246,0-10.884,1.922-15.872,5.409
		C68.22,68.541,63.983,80.417,69.13,87.77c2.535,3.626,6.879,5.625,12.229,5.625c5.245,0,10.883-1.92,15.869-5.408
		C107.58,80.748,111.813,68.873,106.667,61.516"/>
	<path fill="#FFC10E" d="M83.972,105.159c-0.369-0.035-9.175-0.836-17.371-0.836c-4.774,0-8.396,0.279-10.771,0.833
		c-0.787,0.183-1.413,0.772-1.645,1.544l-8.976,29.85c-0.181,0.6-0.104,1.242,0.209,1.783c0.314,0.539,0.837,0.926,1.444,1.062
		c0.507,0.118,12.519,2.833,24.002,2.837h0.003c4.341,0,8.079-0.4,11.112-1.188c0.934-0.242,1.609-1.052,1.679-2.012l2.353-31.463
		C86.103,106.347,85.196,105.272,83.972,105.159"/>
	<path fill="#FFC10E" d="M135.044,108.53c-0.253-0.539-0.71-0.945-1.274-1.131l-29.779-9.776c-0.639-0.209-1.34-0.105-1.892,0.281
		c-0.551,0.384-0.89,1.009-0.914,1.682l-1.224,37.301c-0.021,0.708,0.306,1.379,0.88,1.798c0.37,0.269,0.813,0.412,1.262,0.412
		c0.24,0,0.484-0.04,0.719-0.125c0.988-0.352,24.274-8.882,32.267-28.741C135.308,109.682,135.294,109.065,135.044,108.53"/>
	<path fill="#FFC10E" d="M154.28,69.918l-10.42-11.459c-0.412-0.452-1.012-0.692-1.609-0.697l-15.489,0.198
		c-0.84,0.012-1.596,0.516-1.931,1.287l-5.065,11.655c-0.334,0.773-0.187,1.667,0.378,2.291l10.424,11.459
		c0.404,0.439,0.978,0.698,1.582,0.698h0.026l15.487-0.202c0.84-0.01,1.598-0.514,1.932-1.285l5.064-11.657
		C154.993,71.436,154.846,70.542,154.28,69.918"/>
	<g opacity="0.5">
		<g>
			<defs>
				<rect id="SVGID_3_" x="9.397" y="46.749" width="189.439" height="132.074"/>
			</defs>
			<clipPath id="SVGID_4_">
				<use xlink:href="#SVGID_3_"  overflow="visible"/>
			</clipPath>
			<path clip-path="url(#SVGID_4_)" fill="#0D4C9C" d="M9.397,140.849c0,0,3.877-3.596,6.905-3.03
				c3.024,0.569,4.824,5.013,7.093,7.849c2.27,2.838,14.946,8.517,22.891,10.121c7.946,1.611,47.84,2.967,67.627-8.8
				c19.788-11.765,25.492-19.431,29.593-28.521c4.102-9.096,9.27-18.361,13.906-19.431c4.635-1.07,6.061,3.742,2.137,12.833
				c-3.922,9.094-5.881,16.581-11.051,24.066c-5.17,7.488-27.988,29.414-54.373,34.941c-26.385,5.526-53.48,7.127-72.913-5.527
				c0,0,14.44,11.77,36.546,13.193s45.637-2.672,59.721-10.875c14.084-8.201,15.331-7.132,21.568-9.446
				c6.242-2.32,13.552-1.606,15.156-1.961c1.604-0.359,6.063-0.179,6.063-0.179s-8.023-2.674-8.736-5.883
				c-0.715-3.212,4.098-8.918,11.408-8.203s13.549,3.387,18.719,2.676c5.17-0.713,10.586-2.988,11.266-4.791
				c0,0-3.602,0.157-2.887-3.945c0.711-4.102,6.238-4.276,8.021-2.315c1.781,1.96,0-3.747-0.354-4.811
				c-0.359-1.073-4.5-7.681-4.5-7.681s-3.525,5.004-7.447,9.281c-3.92,4.279-12.66,11.768-14.619,11.768s-7.129-0.36-9.98-2.14
				c-2.854-1.786-4.814-4.815-4.814-4.815s4.99-13.015,6.418-16.22c1.426-3.213,14.01-20.955,14.01-20.955
				s-8.588-8.225-9.729-10.954c-1.137-2.729-1.15-4.103-1.15-4.103s-0.43-6.032-0.072-7.638c0.355-1.604,0.15-4.189,0.15-4.189
				s-10.695-18.836-31.198-22.578c-20.5-3.748-37.079-1.25-46.884,2.851c0,0,32.8-7.666,46.351,18.896
				c13.547,26.564,3.807,64.072-33.267,75.603c-32.493,10.105-60.505,6.578-64.427-6.969c0,0-2.495-5.168-12.123-5.168
				C14.796,133.8,11.662,136.308,9.397,140.849"/>
		</g>
	</g>
	<path fill="#0D4C9C" d="M252.104,18.412c-2.943,1.03-4.242,5.017-2.889,8.89c1.352,3.875,4.85,6.187,7.795,5.16
		c2.943-1.028,4.238-5.015,2.885-8.89C258.542,19.698,255.047,17.385,252.104,18.412 M256.706,31.592
		c-0.561,0.196-1.15,0.233-1.732,0.146c1.609-0.695,2.061-3.64,0.992-6.699c-1.096-3.13-3.363-5.185-5.072-4.589
		c-0.059,0.021-0.113,0.051-0.17,0.078c0.445-0.571,1.008-1.009,1.684-1.244c2.463-0.861,5.436,1.201,6.619,4.593
		C260.211,27.271,259.17,30.731,256.706,31.592"/>
	<path fill="#FFC10E" d="M175.338,179.514c0,0,12.035-5.216,15.863-9.532c0,0-2.279-4.956-5.49-7.521l-3.346-0.409
		c0,0,5.008,4.664,5.982,7.236c0,0-9.182,5.217-13.428,6.818C170.678,177.706,175.338,179.514,175.338,179.514"/>
	<path fill="#F6901E" d="M275.497,16.317c-1.295-2.448-3.408-3.63-4.699-2.631c-0.352,0.273-0.607,0.688-0.766,1.188
		c0.029-0.029,0.057-0.06,0.088-0.083c0.893-0.693,2.594,0.581,3.789,2.838c1.172,2.207,1.43,4.537,0.613,5.291
		c0.357-0.012,0.695-0.121,0.988-0.349C276.805,21.572,276.797,18.769,275.497,16.317"/>
	<path fill="#0D4C9C" d="M275.952,15.966c-1.482-2.797-3.947-4.101-5.486-2.908c-1.543,1.193-1.596,4.439-0.111,7.234
		c1.482,2.798,3.947,4.101,5.488,2.908C277.389,22.007,277.438,18.76,275.952,15.966 M275.51,22.571
		c-0.293,0.228-0.631,0.336-0.988,0.349c0.816-0.754,0.559-3.083-0.613-5.291c-1.195-2.257-2.896-3.531-3.789-2.838
		c-0.031,0.023-0.059,0.054-0.088,0.083c0.158-0.5,0.414-0.914,0.766-1.187c1.291-1,3.404,0.182,4.699,2.63
		C276.797,18.769,276.805,21.572,275.51,22.571"/>
</g>
</svg>
