<?xml version="1.0" encoding="utf-8"?>
<!-- Generator: Adobe Illustrator 16.0.0, SVG Export Plug-In . SVG Version: 6.00 Build 0)  -->
<!DOCTYPE svg PUBLIC "-//W3C//DTD SVG 1.1//EN" "http://www.w3.org/Graphics/SVG/1.1/DTD/svg11.dtd">
<svg version="1.1" id="Layer_1" xmlns="http://www.w3.org/2000/svg" xmlns:xlink="http://www.w3.org/1999/xlink" x="0px" y="0px"
	 width="2000px" height="2000px" viewBox="0 0 2000 2000" enable-background="new 0 0 2000 2000" xml:space="preserve">
<g>
	<path fill="none" d="M777.32,720.494c-16.764-23.939-45.438-37.104-80.747-37.104c-34.627,0-71.839,12.666-104.808,35.676
		c-68.326,47.817-96.267,126.234-62.298,174.781c16.739,23.939,45.436,37.141,80.747,37.141c34.625,0,71.814-12.664,104.782-35.737
		C783.324,847.459,811.313,769.079,777.32,720.494z"/>
	<path fill="none" d="M627.491,1008.685c-2.489-0.245-60.614-5.563-114.739-5.563c-31.504,0-55.418,1.842-71.084,5.49
		c-5.223,1.231-9.347,5.124-10.884,10.213l-59.249,197.096c-1.219,3.917-0.683,8.211,1.392,11.774
		c2.074,3.538,5.515,6.102,9.541,7.004c3.344,0.756,82.651,18.691,158.468,18.691l0,0c28.674,0,53.344-2.611,73.378-7.821
		c6.149-1.622,10.64-6.917,11.103-13.262l15.497-207.737C641.547,1016.469,635.543,1009.416,627.491,1008.685z"/>
	<path fill="none" d="M1279.348,1386.432c-5.417-1.514-10.883-2.343-16.251-2.343c-19.62,0-34.529,10.834-40.947,29.746
		c-8.077,23.816,0.951,45.144,12.177,60.688c29.843-12.666,82.309-42.497,82.309-42.497
		C1311.193,1417.69,1286.84,1393.618,1279.348,1386.432z"/>
	<path fill="none" d="M1257.508,973.387c-7.881,10.75-52.196,72.486-72.328,96.938c1.44-1.573,2.635-2.953,3.465-3.782
		C1202.92,1051.828,1248.576,985.526,1257.508,973.387z"/>
	<path fill="none" d="M956.262,1023.423l-196.608-64.519c-4.222-1.392-8.882-0.708-12.494,1.854
		c-3.66,2.537-5.88,6.661-6.027,11.103l-8.076,246.268c-0.171,4.685,2,9.126,5.782,11.883c2.466,1.782,5.369,2.734,8.321,2.734
		c1.611,0,3.222-0.306,4.759-0.866c6.54-2.319,160.274-58.627,213.081-189.728c1.415-3.648,1.317-7.699-0.343-11.263
		C963.022,1027.376,959.972,1024.644,956.262,1023.423z"/>
	<path fill="none" d="M1213.535,1248.473c8.369-4.307,16.398-8.492,18.448-10.285c3.979-3.539,59.004-42.387,89.264-71.474
		c-27.648,26.281-74.062,57.138-78.015,60.603C1239.598,1230.525,1222.662,1242.652,1213.535,1248.473z"/>
	<path fill="none" d="M1331.74,1155.781c-0.977,1.146-2.051,2.342-3.173,3.514
		C1329.689,1158.123,1330.764,1156.928,1331.74,1155.781z"/>
	<path fill="none" d="M1336.718,1149.51c-1.049,1.537-2.343,3.123-3.709,4.759
		C1334.424,1152.608,1335.669,1151.047,1336.718,1149.51z"/>
	<path fill="none" d="M1022.881,700.313c-2.732-3.002-6.663-4.576-10.616-4.612l-102.269,1.318
		c-5.564,0.085-10.542,3.417-12.763,8.504l-33.431,76.939c-2.197,5.125-1.221,10.994,2.488,15.118l68.814,75.684
		c2.685,2.904,6.491,4.599,10.444,4.599c0.073,0,0.098,0,0.17,0l102.271-1.342c5.539-0.048,10.542-3.367,12.739-8.467l33.431-76.965
		c2.221-5.1,1.269-11.017-2.489-15.117L1022.881,700.313z"/>
	<path fill="none" d="M1326.176,1161.809c-1.439,1.488-2.904,2.953-4.489,4.44
		C1323.248,1164.762,1324.761,1163.248,1326.176,1161.809z"/>
	<path fill="#FFFFFF" d="M266.412,1458.588c-42.535,41.79-89.46,63.593-139.631,64.861c28.917,13.629,70.839,28.674,114.666,28.674
		l0,0c13.935,0,27.429-1.551,40.117-4.54c7.76-1.854,14.593-4.197,20.449-7.003c3.368-17.68,9.078-36.604,18.302-55.82
		c-1.22-1.988-2.66-3.855-4.173-5.71C298.987,1473.133,282.37,1466.251,266.412,1458.588z"/>
	<path fill="#FFFFFF" d="M1099.382,1600.805c5.052,18.156,7.735,30.502,8.076,32.016l1.807,8.613l-8.468,2.417
		c-43.802,12.42-90.41,21.035-139.239,25.769c-13.714,1.903-26.037,3.196-33.968,3.196c-0.635,0-1.27,0-1.854-0.048l-4.807-0.171
		c-17.253,0.951-34.7,1.512-52.392,1.512c0,0,0,0-0.049,0c-6.59,0-12.958-0.072-19.181-0.194
		c-4.881,0.072-10.542,0.122-16.838,0.122c-35.604,0-60.396-2.099-74.109-6.345c-7.004-0.879-11.079-1.513-11.616-1.635
		l-3.488-0.562l-2.221-2.708c-16.154-19.474-27.525-46.315-35.531-73.427c-36.017,0.122-71.18,0.512-105.197,1.146
		c0.488,4.344,0.951,8.468,1.366,12.153c3.44,30.479,5.174,45.753-10.541,50.269l-1.537,0.415
		c-46.023,13.688-96.023,21.205-140.802,21.205c-54.515,0-101.928-10.713-140.924-31.845l-3.562-1.929l-1.073-3.904
		c-0.343-1.415-3.344-13.104-4.759-31.284c-86.335,8.249-138.751,19.035-138.751,30.797c0,26.013,254.368,47.096,568.133,47.096
		c313.739,0,568.084-21.083,568.084-47.096C1295.941,1622.156,1219.733,1609.418,1099.382,1600.805z"/>
	<path fill="#FFFFFF" d="M584.202,1635.334l0.756-0.219c0.951-4.197-0.489-16.96-2.001-30.37c-1.123-9.858-2.514-22.169-3.807-36.98
		c-2.196-25.854-3.026-46.463-3.295-61.153c-20.57,1.66-41.24,2.588-61.908,2.588c-0.024,0,0,0-0.024,0
		c-58.906,0-114.983-6.955-166.691-20.669c-2.197-0.562-4.368-1.221-6.564-1.806c-32.552,62.688-23.28,125.403-20.058,141.411
		c4.391,2.293,8.906,4.392,13.566,6.418c-1.635-17.558,0.586-44.718,13.471-61.152c9.419-11.945,23.182-16.228,38.678-11.737
		c39.36,11.298,34.676,71.132,31.649,92.729c9.784,0.806,19.814,1.318,30.136,1.318c-3.245-29.504,4.931-63.568,20.474-82.677
		c12.885-15.665,30.356-20.875,48.415-14.25c22.963,8.419,36.969,30.917,39.58,63.397c0.365,4.783,0.806,12.859,0.171,20.376
		C566.021,1640.361,575.222,1637.97,584.202,1635.334z"/>
	<path fill="#FFFFFF" d="M1300.115,1387.749c-0.221-0.244-0.465-0.487-0.709-0.77c-0.049,0-0.146,0-0.219,0l-22.109-2.696
		c0,0,0.537,0.465,1.27,1.196c-16.277-2.074-34.139-6.174-55.101-10.981c-24.694-5.783-52.708-12.286-87.213-17.568
		c-16.082-2.466-32.796-3.771-49.634-3.771c-46.828,0-88.678,9.725-119.181,19.607c17.423,14.679,45.582,41.374,65.935,74.952
		c25.378,4.331,107.174,22.035,142.753,75.048c10.493-4.051,31.234-12.42,54.685-23.23c0.025,0,0.122,0.049,0.122,0.049
		s79.454-34.456,104.761-62.957C1335.475,1436.627,1320.832,1404.879,1300.115,1387.749z M1234.326,1474.523
		c-11.226-15.545-20.254-36.872-12.177-60.688c6.418-18.912,21.327-29.746,40.947-29.746c5.368,0,10.834,0.829,16.251,2.343
		c7.492,7.187,31.846,31.259,37.287,45.595C1316.635,1432.026,1264.169,1461.857,1234.326,1474.523z"/>
	<path fill="#FFFFFF" d="M945.453,1380.489c-16.911,6.552-27.43,11.944-29.186,12.896c-61.957,40.581-133.848,71.62-210.104,91.265
		c1.44,19.253,9.297,102.318,39.507,152.123c-1.487-22.768,1.904-56.148,30.895-72.425c8.613-4.856,17.521-7.272,26.452-7.272
		c36.75,0,65.105,39.958,70.718,98.122c13.859-0.074,27.574-0.489,41.143-1.123c-3.075-23.109-5.296-75.33,31.161-102.245
		c12.543-9.273,25.28-13.935,37.726-13.935c28.234,0,59.663,26.33,65.959,99.098c12.641-2.708,25.086-5.588,37.312-8.857
		c-6.833-27.978-30.723-117.059-69.913-166.351l-14.42-18.131l0.316,0.024C979.493,1415.08,955.506,1390.481,945.453,1380.489z"/>
	<path fill="#FFFFFF" d="M1241.012,1259.026c76.941,10.177,105.271-21.401,105.614-21.814l0.194,0.684
		c-1.439,1.684-12.786,42.093-76.647,42.093c-23.914,0-52.66-5.857-88.116-16.947l0,0c-23.134-8.065-59.054-23.17-77.818-44.425
		l-3.1-3.538l0.463-4.344c-19.498,37.983-51.707,81.968-125.256,139.435c29.99-8.541,67.862-15.812,110.055-15.812
		c17.788,0,35.456,1.365,52.488,3.953c35.236,5.393,63.592,12.018,88.629,17.789c29.015,6.746,51.928,12.029,71.67,12.029
		c21.645,0,38.58-6.393,56.686-21.449c42.484-35.456,42.509-120.522,4.638-199.464
		C1331.544,1186.528,1292.623,1226.67,1241.012,1259.026z"/>
	<path fill="#FFFFFF" d="M1160.826,789.162c-70.376-106.517-185.774-165.167-324.964-165.167c-91.118,0-184.677,25.829-256.786,70.9
		c-150.513,94.095-185.212,227.649-212.323,379.711c-10.078,56.553-26.183,103.184-42.362,139.629l0.244,0.135l-2.025,7.149
		c-7.516,26.293-32.869,60.786-45.217,76.562c33.771,18.241,116.472,42.411,229.063,42.411c50.438,0,101.05-4.917,150.537-14.652
		c194.853-38.36,307.541-119.962,365.398-264.606c46.61-116.436,115.033-164.313,148.366-181.345
		C1162.363,855.707,1157.482,825.643,1160.826,789.162z M625.416,1232.307c-0.463,6.345-4.953,11.64-11.103,13.262
		c-20.034,5.21-44.704,7.821-73.378,7.821l0,0c-75.816,0-155.124-17.936-158.468-18.691c-4.026-0.902-7.467-3.466-9.541-7.004
		c-2.074-3.563-2.61-7.857-1.392-11.774l59.249-197.096c1.537-5.089,5.661-8.981,10.884-10.213c15.666-3.648,39.58-5.49,71.084-5.49
		c54.125,0,112.25,5.318,114.739,5.563c8.052,0.731,14.056,7.784,13.422,15.885L625.416,1232.307z M610.215,930.987
		c-35.312,0-64.008-13.201-80.747-37.141c-33.969-48.547-6.028-126.963,62.298-174.781c32.969-23.01,70.181-35.676,104.808-35.676
		c35.31,0,63.983,13.165,80.747,37.104c33.992,48.585,6.004,126.965-62.323,174.756C682.029,918.323,644.84,930.987,610.215,930.987
		z M964.999,1042.152c-52.807,131.101-206.541,187.408-213.081,189.728c-1.537,0.561-3.147,0.866-4.759,0.866
		c-2.952,0-5.855-0.952-8.321-2.734c-3.782-2.757-5.953-7.198-5.782-11.883l8.076-246.268c0.147-4.441,2.367-8.565,6.027-11.103
		c3.612-2.563,8.272-3.246,12.494-1.854l196.608,64.519c3.71,1.221,6.761,3.953,8.395,7.467
		C966.316,1034.453,966.414,1038.504,964.999,1042.152z M1094.16,791.089l-33.431,76.965c-2.197,5.1-7.2,8.419-12.739,8.467
		l-102.271,1.342c-0.072,0-0.097,0-0.17,0c-3.953,0-7.76-1.694-10.444-4.599l-68.814-75.684c-3.709-4.125-4.686-9.994-2.488-15.118
		l33.431-76.939c2.221-5.088,7.198-8.419,12.763-8.504l102.269-1.318c3.953,0.037,7.884,1.61,10.616,4.612l68.79,75.659
		C1095.429,780.072,1096.381,785.989,1094.16,791.089z"/>
	<path fill="#FFFFFF" d="M1191.549,921.85c-4.929-7.334-9.811-15.898-14.227-25.586c-26.842,14.739-95.9,68.069-137.409,171.986
		c-60.518,151.196-177.478,236.336-379.309,276.063c-50.635,9.956-102.489,15.03-154.148,15.03
		c-129.113,0-219.376-30.563-248.537-51.097l-8.395-5.919l0.073-0.085c-25.012-19.351-40.801-53.417-42.094-54.673
		c0.342,0.268,26.207,26.635,53.271,41.129c9.662-12.188,31.867-41.507,41.166-65.006c-12.935-5.955-42.461-17.595-76.282-17.595
		c-30.601,0-57.613,9.419-80.332,27.966c-18.448,15.044-25.062,35.31-19.692,60.297c12.885,59.59,96.608,141.533,226.453,175.989
		c50.097,13.299,104.588,20.059,161.835,20.059c146.901,0,294.975-44.596,406.298-122.28
		c137.678-96.107,161.762-155.197,183.04-207.419c4.271-10.493,8.298-20.327,13.129-30.576c4.027-8.418,7.882-16.764,11.641-24.914
		c22.254-48.365,71.304-114.361,105.93-136.323c-3.222-3.185-7.052-7.088-11.127-11.689
		C1212.95,948.631,1201.798,937.039,1191.549,921.85z"/>
	<path fill="#FFFFFF" d="M1146.405,1117.335c-17.862,29.711-25.11,55.296-29.552,87.616c20.255,19.645,68.693,37.53,88.141,43.119
		c1.807-0.977,3.466-2.025,5.248-3.001l-28.283-171.646C1169.391,1086.65,1151.968,1108.099,1146.405,1117.335z"/>
	<path fill="#FFFFFF" d="M1892.943,644.408c-4.759,65.568-21.061,134.541-48.17,200.341c0,0-46.902,18.156-125.258,26.477
		c46.682-2.466,77.819-6.601,78.551-6.686l-2.758,1.195c30.016-5.783,47.219-10.822,47.219-10.822
		c27.088-65.777,50.27-143.376,55.027-208.944c4.954-53.233-2.781-105.479-14.251-149.964
		C1894.773,540.49,1897.872,591.15,1892.943,644.408z"/>
	<path fill="#2E429B" d="M1410.144,836.989v0.099c5.101,1.977,10.273,3.807,15.569,5.576L1410.144,836.989z"/>
	<path fill="#2E429B" d="M1227.591,695.347c0,0.061,0.024,0.11,0.073,0.146c0.098-0.11,0.195-0.257,0.316-0.426
		C1227.859,695.165,1227.689,695.262,1227.591,695.347z"/>
	<path fill="#2E429B" d="M1227.98,696.189C1228.664,695.25,1227.908,696.263,1227.98,696.189L1227.98,696.189z"/>
	<path fill="#FFFFFF" d="M1213.535,1248.473c9.127-5.82,26.063-17.947,29.697-21.156c3.953-3.465,50.366-34.321,78.015-60.603
		c0.146-0.16,0.292-0.293,0.439-0.465c1.585-1.487,3.05-2.952,4.489-4.44c0.83-0.854,1.586-1.659,2.392-2.514
		c1.122-1.172,2.196-2.367,3.173-3.514c0.439-0.513,0.878-0.976,1.269-1.513c1.366-1.636,2.466-3.355,3.709-4.759
		c37.312-41.898,46.291-74.098,58.028-104.637c7.54-19.596,13.666-53.807,15.618-59.798l2.392-25.146l-0.88-0.05l0.146-0.598
		l19.499,14.775c23.621,17.96,45.729,30.821,66.104,39.801c-4.344-1.537-7.027-2.868-7.027-2.868
		c69.644,43.059,144.583,22.927,183.847-13.811c27.33-25.586,25.5-56.309,21.864-72.657c-0.83-4.454-8.664-18.449-9.736-21.743
		l-0.537,0.122c-0.366,26.843,2.489,50.915-41.118,78.661c-29.551,18.802-62.566,16.874-80.697,13.226
		c-13.592-3.014-31.188-10.188-43.583-17.411c-64.837-37.749-99.171-106.124-100.123-109.028l-2.05-6.248
		c-20.57-6.759-40.313-15.153-58.565-25.499c-2.343,7.93-3.684,17.325-3.732,28.379c-5.931-9.724-9.64-19.436-10.812-28.379
		c-0.853-8.103,0.489-16.741,6.711-23.989c9.713-11.273,21.279-14.836,29.722-15.934c2.368-0.244,4.905-0.415,7.541-0.428
		c2.416,0.013,3.953,0.135,4.246,0l-1.171,0.598c-6.955,3.247-16.276,9.443-23.719,20.62c12.883,7.444,26.817,13.934,41.458,19.62
		v-0.099l15.569,5.675c16.179,5.477,33.114,10.017,50.513,13.787c-6.784-0.902-10.396-1.501-10.396-1.501
		c100.562,23.256,188.166,23.218,253.686,16.276c78.355-8.321,125.258-26.477,125.258-26.477
		c27.109-65.8,43.411-134.773,48.17-200.341c4.929-53.258,1.83-103.918-9.64-148.403c-0.098,0.037-0.146,0.109-0.22,0.159
		c-0.488,0.231-0.977,0.391-1.464,0.561c-10.542,3.88-23.085-6.833-28.576-24.841c-4.708-15.471-2.684-31.589,4.224-39.813
		c0.291-0.33,0.585-0.622,0.878-0.939c-16.058-29.209-36.458-51.318-60.323-65.581c-33.527-20.486-66.667-21.292-82.26-20.217
		c-24.938-0.562-53.1,1.83-84.188,7.174c-15.861,2.746-32.26,6.247-48.805,10.383c8.59-2.599,13.422-3.904,13.422-3.904
		c-17.447,2.842-150.88,41.228-190.168,57.186c-50.244,20.376-129.795,44.132-183.113,124.111
		c-53.344,79.99-35.018,178.355-35.018,178.355s10.346-5.991,18.059-10.005c5.88-3.038,15.617-8.638,20.009-11.139
		c-0.537,0.427-1.099,0.842-1.635,1.28c-10.079,7.613-22.427,25.745-27.599,43.692l0.293,0.939l-1.221,4.344
		c-40.507,147.719,56.37,202.66,60.542,204.808l3.197,1.587l0.316-0.33c1.294,0.892,2.685,1.697,4.075,2.502l6.027,3.002
		c17.644,7.747,47.561,4.733,58.054,3.929c-1.928,0.146-41.753,20.033-70.304,10.139c-8.932,12.14-54.588,78.441-68.863,93.155
		c-0.83,0.829-2.024,2.209-3.465,3.782c-2.123,2.416-4.611,5.296-6.809,7.747c-1.488,1.722-2.854,3.233-3.757,4.283l0.194,0.806
		l28.844,164.409l7.59,2.063l0.072,0.281C1211.949,1249.51,1212.779,1248.973,1213.535,1248.473z M1785.377,479.448
		c3.66,25.22-8.979,47.999-28.184,50.769c-9.786,1.403-19.424-2.721-26.99-10.419c-5.44-3.648-9.735-10.945-11.98-20.242
		c-1.025-3.221-1.879-6.589-2.392-10.103c-3.636-25.22,9.028-47.962,28.185-50.732
		C1763.195,435.964,1781.766,454.241,1785.377,479.448z M1227.591,695.347c0.099-0.085,0.269-0.183,0.39-0.28
		c-0.121,0.169-0.219,0.316-0.316,0.426C1227.615,695.458,1227.591,695.408,1227.591,695.347z M1227.98,696.189
		C1227.908,696.263,1228.664,695.25,1227.98,696.189L1227.98,696.189z M1309.24,686.587l-9.419-6.882l26.794,5.161
		c-15.08-26.634-38.311-87.188,18.644-143.412c13.909-13.763,37.019-21.901,63.323-22.292
		c49.732-0.744,107.199,26.586,115.838,88.446c11.542,82.198-48.854,118.057-61.836,124.768c-1.488,0.758-2.391,1.173-2.488,1.221
		l-0.513,0.208l-0.562-0.012C1372.687,732.476,1309.827,687.063,1309.24,686.587z"/>
	<path fill="#FFFFFF" d="M1509.559,640.064c5.198-27.818-1.099-53.344-17.252-70.071c-19.913-20.584-49.512-32.59-79.21-32.126
		c-31.941,0.451-58.15,15.008-73.719,40.996c-25.574,42.558-6.613,83.895,4.123,101.489c3.392,5.563,5.955,8.796,6.077,8.894
		c30.21,27.904,83.236,29.296,98.756,29.077c2.318-0.025,3.929-0.124,4.71-0.124c3.342-1.586,6.612-3.439,9.784-5.49
		C1486.084,697.592,1503.897,670.298,1509.559,640.064z M1359.899,636.062c-0.463-31.333,24.402-57.15,55.491-57.602
		c13.642-0.22,26.306,4.551,36.213,12.628c-0.879-0.097-1.732-0.146-2.61-0.122c-12.567,0.183-22.524,10.504-22.353,23.023
		c0.072,4.355,1.365,8.406,3.563,11.823c-0.293,0-0.537-0.073-0.781-0.048c-7.491,0.098-13.445,6.247-13.324,13.738
		c0.122,7.491,6.248,13.433,13.715,13.323c7.492-0.097,13.445-6.235,13.348-13.738c-0.024-1.318-0.293-2.562-0.658-3.807
		c2.27,0.732,4.661,1.122,7.148,1.098c9.836-0.146,18.059-6.528,21.109-15.301c1.099,4.247,1.708,8.699,1.732,13.3
		c0.513,31.295-24.379,57.126-55.418,57.577C1386.012,692.455,1360.387,667.371,1359.899,636.062z"/>
	<path fill="#FFFFFF" d="M1661.854,918.871c0,0.794,0,1.575-0.05,2.319c-0.634-4.186-7.246-19.266-9.59-23.438l-2.122-3.831
		c-14.739,0.659-30.844,1-47.779,0.806c-4.563,1.121-8.102,2.757-9.103,5.172c-3.611,8.932,30.429,38.288,30.429,38.288
		s-22.425-15.85-45.461-29.479c-14.91-8.81-33.553-14.372-47.828-18.106c-22.84-2.5-61.786-12.176-84.163-17.766
		c7.857,12.153,32.505,45.804,47.657,60.323c-2.416-1.903-3.734-3.075-3.734-3.075c36.605,43.535,84.506,51.709,118.23,44.778
		c6.857-1.329,13.396-3.416,19.424-6.174c1.562-0.682,3.074-1.365,4.588-2.11C1669.442,948.118,1661.854,918.871,1661.854,918.871z"
		/>
	<path fill="#FFFFFF" d="M1744.846,444.395c-4.393,0.622-8.37,2.635-11.763,5.6c0.367-0.122,0.757-0.244,1.147-0.292
		c11.127-1.611,22.474,13.641,25.451,33.992c2.904,19.937-3.366,37.359-14.03,39.678c3.464,1.221,7.101,1.685,10.736,1.196
		c16.032-2.343,26.525-22.207,23.353-44.29C1776.543,458.182,1760.878,442.064,1744.846,444.395z"/>
	<path fill="#FFFFFF" d="M1877.886,459.915c4.54,14.836,3.344,29.356-2.562,32.967c2.221,0.354,4.368,0.085,6.442-0.915
		c9.078-4.587,12.372-21.669,7.395-38.165c-5.004-16.484-16.473-26.208-25.55-21.621c-2.465,1.221-4.516,3.466-6.101,6.309
		c0.244-0.135,0.464-0.281,0.635-0.403C1864.441,434.914,1873.275,444.724,1877.886,459.915z"/>
</g>
</svg>
