<?xml version="1.0" encoding="utf-8"?>
<!-- Generator: Adobe Illustrator 15.0.0, SVG Export Plug-In . SVG Version: 6.00 Build 0)  -->
<!DOCTYPE svg PUBLIC "-//W3C//DTD SVG 1.1//EN" "http://www.w3.org/Graphics/SVG/1.1/DTD/svg11.dtd">
<svg version="1.1" id="Layer_1" xmlns="http://www.w3.org/2000/svg" xmlns:xlink="http://www.w3.org/1999/xlink" x="0px" y="0px"
	 width="176px" height="83.975px" viewBox="0 0 176 83.975" enable-background="new 0 0 176 83.975" xml:space="preserve">
<g>
	<path fill-rule="evenodd" clip-rule="evenodd" fill="#FFFFFF" d="M3.702,83.975c-2.107-3.78-3.312-8.132-3.312-12.767
		c0-14.506,11.76-26.266,26.266-26.266c5.166,0,9.979,1.497,14.042,4.073C40.801,21.929,62.787,0,89.897,0
		c27.175,0,49.204,22.03,49.204,49.204c0,0.958-0.035,1.907-0.088,2.852c1.736-0.3,3.52-0.465,5.342-0.465
		c17.262,0,31.254,13.993,31.254,31.255c0,0.378-0.015,0.753-0.027,1.129H3.702z"/>
</g>
</svg>
