<?xml version="1.0" encoding="utf-8"?>
<!-- Generator: Adobe Illustrator 15.0.0, SVG Export Plug-In . SVG Version: 6.00 Build 0)  -->
<!DOCTYPE svg PUBLIC "-//W3C//DTD SVG 1.1//EN" "http://www.w3.org/Graphics/SVG/1.1/DTD/svg11.dtd">
<svg version="1.1" id="Layer_1" xmlns="http://www.w3.org/2000/svg" xmlns:xlink="http://www.w3.org/1999/xlink" x="0px" y="0px"
	 width="68px" height="68px" viewBox="0 0 68 68" enable-background="new 0 0 68 68" xml:space="preserve">
<g>
	<g>
		<defs>
			<path id="SVGID_1_" d="M12.036,1.004h26.748l19.709,19.904v43.507c0,1.425-1.144,2.58-2.553,2.58H12.036
				c-1.409,0-2.552-1.155-2.552-2.58V3.583C9.484,2.158,10.627,1.004,12.036,1.004L12.036,1.004z"/>
		</defs>
		<use xlink:href="#SVGID_1_"  overflow="visible" fill-rule="evenodd" clip-rule="evenodd" fill="#FEDE46"/>
		<clipPath id="SVGID_2_">
			<use xlink:href="#SVGID_1_"  overflow="visible"/>
		</clipPath>
	</g>
	<g>
		<defs>
			<path id="SVGID_3_" d="M44.454,31.938h-8.68H25.565h-8.679c-0.705,0-1.275-0.577-1.275-1.29c0-0.712,0.57-1.287,1.275-1.287
				h8.679h10.209h8.68c0.705,0,1.277,0.575,1.277,1.287C45.731,31.36,45.159,31.938,44.454,31.938L44.454,31.938z M35.774,25.752
				H16.887c-0.705,0-1.275-0.578-1.275-1.289c0-0.714,0.57-1.289,1.275-1.289h18.888c0.707,0,1.277,0.575,1.277,1.289
				C37.052,25.174,36.481,25.752,35.774,25.752L35.774,25.752z M16.887,36.061h18.888c0.707,0,1.277,0.577,1.277,1.289
				c0,0.713-0.57,1.29-1.277,1.29H16.887c-0.705,0-1.275-0.577-1.275-1.29C15.611,36.638,16.182,36.061,16.887,36.061L16.887,36.061
				z M16.887,42.763h6.636h12.252h6.639c0.705,0,1.275,0.577,1.275,1.289c0,0.711-0.57,1.288-1.275,1.288h-6.639H23.522h-6.636
				c-0.705,0-1.275-0.577-1.275-1.288C15.611,43.34,16.182,42.763,16.887,42.763L16.887,42.763z M16.887,55.136h18.888
				c0.707,0,1.277,0.577,1.277,1.291c0,0.711-0.57,1.288-1.277,1.288H16.887c-0.705,0-1.275-0.577-1.275-1.288
				C15.611,55.713,16.182,55.136,16.887,55.136L16.887,55.136z"/>
		</defs>
		<use xlink:href="#SVGID_3_"  overflow="visible" fill-rule="evenodd" clip-rule="evenodd" fill="#FFFFFF"/>
		<clipPath id="SVGID_4_">
			<use xlink:href="#SVGID_3_"  overflow="visible"/>
		</clipPath>
	</g>
	<g>
		<defs>
			<polygon id="SVGID_5_" points="58.493,21.11 58.493,39.667 40.118,21.11 58.493,21.11 			"/>
		</defs>
		<use xlink:href="#SVGID_5_"  overflow="visible" fill-rule="evenodd" clip-rule="evenodd" fill="#FEAC23"/>
		<clipPath id="SVGID_6_">
			<use xlink:href="#SVGID_5_"  overflow="visible"/>
		</clipPath>
	</g>
	<g>
		<defs>
			<path id="SVGID_7_" d="M58.516,20.874h-0.488l0.238,0.241H41.109c-1.409,0-2.553-1.154-2.553-2.58V18.24V1.211V1.004h0.228
				l0.021-0.034L58.516,20.874L58.516,20.874z"/>
		</defs>
		<use xlink:href="#SVGID_7_"  overflow="visible" fill-rule="evenodd" clip-rule="evenodd" fill="#FCC619"/>
		<clipPath id="SVGID_8_">
			<use xlink:href="#SVGID_7_"  overflow="visible"/>
		</clipPath>
	</g>
</g>
</svg>
