<?xml version="1.0" encoding="UTF-8"?>
<!-- Generator: Adobe Illustrator 16.0.0, SVG Export Plug-In . SVG Version: 6.00 Build 0)  -->
<!DOCTYPE svg PUBLIC "-//W3C//DTD SVG 1.1//EN" "http://www.w3.org/Graphics/SVG/1.1/DTD/svg11.dtd">
<svg version="1.1" id="Layer_1" xmlns="http://www.w3.org/2000/svg" xmlns:xlink="http://www.w3.org/1999/xlink" x="0px" y="0px" width="2000px" height="2000px" viewBox="0 0 2000 2000" enable-background="new 0 0 2000 2000" xml:space="preserve">
<g>
	<g>
		<g>
			<g>
				<g>
					<path fill="#F7901E" d="M294.366,1428.098c-3.515,0.486-67.432,83.154-174.176,59.564c0,0,97.769,67.422,192.17,44.936       C406.751,1510.135,350.56,1420.238,294.366,1428.098z"/>
					<path fill="#F7901E" d="M294.366,1428.098c-3.515,0.486-67.432,83.154-174.176,59.564c0,0,97.769,67.422,192.17,44.936       C406.751,1510.135,350.56,1420.238,294.366,1428.098z"/>
					<path fill="#0C4C9D" d="M271.992,1546.174c-0.006,0-0.006,0-0.006,0c-81.837,0-153.869-49.025-156.904-51.141       c-3.551-2.436-4.85-7.025-3.144-10.986c1.725-3.924,5.991-6.092,10.189-5.18c12.074,2.691,24.195,4.051,36.006,4.051       c67.503,0,111.096-43.039,125.413-57.166c4.484-4.436,6.167-6.092,9.577-6.564c2.715-0.373,5.497-0.578,8.273-0.578       c33.622,0,66.455,28.463,70.259,60.898c3.442,29.371-17.936,52.5-57.224,61.832       C300.973,1544.559,286.694,1546.174,271.992,1546.174z M162.504,1500.828c27.616,13,67.606,27.359,109.481,27.359h0.006       c13.295,0,26.174-1.449,38.285-4.334c30.411-7.23,45.859-22.244,43.523-42.256c-2.854-24.219-30.657-46.846-55.786-44.873       c-0.516,0.525-1.134,1.115-1.836,1.809C255.486,1478.699,210.54,1499.609,162.504,1500.828z"/>
					<path fill="#FFC20E" d="M296.178,1438.533c0,0-45.84,54.102-133.674,62.295c0,0,99.286,25.025,170.631-46.885L296.178,1438.533       z"/>
				</g>
				<path fill="#4989C8" d="M1278.812,1608.688c0,24.807-242.853,44.922-542.429,44.922c-299.574,0-542.422-20.115-542.422-44.922      c0-24.859,242.849-44.975,542.422-44.975C1035.959,1563.713,1278.812,1583.828,1278.812,1608.688z"/>
				<g>
					<g>
						<path fill="#FFC20E" d="M600.401,1459.957c0,0-1.507,29.961,2.997,82.422c4.498,52.436,10.475,70.41,0,73.422        c-10.492,3.002-155.838,49.438-263.717-8.998c0,0-25.475-95.898,40.452-178.309        C446.063,1346.07,594.409,1415.008,600.401,1459.957z"/>
						<path fill="#0C4C9D" d="M469.937,1645.109c-52.026,0-97.288-10.242-134.548-30.396l-3.4-1.859l-1.003-3.744        c-1.077-4.09-25.853-101.256,42.127-186.23c21.905-27.385,54.279-41.846,93.648-41.846c64.243,0,137.518,39.975,142.55,77.744        l0.112,0.807l-0.055,0.809c-0.009,0.32-1.395,30.115,2.982,81.217c1.191,13.898,2.499,25.525,3.563,34.834        c3.298,29.09,4.955,43.693-10.048,48l-1.498,0.422C560.437,1637.918,512.703,1645.109,469.937,1645.109z M347.557,1600.791        c33.92,17.484,75.056,26.357,122.38,26.357c41.075,0,87.003-6.938,129.317-19.5l0.715-0.217        c0.903-4.014-0.469-16.168-1.923-28.975c-1.061-9.438-2.397-21.143-3.609-35.334c-4.111-47.961-3.282-77.09-3.061-82.668        c-4.213-23.436-65.163-61.434-124.615-61.434c-23.506,0-56.397,6.076-79.608,35.076        C332.092,1502.943,343.959,1582.828,347.557,1600.791z"/>
					</g>
					<path fill="#0C4C9D" d="M572.847,1595.096c-2.48-31.025-15.877-52.5-37.759-60.523c-17.247-6.348-33.936-1.373-46.21,13.641       c-16.45,20.115-24.298,57.832-18.234,87.742l1.442,7.078l7.215,0.115c0,0,1.41,0.014,3.875,0.014c0.012,0,0.012,0,0.012,0       c18.703,0,64.29-1.143,83.583-11.975C574.508,1626.828,573.6,1604.506,572.847,1595.096z"/>
					<path fill="#0C4C9D" d="M410.315,1537.289c-14.804-4.256-27.952-0.191-36.925,11.23c-15.087,19.219-14.85,53.795-11.372,68.051       l0.88,3.604l3.162,1.924c1.231,0.756,30.361,18.307,64.429,18.307h7.373l1.451-7.23       C439.983,1629.801,455.347,1550.25,410.315,1537.289z"/>
					<path fill="#F7901E" d="M588.971,1462.225c3.158-0.332,2.527,24.449,4.021,38.693c0,0-116.609-1.053-163.813-10.064       c-47.207-8.949-64.836-19.064-64.836-19.064s11.295-32.809,18.037-34.32C382.379,1437.469,492.332,1472.713,588.971,1462.225z"/>
				</g>
				<g>
					<path fill="#FFC20E" d="M706.434,1460.289c0,0,5.996,115.398,49.455,167.832c0,0,164.82,26.963,334.135-20.973       c0,0-23.974-112.371-70.431-170.809c0,0,106.394,13.488,140.854,74.912c0,0,130.353-47.949,163.308-92.898       c0,0-23.949-61.436-91.385-100.385c-67.428-38.975-352.121,13.486-377.602,23.949       C829.295,1352.418,715.43,1422.84,706.434,1460.289z"/>
					<path fill="#0C4C9D" d="M870.703,1644.674c-0.012,0-0.012,0-0.028,0c-68.535,0-114.328-7.359-116.254-7.666l-3.304-0.553       l-2.16-2.576c-44.83-54.141-51.253-168.27-51.494-173.115l-0.078-1.281l0.311-1.27       c10.439-43.514,132.105-115.73,153.652-124.59c19.089-7.871,180.292-38.846,290.977-38.846       c45.673,0,76.589,5.037,94.539,15.396c69.358,40.078,94.262,102.283,95.274,104.91l1.808,4.615l-2.937,3.975       c-34.166,46.576-162.031,94.012-167.46,96l-7.199,2.666l-3.744-6.691c-22.839-40.68-81.237-59.129-112.916-66.371       c38.59,61.242,58.231,151.77,59.129,155.998l1.756,8.219l-8.108,2.307C1024.806,1634.969,950.19,1644.674,870.703,1644.674z        M760.69,1619.764c11.76,1.654,53.355,6.924,109.984,6.924c0,0,0.016,0,0.028,0c74.603,0,144.724-8.707,208.604-25.912       c-6.5-26.705-29.314-111.756-66.744-158.846l-13.744-17.307l21.911,2.795c4.357,0.551,103.885,13.795,143.454,72.781       c26.006-10.115,118.481-47.77,149.147-83.166c-6.979-14.564-32.211-60.514-85.461-91.281c-10.257-5.924-33.437-13-85.545-13       c-108.667,0-265.712,29.896-284.138,37.5c-29.358,12.09-132.927,79.307-142.703,110.986       C716.35,1474.084,723.976,1572.174,760.69,1619.764z"/>
				</g>
				<g>
					<path fill="#1193CD" d="M911.716,1368.893c0,0,98.897-53.924,215.769-35.949c116.871,17.988,160.326,50.936,214.27,6.014       c53.942-44.963,40.448-157.348-14.988-239.756c0,0-169.319,76.408-196.281,85.408c-26.98,8.975-52.449,2.988-76.43,20.977       C1030.075,1223.559,887.739,1350.932,911.716,1368.893z"/>
					<path fill="#0C4C9D" d="M910.94,1379.57l-4.621-3.486c-4.064-3.025-6.314-7.717-6.314-13.191       c0-38.834,137.134-155.846,148.659-164.488c16.783-12.602,33.981-14.756,50.617-16.82c9.742-1.23,18.954-2.371,28.357-5.512       c26.23-8.756,193.757-84.309,195.436-85.078l6.91-3.113l4.245,6.293c54.461,80.986,75.038,200.219,13.269,251.68       c-20.475,17.051-40.726,24.68-65.59,24.68c-20.923,0-43.691-5.295-72.513-11.961c-23.59-5.449-50.32-11.668-83.27-16.756       c-15.385-2.361-31.32-3.553-47.397-3.553c-90.776,0-162.007,38.154-162.711,38.539L910.94,1379.57z M1323.459,1110.559       c-32.68,14.691-165.884,74.488-190.141,82.59c-11.077,3.668-21.627,5-31.802,6.27c-15.628,1.961-29.109,3.641-42.057,13.346       c-10.448,7.859-47.654,40.193-81.5,74.064c-37.705,37.742-51.743,57.68-56.942,67.564       c25.699-11.553,85.108-34.104,157.711-34.104c16.98,0,33.846,1.27,50.122,3.77c33.621,5.166,60.718,11.461,84.608,16.988       c27.706,6.422,49.578,11.498,68.449,11.498c20.667,0,36.834-6.115,54.09-20.512       C1382.234,1293.508,1376.139,1193.367,1323.459,1110.559z"/>
				</g>
				<g>
					<path fill="#1193CD" d="M292.87,1287.994c0,0,65-77.475,89.92-217.268c26.965-151.333,62.925-278.699,206.756-368.603       c154.386-96.481,431.549-113.882,567.901,92.891c136.352,206.788-178.295,470.519-266.716,524.454       c-88.401,53.91-457.012,91.385-506.452,76.41C334.835,1380.904,273.393,1338.943,292.87,1287.994z"/>
					<path fill="#0C4C9D" d="M426.299,1408.199c-21.798,0-36.387-1.205-44.631-3.705c-33.026-10.025-77.622-34.012-94.625-68.705       c-8.234-16.77-9.093-33.922-2.574-51.012l0.544-1.398l0.968-1.166c0.641-0.756,63.801-77.564,87.949-213.078       c25.664-144.011,61.092-281.04,210.855-374.649c71.628-44.747,164.478-70.432,254.728-70.432       c139.28,0,254.843,58.97,325.446,166.021c33.308,50.523,43.076,108.01,29.025,170.869       c-35.653,159.435-219.955,318.218-298.561,366.191C818.68,1373.957,541.421,1408.199,426.299,1408.199z M300.787,1292.52       c-4.125,11.783-3.326,23.668,2.397,35.348c13.539,27.602,51.791,49.73,83.698,59.422c3.616,1.09,13.548,2.924,39.417,2.924       c110.467,0,386.786-33.898,459.759-78.424c76.555-46.742,255.964-200.896,290.37-354.756       c12.954-57.91,4.032-110.756-26.48-157.073c-67.162-101.831-177.412-157.917-310.434-157.917       c-86.971,0.006-176.347,24.67-245.186,67.708c-143.698,89.821-176.823,217.333-202.691,362.551       C368.002,1204.906,309.604,1281.545,300.787,1292.52z"/>
				</g>
				<g>
					<path fill="#1193CD" d="M1168.768,895.008c0,0-84.359,21.743-142.795,167.845c-58.45,146.104-172.7,222.143-355.513,258.102       c-182.801,35.963-337.124-4.498-377.589-32.961c0,0,38.971-46.449,47.951-77.91c0,0-92.896-52.461-166.319,7.488       c-73.417,59.936,31.461,196.281,200.774,241.23c169.331,44.947,391.087,11.986,549.927-98.885       c158.82-110.871,161.827-170.82,190.296-230.744c28.461-59.947,72.486-145.217,115.935-164.691       C1231.434,964.483,1178.505,942.585,1168.768,895.008z"/>
					<path fill="#0C4C9D" d="M532.142,1487.252c-0.012,0,0,0-0.012,0c-56.241,0-109.786-6.643-159.158-19.758       c-114.859-30.486-213.365-108.563-229.134-181.641c-6.59-30.514,2.051-56.537,24.978-75.244       c24.993-20.436,54.641-30.768,88.112-30.768c48.077,0,86.693,21.5,88.311,22.41l6.17,3.461l-1.936,6.834       c-7.187,25.115-31.369,58.063-43.176,73.115c32.243,17.408,111.221,40.486,218.731,40.486c48.114,0,96.46-4.705,143.702-14.014       c186.047-36.613,293.641-114.512,348.884-252.613c59.782-149.436,157.411-180.68,160.321-180.976l8.095-0.845l1.623,7.974       c8.994,43.949,52.654,80.282,53.102,80.654l11.187,9.205l-13.237,5.936c-26.41,49.487-81.781,79.499-103.909,127.563       c-3.629,7.834-7.322,15.859-11.174,23.988c-4.41,9.281-8.167,18.498-12.148,28.268c-21.243,52.115-45.32,111.191-181.128,206       C821.16,1443.508,675.995,1487.252,532.142,1487.252z M256.928,1197.828c-29.224,0-55.039,8.975-76.747,26.693       c-17.593,14.371-23.901,33.742-18.776,57.537c12.289,56.936,92.224,135.154,216.195,168.064       c47.853,12.705,99.843,19.141,154.53,19.141c140.279,0,281.663-42.539,387.918-116.719       c131.462-91.768,154.463-148.23,174.782-198.051c4.071-10,7.918-19.436,12.541-29.18c3.832-8.076,7.499-16.037,11.082-23.807       c21.288-46.154,68.089-109.193,101.18-130.141c-13.545-13.269-37.481-40.166-47.224-72.743       c-18.027,7.025-94.218,57.885-138.091,167.576c-57.757,144.385-169.443,225.668-362.111,263.578       c-48.381,9.512-97.897,14.346-147.18,14.346c-123.266,0-209.458-29.166-237.331-48.77l-7.99-5.641l6.276-7.5       c0.356-0.41,32.294-38.705,43.779-67.59C317.393,1208.943,289.185,1197.828,256.928,1197.828z"/>
				</g>
				<g>
					<path fill="#0C4C9D" d="M297.098,1299.404c-33.744-12.064-56.019-60.486-57.503-62l0,0c0.34,0.334,33.766,34.438,63.554,45.092       L297.098,1299.404z"/>
				</g>
				<g>
					<path fill="#0C4C9D" d="M1254.202,1268.367c-22.852,0-50.826-3.885-84.679-14.463l5.372-17.141       c112.877,35.281,151.897-8.781,152.289-9.23l0.179,0.666C1326.004,1229.789,1315.164,1268.367,1254.202,1268.367z"/>
				</g>
				<g>
					<path fill="#0C4C9D" d="M620.824,963.7c-38.576,0-69.9-14.411-88.173-40.564c-37.09-53.038-6.574-138.647,68.049-190.836       c35.96-25.154,76.605-39.006,114.429-39.006c38.578,0,69.884,14.417,88.176,40.541c37.09,53.051,6.563,138.647-68.064,190.852       C699.281,949.841,658.648,963.7,620.824,963.7z M715.129,724.755c-30.974,0-66.109,12.157-96.394,33.337       c-59.376,41.519-86.994,108.865-60.309,147.032c12.234,17.461,34.391,27.103,62.397,27.103       c30.973,0,66.117-12.128,96.379-33.333c59.387-41.526,87.008-108.856,60.319-147.016       C765.295,734.387,743.124,724.755,715.129,724.755z"/>
				</g>
				<g>
					<path fill="#0C4C9D" d="M568.21,1272.316c-0.012,0-0.023,0-0.023,0c-80.195,0-164.1-18.963-167.625-19.77       c-4.254-0.975-7.904-3.654-10.087-7.424c-2.199-3.77-2.724-8.281-1.465-12.436l62.68-208.461       c1.62-5.412,6.003-9.525,11.49-10.795c16.562-3.873,41.879-5.848,75.213-5.848c57.249,0,118.734,5.629,121.333,5.873       c8.538,0.781,14.874,8.27,14.242,16.82l-16.413,219.73c-0.516,6.717-5.23,12.359-11.743,14.051       C624.642,1269.545,598.517,1272.316,568.21,1272.316z M424.088,1225.277c28.169,5.449,87.932,15.59,144.099,15.59       c0,0,0.011,0,0.023,0c22.497,0,42.243-1.615,58.826-4.834l14.388-192.537c-22-1.668-64.041-4.436-103.031-4.436       c-25.223,0-45.12,1.115-59.311,3.332L424.088,1225.277z"/>
				</g>
				<g>
					<path fill="#0C4C9D" d="M757.61,1245.969c-3.288,0-6.541-1.037-9.269-3.039c-4.211-3.051-6.619-8.012-6.459-13.23       l8.987-274.205c0.171-4.935,2.672-9.538,6.716-12.358c4.064-2.859,9.221-3.603,13.919-2.065l218.923,71.846       c4.134,1.373,7.519,4.371,9.359,8.309c1.839,3.947,1.956,8.486,0.339,12.525c-58.756,146-229.958,208.705-237.217,211.268       C761.18,1245.648,759.392,1245.969,757.61,1245.969z M781.642,977.508l-7.505,228.666       c44.307-20.332,144.322-74.846,189.976-168.781L781.642,977.508z"/>
				</g>
				<g>
					<path fill="#0C4C9D" d="M948.536,910.162c-4.435,0-8.661-1.897-11.641-5.154l-76.792-84.436       c-4.173-4.583-5.25-11.175-2.787-16.855l37.325-85.894c2.459-5.68,8.023-9.385,14.223-9.468l114.121-1.467       c4.398,0.044,8.801,1.823,11.822,5.15l76.808,84.419c4.166,4.583,5.256,11.176,2.768,16.862l-37.313,85.894       c-2.455,5.667-8.031,9.385-14.224,9.449l-114.104,1.5C948.664,910.162,948.601,910.162,948.536,910.162z M890.231,806.931       l65.183,71.653l96.854-1.255l29.211-67.222l-65.159-71.66l-96.874,1.247L890.231,806.931z"/>
				</g>
				<g>
					<path fill="#0C4C9D" d="M1020.51,1452.252c-33.723-46.732-80.487-92.104-81.051-92.5l10.417-14.654       c2.41,1.691,59.136,42.436,86.801,99.281L1020.51,1452.252z"/>
				</g>
				<path fill="#0C4C9D" d="M876.333,1634.559c-3.39-59.846-31.428-101.641-68.172-101.641c-8.536,0-17.042,2.334-25.266,6.961      c-43.283,24.309-26.856,88.77-26.138,91.514l1.167,4.449l4.273,1.652c12.173,4.73,37.107,7.141,74.085,7.141      c17.514,0,30.885-0.564,31.443-0.602l9.119-0.371L876.333,1634.559z"/>
				<path fill="#0C4C9D" d="M1044.396,1618.047c-4.123-76.283-35.578-103.424-63.629-103.424c-11.936,0-24.072,4.447-36.04,13.268      c-44.576,32.912-28.609,105.449-27.903,108.527l1.558,6.768l6.96,0.205c0.559,0.016,1.154,0.016,1.744,0.016      c26.859,0,106.679-15.398,110.051-16.039l7.693-1.488L1044.396,1618.047z"/>
				<path fill="#00002B" d="M1320.6,1423.674c-15.935-33.436-45.339-55.922-73.19-55.922c-18.719,0-32.963,10.357-39.078,28.41      c-15.256,45.037,33.487,80.859,35.551,82.357l5.283,3.82l5.263-3.846c13.68-9.936,62.608-43.205,63.114-43.539l6.379-4.307      L1320.6,1423.674z"/>
				<path fill="#F7901E" d="M1210.01,1436.34c0,0-88.024-46.256-194.665-26.5c0,0-36.681-47.986-50.219-53.051      c0,0,60.385-22.563,126.961-19.191c66.584,3.396,129.776,23.705,153.475,27.641c23.705,3.975,36.347,5.295,36.347,5.295      l15.006,22.936c0,0-41.769-17.488-56.442-9.602C1225.807,1391.777,1210.01,1436.34,1210.01,1436.34z"/>
				<path fill="#F7901E" d="M993.381,1418.354c0,0-45.949,6.988-75.922,21.961c-29.98,14.988-78.229,36.77-130.656,47.244      c-52.444,10.486-71.351,14.578-71.351,14.578s-4.526-31.438-3.022-38.18c0,0,94.729-30.064,136.686-51.783      c41.957-21.705,88.805-48.5,95.562-48.5C944.677,1363.674,987.382,1403.367,993.381,1418.354z"/>
				<path fill="#0C4C9D" d="M1320.6,1423.674c-15.935-33.436-45.339-55.922-73.19-55.922c-18.719,0-32.963,10.357-39.078,28.41      c-15.256,45.037,33.487,80.859,35.551,82.357l5.283,3.82l5.263-3.846c13.68-9.936,62.608-43.205,63.114-43.539l6.379-4.307      L1320.6,1423.674z"/>
				<g>
					<path fill="#FFC20E" d="M1238.985,964.072c0,0-111.846-57.628-66.09-215.249c0,0-32.191-116.943,50.846-210.167       c83.031-93.231,359.319-205.09,506.756-177.952c147.462,27.106,200.013,267.772,88.128,505.074       c0,0-42.358,28.807-115.244,27.115c0,0-15.243,115.244-115.255,130.486c-99.994,15.27-189.821-33.038-189.821-33.038       s-44.05,172.026-205.089,258.448c0,0-64.385-16.936-89.819-45.73c0,0,6.795-64.41,23.743-94.924       C1144.074,1077.611,1205.101,1035.252,1238.985,964.072z"/>
					<g>
						<path fill="#0C4C9D" d="M1294.921,695.425c0,0,59.334,44.914,143.225,47.461c0,0,73.723-30.503,62.687-118.638        c-11.002-88.131-127.955-104.246-168.615-65.259c-68.367,65.519-17.808,138.122-16.951,140.686L1294.921,695.425z"/>
						<path fill="#0C4C9D" d="M1438.612,745.435l-0.563-0.007c-83.719-2.535-144.064-47.522-144.666-47.978l-9.014-6.811        l25.949,5.392c-14.27-26.065-35.929-85.141,20.128-138.872c13.718-13.147,36.243-20.702,61.77-20.702        c48.269,0,103.641,27.372,111.153,87.475c11.116,89.013-63.494,120.98-64.249,121.297L1438.612,745.435z M1307.395,700.621        c20.707,12.67,69.065,37.715,130.257,39.701c6.847-2.986,70.961-33.435,60.68-115.752c-7.128-57.052-60-83.038-106.115-83.038        c-24.225,0-45.462,7.039-58.25,19.288c-55.981,53.661-30.82,112.958-17.403,135.968c0.718,1.23,0.961,1.638,1.108,2.077        l1.403,4.198L1307.395,700.621z"/>
					</g>
					<g>
						<path fill="#FFFFFF" d="M1330.511,702.207c0,0-43.231-54.23-8.474-110.167c34.748-55.923,113.551-48.317,152.545-6.786        c38.992,41.535,11.871,123.734-41.526,147.455C1433.056,732.71,1366.106,736.104,1330.511,702.207z"/>
						<path fill="#0C4C9D" d="M1427.934,735.354c-15.538,0-68.679-2.259-99.186-31.301c-0.668-0.818-44.147-56.561-8.866-113.346        c16.244-26.154,44.103-41.139,76.456-41.139c30.191,0,60.135,12.686,80.095,33.956c16.578,17.646,22.776,44.15,17.014,72.701        c-7.09,34.994-30.372,65.936-59.358,78.811l-0.904,0.212C1433.184,735.249,1431.279,735.354,1427.934,735.354z         M1396.338,554.649c-31.006,0-56.622,13.754-72.121,38.728c-33.438,53.798,7.864,106.711,8.28,107.244        c28.911,27.49,80.358,29.647,95.437,29.647c2.23,0,3.794-0.055,4.524-0.07c27.329-12.353,49.277-41.731,55.988-74.984        c5.455-26.904-0.281-51.763-15.718-68.218C1453.703,566.746,1425.152,554.649,1396.338,554.649z"/>
					</g>
					<g>
						<path fill="#0C4C9D" d="M1712.087,544.329c-11.539,0-20.564-15.645-20.564-35.616c0-19.961,9.025-35.599,20.564-35.599        s20.577,15.631,20.577,35.593C1732.664,528.685,1723.626,544.329,1712.087,544.329z M1712.087,478.197        c-8.396,0-15.499,13.972-15.499,30.516c0,16.545,7.103,30.526,15.499,30.526c8.397,0,15.487-13.981,15.487-30.532        C1727.574,492.169,1720.484,478.197,1712.087,478.197z"/>
						<g>
							<path fill="none" d="M1722.075,472.338c-3.95,0-7.668,1.247-11.014,3.417c0.334-0.045,0.692-0.099,1.025-0.099         c9.962,0,18.025,14.804,18.025,33.051c0,17.83-7.692,32.323-17.321,33.003c2.898,1.522,6.002,2.397,9.284,2.397         c14.37,0,26.063-16.09,26.063-35.884C1748.139,488.451,1736.445,472.338,1722.075,472.338z"/>
						</g>
					</g>
					<path fill="#0C4C9D" d="M1397.959,594.082c-30.135,0-54.666,24.702-54.666,55.074c0,30.382,24.531,55.086,54.666,55.086       c30.142,0,54.654-24.704,54.654-55.086C1452.613,618.784,1428.101,594.082,1397.959,594.082z"/>
					<g>
						<path fill="#FFFFFF" d="M1452.428,628.726c0,12.173-9.854,22.048-22.026,22.048s-22.045-9.875-22.045-22.048        c0-12.157,9.872-22.019,22.045-22.019S1452.428,616.569,1452.428,628.726z"/>
						<path fill="#FFFFFF" d="M1424.042,653.323c0,7.259-5.877,13.135-13.141,13.135c-7.263,0-13.134-5.876-13.134-13.135        c0-7.257,5.871-13.142,13.134-13.142C1418.165,640.181,1424.042,646.065,1424.042,653.323z"/>
					</g>
					<g>
						<path fill="#0C4C9D" d="M1180.704,760.579l-19.745-4.907c11.059-44.535,46.91-46.333,53.494-51.15l-0.038,1.074        c-0.077,0.061,0.673-0.924,0,0l0.038-1.074c-1.135,1.542-2.365,2.458-3.814,3.517        C1196.939,718.085,1186.856,735.764,1180.704,760.579z"/>
					</g>
					<path fill="#F7901E" d="M1581.831,379.832c0,0-151.756,40.923-263.847,117.109c-112.07,76.195-122.768,168.564-103.569,208.654       c0,0-14.174,7.977-21.725,11.75c-7.564,3.772-17.647,9.442-17.647,9.442s-16.372-95.708,36.531-172.539       c52.897-76.823,143.563-97.615,179.449-117.759C1426.921,416.339,1564.825,382.352,1581.831,379.832z"/>
					<path fill="#F7901E" d="M1688.138,886.098c0,0-216.103-3.808-279.673-38.129c-63.531-34.316-35.975-42.346-35.975-42.346       s-25.031-0.872-32.646,21.994c-7.627,22.891-3.474,43.583-3.474,43.583s20.512-0.333,56.55,9.193       c36.052,9.525,185,23.14,213.564,63.256c28.57,40.127-1.347,67.333-23.114,73.462c-21.77,6.102-169.36-28.565-181.597-32.655       c-12.238-4.077-10.083-9.192-10.083-9.192l-34.809-12.551c0,0-29.237,133.96-110.172,185.64       c-80.943,51.719-47.615-41.475-14.289-87.73c33.32-46.23,74.987-94.461,74.987-94.461s-19.212,3.333-32.82,4.013       c-13.603,0.679-34.013,2.718-34.013,2.718s-53.052,70.73-68.679,86.371c-15.654,15.654-36.06,38.77-46.257,61.205       c-10.206,22.449-15.642,69.385-16.309,77.539c-0.679,8.166,33.32,29.936,38.744,34.025       c5.442,4.051,36.737,12.219,38.781,12.219c2.046,0,29.924-19.025,34.692-23.117c4.744-4.076,72.758-47.613,91.809-74.141       c19.038-26.525,48.975-82.281,57.819-100.652c8.834-18.348,21.743-46.245,27.205-48.962c5.443-2.73,27.873,0.68,37.397,5.436       c9.514,4.769,100.667,33.333,138.058,23.142c37.404-10.205,73.456-25.18,85.032-40.154       c11.559-14.949,20.386-34.667,26.525-47.577c6.104-12.948,15.628-43.551,14.962-46.256       C1699.677,889.239,1688.138,886.098,1688.138,886.098z"/>
					<path fill="#F7901E" d="M1689.229,474.531c-1.911,1.814,23.025,3.205,29.114,22.628c6.077,19.404-1.05,49.813-1.05,49.813       s14.909,2.632,24.987-8.869c4.589-5.241,14.718-27.394,3.242-48.391C1734.01,468.723,1710.446,454.358,1689.229,474.531z"/>
					<path opacity="0.17" fill="#910508" d="M1284.369,690.639c0,0-39.396-100.596,19.026-160.467       c58.424-59.847,151.127-48.08,204.59-3.174c53.436,44.892,45.596,184.571-66.282,217.356l-8.647-11.645       c0,0,52.826-38.948,51.403-95.25c-1.437-56.317-64.858-81.965-114.736-66.289c-49.892,15.679-64.854,81.961-42.777,120.442       c0,0-6.268,8.975-11.68,8.061C1309.856,698.742,1284.369,690.639,1284.369,690.639z"/>
					<path fill="#0C4C9D" d="M1194.511,1259.674l-3.878-1.039c-2.751-0.717-67.712-18.102-94.866-48.846l-2.949-3.385l0.462-4.41       c0.295-2.73,7.207-66.859,24.956-98.793c6.981-12.578,20.134-26.322,35.353-42.232c23.243-24.295,51.82-54.141,72.204-93.23       c-26.235-18.102-101.538-83.641-63.435-219.083c-4.604-19.333-25.681-127.574,53.787-216.766       c74.393-83.494,303.443-185.5,464.712-185.5c18.666,0,35.987,1.452,51.5,4.301c51.552,9.48,93.589,43.272,121.525,97.737       c54.718,106.56,44.476,272.07-26.052,421.669l-1.166,2.512l-2.296,1.564c-1.729,1.167-42.538,28.372-112.576,28.962       c-6.282,28.525-32.808,116.68-122.127,130.307c-13.463,2.051-27.462,3.104-41.667,3.104       c-65.341,0-120.507-21.463-143.334-31.834c-13.249,41.193-66.295,177.73-206.622,253.039L1194.511,1259.674z        M1114.063,1199.482c19.372,18.73,59.333,33.076,77.917,38.422c152.14-83.832,196.044-248.422,196.479-250.114l3.231-12.525       l11.429,6.128c0.66,0.333,65.878,34.807,144.879,34.795c13.167,0,26.153-0.949,38.602-2.846       c91.109-13.911,106.128-117.397,106.705-121.795l1.218-9.038l9.103,0.205c2.001,0.039,3.975,0.077,5.91,0.077h0.026       c55.936,0,92.115-18.821,101.153-24.077c66.782-143.388,76.68-300.474,25.077-400.993c-24.961-48.631-62-78.727-107.114-87.022       c-14.295-2.631-30.385-3.968-47.821-3.968c-153.627,0-379.372,99.929-449.524,178.686       c-78.462,88.083-48.949,199.596-48.642,200.708l0.77,2.773l-0.796,2.763c-42.923,147.862,59.936,202.823,60.975,203.375       l8.764,4.487l-4.238,8.923c-21.897,46.013-54.038,79.603-79.87,106.575c-14.244,14.924-26.56,27.77-32.271,38.064       C1122.78,1136.918,1115.946,1184.494,1114.063,1199.482z"/>
					<path fill="#0C4C9D" d="M1349.189,825.319c7.393-10.759,16.532-16.628,23.301-19.695l1.148-0.538       c-49.903-2.036-57.531,31.855-37.269,66.115c0.167-10.718,1.652-19.782,4.025-27.461       c94.961,55.871,233.538,56.077,310.217,56.077c41.526,0,66.091-3.154,69.281-3.514l45.232-19.102       C1762.971,877.457,1490.011,909.662,1349.189,825.319z"/>
					<g>
						<path fill="#0C4C9D" d="M1307.408,966.162c-2.078,0.128-50.063,23.282-77.23,4.257l11.667-16.654        C1259.536,966.162,1295.178,966.918,1307.408,966.162L1307.408,966.162z"/>
					</g>
				</g>
				<path fill="#FFF680" d="M1616.036,371.976c0,0,137.166-34.031,196.718,48.914c59.537,82.949,87.384,231.215-2.039,437.823      c0,0-30.936,42.821-262.743,19.423c0,0,161.628,4.244,225.436-17.013c0,0,97.834-206.295,53.18-357.294      C1781.908,352.833,1659.626,368.784,1616.036,371.976z"/>
				<path fill="#FFF680" d="M1691.907,899.777c0,0-13.846,83.743-82.41,106.834c-68.597,23.076-172.499,1.268-217.807-31.347      c0,0,83.281,41.897,174.281,26.718c91-15.167,111.442-77.154,112.731-102.205H1691.907z"/>
				<path fill="#FFF680" d="M1373.792,804.383c0,0-33.73-1.127-42.512,17.109c-10.758,22.362-1.025,38.605,4.538,48.952      c0,0-20.461-12.437-20.386-38.734C1315.498,802.454,1348.78,794.614,1373.792,804.383z"/>
				<g>
					<path fill="#FFC20E" d="M783.614,734.185c-15.988-22.859-43.356-35.449-77.083-35.449c-33.072,0-68.607,12.112-100.058,34.093       c-65.231,45.641-91.931,120.5-59.492,166.859c15.984,22.858,43.367,35.461,77.09,35.461c33.061,0,68.604-12.102,100.039-34.089       C789.369,855.418,816.057,780.563,783.614,734.185z"/>
					<path fill="#FFC20E" d="M640.542,1009.303c-2.324-0.219-57.833-5.27-109.503-5.27c-30.098,0-52.932,1.77-67.897,5.256       c-4.958,1.154-8.91,4.873-10.364,9.732l-56.583,188.166c-1.142,3.781-0.655,7.834,1.317,11.244       c1.981,3.396,5.276,5.832,9.108,6.691c3.193,0.744,78.914,17.859,151.302,17.885c0.012,0,0.016,0,0.016,0       c27.369,0,50.934-2.525,70.055-7.486c5.885-1.525,10.145-6.629,10.587-12.68l14.829-198.346       C653.976,1016.789,648.265,1010.021,640.542,1009.303z"/>
					<path fill="#FFC20E" d="M962.499,1030.559c-1.591-3.396-4.475-5.961-8.034-7.127l-187.721-61.629       c-4.031-1.321-8.451-0.667-11.929,1.77c-3.474,2.423-5.61,6.359-5.763,10.602l-7.708,235.14       c-0.139,4.463,1.923,8.693,5.538,11.334c2.337,1.693,5.125,2.602,7.956,2.602c1.519,0,3.058-0.256,4.535-0.793       c6.224-2.219,153.023-55.988,203.406-181.18C964.164,1037.814,964.076,1033.932,962.499,1030.559z"/>
					<path fill="#FFC20E" d="M1083.768,787.149l-65.692-72.24c-2.598-2.85-6.371-4.361-10.141-4.391l-97.641,1.246       c-5.295,0.074-10.059,3.25-12.177,8.112l-31.93,73.475c-2.106,4.875-1.177,10.509,2.382,14.442l65.711,72.24       c2.552,2.77,6.166,4.398,9.974,4.398c0.039,0,0.089,0,0.167,0l97.629-1.27c5.295-0.064,10.063-3.243,12.178-8.102       l31.925-73.485C1088.26,796.716,1087.331,791.083,1083.768,787.149z"/>
				</g>
				<path opacity="0.5" fill="#0C4C9D" d="M170.435,1234.289c0,0,24.439-22.666,43.528-19.102      c19.067,3.59,30.411,31.602,44.711,49.475c14.308,17.896,94.222,53.691,144.301,63.807      c50.095,10.154,301.578,18.705,426.32-55.475c124.741-74.166,160.702-122.486,186.548-179.795      c25.859-57.332,58.436-115.743,87.661-122.486c29.218-6.743,38.211,23.589,13.479,80.896      c-24.73,57.334-37.075,104.527-69.666,151.719c-32.59,47.205-176.437,185.422-342.765,220.27      c-166.322,34.832-337.133,44.922-459.638-34.848c0,0,91.035,74.193,230.383,83.168c139.354,8.973,287.692-16.846,376.478-68.551      c88.779-51.705,96.645-44.963,135.965-59.553c39.346-14.627,85.435-10.127,95.54-12.359c10.107-2.268,38.217-1.127,38.217-1.127      s-50.576-16.859-55.078-37.09c-4.499-20.244,25.834-56.219,71.925-51.705c46.083,4.5,85.41,21.346,117.999,16.859      c32.59-4.488,66.73-18.834,71.02-30.193c0,0-22.698,0.988-18.198-24.871c4.487-25.859,39.327-26.961,50.569-14.602      c11.225,12.357,0-23.615-2.236-30.322c-2.256-6.768-28.366-48.422-28.366-48.422s-22.224,31.551-46.94,58.512      c-24.719,26.975-79.81,74.18-92.161,74.18c-12.353,0-44.942-2.27-62.917-13.486c-17.986-11.256-30.353-30.359-30.353-30.359      s31.461-82.039,40.462-102.244c8.994-20.256,88.313-132.101,88.313-132.101s-54.141-51.847-61.32-69.052      c-7.166-17.205-7.257-25.859-7.257-25.859s-2.711-38.029-0.461-48.148c2.25-10.114,0.949-26.41,0.949-26.41      s-67.424-118.744-196.667-142.333c-129.229-23.623-233.745-7.879-295.548,17.971c0,0,206.768-48.323,292.188,119.115      c85.397,167.458,23.993,403.906-209.711,476.6c-204.831,63.703-381.417,41.461-406.14-43.936c0,0-15.728-32.578-76.42-32.578      C204.467,1189.854,184.707,1205.662,170.435,1234.289z"/>
				<g>
					<path fill="none" d="M1722.075,472.338c-3.95,0-7.668,1.247-11.014,3.417c0.334-0.045,0.692-0.099,1.025-0.099       c9.962,0,18.025,14.804,18.025,33.051c0,17.83-7.692,32.323-17.321,33.003c2.898,1.522,6.002,2.397,9.284,2.397       c14.37,0,26.063-16.09,26.063-35.884C1748.139,488.451,1736.445,472.338,1722.075,472.338z"/>
					<path fill="#0C4C9D" d="M1700.434,462.461c-18.552,6.49-26.73,31.622-18.206,56.038c8.525,24.429,30.578,39,49.143,32.529       c18.55-6.481,26.717-31.616,18.18-56.038C1741.022,470.566,1718.998,455.983,1700.434,462.461z M1729.446,545.543       c-3.539,1.234-7.244,1.468-10.922,0.917c10.153-4.385,12.985-22.949,6.256-42.231c-6.911-19.734-21.206-32.686-31.976-28.929       c-0.371,0.128-0.717,0.327-1.077,0.494c2.809-3.6,6.36-6.359,10.615-7.843c15.526-5.43,34.27,7.571,41.732,28.952       C1751.548,518.303,1744.984,540.117,1729.446,545.543z"/>
				</g>
			</g>
			<path fill="#FFC20E" d="M1216.518,1478.033c0,0,75.865-32.885,99.994-60.09c0,0-14.372-31.244-34.604-47.41l-21.09-2.578     c0,0,31.564,29.398,37.705,45.617c0,0-57.878,32.885-84.641,42.986C1187.139,1466.635,1216.518,1478.033,1216.518,1478.033z"/>
		</g>
	</g>
	<g>
		<path fill="#F7901E" d="M1847.906,449.252c-8.164-15.433-21.486-22.881-29.627-16.581c-2.218,1.721-3.834,4.33-4.821,7.484    c0.182-0.183,0.347-0.378,0.552-0.522c5.629-4.368,16.346,3.661,23.885,17.892c7.385,13.914,9.013,28.596,3.859,33.353    c2.256-0.078,4.385-0.763,6.242-2.199C1856.15,482.376,1856.1,464.707,1847.906,449.252z"/>
		<path fill="#0C4C9D" d="M1850.778,447.038c-9.346-17.635-24.884-25.853-34.589-18.331c-9.73,7.526-10.063,27.984-0.704,45.603    c9.345,17.64,24.884,25.852,34.601,18.33C1859.83,485.124,1860.138,464.656,1850.778,447.038z M1847.996,488.678    c-1.857,1.436-3.986,2.122-6.242,2.199c5.153-4.756,3.525-19.439-3.859-33.353c-7.539-14.231-18.256-22.26-23.885-17.892    c-0.205,0.145-0.37,0.34-0.552,0.522c0.987-3.154,2.604-5.763,4.821-7.484c8.141-6.301,21.463,1.148,29.627,16.581    C1856.1,464.707,1856.15,482.376,1847.996,488.678z"/>
	</g>
</g>
</svg>