<?xml version="1.0" encoding="utf-8"?>
<!-- Generator: Adobe Illustrator 15.0.0, SVG Export Plug-In . SVG Version: 6.00 Build 0)  -->
<!DOCTYPE svg PUBLIC "-//W3C//DTD SVG 1.1//EN" "http://www.w3.org/Graphics/SVG/1.1/DTD/svg11.dtd">
<svg version="1.1" id="Layer_1" xmlns="http://www.w3.org/2000/svg" xmlns:xlink="http://www.w3.org/1999/xlink" x="0px" y="0px"
	 width="174px" height="128px" viewBox="0 0 174 128" enable-background="new 0 0 174 128" xml:space="preserve">
<g>
	<g>
		<defs>
			<path id="SVGID_1_" d="M65.739,87.059v-2.434h3.856V73.533c0-0.43,0.013-0.881,0.039-1.355l-2.737,2.289
				c-0.113,0.098-0.23,0.164-0.348,0.199c-0.119,0.035-0.236,0.053-0.349,0.053c-0.175,0-0.335-0.039-0.48-0.113
				s-0.252-0.158-0.323-0.256l-1.026-1.406l5.802-4.936h2.671v16.617h3.421v2.434H65.739L65.739,87.059z M91.461,79.43v5.418H88.83
				V79.43h-5.093v-2.41h5.093v-5.393h2.631v5.393h5.119v2.41H91.461L91.461,79.43z M106.42,87.059v-2.434h3.855V73.533
				c0-0.43,0.014-0.881,0.039-1.355l-2.736,2.289c-0.113,0.098-0.23,0.164-0.35,0.199c-0.117,0.035-0.234,0.053-0.348,0.053
				c-0.176,0-0.336-0.039-0.479-0.113c-0.146-0.074-0.254-0.158-0.324-0.256l-1.025-1.406l5.801-4.936h2.672v16.617h3.42v2.434
				H106.42L106.42,87.059z"/>
		</defs>
		<use xlink:href="#SVGID_1_"  overflow="visible" fill="#F7901E"/>
		<clipPath id="SVGID_2_">
			<use xlink:href="#SVGID_1_"  overflow="visible"/>
		</clipPath>
	</g>
	<g>
		<defs>
			<polygon id="SVGID_3_" points="159.314,49.167 159.314,53.268 155.443,53.268 155.443,55.097 159.314,55.097 159.314,59.216 
				161.314,59.216 161.314,55.097 165.205,55.097 165.205,53.268 161.314,53.268 161.314,49.167 159.314,49.167 			"/>
		</defs>
		<use xlink:href="#SVGID_3_"  overflow="visible" fill="#9AE2F6"/>
		<clipPath id="SVGID_4_">
			<use xlink:href="#SVGID_3_"  overflow="visible"/>
		</clipPath>
	</g>
	<g>
		<defs>
			<polygon id="SVGID_5_" points="5.315,94.168 5.315,98.268 1.445,98.268 1.445,100.096 5.315,100.096 5.315,104.217 
				7.314,104.217 7.314,100.096 11.205,100.096 11.205,98.268 7.314,98.268 7.314,94.168 5.315,94.168 			"/>
		</defs>
		<use xlink:href="#SVGID_5_"  overflow="visible" fill="#9AE2F6"/>
		<clipPath id="SVGID_6_">
			<use xlink:href="#SVGID_5_"  overflow="visible"/>
		</clipPath>
	</g>
	<g>
		<defs>
			<polygon id="SVGID_7_" points="1.744,67.887 6.925,67.887 6.925,65.828 1.744,65.828 1.744,67.887 			"/>
		</defs>
		<use xlink:href="#SVGID_7_"  overflow="visible" fill="#9AE2F6"/>
		<clipPath id="SVGID_8_">
			<use xlink:href="#SVGID_7_"  overflow="visible"/>
		</clipPath>
	</g>
	<g>
		<defs>
			<path id="SVGID_9_" d="M169.914,109.527v-1.84c0-0.281-0.043-0.527-0.129-0.74c0.08,0.092,0.17,0.176,0.27,0.25
				c0.102,0.072,0.211,0.146,0.33,0.221l1.59,0.93l0.58-1.002l-1.59-0.93c-0.254-0.146-0.494-0.238-0.721-0.279
				c0.127-0.02,0.25-0.055,0.365-0.105c0.117-0.049,0.236-0.111,0.355-0.186l1.59-0.908l-0.59-1l-1.58,0.92
				c-0.119,0.072-0.229,0.148-0.33,0.225c-0.1,0.076-0.188,0.162-0.26,0.254c0.047-0.113,0.078-0.232,0.094-0.363
				c0.018-0.131,0.025-0.266,0.025-0.406v-1.83h-1.18v1.852c0,0.131,0.008,0.262,0.025,0.389c0.016,0.127,0.047,0.246,0.094,0.359
				c-0.072-0.092-0.162-0.178-0.264-0.254c-0.104-0.076-0.211-0.152-0.326-0.225l-1.588-0.941l-0.58,1l1.588,0.93
				c0.121,0.074,0.238,0.139,0.355,0.191s0.238,0.086,0.365,0.1c-0.127,0.02-0.248,0.053-0.365,0.1s-0.234,0.107-0.355,0.18
				l-1.588,0.922l0.588,1l1.58-0.92c0.115-0.074,0.221-0.148,0.32-0.221c0.102-0.074,0.186-0.158,0.26-0.25
				c-0.039,0.113-0.068,0.234-0.084,0.359c-0.018,0.127-0.025,0.258-0.025,0.389v1.832H169.914L169.914,109.527z"/>
		</defs>
		<use xlink:href="#SVGID_9_"  overflow="visible" fill="#9AE2F6"/>
		<clipPath id="SVGID_10_">
			<use xlink:href="#SVGID_9_"  overflow="visible"/>
		</clipPath>
	</g>
	<g>
		<defs>
			<path id="SVGID_11_" d="M29.915,34.526v-1.838c0-0.281-0.044-0.528-0.13-0.74c0.08,0.093,0.169,0.177,0.27,0.249
				c0.101,0.074,0.21,0.146,0.331,0.221l1.589,0.93l0.58-1l-1.589-0.93c-0.255-0.146-0.495-0.239-0.722-0.28
				c0.126-0.021,0.25-0.056,0.366-0.104c0.115-0.05,0.234-0.113,0.355-0.186l1.589-0.909l-0.589-1l-1.58,0.92
				c-0.121,0.072-0.23,0.146-0.331,0.225c-0.101,0.076-0.186,0.16-0.26,0.255c0.046-0.113,0.078-0.236,0.095-0.366
				s0.026-0.264,0.026-0.403v-1.831h-1.18v1.85c0,0.134,0.009,0.264,0.026,0.391c0.015,0.126,0.048,0.247,0.095,0.36
				c-0.074-0.095-0.162-0.179-0.266-0.255c-0.104-0.078-0.212-0.152-0.325-0.225l-1.59-0.94l-0.58,1l1.59,0.93
				c0.121,0.072,0.238,0.138,0.355,0.189c0.117,0.054,0.238,0.088,0.366,0.101c-0.128,0.021-0.249,0.054-0.366,0.101
				c-0.117,0.046-0.234,0.105-0.355,0.18l-1.59,0.921l0.589,0.998l1.581-0.919c0.113-0.074,0.221-0.146,0.319-0.221
				c0.101-0.072,0.188-0.156,0.26-0.249c-0.039,0.113-0.068,0.232-0.083,0.358c-0.017,0.129-0.026,0.259-0.026,0.391v1.829H29.915
				L29.915,34.526z"/>
		</defs>
		<use xlink:href="#SVGID_11_"  overflow="visible" fill="#9AE2F6"/>
		<clipPath id="SVGID_12_">
			<use xlink:href="#SVGID_11_"  overflow="visible"/>
		</clipPath>
	</g>
	<g>
		<defs>
			<path id="SVGID_13_" d="M96.436,11.037h-1.051c-0.299,0-0.557,0.076-0.77,0.225c-0.215,0.15-0.377,0.366-0.49,0.646l-5.84,14.939
				h1.039c0.127,0,0.256-0.019,0.391-0.06c0.133-0.039,0.26-0.099,0.379-0.175c0.121-0.076,0.227-0.171,0.322-0.284
				c0.092-0.113,0.168-0.247,0.229-0.399L96.436,11.037L96.436,11.037z"/>
		</defs>
		<use xlink:href="#SVGID_13_"  overflow="visible" fill="#9AE2F6"/>
		<clipPath id="SVGID_14_">
			<use xlink:href="#SVGID_13_"  overflow="visible"/>
		</clipPath>
	</g>
	<path fill="#1193CD" d="M151.357,111.863c-0.878,3.445-3.971,6-7.641,6H35.501c-3.671,0-6.765-2.555-7.644-6H151.357
		 M153.607,109.863h-128c0,5.523,4.43,10,9.893,10h108.216C149.18,119.863,153.607,115.387,153.607,109.863L153.607,109.863z"/>
	<g>
		<path fill="#1193CD" d="M131.277,49.361v53H47.389v-53H131.277 M133.277,47.361H45.389v57h87.888V47.361L133.277,47.361z"/>
	</g>
</g>
<g>
	<path fill="#1193CD" d="M139.334,41.803v68.068h-100V41.803H139.334 M141.334,39.803h-104v72.06h104V39.803L141.334,39.803z"/>
</g>
</svg>
