<?xml version="1.0" encoding="utf-8"?>
<!-- Generator: Adobe Illustrator 15.0.0, SVG Export Plug-In . SVG Version: 6.00 Build 0)  -->
<!DOCTYPE svg PUBLIC "-//W3C//DTD SVG 1.1//EN" "http://www.w3.org/Graphics/SVG/1.1/DTD/svg11.dtd">
<svg version="1.1" id="Layer_1" xmlns="http://www.w3.org/2000/svg" xmlns:xlink="http://www.w3.org/1999/xlink" x="0px" y="0px"
	 width="751.906px" height="502.246px" viewBox="0 0 751.906 502.246" enable-background="new 0 0 751.906 502.246"
	 xml:space="preserve">
<g>
	<path opacity="0.1" d="M751.906,502.246V42.398c0-10.643-8.75-19.398-19.426-19.398H33.853c-10.615,0-19.337,8.757-19.337,19.398
		v459.847L751.906,502.246L751.906,502.246z"/>
	<path fill="#FFFFFF" d="M738.386,502.247V20.398C738.386,9.757,729.636,1,718.961,1H20.331C9.717,1,0.994,9.757,0.994,20.398
		v481.847h737.392V502.247z"/>
	<polygon fill="#2B7CCD" points="41.266,502.246 41.266,42.256 698.126,42.256 698.126,502.246 699.126,502.246 699.126,42.256 
		699.126,41.256 698.126,41.256 41.266,41.256 40.266,41.256 40.266,42.256 40.266,502.246 	"/>
	<g>
		<g>
			<polygon id="SVGID_1_" fill="#67D3EF" points="51.661,50.972 687.065,50.972 687.065,165.977 51.661,165.977 			"/>
		</g>
	</g>
	<g>
		<g>
			<path id="SVGID_3_" fill="#FFFFFF" d="M282.077,126.883v-25.004c0-0.332,0.007-0.688,0.022-1.067
				c0.017-0.379,0.039-0.769,0.07-1.164l-11.656,21.276c-0.397,0.712-0.95,1.068-1.664,1.068h-0.663
				c-0.714,0-1.27-0.356-1.664-1.068l-11.92-21.348c0.047,0.411,0.084,0.815,0.105,1.211c0.024,0.396,0.036,0.759,0.036,1.091
				v25.004h-4.036V92.856h3.396c0.411,0,0.727,0.041,0.95,0.118c0.22,0.08,0.434,0.302,0.641,0.666l11.755,20.942
				c0.221,0.379,0.416,0.779,0.582,1.2c0.166,0.418,0.326,0.843,0.486,1.271c0.155-0.443,0.324-0.868,0.497-1.271
				c0.175-0.404,0.373-0.811,0.593-1.223l11.519-20.92c0.204-0.364,0.419-0.586,0.643-0.666c0.221-0.077,0.538-0.118,0.949-0.118
				h3.396v34.026H282.077L282.077,126.883z M307.816,106.415c-0.111,0.396-0.355,0.593-0.736,0.593c-0.221,0-0.561-0.074-1.02-0.225
				c-0.46-0.15-1.102-0.225-1.924-0.225c-1.474,0-2.704,0.427-3.693,1.281c-0.988,0.854-1.814,2.099-2.479,3.728v15.315h-4.227
				v-24.055h2.421c0.459,0,0.774,0.089,0.949,0.262c0.176,0.176,0.293,0.476,0.357,0.902l0.282,3.752
				c0.823-1.677,1.843-2.989,3.054-3.93c1.211-0.941,2.632-1.414,4.262-1.414c0.666,0,1.266,0.075,1.805,0.225
				c0.538,0.152,1.036,0.361,1.495,0.629L307.816,106.415L307.816,106.415z M314.311,125.447c-0.15,0.357-0.361,0.668-0.63,0.938
				c-0.271,0.269-0.587,0.478-0.95,0.63c-0.363,0.149-0.752,0.225-1.164,0.225c-0.411,0-0.8-0.075-1.163-0.225
				c-0.364-0.152-0.678-0.361-0.938-0.63c-0.261-0.271-0.468-0.582-0.616-0.938c-0.149-0.356-0.227-0.748-0.227-1.175
				c0-0.412,0.076-0.8,0.227-1.164s0.355-0.682,0.616-0.95c0.261-0.268,0.573-0.481,0.938-0.641
				c0.363-0.159,0.752-0.238,1.163-0.238c0.412,0,0.801,0.08,1.164,0.238c0.363,0.159,0.68,0.373,0.95,0.641
				c0.269,0.269,0.479,0.586,0.63,0.95c0.149,0.364,0.225,0.752,0.225,1.164C314.534,124.699,314.46,125.09,314.311,125.447
				L314.311,125.447z M353.249,126.883c-0.409,0-0.743-0.103-0.996-0.309c-0.256-0.205-0.443-0.466-0.57-0.784l-3.184-8.216h-15.268
				l-3.182,8.216c-0.111,0.287-0.302,0.539-0.57,0.762c-0.27,0.221-0.6,0.331-0.996,0.331h-3.563l13.604-34.026h4.678l13.607,34.026
				H353.249L353.249,126.883z M341.874,100.408c-0.348-0.856-0.688-1.925-1.02-3.207c-0.176,0.65-0.346,1.248-0.512,1.793
				s-0.327,1.025-0.486,1.438l-5.343,13.819h12.704L341.874,100.408L341.874,100.408z M367.495,133.983
				c-0.141,0.315-0.319,0.57-0.533,0.759c-0.215,0.191-0.54,0.287-0.983,0.287h-3.135l4.391-9.545l-9.925-22.655h3.657
				c0.362,0,0.649,0.091,0.854,0.273c0.206,0.184,0.356,0.384,0.452,0.606l6.434,15.15c0.145,0.348,0.268,0.695,0.369,1.043
				c0.103,0.35,0.193,0.705,0.272,1.071c0.11-0.366,0.223-0.722,0.334-1.071c0.107-0.348,0.235-0.702,0.38-1.068l6.245-15.125
				c0.093-0.252,0.257-0.464,0.485-0.63c0.229-0.166,0.479-0.25,0.747-0.25h3.371L367.495,133.983L367.495,133.983z
				 M404.041,114.536c-0.144,0.224-0.413,0.332-0.81,0.332h-16.004c0.031,1.521,0.238,2.843,0.617,3.966
				c0.38,1.125,0.901,2.063,1.567,2.813c0.664,0.752,1.455,1.315,2.373,1.687c0.918,0.373,1.947,0.56,3.089,0.56
				c1.06,0,1.974-0.123,2.74-0.368c0.77-0.245,1.43-0.511,1.984-0.795c0.555-0.286,1.016-0.55,1.389-0.795s0.693-0.368,0.962-0.368
				c0.349,0,0.617,0.134,0.808,0.402l1.188,1.543c-0.521,0.634-1.146,1.185-1.877,1.651c-0.728,0.466-1.507,0.851-2.339,1.15
				c-0.83,0.302-1.688,0.526-2.575,0.677s-1.766,0.225-2.637,0.225c-1.661,0-3.192-0.279-4.595-0.843
				c-1.4-0.562-2.611-1.384-3.634-2.468c-1.021-1.084-1.816-2.425-2.386-4.025c-0.57-1.6-0.854-3.434-0.854-5.509
				c0-1.677,0.257-3.246,0.771-4.702c0.514-1.455,1.255-2.718,2.22-3.787c0.968-1.067,2.146-1.906,3.539-2.518
				c1.395-0.609,2.959-0.914,4.7-0.914c1.44,0,2.771,0.241,3.991,0.725c1.218,0.481,2.271,1.18,3.156,2.089
				c0.887,0.911,1.58,2.033,2.077,3.373c0.5,1.337,0.75,2.861,0.75,4.57C404.255,113.872,404.182,114.315,404.041,114.536
				L404.041,114.536z M400.051,109.538c-0.27-0.815-0.664-1.521-1.188-2.113c-0.521-0.593-1.159-1.052-1.911-1.377
				c-0.752-0.324-1.61-0.485-2.577-0.485c-2.04,0-3.646,0.588-4.82,1.768c-1.17,1.181-1.899,2.813-2.185,4.905h13.084
				C400.454,111.251,400.32,110.354,400.051,109.538L400.051,109.538z M412.861,99.754c-0.705,1.308-1.682,2.507-2.935,3.599
				l-1.306-0.808c-0.127-0.079-0.211-0.166-0.25-0.261c-0.038-0.095-0.059-0.19-0.059-0.284c0-0.223,0.079-0.412,0.236-0.57
				c0.255-0.301,0.5-0.63,0.735-0.986c0.238-0.354,0.452-0.728,0.642-1.116c0.19-0.387,0.341-0.796,0.452-1.223
				c0.11-0.427,0.166-0.877,0.166-1.353c0-0.507-0.075-1.028-0.226-1.567c-0.152-0.539-0.409-1.107-0.771-1.709
				c-0.111-0.176-0.166-0.349-0.166-0.522c0-0.38,0.213-0.657,0.641-0.832l2.589-1.043c0.459,0.759,0.791,1.519,0.997,2.279
				c0.205,0.759,0.31,1.518,0.31,2.28C413.919,97.074,413.565,98.449,412.861,99.754L412.861,99.754z M432.604,107.317
				c-0.239,0-0.507-0.086-0.807-0.261c-0.304-0.176-0.671-0.368-1.104-0.582c-0.437-0.214-0.955-0.411-1.555-0.594
				c-0.604-0.182-1.316-0.271-2.14-0.271c-0.712,0-1.353,0.091-1.923,0.271c-0.569,0.183-1.057,0.433-1.462,0.748
				c-0.4,0.316-0.711,0.685-0.925,1.104c-0.213,0.418-0.32,0.875-0.32,1.366c0,0.615,0.179,1.132,0.534,1.543
				c0.356,0.412,0.827,0.769,1.414,1.067c0.584,0.301,1.25,0.566,1.993,0.795c0.745,0.229,1.509,0.476,2.291,0.736
				c0.783,0.261,1.547,0.55,2.293,0.866c0.743,0.315,1.409,0.711,1.993,1.186c0.586,0.476,1.057,1.058,1.413,1.746
				s0.534,1.517,0.534,2.482c0,1.108-0.197,2.134-0.594,3.075c-0.396,0.942-0.981,1.756-1.757,2.444
				c-0.777,0.688-1.728,1.232-2.851,1.627c-1.125,0.396-2.422,0.594-3.896,0.594c-1.677,0-3.197-0.272-4.559-0.818
				c-1.361-0.548-2.517-1.248-3.466-2.104l0.998-1.613c0.127-0.207,0.275-0.363,0.448-0.476c0.177-0.11,0.405-0.166,0.688-0.166
				c0.287,0,0.587,0.109,0.901,0.332c0.318,0.222,0.703,0.466,1.152,0.736c0.452,0.269,0.998,0.514,1.639,0.736
				c0.643,0.221,1.445,0.332,2.412,0.332c0.822,0,1.543-0.107,2.158-0.32c0.618-0.214,1.132-0.502,1.544-0.868
				c0.411-0.364,0.716-0.782,0.916-1.257c0.197-0.475,0.295-0.982,0.295-1.521c0-0.664-0.177-1.214-0.534-1.649
				c-0.355-0.438-0.826-0.808-1.41-1.116c-0.586-0.309-1.258-0.577-2.008-0.807c-0.752-0.229-1.521-0.474-2.305-0.726
				s-1.552-0.543-2.302-0.866c-0.753-0.324-1.421-0.731-2.007-1.223c-0.587-0.491-1.059-1.098-1.414-1.818
				c-0.354-0.72-0.534-1.593-0.534-2.622c0-0.918,0.191-1.801,0.57-2.648c0.38-0.848,0.935-1.591,1.661-2.232
				c0.729-0.641,1.622-1.151,2.685-1.531c1.06-0.379,2.271-0.57,3.632-0.57c1.584,0,3.005,0.25,4.264,0.748
				c1.26,0.5,2.347,1.184,3.265,2.055l-0.948,1.543C433.294,107.142,433.001,107.317,432.604,107.317L432.604,107.317z
				 M474.68,99.304c-0.143,0.102-0.35,0.154-0.616,0.154c-0.207,0-0.425-0.074-0.654-0.228c-0.229-0.15-0.503-0.334-0.817-0.558
				c-0.318-0.223-0.688-0.459-1.116-0.714c-0.427-0.252-0.934-0.488-1.521-0.711c-0.586-0.22-1.266-0.406-2.041-0.559
				c-0.776-0.15-1.67-0.226-2.684-0.226c-1.82,0-3.486,0.313-4.998,0.938c-1.511,0.625-2.813,1.516-3.906,2.67
				c-1.094,1.157-1.942,2.566-2.553,4.227c-0.609,1.662-0.914,3.523-0.914,5.58c0,2.123,0.305,4.015,0.914,5.676
				c0.609,1.664,1.441,3.067,2.493,4.216c1.053,1.146,2.3,2.021,3.741,2.623c1.438,0.603,2.989,0.901,4.651,0.901
				c1.015,0,1.926-0.059,2.731-0.177s1.555-0.305,2.243-0.557c0.688-0.255,1.33-0.575,1.923-0.964
				c0.596-0.387,1.189-0.851,1.793-1.39c0.271-0.235,0.532-0.356,0.784-0.356s0.48,0.104,0.688,0.309l1.806,1.971
				c-1.395,1.616-3.084,2.875-5.07,3.777s-4.38,1.353-7.183,1.353c-2.454,0-4.678-0.423-6.673-1.271
				c-1.995-0.845-3.694-2.034-5.104-3.561c-1.409-1.527-2.503-3.359-3.277-5.498c-0.774-2.137-1.164-4.486-1.164-7.053
				c0-2.563,0.416-4.914,1.248-7.052c0.829-2.136,1.998-3.973,3.502-5.509c1.503-1.534,3.304-2.725,5.4-3.573
				c2.097-0.848,4.413-1.271,6.945-1.271c2.503,0,4.658,0.389,6.473,1.164c1.812,0.774,3.423,1.826,4.832,3.158l-1.498,2.111
				C474.95,99.07,474.822,99.202,474.68,99.304L474.68,99.304z M482.493,126.883V91.906h4.226v34.979h-4.226V126.883z
				 M509.967,126.883c-0.411,0-0.746-0.063-0.998-0.19c-0.254-0.125-0.42-0.396-0.498-0.807l-0.476-2.231
				c-0.634,0.57-1.252,1.082-1.853,1.532c-0.603,0.452-1.236,0.832-1.899,1.141c-0.666,0.307-1.373,0.541-2.125,0.7
				c-0.753,0.157-1.589,0.236-2.505,0.236c-0.937,0-1.809-0.133-2.625-0.394c-0.814-0.261-1.521-0.654-2.125-1.18
				c-0.603-0.522-1.079-1.188-1.437-1.989c-0.356-0.802-0.534-1.752-0.534-2.848c0-0.952,0.262-1.87,0.784-2.752
				c0.521-0.882,1.363-1.664,2.526-2.347c1.164-0.684,2.688-1.242,4.57-1.682c1.885-0.437,4.189-0.655,6.912-0.655v-1.889
				c0-1.879-0.4-3.3-1.2-4.264c-0.8-0.963-1.981-1.445-3.55-1.445c-1.03,0-1.896,0.13-2.601,0.391
				c-0.704,0.262-1.313,0.555-1.827,0.879c-0.517,0.325-0.959,0.616-1.329,0.877c-0.373,0.262-0.741,0.394-1.104,0.394
				c-0.287,0-0.534-0.075-0.748-0.229c-0.214-0.149-0.384-0.336-0.512-0.557l-0.759-1.354c1.329-1.282,2.762-2.239,4.298-2.873
				c1.534-0.633,3.236-0.95,5.104-0.95c1.346,0,2.54,0.223,3.586,0.666c1.044,0.442,1.923,1.059,2.635,1.852
				c0.713,0.791,1.252,1.748,1.615,2.873s0.546,2.359,0.546,3.705v15.386h-1.873V126.883z M507.687,116.104
				c-1.948,0-3.603,0.123-4.964,0.371c-1.361,0.246-2.469,0.567-3.325,0.966c-0.854,0.397-1.475,0.868-1.863,1.409
				c-0.387,0.543-0.582,1.147-0.582,1.815c0,0.637,0.104,1.188,0.31,1.648c0.207,0.461,0.483,0.841,0.832,1.134
				c0.348,0.295,0.76,0.509,1.233,0.646c0.475,0.137,0.988,0.201,1.543,0.201c0.745,0,1.426-0.074,2.043-0.225
				c0.616-0.15,1.198-0.364,1.746-0.641c0.545-0.277,1.068-0.614,1.565-1.01c0.5-0.395,0.986-0.848,1.462-1.354V116.104
				L507.687,116.104z M531.146,107.317c-0.236,0-0.507-0.086-0.807-0.261c-0.304-0.176-0.669-0.368-1.105-0.582
				c-0.436-0.214-0.954-0.411-1.554-0.594c-0.604-0.182-1.316-0.271-2.139-0.271c-0.713,0-1.354,0.091-1.924,0.271
				c-0.569,0.183-1.057,0.433-1.459,0.748c-0.404,0.316-0.714,0.685-0.928,1.104c-0.214,0.418-0.32,0.875-0.32,1.366
				c0,0.615,0.179,1.132,0.534,1.543c0.356,0.412,0.827,0.769,1.413,1.067c0.585,0.301,1.25,0.566,1.993,0.795
				c0.746,0.229,1.51,0.476,2.294,0.736c0.781,0.261,1.545,0.55,2.291,0.866c0.743,0.315,1.408,0.711,1.993,1.186
				c0.586,0.476,1.057,1.058,1.413,1.746s0.534,1.517,0.534,2.482c0,1.108-0.197,2.134-0.594,3.075
				c-0.396,0.942-0.981,1.756-1.757,2.444c-0.774,0.688-1.726,1.232-2.851,1.627c-1.125,0.396-2.423,0.594-3.894,0.594
				c-1.68,0-3.197-0.272-4.56-0.818c-1.361-0.548-2.519-1.248-3.468-2.104l0.997-1.613c0.128-0.207,0.276-0.363,0.452-0.476
				c0.173-0.11,0.401-0.166,0.688-0.166c0.284,0,0.584,0.109,0.902,0.332c0.314,0.222,0.698,0.466,1.148,0.736
				c0.452,0.269,0.998,0.514,1.639,0.736c0.643,0.221,1.445,0.332,2.411,0.332c0.823,0,1.544-0.107,2.159-0.32
				c0.618-0.214,1.132-0.502,1.546-0.868c0.411-0.364,0.716-0.782,0.913-1.257c0.198-0.475,0.296-0.982,0.296-1.521
				c0-0.664-0.178-1.214-0.533-1.649c-0.354-0.438-0.827-0.808-1.411-1.116c-0.587-0.309-1.255-0.577-2.008-0.807
				c-0.752-0.23-1.521-0.474-2.305-0.726c-0.782-0.252-1.55-0.543-2.302-0.866c-0.753-0.324-1.421-0.731-2.008-1.223
				c-0.586-0.491-1.058-1.098-1.413-1.818c-0.354-0.72-0.534-1.593-0.534-2.622c0-0.918,0.191-1.801,0.57-2.648
				c0.38-0.848,0.935-1.591,1.66-2.232c0.729-0.641,1.623-1.151,2.686-1.531c1.062-0.379,2.271-0.57,3.634-0.57
				c1.582,0,3.003,0.25,4.262,0.748c1.26,0.5,2.349,1.184,3.267,2.055l-0.95,1.543C531.835,107.142,531.542,107.317,531.146,107.317
				L531.146,107.317z M551.758,107.317c-0.239,0-0.507-0.086-0.811-0.261c-0.3-0.176-0.668-0.368-1.103-0.582
				c-0.437-0.214-0.954-0.411-1.558-0.594c-0.6-0.182-1.313-0.271-2.136-0.271c-0.712,0-1.354,0.091-1.923,0.271
				c-0.57,0.183-1.057,0.433-1.462,0.748c-0.402,0.316-0.711,0.685-0.925,1.104c-0.213,0.418-0.32,0.875-0.32,1.366
				c0,0.615,0.178,1.132,0.534,1.543c0.354,0.412,0.827,0.769,1.411,1.067c0.587,0.301,1.252,0.566,1.996,0.795
				c0.742,0.229,1.506,0.476,2.29,0.736c0.783,0.261,1.548,0.55,2.291,0.866c0.745,0.315,1.408,0.711,1.995,1.186
				c0.587,0.476,1.058,1.058,1.413,1.746c0.354,0.688,0.534,1.517,0.534,2.482c0,1.108-0.197,2.134-0.593,3.075
				c-0.398,0.942-0.982,1.756-1.76,2.444c-0.774,0.688-1.726,1.232-2.849,1.627c-1.125,0.396-2.423,0.594-3.896,0.594
				c-1.677,0-3.197-0.272-4.56-0.818c-1.36-0.548-2.517-1.248-3.466-2.104l0.997-1.613c0.125-0.207,0.275-0.363,0.45-0.476
				c0.175-0.11,0.404-0.166,0.688-0.166c0.287,0,0.588,0.109,0.902,0.332c0.316,0.222,0.7,0.466,1.152,0.736
				c0.449,0.269,0.998,0.514,1.639,0.736c0.642,0.221,1.443,0.332,2.409,0.332c0.823,0,1.543-0.107,2.161-0.32
				c0.617-0.214,1.132-0.502,1.544-0.868c0.411-0.364,0.716-0.782,0.913-1.257s0.298-0.982,0.298-1.521
				c0-0.664-0.178-1.214-0.534-1.649c-0.356-0.438-0.827-0.808-1.413-1.116c-0.585-0.309-1.255-0.577-2.008-0.807
				c-0.75-0.229-1.519-0.474-2.302-0.726c-0.784-0.252-1.553-0.543-2.303-0.866c-0.753-0.324-1.423-0.731-2.007-1.223
				c-0.587-0.491-1.058-1.098-1.414-1.818c-0.355-0.72-0.534-1.593-0.534-2.622c0-0.918,0.191-1.801,0.57-2.648
				c0.38-0.848,0.936-1.591,1.661-2.232c0.728-0.641,1.623-1.151,2.685-1.531c1.06-0.379,2.271-0.57,3.633-0.57
				c1.584,0,3.005,0.25,4.264,0.748c1.257,0.5,2.346,1.184,3.264,2.055l-0.95,1.543
				C552.445,107.142,552.152,107.317,551.758,107.317L551.758,107.317z M578.756,114.536c-0.145,0.224-0.412,0.332-0.809,0.332
				h-16.005c0.032,1.521,0.237,2.843,0.616,3.966c0.38,1.125,0.902,2.063,1.568,2.813c0.663,0.752,1.456,1.315,2.375,1.687
				c0.918,0.373,1.944,0.56,3.087,0.56c1.059,0,1.975-0.123,2.742-0.368c0.767-0.245,1.428-0.511,1.981-0.795
				c0.555-0.286,1.019-0.55,1.389-0.795c0.373-0.245,0.693-0.368,0.961-0.368c0.352,0,0.618,0.134,0.811,0.402l1.187,1.543
				c-0.522,0.634-1.147,1.185-1.875,1.651c-0.729,0.466-1.51,0.851-2.339,1.15c-0.832,0.302-1.69,0.526-2.577,0.677
				s-1.767,0.225-2.637,0.225c-1.661,0-3.193-0.279-4.593-0.843c-1.402-0.562-2.614-1.384-3.636-2.468
				c-1.021-1.084-1.814-2.425-2.386-4.025c-0.57-1.6-0.854-3.434-0.854-5.509c0-1.677,0.257-3.246,0.771-4.702
				c0.517-1.455,1.254-2.718,2.221-3.787c0.966-1.067,2.146-1.906,3.538-2.518c1.395-0.609,2.959-0.914,4.702-0.914
				c1.438,0,2.771,0.241,3.988,0.725c1.219,0.481,2.271,1.18,3.159,2.089c0.887,0.911,1.577,2.033,2.077,3.373
				c0.498,1.337,0.748,2.861,0.748,4.57C578.969,113.872,578.897,114.315,578.756,114.536L578.756,114.536z M574.766,109.538
				c-0.271-0.815-0.666-1.521-1.188-2.113c-0.521-0.593-1.158-1.052-1.911-1.377c-0.753-0.324-1.61-0.485-2.576-0.485
				c-2.041,0-3.648,0.588-4.818,1.768c-1.173,1.181-1.9,2.813-2.188,4.905h13.084C575.169,111.251,575.034,110.354,574.766,109.538
				L574.766,109.538z M597.251,107.317c-0.236,0-0.508-0.086-0.809-0.261c-0.3-0.176-0.668-0.368-1.104-0.582
				s-0.953-0.411-1.556-0.594c-0.603-0.182-1.313-0.271-2.137-0.271c-0.714,0-1.354,0.091-1.925,0.271
				c-0.568,0.183-1.055,0.433-1.459,0.748c-0.405,0.316-0.714,0.685-0.928,1.104c-0.215,0.418-0.32,0.875-0.32,1.366
				c0,0.615,0.18,1.132,0.534,1.543c0.355,0.412,0.827,0.769,1.414,1.067c0.586,0.301,1.25,0.566,1.995,0.795
				c0.742,0.229,1.507,0.476,2.291,0.736c0.783,0.261,1.548,0.55,2.291,0.866c0.744,0.315,1.408,0.711,1.994,1.186
				c0.584,0.476,1.058,1.058,1.411,1.746c0.357,0.688,0.536,1.517,0.536,2.482c0,1.108-0.199,2.134-0.595,3.075
				c-0.396,0.942-0.982,1.756-1.757,2.444c-0.775,0.688-1.727,1.232-2.852,1.627c-1.122,0.396-2.42,0.594-3.893,0.594
				c-1.678,0-3.198-0.272-4.561-0.818c-1.36-0.548-2.516-1.248-3.466-2.104l0.995-1.613c0.128-0.207,0.277-0.363,0.453-0.476
				c0.172-0.11,0.404-0.166,0.688-0.166c0.284,0,0.586,0.109,0.902,0.332c0.315,0.222,0.7,0.466,1.152,0.736
				c0.448,0.269,0.995,0.514,1.638,0.736c0.642,0.221,1.443,0.332,2.41,0.332c0.822,0,1.543-0.107,2.161-0.32
				c0.614-0.214,1.132-0.502,1.543-0.868c0.411-0.364,0.716-0.782,0.914-1.257c0.196-0.475,0.297-0.982,0.297-1.521
				c0-0.664-0.18-1.214-0.534-1.649c-0.356-0.438-0.827-0.808-1.413-1.116c-0.587-0.309-1.255-0.577-2.007-0.807
				c-0.752-0.23-1.52-0.474-2.303-0.726c-0.784-0.252-1.553-0.543-2.305-0.866c-0.753-0.324-1.421-0.731-2.007-1.223
				c-0.585-0.491-1.058-1.098-1.412-1.818c-0.355-0.72-0.534-1.593-0.534-2.622c0-0.918,0.188-1.801,0.568-2.648
				c0.382-0.848,0.935-1.591,1.664-2.232c0.728-0.641,1.622-1.151,2.682-1.531c1.063-0.379,2.272-0.57,3.635-0.57
				c1.581,0,3.005,0.25,4.262,0.748c1.259,0.5,2.348,1.184,3.266,2.055l-0.95,1.543
				C597.938,107.142,597.646,107.317,597.251,107.317L597.251,107.317z"/>
		</g>
	</g>
	<g>
		<g>
			<g>
				<g>
					<g>
						<path fill="#F7901E" d="M97.447,141.223c-0.269,0.037-5.159,6.36-13.324,4.557c0,0,7.479,5.157,14.7,3.438
							S101.745,140.623,97.447,141.223z"/>
						<path fill="#F7901E" d="M97.447,141.223c-0.269,0.037-5.159,6.36-13.324,4.557c0,0,7.479,5.157,14.7,3.438
							S101.745,140.623,97.447,141.223z"/>
						<path fill="#0C4C9D" d="M95.735,150.256L95.735,150.256c-6.261,0-11.771-3.751-12.004-3.912
							c-0.271-0.187-0.371-0.537-0.24-0.841c0.133-0.301,0.459-0.466,0.779-0.396c0.924,0.206,1.852,0.31,2.755,0.31
							c5.164,0,8.499-3.292,9.594-4.373c0.343-0.339,0.472-0.466,0.733-0.502c0.207-0.027,0.42-0.044,0.633-0.044
							c2.571,0,5.083,2.179,5.374,4.658c0.263,2.247-1.372,4.017-4.378,4.73C97.952,150.132,96.86,150.256,95.735,150.256z
							 M87.36,146.787c2.111,0.995,5.171,2.094,8.375,2.094l0,0c1.018,0,2.002-0.11,2.929-0.332c2.326-0.553,3.509-1.7,3.329-3.231
							c-0.218-1.854-2.345-3.584-4.268-3.433c-0.039,0.039-0.086,0.085-0.142,0.139C94.473,145.094,91.034,146.694,87.36,146.787z"
							/>
						<path fill="#FFC20E" d="M97.585,142.022c0,0-3.506,4.139-10.225,4.765c0,0,7.595,1.915,13.053-3.586L97.585,142.022z"/>
					</g>
					<path fill="#4989C8" d="M172.755,155.039c0,1.897-18.576,3.437-41.493,3.437s-41.494-1.538-41.494-3.437
						c0-1.901,18.577-3.44,41.494-3.44S172.755,153.136,172.755,155.039z"/>
					<g>
						<g>
							<path fill="#FFC20E" d="M120.858,143.661c0,0-0.115,2.292,0.229,6.305c0.346,4.013,0.803,5.388,0,5.617
								s-11.921,3.781-20.174-0.688c0,0-1.948-7.336,3.095-13.642C109.052,134.949,120.399,140.222,120.858,143.661z"/>
							<path fill="#0C4C9D" d="M110.878,157.824c-3.979,0-7.441-0.783-10.293-2.324l-0.26-0.143l-0.076-0.286
								c-0.083-0.313-1.979-7.746,3.223-14.247c1.676-2.095,4.151-3.201,7.163-3.201c4.915,0,10.521,3.06,10.905,5.947l0.008,0.063
								l-0.004,0.063c0,0.024-0.105,2.304,0.229,6.213c0.091,1.063,0.19,1.953,0.271,2.665c0.252,2.225,0.379,3.342-0.769,3.672
								l-0.115,0.032C117.801,157.274,114.149,157.824,110.878,157.824z M101.517,154.434c2.594,1.337,5.74,2.017,9.36,2.017
								c3.144,0,6.655-0.531,9.894-1.492l0.055-0.017c0.068-0.307-0.036-1.236-0.146-2.217c-0.081-0.723-0.184-1.617-0.276-2.702
								c-0.314-3.669-0.25-5.897-0.233-6.324c-0.322-1.793-4.984-4.7-9.532-4.7c-1.799,0-4.313,0.465-6.091,2.685
								C100.333,146.949,101.241,153.06,101.517,154.434z"/>
						</g>
						<path fill="#0C4C9D" d="M118.751,153.999c-0.189-2.374-1.215-4.017-2.889-4.63c-1.32-0.485-2.597-0.104-3.535,1.043
							c-1.259,1.539-1.859,4.425-1.395,6.713l0.108,0.541l0.554,0.009c0,0,0.106,0.002,0.296,0.002c0.001,0,0.001,0,0.001,0
							c1.431,0,4.918-0.088,6.395-0.916C118.878,156.425,118.808,154.719,118.751,153.999z"/>
						<path fill="#0C4C9D" d="M106.317,149.576c-1.133-0.325-2.139-0.014-2.825,0.859c-1.154,1.471-1.136,4.114-0.87,5.206
							l0.067,0.274l0.242,0.147c0.094,0.058,2.321,1.399,4.929,1.399h0.563l0.11-0.553
							C108.587,156.654,109.762,150.568,106.317,149.576z"/>
						<path fill="#F7901E" d="M119.983,143.833c0.242-0.024,0.192,1.871,0.309,2.961c0,0-8.921-0.081-12.532-0.771
							c-3.61-0.686-4.96-1.458-4.96-1.458s0.864-2.51,1.381-2.626C104.18,141.94,112.591,144.636,119.983,143.833z"/>
					</g>
					<g>
						<path fill="#FFC20E" d="M128.97,143.686c0,0,0.459,8.827,3.782,12.839c0,0,12.608,2.063,25.562-1.604
							c0,0-1.834-8.597-5.389-13.065c0,0,8.14,1.031,10.774,5.729c0,0,9.973-3.668,12.493-7.105c0,0-1.832-4.7-6.991-7.681
							c-5.157-2.98-26.936,1.032-28.885,1.832C138.368,135.434,129.657,140.821,128.97,143.686z"/>
						<path fill="#0C4C9D" d="M141.536,157.791c-0.002,0-0.002,0-0.002,0c-5.243,0-8.746-0.563-8.894-0.586l-0.253-0.042
							l-0.165-0.197c-3.431-4.142-3.922-12.871-3.939-13.242l-0.006-0.099l0.022-0.098c0.8-3.328,10.106-8.854,11.756-9.531
							c1.46-0.602,13.791-2.971,22.259-2.971c3.494,0,5.857,0.385,7.23,1.178c5.308,3.065,7.211,7.824,7.289,8.025l0.139,0.353
							l-0.226,0.306c-2.613,3.563-12.395,7.19-12.811,7.344l-0.55,0.204l-0.287-0.514c-1.747-3.11-6.215-4.521-8.639-5.077
							c2.952,4.687,4.455,11.61,4.523,11.935l0.134,0.629l-0.62,0.177C153.324,157.048,147.616,157.791,141.536,157.791z
							 M133.12,155.885c0.899,0.127,4.082,0.529,8.414,0.529c0,0,0,0,0.002,0c5.707,0,11.07-0.666,15.957-1.981
							c-0.497-2.043-2.242-8.549-5.104-12.151l-1.052-1.324l1.677,0.214c0.333,0.042,7.946,1.057,10.974,5.567
							c1.989-0.773,9.063-3.654,11.409-6.362c-0.533-1.112-2.464-4.629-6.537-6.981c-0.785-0.453-2.559-0.994-6.544-0.994
							c-8.313,0-20.327,2.287-21.736,2.868c-2.245,0.925-10.169,6.066-10.917,8.49C129.728,144.741,130.312,152.245,133.12,155.885z
							"/>
					</g>
					<g>
						<path fill="#1193CD" d="M144.673,136.694c0,0,7.565-4.125,16.507-2.75c8.939,1.376,12.265,3.896,16.392,0.46
							c4.126-3.439,3.095-12.036-1.146-18.341c0,0-12.951,5.846-15.016,6.534c-2.063,0.687-4.012,0.229-5.847,1.604
							C153.728,125.577,142.839,135.32,144.673,136.694z"/>
						<path fill="#0C4C9D" d="M144.614,137.511l-0.354-0.268c-0.312-0.23-0.482-0.591-0.482-1.01
							c0-2.971,10.49-11.922,11.372-12.583c1.284-0.964,2.6-1.129,3.872-1.286c0.745-0.095,1.45-0.182,2.169-0.422
							c2.007-0.67,14.822-6.449,14.951-6.509l0.527-0.237l0.325,0.481c4.166,6.194,5.74,15.315,1.015,19.253
							c-1.565,1.304-3.114,1.888-5.018,1.888c-1.601,0-3.343-0.405-5.547-0.915c-1.805-0.417-3.851-0.893-6.37-1.282
							c-1.177-0.18-2.396-0.271-3.626-0.271c-6.944,0-12.394,2.919-12.447,2.947L144.614,137.511z M176.171,116.932
							c-2.5,1.124-12.689,5.697-14.546,6.317c-0.847,0.28-1.653,0.382-2.433,0.479c-1.195,0.148-2.228,0.277-3.217,1.021
							c-0.801,0.603-3.646,3.075-6.234,5.666c-2.885,2.889-3.959,4.412-4.355,5.169c1.966-0.885,6.511-2.608,12.063-2.608
							c1.299,0,2.589,0.098,3.834,0.288c2.572,0.396,4.646,0.877,6.473,1.3c2.119,0.491,3.793,0.88,5.236,0.88
							c1.581,0,2.817-0.468,4.138-1.569C180.667,130.927,180.2,123.267,176.171,116.932z"/>
					</g>
					<g>
						<path fill="#1193CD" d="M97.333,130.505c0,0,4.973-5.927,6.879-16.619c2.063-11.577,4.813-21.32,15.816-28.198
							c11.81-7.38,33.012-8.712,43.442,7.105c10.431,15.819-13.64,35.994-20.403,40.12c-6.762,4.124-34.96,6.99-38.742,5.845
							C100.543,137.613,95.843,134.403,97.333,130.505z"/>
						<path fill="#0C4C9D" d="M107.54,139.701c-1.668,0-2.784-0.092-3.414-0.283c-2.526-0.767-5.938-2.602-7.238-5.256
							c-0.631-1.282-0.695-2.595-0.196-3.901l0.041-0.106l0.074-0.09c0.049-0.059,4.881-5.934,6.729-16.3
							c1.963-11.018,4.673-21.499,16.129-28.66c5.48-3.423,12.582-5.389,19.486-5.389c10.655,0,19.495,4.512,24.896,12.7
							c2.549,3.865,3.295,8.264,2.222,13.071c-2.729,12.196-16.826,24.343-22.841,28.013
							C137.556,137.082,116.347,139.701,107.54,139.701z M97.938,130.852c-0.316,0.9-0.255,1.811,0.184,2.704
							c1.035,2.11,3.961,3.804,6.402,4.546c0.275,0.083,1.036,0.224,3.016,0.224c8.45,0,29.588-2.594,35.17-6
							c5.856-3.575,19.581-15.368,22.213-27.138c0.991-4.431,0.31-8.474-2.024-12.017c-5.139-7.79-13.572-12.08-23.748-12.08
							c-6.652,0-13.49,1.888-18.756,5.18c-10.992,6.871-13.526,16.626-15.506,27.733C103.08,124.15,98.612,130.012,97.938,130.852z"
							/>
					</g>
					<g>
						<path fill="#1193CD" d="M164.337,100.443c0,0-6.453,1.663-10.923,12.84c-4.472,11.177-13.212,16.993-27.196,19.744
							c-13.983,2.751-25.788-0.344-28.885-2.521c0,0,2.98-3.553,3.668-5.96c0,0-7.105-4.013-12.723,0.573
							c-5.617,4.585,2.406,15.016,15.358,18.453c12.952,3.438,29.917,0.917,42.067-7.564c12.149-8.48,12.379-13.066,14.559-17.65
							c2.177-4.586,5.545-11.108,8.867-12.6C169.131,105.757,165.082,104.083,164.337,100.443z"/>
						<path fill="#0C4C9D" d="M115.636,145.749L115.636,145.749c-4.304,0-8.398-0.508-12.177-1.512
							c-8.786-2.332-16.321-8.305-17.527-13.896c-0.504-2.335,0.156-4.324,1.91-5.757c1.912-1.563,4.181-2.354,6.74-2.354
							c3.679,0,6.632,1.645,6.756,1.715l0.473,0.265l-0.147,0.522c-0.551,1.921-2.399,4.44-3.303,5.594
							c2.466,1.331,8.508,3.097,16.731,3.097c3.681,0,7.38-0.359,10.992-1.071c14.232-2.802,22.463-8.761,26.689-19.324
							c4.573-11.432,12.041-13.822,12.264-13.845l0.619-0.064l0.125,0.61c0.688,3.361,4.027,6.141,4.063,6.169l0.855,0.705
							l-1.013,0.454c-2.021,3.784-6.257,6.081-7.949,9.758c-0.277,0.6-0.56,1.214-0.854,1.835c-0.338,0.71-0.625,1.415-0.93,2.163
							c-1.625,3.985-3.467,8.506-13.854,15.759C137.745,142.402,126.641,145.749,115.636,145.749z M94.583,123.608
							c-2.234,0-4.211,0.687-5.871,2.042c-1.346,1.1-1.828,2.581-1.436,4.401c0.938,4.354,7.055,10.339,16.538,12.855
							c3.66,0.973,7.638,1.465,11.82,1.465c10.73,0,21.548-3.254,29.676-8.929c10.057-7.021,11.815-11.34,13.37-15.15
							c0.312-0.766,0.605-1.486,0.96-2.231c0.293-0.618,0.572-1.229,0.848-1.821c1.628-3.531,5.209-8.353,7.74-9.956
							c-1.036-1.015-2.867-3.073-3.613-5.564c-1.379,0.537-7.207,4.428-10.563,12.818c-4.419,11.045-12.963,17.265-27.701,20.163
							c-3.7,0.729-7.488,1.098-11.259,1.098c-9.43,0-16.022-2.23-18.155-3.729l-0.611-0.432l0.48-0.574
							c0.026-0.031,2.471-2.961,3.35-5.17C99.208,124.458,97.051,123.608,94.583,123.608z"/>
					</g>
					<g>
						<path fill="#0C4C9D" d="M97.655,131.378c-2.58-0.923-4.285-4.627-4.398-4.742l0,0c0.026,0.025,2.583,2.635,4.861,3.449
							L97.655,131.378z"/>
					</g>
					<g>
						<path fill="#0C4C9D" d="M170.873,129.004c-1.748,0-3.889-0.298-6.479-1.105l0.411-1.313
							c8.635,2.699,11.619-0.672,11.649-0.706l0.015,0.052C176.365,126.053,175.536,129.004,170.873,129.004z"/>
					</g>
					<g>
						<path fill="#0C4C9D" d="M122.421,105.698c-2.95,0-5.348-1.103-6.746-3.103c-2.837-4.058-0.502-10.606,5.206-14.6
							c2.751-1.924,5.86-2.983,8.754-2.983c2.951,0,5.347,1.103,6.745,3.101c2.838,4.059,0.502,10.606-5.207,14.6
							C128.423,104.638,125.313,105.698,122.421,105.698z M129.635,87.419c-2.369,0-5.058,0.931-7.373,2.551
							c-4.544,3.176-6.655,8.327-4.613,11.247c0.936,1.336,2.631,2.073,4.772,2.073c2.369,0,5.058-0.928,7.372-2.55
							c4.543-3.177,6.656-8.328,4.614-11.247C133.472,88.156,131.776,87.419,129.635,87.419z"/>
					</g>
					<g>
						<path fill="#0C4C9D" d="M118.396,129.306c-0.001,0-0.002,0-0.002,0c-6.136,0-12.554-1.45-12.822-1.513
							c-0.326-0.074-0.605-0.279-0.771-0.567c-0.169-0.288-0.209-0.635-0.112-0.951l4.795-15.947
							c0.125-0.414,0.46-0.729,0.879-0.826c1.268-0.296,3.204-0.446,5.754-0.446c4.38,0,9.084,0.431,9.282,0.448
							c0.652,0.062,1.138,0.634,1.089,1.287l-1.255,16.81c-0.04,0.515-0.4,0.945-0.898,1.074
							C122.712,129.094,120.714,129.306,118.396,129.306z M107.37,125.708c2.155,0.417,6.728,1.193,11.023,1.193
							c0,0,0.001,0,0.002,0c1.721,0,3.23-0.124,4.5-0.37l1.101-14.729c-1.683-0.129-4.898-0.341-7.882-0.341
							c-1.93,0-3.451,0.086-4.537,0.255L107.37,125.708z"/>
					</g>
					<g>
						<path fill="#0C4C9D" d="M132.884,127.291c-0.251,0-0.5-0.079-0.709-0.231c-0.321-0.233-0.506-0.612-0.493-1.013l0.688-20.977
							c0.014-0.377,0.205-0.729,0.514-0.945c0.313-0.219,0.706-0.274,1.065-0.158l16.747,5.496c0.316,0.105,0.575,0.335,0.716,0.637
							c0.143,0.302,0.149,0.648,0.026,0.958c-4.495,11.169-17.592,15.966-18.146,16.162
							C133.157,127.266,133.021,127.291,132.884,127.291z M134.723,106.754l-0.574,17.493c3.39-1.556,11.04-5.726,14.533-12.911
							L134.723,106.754z"/>
					</g>
					<g>
						<path fill="#0C4C9D" d="M147.489,101.602c-0.339,0-0.662-0.146-0.891-0.395l-5.874-6.459
							c-0.319-0.351-0.401-0.854-0.213-1.289l2.854-6.57c0.188-0.436,0.613-0.719,1.088-0.726l8.729-0.111
							c0.337,0.003,0.674,0.139,0.904,0.394l5.875,6.458c0.319,0.351,0.402,0.855,0.212,1.29l-2.854,6.571
							c-0.188,0.434-0.614,0.718-1.088,0.723l-8.729,0.115C147.499,101.602,147.495,101.602,147.489,101.602z M143.03,93.705
							l4.986,5.481l7.407-0.097l2.235-5.142l-4.985-5.482l-7.409,0.096L143.03,93.705z"/>
					</g>
					<g>
						<path fill="#0C4C9D" d="M152.996,143.071c-2.58-3.575-6.157-7.046-6.2-7.076l0.797-1.12c0.185,0.129,4.523,3.246,6.641,7.595
							L152.996,143.071z"/>
					</g>
					<path fill="#0C4C9D" d="M141.966,157.017c-0.259-4.578-2.403-7.775-5.215-7.775c-0.651,0-1.303,0.179-1.933,0.533
						c-3.313,1.859-2.054,6.79-1.999,7l0.089,0.341l0.327,0.126c0.932,0.362,2.838,0.547,5.667,0.547
						c1.34,0,2.362-0.044,2.405-0.047l0.696-0.028L141.966,157.017z"/>
					<path fill="#0C4C9D" d="M154.823,155.754c-0.315-5.836-2.722-7.912-4.867-7.912c-0.914,0-1.842,0.341-2.758,1.016
						c-3.41,2.518-2.188,8.066-2.135,8.303l0.119,0.519l0.532,0.016c0.043,0.001,0.089,0.001,0.134,0.001
						c2.055,0,8.16-1.178,8.419-1.227l0.589-0.114L154.823,155.754z"/>
					<path fill="#00002B" d="M175.952,140.885c-1.219-2.559-3.469-4.278-5.599-4.278c-1.434,0-2.522,0.792-2.99,2.174
						c-1.167,3.444,2.563,6.186,2.72,6.3l0.404,0.292l0.402-0.294c1.047-0.761,4.79-3.306,4.827-3.331l0.488-0.329L175.952,140.885z
						"/>
					<path fill="#F7901E" d="M167.492,141.854c0,0-6.733-3.539-14.892-2.027c0,0-2.808-3.671-3.843-4.059
						c0,0,4.619-1.727,9.714-1.469c5.093,0.261,9.927,1.813,11.739,2.114c1.813,0.306,2.78,0.405,2.78,0.405l1.147,1.755
						c0,0-3.194-1.338-4.317-0.735C168.7,138.445,167.492,141.854,167.492,141.854z"/>
					<path fill="#F7901E" d="M150.921,140.478c0,0-3.516,0.534-5.809,1.68c-2.293,1.146-5.984,2.813-9.994,3.614
						c-4.013,0.802-5.459,1.115-5.459,1.115s-0.346-2.405-0.229-2.922c0,0,7.245-2.3,10.454-3.961
						c3.211-1.659,6.795-3.71,7.312-3.71C147.194,136.295,150.462,139.332,150.921,140.478z"/>
					<path fill="#0C4C9D" d="M175.952,140.885c-1.219-2.559-3.469-4.278-5.599-4.278c-1.434,0-2.522,0.792-2.99,2.174
						c-1.167,3.444,2.563,6.186,2.72,6.3l0.404,0.292l0.402-0.294c1.047-0.761,4.79-3.306,4.827-3.331l0.488-0.329L175.952,140.885z
						"/>
					<g>
						<path fill="#FFC20E" d="M169.709,105.726c0,0-8.557-4.408-5.056-16.466c0,0-2.463-8.946,3.889-16.077
							c6.354-7.132,27.488-15.689,38.768-13.613c11.279,2.074,15.301,20.484,6.74,38.638c0,0-3.239,2.204-8.814,2.074
							c0,0-1.166,8.816-8.817,9.982c-7.648,1.168-14.521-2.527-14.521-2.527s-3.37,13.159-15.689,19.771c0,0-4.925-1.296-6.87-3.497
							c0,0,0.521-4.929,1.815-7.263C162.448,114.412,167.116,111.171,169.709,105.726z"/>
						<g>
							<path fill="#0C4C9D" d="M173.987,85.175c0,0,4.539,3.437,10.957,3.631c0,0,5.64-2.333,4.795-9.076
								c-0.842-6.742-9.788-7.976-12.898-4.992c-5.229,5.012-1.361,10.566-1.297,10.763L173.987,85.175z"/>
							<path fill="#0C4C9D" d="M184.979,89.001h-0.043c-6.404-0.193-11.021-3.636-11.066-3.67l-0.688-0.521l1.983,0.413
								c-1.091-1.994-2.748-6.514,1.54-10.624c1.05-1.006,2.772-1.584,4.727-1.584c3.691,0,7.928,2.094,8.503,6.691
								c0.851,6.81-4.857,9.255-4.915,9.279L184.979,89.001z M174.942,85.573c1.584,0.969,5.283,2.885,9.964,3.037
								c0.523-0.229,5.429-2.558,4.642-8.855c-0.545-4.363-4.59-6.352-8.116-6.352c-1.854,0-3.479,0.538-4.456,1.475
								c-4.282,4.105-2.357,8.642-1.331,10.401c0.055,0.094,0.072,0.125,0.085,0.159l0.105,0.321L174.942,85.573z"/>
						</g>
						<g>
							<path fill="#FFFFFF" d="M176.71,85.694c0,0-3.307-4.148-0.647-8.428c2.658-4.278,8.687-3.696,11.67-0.52
								c2.981,3.177,0.908,9.465-3.177,11.28C184.555,88.027,179.434,88.287,176.71,85.694z"/>
							<path fill="#0C4C9D" d="M184.163,88.229c-1.188,0-5.254-0.173-7.588-2.395c-0.051-0.063-3.377-4.327-0.678-8.671
								c1.242-2.001,3.373-3.146,5.849-3.146c2.311,0,4.601,0.971,6.127,2.598c1.27,1.35,1.742,3.377,1.302,5.563
								c-0.543,2.677-2.323,5.044-4.541,6.028l-0.068,0.018C184.564,88.222,184.419,88.229,184.163,88.229z M181.746,74.406
								c-2.372,0-4.332,1.052-5.518,2.963c-2.559,4.115,0.602,8.163,0.634,8.204c2.211,2.104,6.146,2.268,7.301,2.268
								c0.17,0,0.29-0.004,0.346-0.005c2.092-0.944,3.771-3.191,4.283-5.735c0.417-2.059-0.021-3.96-1.202-5.22
								C186.134,75.332,183.95,74.406,181.746,74.406z"/>
						</g>
						<g>
							<path fill="#0C4C9D" d="M205.9,73.617c-0.883,0-1.573-1.197-1.573-2.725s0.69-2.725,1.573-2.725s1.574,1.196,1.574,2.724
								C207.475,72.42,206.783,73.617,205.9,73.617z M205.9,68.558c-0.644,0-1.187,1.068-1.187,2.334
								c0,1.265,0.543,2.335,1.187,2.335c0.642,0,1.185-1.069,1.185-2.335C207.085,69.626,206.542,68.558,205.9,68.558z"/>
							<g>
								<path fill="none" d="M206.664,68.109c-0.302,0-0.587,0.095-0.843,0.261c0.025-0.003,0.053-0.007,0.079-0.007
									c0.762,0,1.379,1.132,1.379,2.528c0,1.363-0.589,2.473-1.325,2.524c0.222,0.116,0.459,0.184,0.71,0.184
									c1.101,0,1.994-1.231,1.994-2.745C208.658,69.342,207.764,68.109,206.664,68.109z"/>
							</g>
						</g>
						<path fill="#0C4C9D" d="M181.87,77.422c-2.306,0-4.182,1.891-4.182,4.214s1.876,4.214,4.182,4.214s4.181-1.891,4.181-4.214
							S184.176,77.422,181.87,77.422z"/>
						<g>
							<path fill="#FFFFFF" d="M186.037,80.073c0,0.931-0.754,1.688-1.686,1.688s-1.688-0.756-1.688-1.688
								c0-0.93,0.756-1.685,1.688-1.685S186.037,79.143,186.037,80.073z"/>
							<path fill="#FFFFFF" d="M183.865,81.955c0,0.556-0.45,1.005-1.005,1.005c-0.556,0-1.005-0.449-1.005-1.005
								c0-0.555,0.449-1.005,1.005-1.005C183.415,80.949,183.865,81.399,183.865,81.955z"/>
						</g>
						<g>
							<path fill="#0C4C9D" d="M165.25,90.159l-1.51-0.375c0.846-3.407,3.588-3.544,4.092-3.913l-0.003,0.082
								c-0.006,0.005,0.052-0.071,0,0l0.003-0.082c-0.087,0.118-0.181,0.188-0.292,0.27
								C166.492,86.909,165.721,88.261,165.25,90.159z"/>
						</g>
						<path fill="#F7901E" d="M195.936,61.033c0,0-11.608,3.131-20.185,8.959c-8.572,5.829-9.392,12.896-7.923,15.961
							c0,0-1.084,0.61-1.662,0.899s-1.35,0.722-1.35,0.722s-1.253-7.321,2.795-13.199c4.046-5.877,10.98-7.467,13.727-9.008
							S194.635,61.226,195.936,61.033z"/>
						<path fill="#F7901E" d="M204.068,99.761c0,0-16.532-0.291-21.396-2.917c-4.859-2.625-2.752-3.239-2.752-3.239
							s-1.915-0.066-2.498,1.683c-0.583,1.751-0.266,3.334-0.266,3.334s1.569-0.024,4.326,0.703
							c2.758,0.729,14.151,1.771,16.337,4.839c2.186,3.07-0.104,5.151-1.769,5.62c-1.665,0.467-12.955-2.186-13.893-2.498
							c-0.936-0.312-0.771-0.703-0.771-0.703l-2.663-0.96c0,0-2.236,10.248-8.429,14.202c-6.191,3.956-3.643-3.173-1.094-6.712
							c2.549-3.536,5.736-7.226,5.736-7.226s-1.469,0.255-2.51,0.307s-2.604,0.208-2.604,0.208s-4.059,5.411-5.254,6.607
							c-1.197,1.196-2.759,2.966-3.538,4.682c-0.781,1.718-1.197,5.309-1.248,5.932c-0.052,0.625,2.549,2.29,2.964,2.604
							c0.416,0.31,2.812,0.935,2.967,0.935c0.156,0,2.289-1.456,2.654-1.769c0.362-0.313,5.565-3.644,7.022-5.672
							c1.457-2.029,3.747-6.294,4.424-7.699c0.676-1.404,1.663-3.538,2.081-3.746c0.416-0.208,2.132,0.052,2.859,0.416
							c0.729,0.365,7.701,2.55,10.563,1.771c2.861-0.78,5.619-1.926,6.505-3.071c0.884-1.145,1.561-2.652,2.029-3.641
							c0.467-0.99,1.194-3.332,1.145-3.539C204.951,100.001,204.068,99.761,204.068,99.761z"/>
						<path fill="#F7901E" d="M204.151,68.277c-0.146,0.139,1.762,0.246,2.228,1.73s-0.08,3.812-0.08,3.812s1.141,0.201,1.911-0.679
							c0.352-0.401,1.126-2.097,0.248-3.702C207.577,67.833,205.774,66.734,204.151,68.277z"/>
						<path opacity="0.17" fill="#910508" enable-background="new    " d="M173.181,84.809c0,0-3.015-7.695,1.455-12.275
							c4.47-4.578,11.562-3.678,15.649-0.243c4.088,3.436,3.488,14.12-5.07,16.627l-0.66-0.891c0,0,4.041-2.979,3.933-7.287
							c-0.11-4.308-4.962-6.27-8.777-5.071c-3.815,1.199-4.961,6.271-3.271,9.213c0,0-0.479,0.688-0.895,0.617
							C175.13,85.429,173.181,84.809,173.181,84.809z"/>
						<path fill="#0C4C9D" d="M166.307,128.339l-0.297-0.079c-0.211-0.056-5.181-1.386-7.258-3.736l-0.226-0.259l0.035-0.337
							c0.021-0.209,0.552-5.115,1.909-7.559c0.533-0.963,1.54-2.014,2.703-3.23c1.778-1.858,3.965-4.143,5.523-7.132
							c-2.007-1.385-7.768-6.397-4.853-16.76c-0.353-1.479-1.966-9.759,4.114-16.582c5.69-6.387,23.213-14.189,35.549-14.189
							c1.429,0,2.754,0.11,3.939,0.329c3.944,0.725,7.16,3.31,9.297,7.477c4.187,8.152,3.402,20.813-1.993,32.257l-0.089,0.192
							l-0.176,0.12c-0.132,0.089-3.254,2.17-8.611,2.215c-0.479,2.182-2.51,8.926-9.343,9.968c-1.03,0.157-2.101,0.237-3.188,0.237
							c-4.999,0-9.22-1.643-10.966-2.436c-1.014,3.151-5.07,13.597-15.807,19.357L166.307,128.339z M160.152,123.735
							c1.48,1.433,4.539,2.53,5.961,2.938c11.638-6.411,14.997-19.003,15.03-19.133l0.247-0.958l0.874,0.47
							c0.051,0.024,5.039,2.662,11.083,2.661c1.007,0,2.001-0.072,2.952-0.218c6.971-1.063,8.118-8.98,8.163-9.316l0.094-0.691
							l0.695,0.016c0.153,0.003,0.305,0.007,0.452,0.007h0.002c4.279,0,7.047-1.44,7.738-1.843
							c5.107-10.969,5.865-22.985,1.918-30.675c-1.909-3.72-4.743-6.021-8.194-6.657c-1.093-0.2-2.324-0.303-3.658-0.303
							c-11.752,0-29.021,7.645-34.388,13.669c-6.002,6.738-3.744,15.27-3.721,15.354l0.059,0.212l-0.061,0.211
							c-3.284,11.311,4.585,15.516,4.664,15.558l0.671,0.344l-0.324,0.683c-1.675,3.52-4.134,6.089-6.11,8.152
							c-1.089,1.143-2.03,2.124-2.469,2.912C160.819,118.949,160.296,122.588,160.152,123.735z"/>
						<path fill="#0C4C9D" d="M178.139,95.112c0.564-0.823,1.265-1.272,1.782-1.507l0.089-0.041
							c-3.817-0.156-4.401,2.437-2.853,5.058c0.013-0.819,0.127-1.513,0.308-2.101c7.266,4.273,17.865,4.29,23.731,4.29
							c3.177,0,5.056-0.241,5.3-0.27l3.46-1.461C209.793,99.1,188.912,101.564,178.139,95.112z"/>
						<g>
							<path fill="#0C4C9D" d="M174.942,105.886c-0.158,0.01-3.829,1.78-5.907,0.325l0.894-1.273
								C171.28,105.886,174.007,105.944,174.942,105.886L174.942,105.886z"/>
						</g>
					</g>
					<path fill="#FFF680" d="M198.553,60.432c0,0,10.491-2.604,15.048,3.741c4.555,6.346,6.686,17.688-0.155,33.493
						c0,0-2.367,3.275-20.1,1.486c0,0,12.363,0.325,17.244-1.302c0,0,7.484-15.781,4.068-27.332
						C211.241,58.967,201.887,60.188,198.553,60.432z"/>
					<path fill="#FFF680" d="M204.356,100.808c0,0-1.061,6.405-6.306,8.172c-5.246,1.766-13.194,0.098-16.66-2.397
						c0,0,6.37,3.205,13.332,2.044c6.961-1.161,8.523-5.901,8.624-7.818H204.356z"/>
					<path fill="#FFF680" d="M180.021,93.51c0,0-2.581-0.087-3.253,1.309c-0.822,1.711-0.078,2.954,0.348,3.745
						c0,0-1.565-0.952-1.56-2.963C175.562,93.363,178.107,92.763,180.021,93.51z"/>
					<g>
						<path fill="#FFC20E" d="M134.874,88.14c-1.224-1.749-3.315-2.712-5.896-2.712c-2.531,0-5.249,0.927-7.654,2.607
							c-4.99,3.491-7.033,9.218-4.552,12.764c1.223,1.749,3.316,2.714,5.896,2.714c2.529,0,5.248-0.927,7.652-2.608
							C135.313,97.415,137.355,91.688,134.874,88.14z"/>
						<path fill="#FFC20E" d="M123.929,109.186c-0.179-0.018-4.425-0.403-8.377-0.403c-2.304,0-4.05,0.135-5.193,0.402
							c-0.38,0.088-0.682,0.373-0.793,0.744l-4.328,14.395c-0.088,0.289-0.051,0.6,0.1,0.86c0.152,0.26,0.404,0.445,0.697,0.512
							c0.244,0.058,6.037,1.366,11.574,1.368c0.001,0,0.002,0,0.002,0c2.094,0,3.896-0.193,5.358-0.572
							c0.449-0.117,0.775-0.507,0.81-0.97l1.135-15.174C124.956,109.76,124.52,109.241,123.929,109.186z"/>
						<path fill="#FFC20E" d="M148.558,110.812c-0.121-0.26-0.343-0.456-0.614-0.545l-14.36-4.714
							c-0.309-0.102-0.646-0.052-0.912,0.135c-0.266,0.186-0.43,0.485-0.44,0.811l-0.59,17.988
							c-0.011,0.342,0.146,0.665,0.424,0.867c0.179,0.13,0.393,0.199,0.608,0.199c0.115,0,0.233-0.021,0.347-0.062
							c0.477-0.17,11.707-4.283,15.561-13.86C148.686,111.368,148.679,111.07,148.558,110.812z"/>
						<path fill="#FFC20E" d="M157.835,92.192l-5.024-5.526c-0.199-0.218-0.487-0.333-0.775-0.336l-7.47,0.097
							c-0.405,0.005-0.771,0.248-0.933,0.619l-2.441,5.621c-0.161,0.373-0.09,0.805,0.182,1.104l5.027,5.525
							c0.195,0.213,0.472,0.336,0.763,0.336c0.003,0,0.007,0,0.013,0l7.47-0.097c0.404-0.005,0.77-0.248,0.932-0.62l2.442-5.622
							C158.179,92.924,158.107,92.493,157.835,92.192z"/>
					</g>
					<path opacity="0.5" fill="#0C4C9D" enable-background="new    " d="M87.966,126.397c0,0,1.87-1.733,3.33-1.461
						c1.459,0.273,2.326,2.417,3.421,3.785c1.096,1.367,7.208,4.105,11.038,4.881c3.832,0.775,23.07,1.431,32.613-4.244
						c9.543-5.673,12.293-9.37,14.271-13.754c1.979-4.386,4.471-8.854,6.706-9.37c2.234-0.516,2.923,1.805,1.03,6.188
						c-1.892,4.387-2.836,7.996-5.33,11.606c-2.491,3.611-13.496,14.185-26.221,16.851c-12.723,2.664-25.79,3.438-35.161-2.666
						c0,0,6.964,5.677,17.624,6.362c10.66,0.687,22.008-1.289,28.8-5.244s7.395-3.438,10.401-4.556
						c3.01-1.119,6.535-0.774,7.309-0.945c0.772-0.174,2.924-0.087,2.924-0.087s-3.868-1.289-4.214-2.837
						c-0.345-1.549,1.978-4.301,5.503-3.955c3.524,0.344,6.533,1.633,9.025,1.289c2.493-0.343,5.105-1.44,5.435-2.31
						c0,0-1.736,0.075-1.394-1.902c0.343-1.979,3.009-2.063,3.868-1.117s0-1.807-0.171-2.319c-0.172-0.518-2.17-3.703-2.17-3.703
						s-1.7,2.413-3.591,4.476c-1.892,2.063-6.105,5.675-7.051,5.675c-0.944,0-3.438-0.174-4.813-1.031
						c-1.376-0.86-2.321-2.321-2.321-2.321s2.406-6.276,3.095-7.822c0.688-1.549,6.757-10.104,6.757-10.104s-4.143-3.967-4.69-5.283
						c-0.549-1.316-0.556-1.979-0.556-1.979s-0.207-2.909-0.035-3.683c0.172-0.774,0.073-2.021,0.073-2.021
						s-5.158-9.083-15.045-10.888c-9.888-1.807-17.882-0.603-22.609,1.375c0,0,15.816-3.697,22.352,9.112
						c6.533,12.811,1.836,30.897-16.042,36.459c-15.669,4.873-29.178,3.172-31.068-3.361c0,0-1.203-2.491-5.847-2.491
						C90.57,123,89.058,124.208,87.966,126.397z"/>
					<g>
						<path fill="none" d="M206.664,68.109c-0.302,0-0.587,0.095-0.843,0.261c0.025-0.003,0.053-0.007,0.079-0.007
							c0.762,0,1.379,1.132,1.379,2.528c0,1.363-0.589,2.473-1.325,2.524c0.222,0.116,0.459,0.184,0.71,0.184
							c1.101,0,1.994-1.231,1.994-2.745C208.658,69.342,207.764,68.109,206.664,68.109z"/>
						<path fill="#0C4C9D" d="M205.009,67.354c-1.419,0.496-2.045,2.419-1.393,4.287c0.652,1.869,2.339,2.982,3.759,2.487
							c1.419-0.496,2.044-2.418,1.393-4.287C208.113,67.974,206.429,66.858,205.009,67.354z M207.228,73.709
							c-0.271,0.095-0.555,0.112-0.835,0.07c0.775-0.336,0.993-1.756,0.479-3.231c-0.527-1.509-1.622-2.5-2.446-2.213
							c-0.027,0.011-0.055,0.025-0.081,0.038c0.215-0.274,0.485-0.485,0.812-0.6c1.188-0.416,2.622,0.579,3.192,2.215
							C208.919,71.625,208.417,73.294,207.228,73.709z"/>
					</g>
				</g>
				<path fill="#FFC20E" d="M167.99,145.043c0,0,5.804-2.516,7.649-4.597c0,0-1.101-2.391-2.647-3.627l-1.613-0.197
					c0,0,2.415,2.249,2.885,3.489c0,0-4.428,2.516-6.476,3.289C165.742,144.171,167.99,145.043,167.99,145.043z"/>
			</g>
		</g>
		<g>
			<path fill="#F7901E" d="M216.29,66.344c-0.625-1.182-1.644-1.75-2.267-1.27c-0.169,0.132-0.293,0.332-0.368,0.573
				c0.014-0.015,0.026-0.029,0.042-0.04c0.431-0.334,1.25,0.28,1.827,1.369c0.563,1.063,0.688,2.188,0.295,2.552
				c0.173-0.006,0.336-0.059,0.478-0.168C216.921,68.877,216.917,67.525,216.29,66.344z"/>
			<path fill="#0C4C9D" d="M216.51,66.174c-0.715-1.349-1.902-1.978-2.646-1.401c-0.745,0.576-0.771,2.141-0.055,3.489
				c0.715,1.35,1.903,1.978,2.646,1.401C217.202,69.087,217.226,67.522,216.51,66.174z M216.297,69.359
				c-0.142,0.11-0.305,0.163-0.478,0.168c0.395-0.364,0.27-1.487-0.295-2.552c-0.577-1.088-1.396-1.703-1.827-1.369
				c-0.016,0.011-0.028,0.025-0.042,0.04c0.075-0.241,0.199-0.441,0.368-0.573c0.623-0.482,1.642,0.088,2.267,1.269
				C216.917,67.525,216.921,68.877,216.297,69.359z"/>
		</g>
	</g>
	<g>
		<g>
			<g>
				<path id="SVGID_5_" fill="#FDDE48" d="M77.929,211.988c13.337,0,24.146,10.809,24.146,24.143s-10.81,24.146-24.146,24.146
					c-13.334,0-24.144-10.812-24.144-24.146C53.786,222.797,64.595,211.988,77.929,211.988L77.929,211.988z"/>
			</g>
		</g>
		<g>
			<g>
				<rect id="SVGID_13_" x="439.416" y="211.985" fill="#CCD3DC" width="247.656" height="256.321"/>
			</g>
		</g>
		<g>
			<g>
				<path id="SVGID_15_" fill="#E14A53" d="M77.929,280.988c13.337,0,24.146,10.81,24.146,24.144s-10.81,24.146-24.146,24.146
					c-13.334,0-24.144-10.813-24.144-24.146S64.595,280.988,77.929,280.988L77.929,280.988z"/>
			</g>
		</g>
		<g>
			<g>
				<path id="SVGID_21_" fill="#6B30C3" d="M77.929,350.988c13.337,0,24.146,10.81,24.146,24.144s-10.81,24.146-24.146,24.146
					c-13.334,0-24.144-10.813-24.144-24.146S64.595,350.988,77.929,350.988L77.929,350.988z"/>
			</g>
		</g>
		<g>
			<g>
				<path id="SVGID_27_" fill="#B2FD45" d="M77.929,419.988c13.337,0,24.146,10.811,24.146,24.145s-10.81,24.146-24.146,24.146
					c-13.334,0-24.144-10.812-24.144-24.146S64.595,419.988,77.929,419.988L77.929,419.988z"/>
			</g>
		</g>
	</g>
	<path fill="#2B7CCD" d="M1,502.246V20.398C1,9.757,9.722,1,20.337,1h698.629c10.676,0,19.426,8.757,19.426,19.398v481.847h1V20.398
		C739.391,9.151,730.228,0,718.966,0H20.337C9.123,0,0,9.151,0,20.398v481.847L1,502.246L1,502.246z"/>
</g>
<g>
	<g>
		<rect id="SVGID_9_" x="118.165" y="211.988" fill="#73879E" width="309.629" height="48.289"/>
	</g>
</g>
<g>
	<g>
		<rect id="SVGID_19_" x="118.165" y="280.988" fill="#CCD3DC" width="309.629" height="48.289"/>
	</g>
</g>
<g>
	<g>
		<rect id="SVGID_25_" x="118.165" y="350.988" fill="#73879E" width="309.629" height="48.289"/>
	</g>
</g>
<g>
	<g>
		<rect id="SVGID_31_" x="118.165" y="419.988" fill="#CCD3DC" width="309.629" height="48.289"/>
	</g>
</g>
</svg>
