<?xml version="1.0" encoding="utf-8"?>
<!-- Generator: Adobe Illustrator 16.0.0, SVG Export Plug-In . SVG Version: 6.00 Build 0)  -->
<!DOCTYPE svg PUBLIC "-//W3C//DTD SVG 1.1//EN" "http://www.w3.org/Graphics/SVG/1.1/DTD/svg11.dtd">
<svg version="1.1" id="Layer_1" xmlns="http://www.w3.org/2000/svg" xmlns:xlink="http://www.w3.org/1999/xlink" x="0px" y="0px"
	 width="2000px" height="2000px" viewBox="0 0 2000 2000" enable-background="new 0 0 2000 2000" xml:space="preserve">
<g>
	<path fill="#4989C8" d="M608.75,1840.104c0,25.229,206.085,45.691,460.287,45.691c254.219,0,460.309-20.463,460.309-45.691
		c0-25.244-206.09-45.713-460.309-45.713C814.835,1794.391,608.75,1814.859,608.75,1840.104z"/>
	<g>
		<path fill="#1193CD" d="M799.006,735.541c-5.296,3.16-95.637,58.617-154.245,222.113
			c-58.61,163.489-69.405,562.981,198.97,728.014c268.383,165.041,501.672,44.268,603.09-180.454
			c104.893-232.4,26.746-641.652-160.408-808.236C1099.266,530.4,868.932,693.896,799.006,735.541z"/>
		<path fill="#0C4C9D" d="M1088.605,1771.523c-0.016,0-0.021,0-0.027,0c-81.555-0.007-165.571-26.244-249.691-77.973
			c-151.495-93.153-206.734-253.138-226.394-370.941c-25.411-152.292-3.201-293.457,23.552-368.086
			c58.807-163.997,148.224-220.97,158.228-226.929c4.824-2.877,10.423-6.339,16.728-10.231
			c54.068-33.423,166.563-102.969,286.617-102.969c72.938,0,138.527,25.461,194.949,75.681
			c188.098,167.417,270.211,580.722,162.693,818.939C1381.066,1673.385,1244,1771.523,1088.605,1771.523z M1097.617,632.904
			c-114.795,0-220.238,65.181-276.888,100.198c-6.403,3.955-12.085,7.474-16.993,10.393c-3.751,2.235-92.675,56.635-150.261,217.283
			c-25.998,72.521-47.554,209.998-22.72,358.778c19.024,114.018,72.261,268.722,217.832,358.229
			c81.146,49.908,161.904,75.223,239.99,75.229c147.932,0.015,278.697-94.055,349.809-251.614
			c104.752-232.083,24.941-634.551-158.123-797.504C1227.336,656.793,1165.879,632.904,1097.617,632.904z"/>
	</g>
	<g>
		<path fill="#FFC20E" d="M874.192,815.149c0,0-63.546-25.631-98.386,29.721c-34.848,55.337-46.123,118.876-68.671,140.396
			c0,0-88.127-121.95-152.701-146.544c0,0-49.176,17.416-98.365,98.378c-49.196,80.969-49.202,148.604-45.099,153.723
			c4.104,5.126,79.953,14.349,138.365,63.538s83.014,78.924,107.607,89.162c24.596,10.26,44.07-4.096,54.324-26.646
			c0,0-17.404,87.103,31.786,210.083c49.189,122.986,81.984,149.626,79.939,176.272c-2.052,26.653-38.944,86.088-67.643,122.979
			s-38.937,63.539-33.817,73.784s33.825,40.982,129.136,54.315c95.312,13.319,134.249-12.298,134.249-12.298
			s70.723-66.626,67.641-146.559c0,0,45.1,60.464,55.344,103.504c10.248,43.049,4.1,61.488,20.5,67.643
			c16.395,6.155,87.096,17.423,163.961-1.029c76.865-18.438,117.854-63.531,113.764-72.754c-4.096-9.23-6.156-28.691-26.654-58.412
			c-20.496-29.721-83.006-101.46-91.199-168.073c0,0,117.854-156.797,83.014-334.085c0,0,14.334,18.452,57.377,6.148
			c43.047-12.297,73.797-44.063,117.865-85.052c44.064-40.988,112.729-103.504,153.725-113.757c0,0-30.756-100.43-101.467-163.968
			c-70.709-63.546-106.578-66.613-106.578-66.613s-83.021,100.437-100.439,171.146c0,0-38.314-58.997-49.863-98.992
			c-11.551-39.995-48.881-87.097-109.309-86.201c-60.436,0.889-178.635,0-212.404,4.443
			C986.42,803.846,874.192,815.149,874.192,815.149z"/>
		<path fill="#0C4C9D" d="M1204.646,1888.023c-39.826,0-70.004-5.902-80.58-9.872c-17.545-6.578-19.498-21.591-21.965-40.621
			c-1.215-9.407-2.729-21.112-6.207-35.708c-5.287-22.239-20.998-50.148-33.986-70.66c-13.402,67.17-65.928,117.374-68.529,119.829
			l-1.678,1.325c-1.129,0.739-28.305,18.178-89.072,18.178c-16.816,0-34.875-1.34-53.666-3.969
			c-110.485-15.449-134.729-53.527-138.472-61.008c-10.492-20.999,13.312-58.842,35.114-86.878
			c30.089-38.676,63.419-94.663,65.083-116.352c0.706-9.188-5.896-21.084-17.896-42.653
			c-14.146-25.447-35.518-63.891-61.198-128.099c-30.884-77.231-36.264-140.502-35.691-178.445
			c-12.919,7.319-28.41,8.193-43.712,1.826c-17.458-7.283-33.762-22.197-58.455-44.774c-13.756-12.594-30.89-28.275-52.346-46.341
			c-41.293-34.77-92.922-48.886-117.742-55.684c-14.018-3.835-18.742-5.126-22.31-9.583c-9.533-11.908-5.866-85.474,44.183-167.845
			c50.896-83.747,102.623-102.828,104.794-103.597l4.281-1.516l4.237,1.614c54.795,20.879,122.987,104.542,148.329,137.541
			c6.177-10.796,12.143-26.019,18.728-42.829c10.19-25.984,21.732-55.444,39.472-83.613c21.542-34.219,52.688-41.404,75.013-41.404
			c16.146,0,29.53,3.772,35.34,5.705c17.458-1.77,112.615-11.444,142.865-15.428c25.574-3.364,95-3.744,156.254-4.083
			c21.492-0.113,41.566-0.226,57.58-0.458l1.867-0.014c63.555,0,105.797,47.779,119.477,95.134
			c6.6,22.86,22.805,52.913,34.643,73.199c27.211-68.178,91.234-146.101,94.295-149.795l4.119-4.978l6.443,0.542
			c4.09,0.346,42.063,5.295,113.779,69.729c72.43,65.083,103.715,165.301,105.006,169.54l3.816,12.431l-12.617,3.151
			c-39.902,9.971-115.871,80.645-148.314,110.817c-4.166,3.885-8.229,7.686-12.184,11.395
			c-38.479,36.06-68.869,64.54-110.689,76.491c-17.219,4.922-33.395,5.654-44.832,3.336
			c19.898,156.493-67.91,290.263-86.031,315.928c8.277,50.613,49.443,105.473,74.334,138.648
			c5.605,7.467,10.443,13.904,14.109,19.221c16.43,23.826,21.965,42.04,25.271,52.934c0.951,3.131,1.775,5.846,2.496,7.468
			c2.178,4.907,1.721,10.563-1.354,16.796c-10.238,20.716-54.477,57.065-120.801,72.979
			C1266.359,1884.506,1235.883,1888.023,1204.646,1888.023z M1037.377,1661.892l25.076,26.188
			c1.908,2.554,46.74,63.023,57.453,108.024c3.777,15.858,5.387,28.283,6.676,38.26c2.271,17.537,3.188,19.582,6.148,20.688
			c7.223,2.702,34.291,8.292,71.916,8.292c29.297,0,57.84-3.285,84.84-9.766c61.705-14.808,98.16-47.885,104.063-59.046
			c-0.775-2.151-1.482-4.479-2.264-7.038c-3.068-10.125-7.713-25.42-21.965-46.086c-3.385-4.9-8.088-11.17-13.531-18.425
			c-27.141-36.173-72.578-96.722-79.771-155.141l-0.6-4.93l2.984-3.997c1.141-1.516,114.109-154.675,80.764-324.299l-8.215-17.685
			l16.959,4.971l8.242,3.843c2.264,1.263,10.479,4.542,25.398,4.542c7.029,0,15.012-1.263,23.721-3.752
			c36.088-10.309,63.145-35.672,100.6-70.78c3.975-3.715,8.053-7.544,12.248-11.443c52.834-49.146,106.641-96.123,146.383-112.424
			c-10.176-27.479-40.354-98.921-93.957-147.088c-49.697-44.655-81.188-58.101-93.592-62.008
			c-17.662,22.317-79.014,102.723-93.201,160.309l-6.818,27.662l-15.514-23.889c-1.607-2.468-39.451-61.014-51.375-102.292
			c-8.293-28.705-37.787-77.302-95.764-77.302l-1.5,0.014c-16.078,0.24-12.094-9.611-33.656-9.499
			c-57.531,0.317-153.285,10.676-177.324,13.834c-33.57,4.421-141.785,15.33-146.367,15.788l-3.032,0.318l-2.82-1.15
			c-0.1-0.035-12.911-5.021-29.206-5.021c-23.438,0-41.646,10.048-54.133,29.869c-16.493,26.202-27.584,54.506-37.364,79.474
			c-11.05,28.191-19.778,50.452-33.218,63.292l-10.232,9.766l-8.292-11.465c-0.832-1.163-82.484-113.412-142.519-140.347
			c-12.064,6.029-49.986,28.791-88.006,91.363c-38.943,64.087-46.023,120.927-44.966,138.408c2.455,0.733,5.593,1.594,8.519,2.391
			c26.513,7.255,81.682,22.344,127.119,60.611c21.845,18.39,39.19,34.262,53.116,47.003c22.768,20.83,37.802,34.587,51.298,40.206
			c3.85,1.601,7.558,2.419,11.042,2.419c15.287,0,24.179-15.929,27.287-22.782l44.312-97.477l-20.978,105
			c-0.155,0.825-15.901,85.433,31.158,203.081c25.088,62.742,46.002,100.374,59.843,125.265
			c14.322,25.758,22.205,39.945,20.93,56.544c-2.461,32.04-43.33,95.063-70.196,129.601c-30.15,38.768-33.224,57.982-32.392,61.008
			c4.478,8.919,34.994,35.46,119.672,47.298c17.671,2.461,34.579,3.717,50.254,3.717c46.842,0,70.152-11.189,74.758-13.686
			c8.053-8.018,65.477-67.748,62.846-136.194L1037.377,1661.892z"/>
	</g>
	<g>
		<path fill="#FFC20E" d="M1281.893,568.886c0,0,67.17-68.665,2.99-165.689c-64.195-97.024-77.627-77.619-159.725-143.301
			c-82.098-65.668-246.299-98.513-334.354-56.72c-88.07,41.799-125.398,171.661-122.409,279.128
			c2.99,107.475,44.782,173.149,59.709,191.066c14.935,17.903,61.204,22.395,61.204,22.395s7.461,67.17,67.171,102.99
			c59.708,35.828,105.987,13.439,131.356,32.845c25.371,19.398,8.949,92.546-34.34,119.412
			c-43.28,26.865-137.321,89.564-183.592,219.426c-46.276,129.869,7.461,317.945,155.233,374.665
			c147.778,56.727,331.37-16.415,374.665-177.627c43.287-161.204-11.938-285.101-67.17-349.296
			c-55.225-64.172-76.125-97.023-65.676-152.248c10.451-55.225,46.271-79.107,82.098-70.152
			C1249.055,795.779,1352.059,725.613,1281.893,568.886z"/>
		<path fill="#0C4C9D" d="M1030.242,1575.719c-37.582,0-74.045-6.67-108.377-19.856c-71.802-27.563-127.746-86.92-157.532-167.135
			c-26.984-72.662-28.811-156.099-4.907-223.198c49.698-139.473,157.2-196.805,191.588-218.157
			c24.941-15.477,48.111-53.991,49.316-78.783c0.6-12.213-13.813-24.108-18.84-27.951c-7.756-5.93-20.363-6.515-36.328-7.255
			c-24.037-1.114-56.953-2.651-93.894-24.806c-50.903-30.539-66.812-81.308-71.394-102.525c-15.83-2.489-46.517-9.251-60.098-25.546
			c-6.043-7.249-59.111-74.383-62.564-198.626c-3.131-112.585,35.68-246.114,129.446-290.614
			c27.272-12.946,62.917-19.793,103.073-19.793c87.781,0,185.949,31.35,244.275,78.022c26.617,21.294,45.48,33.21,62.127,43.745
			c33.572,21.218,55.762,35.242,100.178,102.391c57.234,86.511,16.789,153.787,1.059,174.496
			c67.33,159.407-39.129,234.333-40.223,235.08l-4.582,3.109l-5.365-1.332c-3.887-0.98-7.807-1.474-11.643-1.474
			c-26.906,0-48.104,23.742-55.338,61.952c-9.193,48.618,6.797,76.717,62.912,141.912c29.777,34.606,122.809,162.875,69.729,360.541
			C1280.32,1491.091,1164.102,1575.719,1030.242,1575.719z M889.732,196.146c-36.511,0-68.509,6.028-92.497,17.417
			c-83.274,39.522-118.171,166.436-115.357,267.635c3.278,117.917,54.66,180.885,56.847,183.515
			c8.03,9.617,35.776,16.316,52.925,17.994l9.957,0.988l1.114,9.935c0.07,0.592,7.756,61.684,61.247,93.788
			c31.596,18.953,58.56,20.208,82.337,21.315c19.477,0.896,14.52,15.654,28.402,26.273c11.811,9.025,25.99,18.129,24.977,39.057
			c-1.475,30.25-28.191,65.336-75.592,91.602c-33.527,18.573-94.619,76.809-141.417,208.144
			c-44.712,125.497,9.095,305.676,148.032,359.012c31.504,12.093,64.984,18.221,99.535,18.221
			c122.719,0,229.135-77.112,258.787-187.521c49.936-185.975-36.822-305.76-64.598-338.041
			c-55.295-64.257-62.17-94.38-50.564-155.753c9.568-50.606,48.865-70.011,88.387-70.011c3.844,0-18.961-18.559-15.088-17.924
			c17.387-14.385,82.449-79.424,24.615-208.63l-3.441-7.658l5.881-6.007c2.404-2.503,59.152-63.123,1.51-150.247
			c-41.504-62.734-59.709-74.249-92.773-95.149c-16.352-10.323-13.396-24.7-41.088-46.841
			C1088.422,224.499,971.041,196.146,889.732,196.146z"/>
	</g>
	<g>
		<linearGradient id="SVGID_1_" gradientUnits="userSpaceOnUse" x1="991.7837" y1="1564.1465" x2="991.7836" y2="184.5786">
			<stop  offset="0.0054" style="stop-color:#FFFCD5"/>
			<stop  offset="0.0738" style="stop-color:#FFF8CE;stop-opacity:0.899"/>
			<stop  offset="0.1771" style="stop-color:#FFF1BC;stop-opacity:0.7465"/>
			<stop  offset="0.3024" style="stop-color:#FFE79F;stop-opacity:0.5616"/>
			<stop  offset="0.4449" style="stop-color:#FFDA78;stop-opacity:0.3512"/>
			<stop  offset="0.5999" style="stop-color:#FFCB3D;stop-opacity:0.1223"/>
			<stop  offset="0.6828" style="stop-color:#FFC20E;stop-opacity:0"/>
		</linearGradient>
		<path fill="url(#SVGID_1_)" d="M1281.893,568.886c0,0,67.17-68.665,2.99-165.689c-64.195-97.024-77.627-77.619-159.725-143.301
			c-82.098-65.668-246.299-98.513-334.354-56.72c-88.07,41.799-125.398,171.661-122.409,279.128
			c2.99,107.475,44.782,173.149,59.709,191.066c14.935,17.903,61.204,22.395,61.204,22.395s7.461,67.17,67.171,102.99
			c59.708,35.828,105.987,13.439,131.356,32.845c25.371,19.398,2.604,93.745-40.686,120.61
			c-43.28,26.873-130.976,88.366-177.246,218.228c-46.276,129.869,7.461,317.945,155.233,374.665
			c147.778,56.727,331.37-16.415,374.665-177.627c43.287-161.204-11.938-285.101-67.17-349.296
			c-55.225-64.172-69.588-92.841-59.146-148.074c10.449-55.226,73.227-79.354,109.047-70.392
			C1282.533,799.714,1352.059,725.613,1281.893,568.886z"/>
		<path fill="#0C4C9D" d="M1029.094,1576.487c-37.578,0-74.045-6.685-108.385-19.856c-71.789-27.563-127.74-86.92-157.523-167.135
			c-26.986-72.662-28.813-156.099-4.909-223.205c49.704-139.473,159.125-198.716,193.507-220.061
			c24.947-15.498,47.482-55.281,48.682-80.074c0.6-12.219-15.096-20.914-20.131-24.756c-7.742-5.923-20.352-6.508-36.321-7.256
			c-24.038-1.114-56.959-2.644-93.879-24.806c-50.91-30.546-66.824-81.308-71.401-102.524c-15.837-2.489-46.518-9.252-60.104-25.54
			c-6.043-7.249-59.109-74.39-62.558-198.618c-3.138-112.601,35.679-246.123,129.431-290.629
			c27.289-12.939,62.939-19.786,103.089-19.786c87.773,0,185.939,31.356,244.275,78.028c26.619,21.281,45.486,33.205,62.135,43.725
			c33.564,21.231,55.754,35.249,100.17,102.39c57.234,86.533,16.797,153.801,1.051,174.503
			c67.332,159.42-39.127,234.333-40.221,235.08l-4.576,3.124l-5.373-1.347c-3.885-0.966-7.799-1.459-11.635-1.459
			c-26.906,0-48.109,23.734-55.338,61.931c-9.193,48.639,6.799,76.71,62.912,141.919c29.775,34.606,122.811,162.882,69.729,360.534
			C1279.176,1491.858,1162.959,1576.487,1029.094,1576.487z M888.59,196.921c-36.51,0-68.501,6.015-92.504,17.402
			c-83.269,39.522-118.172,166.444-115.352,267.643c3.272,117.91,54.662,180.884,56.847,183.5
			c8.024,9.624,35.785,16.33,52.927,18.016l9.957,0.979l1.105,9.936c0.071,0.578,7.766,61.684,61.255,93.781
			c31.597,18.96,58.546,20.216,82.337,21.315c19.475,0.91,15.662,14.892,29.545,25.511c11.811,9.025,25.99,15.569,24.977,36.504
			c-1.475,30.25-27.824,64.928-61.496,85.827c-32.568,20.216-109.856,85.904-156.662,217.247
			c-44.712,125.477,9.095,305.677,148.04,359.005c31.491,12.093,64.983,18.227,99.528,18.227
			c122.719,0,229.141-77.125,258.791-187.54c49.938-185.969-36.82-305.761-64.602-338.042
			c-55.281-64.242-60.633-98.969-49.027-160.336c9.568-50.6,37.479-54.393,64.463-74.051c3.107-2.264,3.426-9.929,7.305-9.294
			c17.389-14.384,82.441-79.425,24.607-208.624l-3.426-7.672l5.867-6c2.41-2.511,59.16-63.116,1.516-150.248
			c-41.504-62.728-59.719-74.249-92.781-95.142c-16.336-10.337-18.832-27.196-46.523-49.344
			C1081.836,222.764,969.898,196.921,888.59,196.921z"/>
	</g>
	<g>
		<path fill="#0C4C9D" d="M1272.775,580.259c-4.117-20.589-34.756-57.291-34.939-57.672l0.74-0.247
			c0.818,1.707,53.674,29.439,58.398,53.082L1272.775,580.259z"/>
	</g>
	<path fill="#0C4C9D" d="M956.275,713.315c-16.472-22.951-42.816-26.118-68.827-26.118c-8.793,0-18.065,0.381-27.873,0.783
		l-4.169,0.175c-7.016,0.276-21.244-1.974-28.119-1.974c-29.58,0-34.268-2.539-34.452-2.567l-33.232-1.685l22.473,15.174
		c9.095,6.148,20.039,9.019,34.438,9.019c7.431,0,14.926-0.734,22.176-1.445c6.881-0.678,13.391-1.312,19.496-1.312l1.946,0.014
		c15.048,0.367,29.798,3.187,38.062,5.056c-7.332,19.75-4.809,33.38-1.106,41.602c4.499,9.999,13.214,17.409,24.552,20.878
		c2.582,0.783,5.288,1.191,8.046,1.191c12.155,0,24.39-7.925,30.454-19.736C966.543,739.906,965.131,725.662,956.275,713.315z"/>
	<g>
		<path fill="#0C4C9D" d="M1005.316,830.415c-17.1,0-28.451-3.871-29.447-4.224l4.119-11.627l-2.059,5.81l2.037-5.817
			c1.904,0.656,46.934,15.709,93.859-21.626l0,0C1049.9,822.947,1025.336,830.415,1005.316,830.415z"/>
	</g>
	<g>
		<path fill="#0C4C9D" d="M1054.9,390.124c-46.066,0-55.275-30.658-55.902-31.963l0.141-1.17l0,0l0,0
			c0.537,1.064,18.961,23.36,62.34,20.589c44.295-2.834,61.678-29.967,62.453-31.236l19.539-0.522
			c-0.91,1.501-30.264,40.819-81.215,44.077C1059.715,390.046,1057.262,390.124,1054.9,390.124z"/>
	</g>
	<g>
		<path fill="#0C4C9D" d="M910.527,878.589c-0.1-0.438-10.817-44.522-41.377-52.708l4.801-17.882
			C915.279,819.091,910.004,876.339,910.527,878.589L910.527,878.589z"/>
	</g>
	<g>
		<path fill="#0C4C9D" d="M1204.922,1000.687c-40.48-50.811-114.906-59.576-115.619-59.611l0,0c9.576,0,87.582-5.281,130.094,48.083
			L1204.922,1000.687z"/>
	</g>
	<g>
		<path fill="#0C4C9D" d="M1349.266,1126.389L1349.266,1126.389c0.438-0.889,27.332-97.314,35.01-142.526l18.242,3.095
			C1394.387,1034.85,1351.1,1122.672,1349.266,1126.389z"/>
	</g>
	<g opacity="0.5">
		<path fill="#DC651E" d="M1491.207,816.292c0,0,16.889,69.306,78.205,135.072c61.324,65.766,130.842,88.224,130.842,88.224
			s-34.848-96.213-89.953-153.983C1555.197,827.84,1492.104,805.623,1491.207,816.292z"/>
		<path fill="#0C4C9D" d="M1715.385,1054.198l-17.98-5.804c-2.932-0.944-72.514-23.953-134.756-90.713
			c-62.26-66.768-79.719-136.285-80.426-139.205l-0.359-1.459l0.121-1.501c0.43-5.112,4.408-11.063,14.209-11.063
			c20.221,0,74.883,26.618,120.801,74.771c55.816,58.504,90.516,153.215,91.953,157.213L1715.385,1054.198z M1503.271,824.196
			c7.094,21.167,27.592,72.268,72.91,120.864c39.6,42.47,82.914,66.444,107.313,77.69c-13.18-30.877-41.736-90.763-79.885-130.757
			C1563.834,850.299,1521.801,829.272,1503.271,824.196z"/>
	</g>
	<path fill="#0C4C9D" d="M1621.422,989.87c-13.264-9.202-33.184-23.022-36.666-26.378l-2.559-3.694h-4.951
		c-4.082,0-8.322,0-21.57,26.054c-5.654,11.127-12.395,26.667-12.395,37.499c0,22.514,17.26,45.804,46.148,45.804
		c0.008,0,0.008,0,0.008,0c1.213,0,2.439-0.035,3.701-0.119c27.994-1.868,66.408-35.581,66.408-46.567
		C1659.547,1016.312,1659.547,1016.312,1621.422,989.87z"/>
	<g>
		<path fill="#0C4C9D" d="M1381.73,1247.619c-26.514-3.06-46.594-22.232-65.105-62.177c-8.953-19.327-33.344-63.56-52.939-99.091
			c-33.563-60.852-33.563-60.852-31.863-65.928l17.557,5.865c0.959-2.869,0.17-5.133,0.07-5.387
			c1.516,4.068,16.889,31.935,30.447,56.508c20.768,37.66,44.297,80.342,53.527,100.24c15.49,33.444,31.045,49.352,50.436,51.579
			L1381.73,1247.619z"/>
	</g>
	<g>
		<path fill="#0C4C9D" d="M717.359,1231.226l-18.192-3.378c5.218-28.162,25.3-113.573,55.127-169.729
			c30.172-56.804,61.261-86.073,65.942-90.755l0,0l0,0l0,0c-3.258,3.526-19.898,43.534-49.599,99.429
			C741.897,1120.902,722.436,1203.839,717.359,1231.226z"/>
	</g>
	<g>
		<path fill="#0C4C9D" d="M785.897,1027.932l-18.771,9.414c0.889-8.01,13.37-70.441,24.165-84.832l0,0
			C791.206,953.112,786.757,1020.119,785.897,1027.932z"/>
	</g>
	<g>
		<path fill="#0C4C9D" d="M706.909,1133.757c19.722-58.257,18.995-112.523-1.692-161.126l-17.028,7.249
			c18.854,44.31,28.282,112.191,12.163,166.986C700.352,1146.865,705.654,1137.459,706.909,1133.757z"/>
	</g>
	<g opacity="0.5">
		<path fill="#DC651E" d="M414.989,1089.123c0,0,62.206-47.103,103.978-140.424c41.771-93.309,35.468-109.978,35.468-109.978
			s-62.136,37.11-100.345,94.881C415.871,991.373,392.765,1094.461,414.989,1089.123z"/>
		<path fill="#0C4C9D" d="M413.403,1098.578h-0.008c-5.479-0.008-10.224-2.982-13.016-8.179
			c-12.276-22.875,13.073-112.149,45.988-161.903c38.937-58.855,100.719-96.157,103.327-97.716l9.491-5.675l3.907,10.343
			c2.297,6.085,3.426,29.672-35.68,117.036c-42.25,94.401-104.225,142.039-106.839,144.013l-1.553,1.178l-1.876,0.451
			C415.885,1098.43,414.623,1098.578,413.403,1098.578z M543.202,857.4c-20.526,14.701-56.474,43.625-81.394,81.307
			c-31.757,47.99-48.116,117.063-46.326,137.956c16.396-14.313,62.354-58.729,95.037-131.737
			C531.179,898.762,539.718,872.136,543.202,857.4z"/>
	</g>
	<g>
		<path fill="#0C4C9D" d="M832.886,1653.515c-0.297-1.516-0.253-2.891-0.183-4.802c0.238-7.284,0.888-26.625-17.475-57.396
			l15.894-9.484C852.277,1617.271,833.153,1645.589,832.886,1653.515C832.871,1654.143,832.886,1653.154,832.886,1653.515
			C832.879,1653.127,832.936,1653.747,832.886,1653.515L832.886,1653.515z"/>
	</g>
	<g>
		<path fill="#0C4C9D" d="M1054.525,1713.295c-16.012-43.068-95.951-107.63-96.77-108.285l0,0
			c3.455,2.777,96.348,54.025,114.139,101.826L1054.525,1713.295z"/>
	</g>
	<g>
		<path fill="#0C4C9D" d="M1049.238,1716.764c-6.988-6.402-32.809-29.001-64.01-28.6l0,0h-0.502l0.967-0.938l-0.465,0.938
			c22.154-0.274,61.67,1.34,76.518,14.955L1049.238,1716.764z"/>
	</g>
	<g>
		<path fill="#0C4C9D" d="M1243.4,1593.594L1243.4,1593.594c0.344-0.354,1.326-1.234,2.799-2.524
			c6.189-5.409,25.018-21.866,34.953-36.286l15.244,10.515C1285.143,1581.614,1258.85,1592.07,1243.4,1593.594
			C1242.131,1593.707,1243.709,1593.291,1243.4,1593.594z"/>
	</g>
	<g>
		<path fill="#0C4C9D" d="M736.743,1813.895c0,0,16.901-55.105,58.863-45.707c41.961,9.386,31.313,59.492,20.666,78.275
			C816.272,1846.463,749.258,1830.796,736.743,1813.895z"/>
		<path fill="#0C4C9D" d="M820.912,1857.04l-6.748-1.573c-11.738-2.734-71.02-17.381-84.86-36.073l-2.778-3.743l1.367-4.471
			c0.664-2.179,16.846-53.335,58.287-53.335c3.735,0,7.593,0.444,11.45,1.304c15.59,3.498,26.942,12.36,32.845,25.652
			c10.111,22.79,1.861,52.088-6.148,66.226L820.912,1857.04z M747.467,1811.546c11.044,8.362,40.622,18.213,63.701,24.129
			c4.837-12.064,8.095-30.495,2.384-43.364c-3.519-7.94-10.056-12.876-19.969-15.097c-2.539-0.571-5.021-0.86-7.403-0.86
			C764.348,1776.354,751.918,1800.723,747.467,1811.546z"/>
	</g>
	<path fill="#0C4C9D" d="M940.875,1796.767c-12.608-14.229-29.39-20.497-47.717-17.691c-48.313,7.319-51.613,72.084-51.733,74.835
		l-0.297,6.825l6.438,2.299c7.502,2.658,18.264,3.947,32.915,3.947c31.681,0,70.265-6.113,71.894-6.372l6.883-1.101l0.846-6.925
		C961.867,1838.03,955.725,1813.527,940.875,1796.767z"/>
	<g>
		<path fill="#0C4C9D" d="M1401.029,1806.455c-0.832-1.903-20.836-46.658-58.576-46.658c-5.484,0-11.09,0.98-16.646,2.905
			c-15.09,5.239-25.363,15.351-29.707,29.234c-7.438,23.79,4.105,51.96,13.68,65.083l4.076,5.592l6.521-2.328
			c11.346-4.061,68.574-25.355,80.193-45.494l2.326-4.054L1401.029,1806.455z"/>
		<g>
			<path fill="#0C4C9D" d="M1283.965,1863.273c0,0-9.355-59.146-51.143-60.654c-41.771-1.509-53.623,48.999-48.771,69.249
				C1184.051,1871.868,1259.539,1875.24,1283.965,1863.273z"/>
			<path fill="#0C4C9D" d="M1207.523,1881.565c-13.723,0-23.48-0.438-23.891-0.446l-6.965-0.315l-1.623-6.777
				c-3.758-15.71,0.775-42.646,14.879-60.534c10.857-13.764,25.615-20.787,43.246-20.124c48.822,1.77,59.512,65.745,59.934,68.467
				l1.08,6.749l-6.15,3.002C1274.531,1878.201,1247.439,1881.565,1207.523,1881.565z M1192.271,1862.879
				c3.99,0.085,9.252,0.177,15.252,0.177c29.439,0,52.609-2.031,65.646-5.648c-3.809-14.293-14.9-44.606-40.68-45.544l-1.494-0.021
				c-10.746,0-19.672,4.413-26.533,13.108C1195.545,1836.26,1192.074,1852.062,1192.271,1862.879z"/>
		</g>
	</g>
	<g>
		<path fill="#0C4C9D" d="M1196.186,990.152c-1.523-0.684-179.354-60.816-302.321,0.677l3.978-7.227
			c125.617-62.798,299.338,0.24,300.881,0.937L1196.186,990.152z"/>
	</g>
	<g>
		<path fill="#0C4C9D" d="M1281.053,1122.186c-2.377-1.093-241.221-108.073-475.716-10.013l-2.384-5.696
			c237.041-99.12,478.264,9.004,480.674,10.11L1281.053,1122.186z"/>
	</g>
	<g>
		<path fill="#0C4C9D" d="M1306.051,1295.3c-3.125-0.973-315.268-96.228-545.976-1.121l-2.347-5.704
			c232.787-95.975,547.01-0.043,550.162,0.938L1306.051,1295.3z"/>
	</g>
	<g>
		<path fill="#0C4C9D" d="M1254.83,1444.461c-2.574-0.635-259.406-61.811-443.55-1.101l-1.932-5.866
			c185.849-61.268,444.345,0.331,446.94,0.966L1254.83,1444.461z"/>
	</g>
	<g>
		<path fill="#0C4C9D" d="M505.753,982.537c0.606-2.602,36.503,26.082,42.489,41.863c5.987,15.795,1.094,40.459-24.467,48.25
			c-25.567,7.799-66.31-11.923-67.254-14.412C455.577,1055.742,504.321,988.785,505.753,982.537z"/>
		<path fill="#0C4C9D" d="M510.272,1083.715c-22.19,0-58.94-13.066-62.403-22.205c-2.18-5.753-2.18-5.753,24.052-43.943
			c9.118-13.27,22.789-33.182,24.934-37.666l1.516-6.614l7.65-0.169c10.077,0,45.262,33.203,50.867,48.004
			c4.457,11.719,3.78,25.504-1.806,36.863c-5.584,11.389-15.477,19.518-28.613,23.523
			C521.652,1082.974,516.203,1083.715,510.272,1083.715z M469.016,1054.86c9.224,4.21,26.442,10.352,41.257,10.352
			c4.104,0,7.735-0.479,10.803-1.403c8.222-2.518,14.073-7.213,17.396-13.975c3.314-6.748,3.737-15.238,1.114-22.155
			c-3.272-8.638-20.386-24.545-30.37-32.351c-3.962,6.276-10.669,16.176-22.036,32.725
			C481.145,1036.838,473.557,1047.887,469.016,1054.86z"/>
	</g>
	<g>
		<g>
			<path fill="#2E429B" d="M492.609,690.879c-14.52-17.763-24.863-33.169-31.012-46.214c-6.17-13.044-9.025-27.294-8.581-42.716
				c0.077-9.124,1.376-17.959,3.899-26.555c2.511-8.582,4.393-17.029,5.642-25.342c1.241-8.292,1.297-16.507,0.183-24.644
				c-1.122-8.123-5.245-16.549-12.39-25.278c-12.063-14.737-24.559-21.725-37.491-20.949c-12.924,0.783-24.961,5.732-36.087,14.835
				c-15.964,13.052-23.298,26.484-22.057,40.277c1.241,13.806,7.263,28.846,18.078,45.127l-58.235,47.631
				c-12.064-14.737-20.624-30.108-25.651-46.086c-5.028-15.965-6.552-31.802-4.569-47.49c1.981-15.682,7.368-30.905,16.169-45.635
				c8.792-14.723,20.716-28.254,35.764-40.566c32.506-26.597,63.566-40.953,93.217-43.104c29.637-2.144,56.648,11.676,81.024,41.468
				c7.877,9.631,13.786,18.854,17.741,27.675c3.949,8.829,6.366,17.776,7.263,26.844c0.895,9.061,0.571,18.502-0.959,28.296
				c-1.53,9.802-3.701,20.351-6.494,31.674c-2.426,10.542-3.879,19.652-4.385,27.338c-0.494,7.692,0.183,14.801,2.017,21.323
				c1.833,6.557,4.597,12.706,8.305,18.453c3.702,5.775,8.265,11.952,13.679,18.58L492.609,690.879z"/>
		</g>
		<path fill="#FFC20E" d="M628.889,729.646c2.743,27.902-17.657,52.764-45.559,55.515c-27.923,2.75-52.771-17.656-55.521-45.565
			c-2.749-27.916,17.643-52.764,45.557-55.507C601.281,681.332,626.131,701.73,628.889,729.646z"/>
	</g>
	<g>
		<g>
			<path fill="#2E429B" d="M1492.688,612.194c7.184-21.781,14.646-38.774,22.338-50.98c7.699-12.206,18.178-22.268,31.434-30.179
				c7.729-4.816,15.887-8.483,24.49-10.965c8.59-2.489,16.732-5.437,24.404-8.849s14.631-7.771,20.885-13.08
				c6.254-5.302,11.148-13.306,14.674-24.023c5.959-18.094,5.141-32.386-2.461-42.871c-7.594-10.499-18.234-17.988-31.893-22.487
				c-19.58-6.452-34.848-5.429-45.818,3.033c-10.986,8.454-20.428,21.612-28.352,39.472l-71.473-23.544
				c5.959-18.086,14.322-33.563,25.117-46.383c10.746-12.826,23.303-22.613,37.604-29.368c14.293-6.748,30.023-10.379,47.172-10.866
				c17.156-0.487,34.961,2.305,53.428,8.384c39.889,13.143,68.693,31.639,86.426,55.493c17.721,23.847,20.584,54.054,8.539,90.622
				c-3.912,11.825-8.512,21.759-13.82,29.826c-5.336,8.073-11.584,14.927-18.75,20.554c-7.178,5.613-15.299,10.415-24.381,14.378
				c-9.098,3.962-19.16,7.813-30.207,11.535c-10.197,3.604-18.672,7.27-25.42,10.979c-6.748,3.716-12.389,8.095-16.924,13.144
				c-4.527,5.07-8.229,10.704-11.092,16.923c-2.877,6.219-5.646,13.396-8.32,21.52L1492.688,612.194z"/>
		</g>
		<path fill="#FFC20E" d="M1533.176,747.973c-22.07,17.303-53.99,13.446-71.295-8.624c-17.318-22.063-13.455-53.998,8.615-71.302
			c22.08-17.31,53.998-13.446,71.303,8.624C1559.117,698.74,1555.254,730.668,1533.176,747.973z"/>
	</g>
	<path fill="#0C4C9D" d="M1714.582,1048.642l-17.178-0.247c-2.932-0.944-72.514-23.953-134.756-90.713
		c-62.26-66.768-79.719-136.285-80.426-139.205l-0.359-1.459l0.121-1.501c0.43-5.112,4.408-11.063,14.209-11.063
		c20.221,0,74.883,26.618,120.801,74.771c55.816,58.504,90.516,153.215,91.953,157.213L1714.582,1048.642z M1503.271,824.196
		c7.094,21.167,27.592,72.268,72.91,120.864c39.6,42.47,82.914,66.444,107.313,77.69c-13.18-30.877-41.736-90.763-79.885-130.757
		C1563.834,850.299,1521.801,829.272,1503.271,824.196z"/>
	<path fill="#0C4C9D" d="M413.403,1098.578h-0.008c-5.479-0.008-10.224-2.982-13.016-8.179
		c-12.276-22.875,13.073-112.149,45.988-161.903c38.937-58.855,100.719-96.157,103.327-97.716l9.491-5.675l3.907,10.343
		c2.297,6.085,3.426,29.672-35.68,117.036c-42.25,94.401-104.225,142.039-106.839,144.013l-1.553,1.178l-1.876,0.451
		C415.885,1098.43,414.623,1098.578,413.403,1098.578z M543.202,857.4c-20.526,14.701-56.474,43.625-81.394,81.307
		c-31.757,47.99-48.116,117.063-46.326,137.956c16.396-14.313,62.354-58.729,95.037-131.737
		C531.179,898.762,539.718,872.136,543.202,857.4z"/>
	<path fill="#F7901E" d="M534.676,937.325c0,0,78.347,45.564,115.394,100.831c37.048,55.268,52.228,106.289,52.228,106.289
		s3.046,50.417-13.354,69.236c-16.401,18.841-34.623,15.189-34.623,15.189s12.156,9.724,26.119,5.464
		c13.968-4.244,26.109-30.369,31.574-57.086c5.473-26.724,32.21-108.116,55.889-142.131c0,0,11.529-58.307,23.071-80.172
		c0,0-5.458,41.313-3.632,50.423l30.362-34.622c0,0-21.865,45.543-35.229,69.834c-13.361,24.299-38.267,83.824-38.267,83.824
		s-22.471,77.748-24.291,139.699c0,0,18.821-111.755,51.002-182.816c32.196-71.056,78.959-139.084,78.959-139.084
		s-34.621,28.543-40.692,24.298c-6.07-4.259-15.182-29.157-15.182-29.157s-21.251,36.448-35.221,59.52
		c-13.976,23.078-39.486,45.557-39.486,45.557s3.053,59.52-13.955,94.141l-1.227-5.471c0,0,17.34-81.957-15.928-151.213
		c0,0-73.347-100.233-126.794-123.925C561.395,855.954,544.393,924.569,534.676,937.325z"/>
	<path fill="#F7901E" d="M1182.357,857.837c0,0,31.371-28.825,57.002-10.894c25.625,17.945,36.512,77.5,58.293,131.942
		c21.773,54.449,51.613,147.504,51.613,147.504s13.082-43.083,21.4-73.191c8.328-30.109,13.453-64.053,13.453-64.053
		s-34.578-55.09-48.674-93.52c-14.088-38.429-32.033-67.262-62.777-83.268C1241.92,796.343,1195.162,800.186,1182.357,857.837z"/>
	<path fill="#F7901E" d="M1546.164,1034.624c-1.926,0-47.404,50.593-81.992,105.042c-34.586,54.449-61.492,71.738-74.305,77.506
		c-12.805,5.769-28.184-0.007-42.914-17.931c0,0,1.275,29.453,50.6,32.661s96.707-47.398,156.916-98.639
		c60.219-51.249,106.982-92.244,120.428-95.438l-19.219-8.327L1546.164,1034.624z"/>
	<path fill="#0C4C9D" d="M1621.422,989.87c-13.264-9.202-33.184-23.022-36.666-26.378l-2.559-3.694h-4.951
		c-4.082,0-8.322,0-21.57,26.054c-5.654,11.127-12.395,26.667-12.395,37.499c0,22.514,17.26,45.804,46.148,45.804
		c0.008,0,0.008,0,0.008,0c1.213,0,2.439-0.035,3.701-0.119c27.994-1.868,66.408-35.581,66.408-46.567
		C1659.547,1016.312,1659.547,1016.312,1621.422,989.87z"/>
	<path fill="#F7901E" d="M1324.193,1311.63c0,0,5.398-25.447,18.516-24.672c13.107,0.775,3.855,89.458-20.83,155.007
		c-24.678,65.555-68.373,153.729-112.594,178.416c0,0,69.152,91.771,88.43,126.478c19.285,34.699,51.164,84.572,51.164,84.572
		s43.244-24.799,43.949-30.85c0.721-6.049-1.537-34.706-30.842-74.806c-29.313-40.107-77.895-102.566-81.752-144.211l-7.707-3.096
		l9.422-23.946c0,0,50.732-70.906,72.33-166.542c21.598-95.628,6.17-147.038,6.17-147.038s-26.738-15.936-34.959-38.563
		C1325.49,1202.379,1332.162,1277.446,1324.193,1311.63z"/>
	<path fill="#0C4C9D" d="M1401.029,1806.455c-0.832-1.903-20.836-46.658-58.576-46.658c-5.484,0-11.09,0.98-16.646,2.905
		c-15.09,5.239-25.363,15.351-29.707,29.234c-7.438,23.79,4.105,51.96,13.68,65.083l4.076,5.592l6.521-2.328
		c11.346-4.061,68.574-25.355,80.193-45.494l2.326-4.054L1401.029,1806.455z"/>
	<g>
		<path fill="#0C4C9D" d="M1243.4,1593.594L1243.4,1593.594c0.344-0.354,1.326-1.234,2.799-2.524
			c6.189-5.409,25.018-21.866,34.953-36.286l15.244,10.515C1285.143,1581.614,1258.85,1592.07,1243.4,1593.594
			C1242.131,1593.707,1243.709,1593.291,1243.4,1593.594z"/>
	</g>
	<path fill="#F7901E" d="M957.756,1605.01c0,0,7.445,15.484-15.619,76.117c-23.07,60.612-63.84,128.205-68.671,136.258
		c-4.831,8.038,24.679,20.378,36.482,24.665c11.79,4.287,34.861,2.693,40.771,1.079c5.902-1.608,20.619-8.066,26.668-11.007
		s26.979-28.155,42.533-59.267c15.555-31.116,19.307-46.679,19.842-64.912c0.541-18.242,0-22.529,0-22.529
		S992.158,1627.08,957.756,1605.01z"/>
	<path fill="#0C4C9D" d="M940.875,1796.767c-12.608-14.229-29.39-20.497-47.717-17.691c-48.313,7.319-51.613,72.084-51.733,74.835
		l-0.297,6.825l6.438,2.299c7.502,2.658,18.264,3.947,32.915,3.947c31.681,0,70.265-6.113,71.894-6.372l6.883-1.101l0.846-6.925
		C961.867,1838.03,955.725,1813.527,940.875,1796.767z"/>
	<g>
		<path fill="#0C4C9D" d="M1054.525,1713.295c-16.012-43.068-95.951-107.63-96.77-108.285l0,0
			c3.455,2.777,96.348,54.025,114.139,101.826L1054.525,1713.295z"/>
	</g>
	<g>
		<path fill="#0C4C9D" d="M1049.238,1716.764c-6.988-6.402-32.809-29.001-64.01-28.6l0,0h-0.502l0.967-0.938l-0.465,0.938
			c22.154-0.274,61.67,1.34,76.518,14.955L1049.238,1716.764z"/>
	</g>
	<path fill="#F7901E" d="M832.871,763.034c0,0-10.985-35.595,7.954-40.897c18.939-5.303,33.712,7.192,40.53,27.267
		c6.805,20.068,23.094,35.968,52.257,34.078c29.151-1.889,40.911-20.448,36.737-48.851c-4.168-28.402-31.054-37.11-31.054-37.11
		s28.784,22.338,18.558,48.47c-10.223,26.125-42.024,18.178-48.85,9.47c-6.825-8.715-9.089-45.826-9.089-45.826
		s-23.1-8.327-41.651-9.462c-18.553-1.135-42.414,4.542-42.414,4.542s-13.256-1.897-12.874-1.135
		C803.355,704.333,812.029,746.372,832.871,763.034z"/>
	<path fill="#0C4C9D" d="M956.275,713.315c-16.472-22.951-42.816-26.118-68.827-26.118c-8.793,0-18.065,0.381-27.873,0.783
		l-4.169,0.175c-7.016,0.276-21.244-1.974-28.119-1.974c-29.58,0-34.268-2.539-34.452-2.567l-33.232-1.685l22.473,15.174
		c9.095,6.148,20.039,9.019,34.438,9.019c7.431,0,14.926-0.734,22.176-1.445c6.881-0.678,13.391-1.312,19.496-1.312l1.946,0.014
		c15.048,0.367,29.798,3.187,38.062,5.056c-7.332,19.75-4.809,33.38-1.106,41.602c4.499,9.999,13.214,17.409,24.552,20.878
		c2.582,0.783,5.288,1.191,8.046,1.191c12.155,0,24.39-7.925,30.454-19.736C966.543,739.906,965.131,725.662,956.275,713.315z"/>
	<path fill="#F7901E" d="M1159.936,778.222c0,0,64.777-15.428,90.48-88.437c25.717-73.008,4.074-135.403-11.84-167.445
		c0,0,33.438-53.638,12.877-107.107c-20.563-53.462-63.736-108.926-101.779-141.828c-38.031-32.9-198.477-58.68-255.033-65.88
		c-56.551-7.198-117.22,13.363-136.766,32.901c0,0,33.613-46.298,136.68-42.604c103.076,3.695,166.289,23.586,226.133,63.856
		c59.85,40.276,108.266,79.008,143.352,129.523c35.094,50.507,53.99,103.342,16.195,161.564l-15.42-5.395l4.625,21.204
		c0,0,33.551,62.854,25.068,119.927c-8.49,57.065-33.939,87.146-47.428,95.24c0,0-38.951-11.564-62.473,26.999
		c-23.523,38.556-20.822,95.628-18.123,115.675c2.701,20.054,7.328,27.761,7.328,27.761s-39.078-14.004-78.672-11.953
		c0,0,20.061-3.074,36.512-5.14c16.451-2.06,20.047-35.989,25.709-66.838c5.656-30.849,14.906-67.868,22.619-83.289
		C1187.688,771.53,1159.936,778.222,1159.936,778.222z"/>
	<g>
		<path fill="#0C4C9D" d="M1277.943,586.429c-6.459-20.406-39.924-63.461-40.107-63.842l0.74-0.247
			c0.818,1.707,53.674,29.439,58.398,53.082L1277.943,586.429z"/>
	</g>
	<path fill="#FFF680" d="M748.978,657.301c0,0-74.109-185.299-26.852-323.975c48.575-142.547,157.306-136.948,198.963-133.909
		c0,0-128.804-24.701-185.749,54.598c-56.917,79.312-88.479,247.645-5.304,404.118c0,0,10.042,15.604,40.518,22.712
		s75.165,8.13,93.95,7.623C864.504,688.467,768.544,681.987,748.978,657.301z"/>
	<g>
		<g>
			<path fill="#0C4C9D" d="M1048.66,450.264c-6.184-0.593-12.064,1.114-16.816,4.414c0.402-0.014,0.803-0.056,1.232-0.014
				c5.627,0.543,9.746,5.542,9.209,11.19c-0.184,1.96-0.945,3.716-2.053,5.19c0.121,0,0.248-0.015,0.375,0
				c3.363,0.317,5.816,3.293,5.494,6.67c-0.318,3.349-3.309,5.825-6.664,5.493c-3.363-0.324-5.824-3.314-5.5-6.663
				c0.055-0.613,0.232-1.178,0.457-1.728c-1.057,0.247-2.148,0.374-3.285,0.275c-4.414-0.438-7.875-3.604-8.92-7.671
				c-0.646,1.882-1.105,3.849-1.311,5.922c-1.342,14.061,8.92,26.604,22.873,27.944c13.961,1.347,26.4-9.011,27.76-23.078
				C1072.859,464.133,1062.607,451.61,1048.66,450.264z"/>
			<path fill="#FFFFFF" d="M1031.109,475.091c1.137,0.099,2.229-0.028,3.285-0.275c-0.225,0.55-0.402,1.114-0.457,1.728
				c-0.324,3.349,2.137,6.339,5.5,6.663c3.355,0.332,6.346-2.144,6.664-5.493c0.322-3.377-2.131-6.353-5.494-6.67
				c-0.127-0.015-0.254,0-0.375,0c1.107-1.474,1.869-3.23,2.053-5.19c0.537-5.648-3.582-10.647-9.209-11.19
				c-0.43-0.042-0.83,0-1.232,0.014c-5.135,0.113-9.471,3.984-9.965,9.209c-0.119,1.227,0.021,2.419,0.311,3.533
				C1023.234,471.487,1026.695,474.653,1031.109,475.091z"/>
		</g>
		<g>
			<path fill="#F7901E" d="M887.066,319.64c1.961,1.755-22.874,3.78-28.423,23.325c-5.557,19.511,2.355,49.654,2.355,49.654
				s-14.8,2.983-25.144-8.236c-4.719-5.084-15.422-26.893-4.521-48.152C842.271,315,865.392,300.094,887.066,319.64z"/>
			<path fill="#0C4C9D" d="M827.47,341.59c-7.875,24.567,0.917,49.429,19.595,55.408c18.637,5.973,40.257-9.145,48.146-33.718
				c7.827-24.539-0.959-49.401-19.609-55.352C856.93,301.92,835.34,317.031,827.47,341.59z M832.977,343.381
				c6.89-21.514,25.237-34.96,40.849-29.96c4.287,1.375,7.918,4.026,10.788,7.545c-0.346-0.163-0.718-0.332-1.085-0.445
				c-10.832-3.476-24.737,9.809-31.133,29.651c-6.19,19.405-2.891,37.815,7.362,41.94c-3.688,0.634-7.383,0.515-10.908-0.656
				C833.21,386.486,826.088,364.895,832.977,343.381z"/>
			<g>
				<path fill="#F7901E" d="M728.219,298.578c7.756-15.604,20.842-23.389,29.121-17.29c2.276,1.643,3.92,4.224,5.006,7.326
					c-0.191-0.184-0.366-0.367-0.542-0.515c-5.74-4.188-16.226,4.062-23.354,18.467c-7.022,14.054-8.264,28.727-3.004,33.352
					c-2.264-0.035-4.407-0.634-6.254-2.045C720.885,331.811,720.462,314.196,728.219,298.578z"/>
				<path fill="#0C4C9D" d="M727.175,341.88c9.899,7.248,25.179-1.369,34.029-19.158c8.856-17.804,8.024-38.197-1.884-45.445
					c-9.878-7.249-25.165,1.333-34.007,19.151C716.436,314.246,717.289,334.63,727.175,341.88z M728.219,298.578
					c7.756-15.604,20.842-23.389,29.121-17.29c2.276,1.643,3.92,4.224,5.006,7.326c-0.191-0.184-0.366-0.367-0.542-0.515
					c-5.74-4.188-16.226,4.062-23.354,18.467c-7.022,14.054-8.264,28.727-3.004,33.352c-2.264-0.035-4.407-0.634-6.254-2.045
					C720.885,331.811,720.462,314.196,728.219,298.578z"/>
			</g>
		</g>
	</g>
	<path opacity="0.5" fill="#0C4C9D" d="M807.445,769.57c-2.018,0-46.876,29.46-71.654,74.313
		c-24.765,44.859-49.541,103.787-49.541,103.787s12.712,34.819,19.418,28.12c6.699-6.699,30.137-48.872,32.81-57.58
		c2.673-8.708,41.517-69.638,50.888-84.368s40.842-25.441,43.521-26.781c2.679-1.347,17.401-1.347,16.739-4.681
		C848.955,799.03,807.445,769.57,807.445,769.57z"/>
	<path opacity="0.5" fill="#0C4C9D" d="M702.319,1242.945c0,0,20.596,128.585,46.306,196.453
		c25.708,67.867,65.807,143.957,67.867,156.296c2.051,12.347-10.288,34.96-10.288,34.96s-82.267-114.138-114.138-216.958
		c-31.878-102.827-69.926-129.566-69.926-129.566l-3.082-54.498c0,0,27.761,20.568,39.07,24.672
		C669.446,1258.422,702.319,1242.945,702.319,1242.945z"/>
	<path opacity="0.5" fill="#0C4C9D" d="M1363.531,1633.743c0,0-27.768-54.491-17.479-84.318
		c10.285-29.827,53.461-117.219,70.947-187.146c17.48-69.927,68.898-80.208,68.898-80.208l-1.029-62.72
		c0,0-22.621,22.613-41.131,20.561c-18.51-2.051-59.223,4.104-62.008,7.707c-2.771,3.604-1.748,134.198-14.09,160.93
		c-12.332,26.738-51.402,130.596-59.631,142.935c-8.236,12.333-23.65,15.421-18.516,32.901
		c5.148,17.487,19.539,50.388,23.656,56.558c4.109,6.162,15.422,15.421,18.502,17.479
		C1334.74,1660.481,1363.531,1633.743,1363.531,1633.743z"/>
	<path opacity="0.5" fill="#0C4C9D" d="M1333.711,750.455c0,0-18.178,13.481-4.49,38.407
		c18.451,33.606,64.137,131.259,71.33,135.369c7.197,4.118-12.334,35.997-15.43,35.997c-3.08,0-19.531-39.085-22.619-47.307
		c-3.082-8.229-50.389-83.281-56.557-93.577c-6.172-10.28-51.031-20.949-51.031-20.949s33.543-41.771,38.699-48.97
		c5.139-7.2,8.221-28.791,11.309-28.791S1333.711,750.455,1333.711,750.455z"/>
	<g>
		<path fill="#FFC20E" d="M1100.135,779.124c-5.6,9.131-11.439,16.726-17.391,23.001
			C1089.078,795.758,1095.424,788.037,1100.135,779.124z"/>
		<path fill="#FFC20E" d="M847.934,141.083c19.969-0.868,38.668-0.727,56.316,0.36c-24.1-2.031-48.279-2.292-71.617-0.628
			c10.026-0.169,16.097,0.219,16.097,0.219C848.476,141.054,848.201,141.069,847.934,141.083z"/>
		<path fill="#FFC20E" d="M1057.699,821.896c0,0,3.371-1.946,8.326-5.528c-3.607,2.433-7.232,4.52-10.822,6.24
			c13.404,3.462,25.822,10.668,31.604,24.855c0.754,1.037,1.348,2.031,1.813,2.961
			C1087.363,843.601,1081.877,828.743,1057.699,821.896z"/>
		<path fill="#FFC20E" d="M1193.738,750.919c0,0,69.813-26.061,88.301-110.676c17.869-81.793-11.979-146.383-33.943-180.771
			c-1.854-1.904-3.025-3.109-3.074-3.18l0.797-0.381c0,0,29.75-64.167-0.467-120.717c-30.191-56.55-133.506-94.747-180.297-126.054
			c-46.779-31.293-180.773-55.253-244.578-55.45c-25.555-0.085-51.157,4.908-73.969,12.438
			c-28.557,15.421-56.635,40.636-77.209,82.167c3.616-0.747,7.219-0.346,10.512,1.502c11.994,6.678,15.726,29.206,8.349,50.205
			c-7.382,20.977-23.162,32.647-35.142,25.962c-2.855-1.594-5.198-4.132-7.072-7.263c-32.388,160.232,74.742,354.549,74.742,354.549
			c21.463,21.125,102.919,19.799,126.259,18.967l0.782-0.127c10.852-1.798,21.076-3.504,30.842-4.717
			c20.801-2.581,42.004-3.307,60.259,5.126c-0.753-0.501-1.247-0.797-1.247-0.797s31.061,5.958,39.6,36.927
			c8.541,30.976-1.953,53.201-34.065,59.321c-32.116,6.128-52.41-9.3-62.733-30.651c-10.352-21.352-28.458-33.197-48.767-24.701
			c-18.84,7.89-5.471,41.179-3.455,45.91c10.097,9.322,22.275,17.889,36.992,24.404c37.688,16.705,67.81,14.378,94.372,12.34
			c16.797-1.312,31.822-2.405,45.58,1.699c15.471,1.474,56.924,1.044,95.029-37.83 M842.574,326.578
			c-5.373,28.388-27.302,48.146-48.829,44.084c-21.57-4.075-34.755-30.468-29.397-58.828c5.359-28.36,27.261-48.124,48.822-44.021
			C834.705,271.847,847.885,298.247,842.574,326.578z M1041.955,510.813c0,0-0.664-0.247-1.828-0.769l-1.605,2.298
			c-102.851-27.098-118.717-148.61-77.818-199.922c-2.285-3.167-3.355-5.479-3.582-5.825v-1.325c0.203,0.31,2.158,2.185,5.768,4.568
			c1.818-2.086,3.725-4.089,5.762-5.894c50.479-44.838,139.781-58.716,197.877-2.391c58.096,56.318,22.678,154.633,22.678,154.633
			s-21.219,7.397-28.311,9.23l18.254-4.309C1179.148,461.108,1122.957,506.095,1041.955,510.813z"/>
		<path fill="#FFC20E" d="M893.441,709.487c-1.791-0.184-3.906-0.36-6.19-0.529c2.566,0.451,4.64,0.867,6.078,1.156
			C893.37,709.896,893.385,709.698,893.441,709.487z"/>
		<path fill="#FFC20E" d="M723.297,690.956c-4.943-1.776-9.075-3.751-12.368-5.64C714.002,687.543,718.297,689.419,723.297,690.956z
			"/>
		<path fill="#FFC20E" d="M1254.174,751.942c-10.492,5.549-21.068,15.132-28.557,31.695c-5.373,11.875-8.602,24.883-10.4,38.02
			l2.475-0.705c0.211-0.875,0.424-1.742,0.648-2.595C1223.594,787.522,1234.199,763.696,1254.174,751.942z"/>
		<path fill="#FFC20E" d="M687.447,658.259c-31.392-49.337-51.755-100.838-63.361-151.191
			C638.555,580.901,667.352,630.774,687.447,658.259z"/>
		<path fill="#0C4C9D" d="M593.428,492.098c20.949,137.491,89.141,204.732,96.848,211.959c17.331,16.224,52.349,19.51,70.272,20.089
			c8.002,22.937,32.683,77.111,93.406,104.019c44.079,19.524,80.85,16.683,107.681,14.617c5.111-0.395,9.893-0.747,14.355-0.938
			c2.188-0.437,4.322-0.867,6.486-1.312c13.037-3.017,29.348-7.234,46.223-8.151c15.309-1.707,29.135-1.544,40.184,2.771
			c9.752,3.815,15.041,8.342,17.924,12.312c-5.781-14.187-18.199-21.393-31.604-24.855c3.59-1.72,7.215-3.808,10.822-6.24
			c4.641-3.35,10.662-8.151,16.719-14.244c5.951-6.275,11.791-13.87,17.391-23.001c-38.105,38.874-79.559,39.304-95.029,37.83
			c-13.758-4.104-28.783-3.011-45.58-1.699c-26.563,2.038-56.685,4.364-94.372-12.34c-14.717-6.515-26.896-15.082-36.992-24.404
			c0.155,0.36,0.261,0.607,0.261,0.607c-22.952-14.096-37.708-52.363-40.777-60.337c4.626,0.147,9.45,0.042,14.767-0.607
			c8.25-1.022,16.472-2.87,24.424-4.661c7.553-1.699,14.689-3.307,21.471-4.146l2.158-0.254c13.588-1.354,27.099-0.881,36.787-0.155
			c2.284,0.169,4.399,0.345,6.19,0.529c-0.057,0.211-0.071,0.409-0.112,0.627c-5.19,22.572-0.579,37.188,4.618,45.728
			c6.373,10.485,17.07,17.508,30.144,19.799c2.983,0.515,6.036,0.593,9.089,0.219c13.496-1.685,25.99-12.17,31.104-26.111
			c5.395-14.73,1.855-30.348-9.682-42.843c-5.994-6.501-12.663-11.127-19.772-14.405c-18.255-8.433-39.458-7.707-60.259-5.126
			c-9.766,1.213-19.99,2.919-30.842,4.717l-0.782,0.127c3.984-0.134,6.317-0.268,6.317-0.268
			c-20.793,3.158-70.568,8.186-105.38,4.484c-9.894-1.051-17.988-3.095-24.587-5.479c-5-1.537-9.295-3.413-12.368-5.64
			c-7.792-4.485-11.17-8.533-11.17-8.533c-4.287-6.134-8.369-12.318-12.312-18.523c-20.096-27.485-48.893-77.358-63.361-151.191
			c-25.581-111.014-8.729-216.31,25.892-279.805c41.716-76.478,143.225-85.807,182.655-86.448
			c23.338-1.664,47.518-1.403,71.617,0.628c69.652,4.287,123.215,22.916,175.695,49.499c72.008,36.49,130.16,64.561,176.09,115.823
			c45.77,51.094,73.961,106.953,40.551,176.492c-21.223-14.991-50.008-26.132-50.768-27.345l-0.797,0.381
			c0.049,0.071,1.221,1.276,3.074,3.18c7.326,7.586,26.443,27.668,39.459,45.134c6.916,10.344,44.678,69.483,43.266,128.134
			c-1.559,64.546-25.68,101.46-39.551,112.305c0,0-18.404-2.997-37.096,6.896c-19.975,11.754-30.58,35.581-35.834,66.416
			c-0.127,0.838-0.275,1.678-0.41,2.524l14.541-4.174c0,0,2.658-21.231,21.717-33.232c7.48-6.382,16.275-10.429,26.125-11.648
			c4.012-0.501,8.18-0.48,12.354-0.029c4.676-1.135,9.252-2.785,14.123-5.768c15.811-16.077,98.068-110.936,9.738-264.145
			c14.617-25.158,50.268-105.437-25.223-193.647c-58.572-68.446-85.135-80.962-125.355-99.901
			c-19.939-9.399-42.525-20.039-75.025-40.009c-71.201-43.794-184.558-65.096-282.02-52.997
			c-44.606,5.528-83.246,18.044-111.769,36.18C599.146,213.851,574.438,367.489,593.428,492.098z"/>
		<path fill="#F7901E" d="M968.896,843.157c-0.535,0.063-1.156,0.19-1.686,0.239c-25.716,2.51-53.955,1.22-53.955,1.22
			c0.133,0.204,0.253,0.416,0.38,0.627C926.308,846.245,947.172,846.851,968.896,843.157z"/>
		<path fill="#F7901E" d="M982.477,840.533c16.107-3.278,31.816-6.543,46.223-8.151
			C1011.824,833.299,995.514,837.516,982.477,840.533z"/>
		<path fill="#F7901E" d="M831.616,732.601c20.309-8.497,38.415,3.349,48.767,24.701c10.323,21.351,30.617,36.779,62.733,30.651
			c32.112-6.121,42.606-28.346,34.065-59.321c-8.539-30.969-39.6-36.927-39.6-36.927s0.494,0.296,1.247,0.797
			c7.109,3.278,13.778,7.904,19.772,14.405c11.537,12.495,15.076,28.113,9.682,42.843c-5.113,13.94-17.607,24.426-31.104,26.111
			c-3.053,0.374-6.105,0.295-9.089-0.219c-13.073-2.292-13.228-9.653-19.602-20.138c-5.198-8.539,1.064-18.375,6.254-40.946
			c-1.438-0.29-7.327-5.387-27.492-5.599c-9.688-0.727-23.199-1.199-36.787,0.155l-2.158,0.254
			c-6.781,0.839-13.918,2.447-21.471,4.146c-7.952,1.791-16.174,3.639-24.424,4.661c-5.316,0.649-10.141,0.754-14.767,0.607
			c3.069,7.975,17.825,46.241,40.777,60.337c0,0-0.105-0.247-0.261-0.607C826.146,773.779,812.776,740.491,831.616,732.601z"/>
		<path fill="#F7901E" d="M1254.174,751.942c18.691-9.893,37.096-6.896,37.096-6.896c13.871-10.845,37.992-47.758,39.551-112.305
			c1.412-58.651-36.35-117.79-43.266-128.134c-13.016-17.466-32.133-37.548-39.459-45.134
			c21.965,34.388,51.813,98.978,33.943,180.771c-18.488,84.615-88.301,110.676-88.301,110.676s29.904-11.253,23.459,6.945
			c-4.711,13.313-8.75,39.614-11.373,66.485l9.393-2.693c1.799-13.136,5.027-26.145,10.4-38.02
			C1233.105,767.074,1243.682,757.491,1254.174,751.942z"/>
		<path fill="#F7901E" d="M746.508,166.128c22.812-7.53,48.414-12.523,73.969-12.438c63.805,0.197,197.799,24.157,244.578,55.45
			c46.791,31.307,150.105,69.504,180.297,126.054c30.217,56.55,0.467,120.717,0.467,120.717c0.76,1.213,29.545,12.354,50.768,27.345
			c33.41-69.539,5.219-125.398-40.551-176.492c-45.93-51.262-104.082-79.333-176.09-115.823
			c-52.48-26.583-106.043-45.212-175.695-49.499c-17.648-1.086-36.348-1.228-56.316-0.36
			C825.158,142.246,785.416,145.13,746.508,166.128z"/>
		<path fill="#FFF680" d="M720.688,673.251c0,0-107.13-194.317-74.742-354.549c-6.029-10.097-6.912-26.943-1.27-42.956
			c5.345-15.223,15.096-25.483,24.623-27.45c20.574-41.531,48.652-66.747,77.209-82.167c38.908-20.999,78.65-23.882,101.426-25.046
			c0.268-0.014,0.542-0.028,0.796-0.049c0,0-6.07-0.388-16.097-0.219c-39.431,0.642-140.939,9.971-182.655,86.448
			c-34.621,63.496-51.473,168.792-25.892,279.805c11.606,50.353,31.97,101.854,63.361,151.191
			c3.942,6.206,8.024,12.39,12.312,18.523c0,0,3.378,4.047,11.17,8.533c3.293,1.889,7.425,3.864,12.368,5.64
			c6.599,2.384,14.693,4.428,24.587,5.479c34.812,3.702,84.587-1.326,105.38-4.484c0,0-2.333,0.134-6.317,0.268
			C823.606,693.05,742.15,694.376,720.688,673.251z"/>
		<path fill="#0C4C9D" d="M1160.895,465.417c-0.5,0.141-0.967,0.247-1.32,0.318c-4.695,0.944-10.279-5.875-11.309-7.192
			c-2.949,5.337-5.24,8.447-5.338,8.574c-27.197,27.373-76.895,30.82-91.447,31.215c-2.172,0.071-3.688,0.063-4.4,0.077
			c-3.201-1.347-6.311-2.954-9.371-4.767c5.281,4.647,8.877,7.186,8.877,7.186l-6.459,9.215c1.164,0.522,1.828,0.769,1.828,0.769
			c81.002-4.718,137.193-49.705,137.193-49.705L1160.895,465.417z"/>
		<path fill="#FFFFFF" d="M1103.498,342.952c-48.641-13.814-109.266,12.692-109.146,67.141c0.014,7.848,1.207,15.266,3.061,22.303
			c-0.016-0.304-0.107-0.592-0.113-0.91c-0.064-2.313,0.184-4.569,0.635-6.748c-0.473-1.198-0.791-2.502-0.832-3.885
			c-0.162-5.86,4.117-10.767,9.795-11.6c4.822-4.315,11.127-7.016,18.064-7.22c15.682-0.43,28.797,12.079,29.24,27.881
			c0.424,15.823-11.973,29.022-27.646,29.466c-9.787,0.268-18.572-4.505-23.918-11.972c9.582,21.52,25.264,37.596,35.072,46.234
			c3.061,1.813,6.17,3.42,9.371,4.767c0.713-0.014,2.229-0.006,4.4-0.077c14.553-0.395,64.25-3.843,91.447-31.215
			c0.098-0.127,2.389-3.237,5.338-8.574c-0.092-0.141-0.211-0.282-0.211-0.282C1168.381,420.458,1152.172,356.792,1103.498,342.952z
			"/>
		<path fill="#0C4C9D" d="M1041.361,465.261c25.076-0.712,44.902-21.83,44.227-47.138c-0.713-25.278-21.691-45.282-46.771-44.591
			c-11.1,0.325-21.182,4.647-28.895,11.55c0.719-0.113,1.43-0.268,2.186-0.282c10.104-0.296,18.545,7.679,18.832,17.833
			c0.092,3.54-0.867,6.818-2.488,9.674c0.205-0.021,0.43-0.092,0.654-0.092c6.031-0.169,11.051,4.604,11.232,10.634
			c0.17,6.028-4.604,11.077-10.639,11.24c-6.027,0.169-9.178-6.655-9.361-12.676c-0.02-1.093-1.723-0.08-1.447-1.095
			c-1.82,0.656-3.717,1.114-5.775,1.185c-7.934,0.204-14.766-4.668-17.529-11.649c-0.719,3.483-1.115,7.094-1.016,10.795
			c0.014,0.508,0.156,0.967,0.184,1.453c1.101,8.125,4.033,17.488,7.396,25.054C1010.695,459.099,1025.707,465.692,1041.361,465.261
			z"/>
		<path fill="#FFFFFF" d="M1013.698,422.619c2.204-0.073,4.225-0.567,6.166-1.265c-0.29,1.083-0.493,2.191-0.471,3.359
			c0.194,6.429,5.576,11.522,12.017,11.341c6.442-0.168,11.532-5.563,11.352-11.992c-0.19-6.441-5.55-11.535-11.989-11.354
			c-0.24,0-0.483,0.073-0.7,0.097c1.734-3.047,2.758-6.55,2.661-10.33c-0.313-10.837-9.321-19.35-20.106-19.036
			c-0.807,0.013-1.564,0.181-2.334,0.301c-9.695,1.421-17.002,9.8-16.725,19.806c0.07,2.36,0.613,4.587,1.421,6.633
			C997.938,417.634,1005.237,422.834,1013.698,422.619z"/>
		<path fill="#0C4C9D" d="M1160.895,465.417l-1.32,0.318C1159.928,465.664,1160.395,465.558,1160.895,465.417z"/>
		<path opacity="0.17" fill="#910508" d="M1160.895,465.417l-1.32,0.318C1159.928,465.664,1160.395,465.558,1160.895,465.417z"/>
		<path fill="#FFFFFF" d="M1148.082,363.202c-15.668-23.727-40.77-36.334-70.766-35.502c-27.846,0.775-55.141,13.228-72.975,33.324
			c-14.488,16.295-19.383,40.495-13.373,66.38c6.471,28.134,24.326,53.019,46.74,66.239c-9.809-8.638-25.49-24.714-35.072-46.234
			c-3.047-4.267-4.879-9.436-5.225-15.012c-1.854-7.038-3.047-14.455-3.061-22.303c-0.119-54.449,60.506-80.955,109.146-67.141
			c48.674,13.841,64.883,77.506,44.557,115.308c0,0,0.119,0.141,0.211,0.282C1157.648,441.611,1173.777,402.104,1148.082,363.202z"
			/>
		<path opacity="0.17" fill="#910508" d="M1148.082,363.202c-15.668-23.727-40.77-36.334-70.766-35.502
			c-27.846,0.775-55.141,13.228-72.975,33.324c-14.488,16.295-19.383,40.495-13.373,66.38c6.471,28.134,24.326,53.019,46.74,66.239
			c-9.809-8.638-25.49-24.714-35.072-46.234c-3.047-4.267-4.879-9.436-5.225-15.012c-1.854-7.038-3.047-14.455-3.061-22.303
			c-0.119-54.449,60.506-80.955,109.146-67.141c48.674,13.841,64.883,77.506,44.557,115.308c0,0,0.119,0.141,0.211,0.282
			C1157.648,441.611,1173.777,402.104,1148.082,363.202z"/>
		<path fill="#0C4C9D" d="M1079.178,312.519c23.855-1.001,46.34,5.048,60.252,17.67c67.861,61.5,20.914,133.063,20.145,135.545
			c-4.695,0.944-10.279-5.875-11.309-7.192c9.383-16.931,25.512-56.438-0.184-95.34c-15.668-23.727-40.77-36.334-70.766-35.502
			c-27.846,0.775-55.141,13.228-72.975,33.324c-14.488,16.295-19.383,40.495-13.373,66.38c6.471,28.134,24.326,53.019,46.74,66.239
			c5.281,4.647,8.877,7.186,8.877,7.186l-6.459,9.215c-11.146-4.971-69.504-34.861-61.973-112.262
			c2.693-27.853,16.508-48.576,35.242-62.65C1013.396,335.132,1049.063,313.209,1079.178,312.519z"/>
		<path fill="#F7901E" d="M823.705,280.71c0.43,0.063,0.859,0.218,1.262,0.331c-3.66-3.504-8.06-5.951-13.023-6.889
			c-18.016-3.398-36.539,14.068-41.235,38.909c-4.675,24.842,6.204,47.836,24.257,51.199c4.089,0.811,8.208,0.438,12.205-0.783
			c-11.966-3.159-18.149-23.142-13.954-45.551C797.574,295.01,811.197,278.341,823.705,280.71z"/>
		<path fill="#0C4C9D" d="M813.17,267.814c-21.562-4.104-43.463,15.661-48.822,44.021c-5.357,28.359,7.827,54.752,29.397,58.828
			c21.527,4.062,43.456-15.696,48.829-44.084C847.885,298.247,834.705,271.847,813.17,267.814z M793.216,317.926
			c-4.195,22.409,1.988,42.392,13.954,45.551c-3.997,1.22-8.116,1.594-12.205,0.783c-18.053-3.363-28.932-26.357-24.257-51.199
			c4.696-24.841,23.22-42.307,41.235-38.909c4.964,0.938,9.363,3.385,13.023,6.889c-0.402-0.113-0.832-0.268-1.262-0.331
			C811.197,278.341,797.574,295.01,793.216,317.926z"/>
		<path fill="#F7901E" d="M654.688,321.241c2.25,1.305,4.726,1.685,7.228,1.41c-6.479-4.421-7.115-20.872-1.249-37.463
			c5.925-16.979,16.424-27.577,23.383-23.72c0.211,0.141,0.438,0.31,0.685,0.501c-1.644-3.307-3.814-5.944-6.578-7.454
			c-10.035-5.626-23.495,4.809-29.954,23.213C641.735,296.145,644.634,315.649,654.688,321.241z"/>
		<path fill="#0C4C9D" d="M644.676,275.746c-5.643,16.013-4.76,32.859,1.27,42.956c1.874,3.13,4.217,5.669,7.072,7.263
			c11.979,6.685,27.76-4.985,35.142-25.962c7.377-20.999,3.646-43.527-8.349-50.205c-3.293-1.848-6.896-2.249-10.512-1.502
			C659.771,250.263,650.021,260.523,644.676,275.746z M678.155,254.515c2.764,1.51,4.935,4.147,6.578,7.454
			c-0.247-0.191-0.474-0.36-0.685-0.501c-6.959-3.856-17.458,6.741-23.383,23.72c-5.866,16.591-5.23,33.042,1.249,37.463
			c-2.502,0.275-4.978-0.105-7.228-1.41c-10.054-5.592-12.952-25.096-6.486-43.513C654.66,259.324,668.12,248.888,678.155,254.515z"
			/>
	</g>
	<path fill="#FFC20E" d="M797.095,837.487c0,0,22.548-19.539,56.112-17.036c33.564,2.511,56.529,34.607,57.32,58.138
		C911.315,902.118,797.095,837.487,797.095,837.487z"/>
	<path fill="#F7901E" d="M1178.254,813.717c1.797,0,72.656-10.809,117.092-72.662c44.443-61.847-27.619-58.243-27.619-58.243
		s-32.428,51.643-44.438,64.258c-12.008,12.607-22.211,51.037-83.471,58.842c0,0,21.018,10.209,22.217,19.82
		c1.199,9.604-3.602,31.223-3.602,31.223s-3.004,64.258-4.203,67.262c-1.199,2.997,10.811,28.219,10.811,28.219l11.408,2.404
		c0,0-13.807-71.464,7.205-99.689c21.02-28.219,46.84-11.402,46.84-11.402l9.006-38.436l-3.602-13.214L1178.254,813.717z"/>
	<path fill="#0C4C9D" d="M1245.811,804.572c0,0-21.365-2.778-53.871,2.785c0,0,38.084-8.829,54.338-19.038
		C1262.521,778.102,1245.811,804.572,1245.811,804.572z"/>
	<path fill="#FFC20E" d="M935.474,955.044c0,0,31.386-11.655,53.802-43.492c22.422-31.836,32.723-77.119,32.723-77.119
		s-49.434,6.832-60.363,8.348c-10.916,1.523-54.409-1.178-54.409-1.178s21.521,23.312,23.312,36.765
		C932.33,891.824,935.474,955.044,935.474,955.044z"/>
</g>
</svg>
