<?xml version="1.0" encoding="utf-8"?>
<!-- Generator: Adobe Illustrator 15.0.0, SVG Export Plug-In . SVG Version: 6.00 Build 0)  -->
<!DOCTYPE svg PUBLIC "-//W3C//DTD SVG 1.1//EN" "http://www.w3.org/Graphics/SVG/1.1/DTD/svg11.dtd">
<svg version="1.1" id="Layer_1" xmlns="http://www.w3.org/2000/svg" xmlns:xlink="http://www.w3.org/1999/xlink" x="0px" y="0px"
	 width="186px" height="76px" viewBox="0 0 186 76" enable-background="new 0 0 186 76" xml:space="preserve">
<g>
	<path fill-rule="evenodd" clip-rule="evenodd" fill="#FFFFFF" d="M0.656,76c0.108-7.435,6.161-13.432,13.622-13.432
		c1.533,0,3.001,0.265,4.377,0.731c0.873-14.689,13.059-26.333,27.967-26.333c6.695,0,12.838,2.351,17.658,6.268
		C67.239,18.89,87.964,0.025,113.107,0.025c27.175,0,49.204,22.029,49.204,49.204c0,2.768-0.24,5.478-0.68,8.12
		c1.789-0.595,3.697-0.93,5.687-0.93c9.955,0,18.025,8.07,18.025,18.026c0,0.524-0.034,1.04-0.079,1.554H0.656z"/>
</g>
</svg>
