<?xml version="1.0" encoding="utf-8"?>
<!-- Generator: Adobe Illustrator 15.0.0, SVG Export Plug-In . SVG Version: 6.00 Build 0)  -->
<!DOCTYPE svg PUBLIC "-//W3C//DTD SVG 1.1//EN" "http://www.w3.org/Graphics/SVG/1.1/DTD/svg11.dtd">
<svg version="1.1" id="Layer_1" xmlns="http://www.w3.org/2000/svg" xmlns:xlink="http://www.w3.org/1999/xlink" x="0px" y="0px"
	 width="194px" height="84px" viewBox="0 0 194 84" enable-background="new 0 0 194 84" xml:space="preserve">
<g>
	<path fill-rule="evenodd" clip-rule="evenodd" fill="#FFFFFF" d="M0,84c0.109-7.438,6.188-13.437,13.681-13.437
		c1.52,0,2.977,0.258,4.342,0.714c0-0.016-0.001-0.031-0.001-0.047c0-14.511,11.811-26.274,26.379-26.274
		c5.188,0,10.023,1.496,14.103,4.073C58.607,21.934,80.688,0,107.917,0c27.291,0,49.416,22.035,49.416,49.219
		c0,0.958-0.034,1.907-0.089,2.853c1.744-0.301,3.536-0.465,5.365-0.465C179.946,51.606,194,65.605,194,82.87
		c0,0.38-0.016,0.755-0.028,1.13H0z"/>
</g>
</svg>
