<svg id="Layer_1" data-name="Layer 1" xmlns="http://www.w3.org/2000/svg" viewBox="0 0 644.91 221.15"><defs><style>.cls-1{fill:#cdd5d7;}.cls-2{fill:#1193cd;}.cls-3{fill:#fff;}.cls-4{fill:#e5e8ec;}.cls-5{fill:#f5f6f8;}.cls-6{fill:#ffc400;}.cls-7{fill:#e3e4e5;}.cls-8{fill:#ff7a7a;}.cls-9{fill:#c6c6c6;}.cls-10{fill:#d5e962;}.cls-11{fill:#ffc20e;}.cls-12{fill:#ffdc69;}.cls-13{fill:#b7bec0;}.cls-14{fill:#f7f8fc;}.cls-15{fill:#f6fafb;}.cls-16{fill:#ff8f8f;}</style></defs><title>Desk illustration</title><path class="cls-1" d="M453.95,159.72v-140a6.57,6.57,0,0,0-6.56-6.55H221.23a6.56,6.56,0,0,0-6.55,6.55v140H453.95Z" transform="translate(-0.89 0)"/><path class="cls-2" d="M455.45,161.22H213.18V19.77a8.06,8.06,0,0,1,8-8.05H447.39a8.06,8.06,0,0,1,8.05,8.05V161.22Zm-239.26-3H452.45V19.77a5.06,5.06,0,0,0-5.05-5.05H221.23a5.06,5.06,0,0,0-5,5.05V158.22Z" transform="translate(-0.89 0)"/><rect class="cls-2" x="225.01" y="24.62" width="216.81" height="123.56"/><path class="cls-2" d="M444.22,149.68H224.41V23.12H444.22V149.68Zm-216.81-3H441.22V26.12H227.41V146.68Z" transform="translate(-0.89 0)"/><path class="cls-3" d="M214.49,159.58v20.18c0,3.87,4,8.18,7.84,8.18H447.94c3.87,0,6.19-4,6.19-7.84V159.58H214.49Z" transform="translate(-0.89 0)"/><path class="cls-2" d="M447.94,189.45H222.33c-4.63,0-9.34-4.88-9.34-9.68V158.08H455.63v22c0,4.59-2.88,9.34-7.69,9.34M216,161.08v18.68c0,3.12,3.38,6.68,6.34,6.68H447.94c2.94,0,4.69-3.23,4.69-6.34v-19H216Z" transform="translate(-0.89 0)"/><path class="cls-4" d="M371.87,219.28c-2.13-.93-4.69-2.08-6.21-2.91-2.64-1.47-3.16-1.64-4.15-6.63-1.08-5.45-.19-16.34-0.6-21.35l-53.09-.28c-0.42,5,.48,16.18-0.6,21.63-1,5-1.68,5.16-4.33,6.63-1.49.82-4,2-6.13,2.88" transform="translate(-0.89 0)"/><path class="cls-2" d="M371.27,220.66c-2-.86-4.7-2.08-6.33-3l-0.21-.12c-3-1.67-3.68-2.44-4.7-7.54-0.69-3.48-.61-8.94-0.55-13.77,0-2.36.06-4.61,0-6.38l-50.25-.26c-0.06,1.8,0,4.1,0,6.51,0.06,4.9.14,10.44-.55,13.91-1,5.2-2,5.93-4.73,7.46l-0.34.19c-1.74,1-4.67,2.25-6.27,2.94l-1.19-2.75c1.54-.67,4.38-1.92,6-2.81l0.35-.19c2.15-1.19,2.43-1.34,3.23-5.42,0.63-3.16.55-8.54,0.49-13.29,0-3.15-.08-6.13.09-8.18l0.11-1.38,55.86,0.29,0.11,1.37c0.17,2,.13,4.95.08,8-0.06,4.68-.14,10,0.49,13.15,0.83,4.18,1,4.28,3.21,5.5l0.2,0.11c1.52,0.83,4.14,2,6.08,2.85Z" transform="translate(-0.89 0)"/><rect class="cls-2" x="289.16" y="217.77" width="88.52" height="3"/><rect class="cls-3" x="243.12" y="43.79" width="86.55" height="50.9"/><path class="cls-2" d="M332.06,96.19H242.51V42.29h89.55v53.9Zm-86.55-3h83.55V45.29H245.51v47.9Z" transform="translate(-0.89 0)"/><rect class="cls-1" x="243.12" y="43.79" width="86.55" height="10.47"/><path class="cls-2" d="M332.06,55.76H242.51V42.29h89.55V55.76Zm-86.55-3h83.55V45.29H245.51v7.47Z" transform="translate(-0.89 0)"/><rect class="cls-2" x="246.71" y="47.62" width="32.43" height="3"/><rect class="cls-2" x="279.78" y="64.89" width="20.44" height="3"/><rect class="cls-2" x="279.78" y="72.61" width="38.04" height="3"/><rect class="cls-2" x="279.78" y="80.33" width="38.04" height="3"/><rect class="cls-2" x="322.32" y="47.62" width="3.4" height="3"/><polygon class="cls-5" points="261.93 63.11 271.97 68.85 261.86 74.69 251.81 68.95 261.93 63.11"/><polygon class="cls-6" points="261.93 63.11 271.97 68.85 261.86 74.69 251.81 68.95 261.93 63.11"/><path class="cls-2" d="M262.75,76.19A1.49,1.49,0,0,1,262,76l-10-5.74a1.5,1.5,0,0,1,0-2.6l10.11-5.84a1.5,1.5,0,0,1,1.49,0l10,5.74a1.5,1.5,0,0,1,0,2.6L263.5,76a1.5,1.5,0,0,1-.75.2m-7-7.25,7,4,7.1-4.1-7-4Z" transform="translate(-0.89 0)"/><polygon class="cls-7" points="271.97 68.85 272.09 80.52 261.98 86.36 261.86 74.69 271.97 68.85"/><polygon class="cls-8" points="271.79 68.67 271.91 80.34 261.8 86.18 261.68 74.51 271.79 68.67"/><path class="cls-2" d="M262.87,87.86a1.5,1.5,0,0,1-1.5-1.49l-0.12-11.67a1.5,1.5,0,0,1,.75-1.31l10.11-5.84a1.5,1.5,0,0,1,2.25,1.28l0.12,11.67a1.5,1.5,0,0,1-.75,1.31l-10.11,5.84a1.49,1.49,0,0,1-.75.2m1.39-12.31,0.08,8.23,7.13-4.12-0.08-8.22Z" transform="translate(-0.89 0)"/><polygon class="cls-9" points="261.86 74.69 261.98 86.36 251.93 80.62 251.81 68.95 261.86 74.69"/><polygon class="cls-10" points="261.86 74.69 261.98 86.36 251.93 80.62 251.81 68.95 261.86 74.69"/><path class="cls-2" d="M262.87,87.86a1.5,1.5,0,0,1-.74-0.2l-10-5.74a1.5,1.5,0,0,1-.76-1.29L251.21,69a1.5,1.5,0,0,1,2.24-1.32l10,5.74a1.5,1.5,0,0,1,.75,1.29l0.12,11.67a1.5,1.5,0,0,1-1.5,1.51m-8.55-8.12,7,4-0.08-8.2-7-4Z" transform="translate(-0.89 0)"/><path class="cls-2" d="M430.47,43.09H419.75V32.37h10.72V43.09Zm-7.72-3h4.72V35.37h-4.72v4.72Z" transform="translate(-0.89 0)"/><rect class="cls-2" x="417.33" y="46.15" width="13.78" height="3"/><path class="cls-2" d="M430.47,62.93H419.75V52.21h10.72V62.93Zm-7.72-3h4.72V55.21h-4.72v4.72Z" transform="translate(-0.89 0)"/><rect class="cls-2" x="417.33" y="66" width="13.78" height="3"/><path class="cls-2" d="M430.47,82.78H419.75V72.06h10.72V82.78Zm-7.72-3h4.72V75.06h-4.72v4.72Z" transform="translate(-0.89 0)"/><rect class="cls-2" x="417.33" y="85.84" width="13.78" height="3"/><path class="cls-2" d="M430.47,102.62H419.75V91.91h10.72v10.72Zm-7.72-3h4.72V94.91h-4.72v4.72Z" transform="translate(-0.89 0)"/><rect class="cls-2" x="417.33" y="105.69" width="13.78" height="3"/><path class="cls-2" d="M164.81,209.29H152.39a5.53,5.53,0,0,1-5.53-5.53V185.45a5.53,5.53,0,0,1,5.53-5.53h12.42v3H152.39a2.53,2.53,0,0,0-2.53,2.53v18.31a2.53,2.53,0,0,0,2.53,2.53h12.42v3Z" transform="translate(-0.89 0)"/><path class="cls-11" d="M159.58,170.95v41.38a7,7,0,0,0,7,7h32.22a7,7,0,0,0,7-7V170.95H159.58Z" transform="translate(-0.89 0)"/><path class="cls-2" d="M191.5,165.43l-2.33-1.89c1.29-1.6.78-3.08-.23-5.57s-2.24-5.54.22-8.58l2.33,1.89c-1.29,1.59-.78,3.08.22,5.57s2.24,5.54-.22,8.59" transform="translate(-0.89 0)"/><path class="cls-2" d="M183.81,165.43l-2.33-1.89c1.29-1.6.78-3.08-.22-5.57s-2.24-5.54.22-8.58l2.33,1.89c-1.29,1.59-.78,3.08.23,5.57s2.24,5.54-.23,8.59" transform="translate(-0.89 0)"/><path class="cls-2" d="M176.13,165.43l-2.33-1.89c1.29-1.6.78-3.08-.23-5.57s-2.24-5.54.23-8.59l2.33,1.89c-1.29,1.6-.78,3.08.22,5.57s2.24,5.54-.22,8.59" transform="translate(-0.89 0)"/><rect class="cls-2" x="158.81" y="209.75" width="18.95" height="3"/><rect class="cls-2" x="180.11" y="209.75" width="2.53" height="3"/><polygon class="cls-12" points="170.45 185.91 178.53 181.24 186.61 185.91 186.61 198.22 178.53 198.22 170.45 198.22 170.45 185.91"/><path class="cls-2" d="M189,199.72H169.85V185l9.58-5.53L189,185v14.68Zm-16.16-3H186v-9.95l-6.58-3.8-6.58,3.8v9.95Z" transform="translate(-0.89 0)"/><rect class="cls-2" x="177.03" y="170.54" width="3" height="15.52"/><rect class="cls-13" x="93.23" y="199.83" width="8.48" height="13.07"/><rect class="cls-2" x="91.73" y="198.33" width="11.48" height="16.07"/><path class="cls-2" d="M97.3,200.63a61.6,61.6,0,0,1-33.13-9.7l1.62-2.52A58.7,58.7,0,1,0,118.45,84.13l1.09-2.8A61.7,61.7,0,0,1,97.3,200.63" transform="translate(-0.89 0)"/><path class="cls-13" d="M55.91,219.28A8.62,8.62,0,0,1,64.52,211h67.67a8.62,8.62,0,0,1,8.61,8.29H55.91Z" transform="translate(-0.89 0)"/><path class="cls-2" d="M142.36,220.78h-88l0.06-1.56a10.09,10.09,0,0,1,10.11-9.73h67.67a10.09,10.09,0,0,1,10.11,9.73Z" transform="translate(-0.89 0)"/><rect class="cls-2" x="24.88" y="135.55" width="137.05" height="3" transform="translate(-72 158.13) rotate(-63.03)"/><path class="cls-3" d="M78.8,181.83a46.94,46.94,0,0,1-21.7-19.42l19.73-16.76A0.72,0.72,0,0,0,77,144.8l-7.69-17.16a0.73,0.73,0,0,0-.51-0.41,0.72,0.72,0,0,0-.63.18l-8.92,8.13a0.74,0.74,0,0,0-.24.58l0.57,9.28-4.29,9.52a0.78,0.78,0,0,0-.07.3v3.67a47,47,0,0,1-1.35-37.29l0.35,1.23a0.69,0.69,0,0,0,.15.28l6.89,7.78a0.76,0.76,0,0,0,.25.18,0.71,0.71,0,0,0,.63,0,0.72,0.72,0,0,0,.36-0.81l-2.28-8.91,2.11-2.26,5.6,1.85a0.71,0.71,0,0,0,.45,0L83,116.15a0.72,0.72,0,0,0,.47-0.89l-2.84-10.08a0.75,0.75,0,0,0-.46-0.49,0.73,0.73,0,0,0-.66.09l-4.21,3-0.66-4.52L82,97.57l7.05-5.14a47,47,0,0,1,50.79,25.11c-5.79.4-10.85,0.78-10.85,0.79L117.34,117l-5.78-5.4L101,115.12l0.78,4.76-7,.78-1,4,6.34,4.14,3.32,4.33-3.22-.57-2-3.14-6.47-1.2-7.86,8.26,0.7,6.65,5.08,2.49-2.71,11v9.93l6.25-1,16.58-16.13-3.93-4,0.67-2.86,2.78,2.76,2.34,1.81,4.19-2.23,0.79,8.3,7.61-1.38,0.6,10.93,14-11.81,5.33-4.15a47.1,47.1,0,0,1-65.41,35" transform="translate(-0.89 0)"/><path class="cls-2" d="M84,111l0,0c0.06,0,.23,0,0.2-0.12l0,0c-0.06,0-.23,0-0.2.12" transform="translate(-0.89 0)"/><path class="cls-2" d="M144.52,144.75L138,149.86l-11.83,10-0.53-9.66-7.68,1.39-0.85-8.9-5.28,2.82-1.53-1.18-4.55-4.54-1.44,6.18,3.47,3.51L92.54,164.22l-4.13.65,0-8,3-12.06-5.41-2.65L85.4,137l6.86-7.21,5.08,0.94,2,3.15,7.51,1.32-5.66-7.38L95.46,124l0.5-2,7.53-.84-0.83-5.05,8.53-2.85,5.5,5.14L129,119.77s5.45-.41,11.54-0.83a47.22,47.22,0,0,1,4,25.81" transform="translate(-0.89 0)"/><path class="cls-2" d="M85.49,93.26l-4.33,3.16-7.69,5.92a0.73,0.73,0,0,0-.27.68l0.89,6.1a0.8,0.8,0,0,0,.43.56,0.72,0.72,0,0,0,.7-0.07l4.34-3L81.93,115,68.2,119.46l-5.81-1.93a0.73,0.73,0,0,0-.76.19l-2.7,2.89a0.73,0.73,0,0,0-.17.67l1.64,6.39-4.8-5.42-0.8-2.83A47,47,0,0,1,85.49,93.26" transform="translate(-0.89 0)"/><path class="cls-2" d="M61.06,145.48l-0.56-9.12,7.93-7.22,7.05,15.75-18.79,16v-5.49L61,145.82a0.7,0.7,0,0,0,.07-0.34" transform="translate(-0.89 0)"/><path class="cls-2" d="M88.87,109.12L88.48,96.8c8.61-.49,13.69.79,15.59,1.41l-6.21,8.47Z" transform="translate(-0.89 0)"/><path class="cls-2" d="M98.42,92.88a45.88,45.88,0,1,1-42.06,27.39A45.62,45.62,0,0,1,98.42,92.88m0-3A48.88,48.88,0,0,0,78.64,183.5a48.44,48.44,0,0,0,19.64,4.15A48.89,48.89,0,0,0,118.06,94a48.42,48.42,0,0,0-19.64-4.15" transform="translate(-0.89 0)"/><path class="cls-2" d="M86.53,95.77c-0.07,0-.18.05-0.14,0.13a0.06,0.06,0,0,0,.06,0,0.13,0.13,0,0,0,.14-0.13,0.06,0.06,0,0,0-.06,0" transform="translate(-0.89 0)"/><path class="cls-2" d="M85.09,111.68c-0.07,0-.19,0-0.16.13a0.06,0.06,0,0,0,.06,0c0.07,0,.18,0,0.15-0.13a0.05,0.05,0,0,0-.06,0" transform="translate(-0.89 0)"/><path class="cls-2" d="M57.62,163.35a1.5,1.5,0,0,1-1.5-1.5v-7a1.49,1.49,0,0,1,.13-0.61l4.09-9.09-0.54-8.84a1.5,1.5,0,0,1,.49-1.2L69,127.16a1.5,1.5,0,0,1,2.38.5l7.48,16.71a1.5,1.5,0,0,1-.4,1.76L58.59,163a1.5,1.5,0,0,1-1,.36m1.51-8.2v3.46l16.53-14-6.18-13.8-6.63,6,0.52,8.5a1.49,1.49,0,0,1-.13.71Z" transform="translate(-0.89 0)"/><path class="cls-2" d="M63.34,132.18a1.5,1.5,0,0,1-1.12-.5l-6.72-7.58a1.49,1.49,0,0,1-.32-0.59l-1.06-3.76,2.89-.81,1,3.43L60.34,125l-0.78-3a1.5,1.5,0,0,1,.36-1.4l2.63-2.82a1.5,1.5,0,0,1,1.57-.4l5.41,1.79,12.4-4-1.8-6.4-3.3,2.32a1.5,1.5,0,0,1-2.35-1l-0.87-5.94a1.5,1.5,0,0,1,.57-1.41l7.49-5.77L89,91.61,90.74,94l-7.28,5.31-6.76,5.21,0.39,2.66,3-2.14a1.5,1.5,0,0,1,2.31.82l2.77,9.82a1.5,1.5,0,0,1-1,1.83L70,122.19a1.5,1.5,0,0,1-.94,0l-5-1.65-1.41,1.51,2.12,8.25a1.5,1.5,0,0,1-1.45,1.87" transform="translate(-0.89 0)"/><path class="cls-2" d="M87.55,112.81L87,95.89l1.45-.1C100.27,95,106,97.51,106.2,97.62l1.69,0.76L99.73,109.5Zm2.55-14.1,0.33,10.21,7.51-2,5.21-7.1a44.45,44.45,0,0,0-13-1.07" transform="translate(-0.89 0)"/><path class="cls-2" d="M87,166.82l0-10.61,2.53-10.28-4.77-2.34L84,136.31l8.2-8.62,6.74,1.26-5.37-3.5,1.24-5,6.55-.73-0.73-4.48L112,111.47l5.78,5.41,11,1.24c1-.07,6.72-0.5,12.67-0.9l0.2,3c-6.52.44-12.79,0.91-12.79,0.91h-0.14l-12.24-1.38-5.2-4.86L104,117.29l0.83,5.08-7.61.85-0.22.88,5.18,3.38,6.91,9-9.67-1.7-2-3.07-4.19-.78-6.13,6.44,0.45,4.25L93,144.3l-3,12.27,0,6.74,2.86-.45,14.06-13.67L103.79,146l1.83-7.84,5.37,5.37,1.07,0.83,5.73-3.06,0.87,9,7.51-1.36,0.48,8.72L137,149l7.6-5.92,1.84,2.37-7.56,5.88L124,163.85l-0.62-11.33L116,153.85l-0.75-7.76L111.76,148l-2.82-2.2-1.62-1.62-0.23,1,4.08,4.13L94.27,165.67ZM101.22,132l0.79,0.14-1.91-2.48-0.7-.46Z" transform="translate(-0.89 0)"/><path class="cls-6" d="M526.44,89.33a43.92,43.92,0,1,1,43.92-43.92,43.92,43.92,0,0,1-43.92,43.92" transform="translate(-0.89 0)"/><path class="cls-2" d="M526.44,90.83h0a45.42,45.42,0,1,1,45.42-45.42,45.47,45.47,0,0,1-45.42,45.42m0-87.83a42.42,42.42,0,1,0,42.42,42.42A42.46,42.46,0,0,0,526.44,3" transform="translate(-0.89 0)"/><path class="cls-3" d="M526.44,82.72a37.3,37.3,0,1,1,37.3-37.3,37.3,37.3,0,0,1-37.3,37.3" transform="translate(-0.89 0)"/><path class="cls-2" d="M526.44,84.22h0a38.8,38.8,0,1,1,38.8-38.8,38.85,38.85,0,0,1-38.8,38.8m0-74.6a35.8,35.8,0,1,0,35.8,35.8,35.84,35.84,0,0,0-35.8-35.8" transform="translate(-0.89 0)"/><rect class="cls-2" x="524.05" y="14.72" width="3" height="6.38"/><rect class="cls-2" x="537.01" y="20.1" width="6.37" height="3" transform="translate(250.5 478.62) rotate(-60)"/><rect class="cls-2" x="547.07" y="30.16" width="6.37" height="3" transform="translate(56.96 279.3) rotate(-29.99)"/><rect class="cls-2" x="549.86" y="43.92" width="6.38" height="3"/><rect class="cls-2" x="548.76" y="55.98" width="3" height="6.38" transform="translate(222.97 506.1) rotate(-60)"/><rect class="cls-2" x="538.69" y="66.05" width="3" height="6.37" transform="translate(36.86 279.38) rotate(-30)"/><rect class="cls-2" x="524.05" y="69.73" width="3" height="6.38"/><rect class="cls-2" x="509.5" y="67.74" width="6.38" height="3" transform="translate(195.37 478.53) rotate(-59.98)"/><rect class="cls-2" x="499.43" y="57.67" width="6.37" height="3" transform="translate(36.72 258.9) rotate(-29.96)"/><rect class="cls-2" x="494.86" y="43.92" width="6.38" height="3"/><rect class="cls-2" x="501.12" y="28.48" width="3" height="6.38" transform="translate(222.97 451.1) rotate(-60)"/><rect class="cls-2" x="511.19" y="18.41" width="3" height="6.37" transform="translate(56.95 259.14) rotate(-29.99)"/><path class="cls-14" d="M525,44.14a1.92,1.92,0,1,0,2.71-.15,1.92,1.92,0,0,0-2.71.15" transform="translate(-0.89 0)"/><path class="cls-2" d="M526.44,48.83A3.41,3.41,0,1,1,529,47.7a3.42,3.42,0,0,1-2.55,1.13m0-3.83a0.42,0.42,0,0,0-.31.14,0.41,0.41,0,0,0-.1.3,0.42,0.42,0,0,0,.14.29,0.42,0.42,0,0,0,.7-0.34,0.41,0.41,0,0,0-.14-0.29,0.42,0.42,0,0,0-.28-0.11M525,44.14h0Z" transform="translate(-0.89 0)"/><rect class="cls-2" x="524.38" y="35.02" width="20.03" height="3" transform="translate(150.02 410.49) rotate(-48.19)"/><rect class="cls-2" x="517.53" y="29.96" width="3" height="17.64" transform="translate(143.19 399.77) rotate(-48.19)"/><path class="cls-2" d="M618.58,126.63H559.08l29.75-24.77Zm-51.2-3h42.91l-21.46-17.87Z" transform="translate(-0.89 0)"/><rect class="cls-15" x="548.12" y="113.49" width="79.63" height="56.7"/><path class="cls-2" d="M630.15,171.69H547.51V112h82.64v59.7Zm-79.64-3h76.64V115H550.51v53.7Z" transform="translate(-0.89 0)"/><path class="cls-2" d="M619.47,161H558.18V122.66h61.29V161Zm3-41.36H555.18V164h67.29V119.66Z" transform="translate(-0.89 0)"/><path class="cls-12" d="M611.17,132.94a4.75,4.75,0,1,1-4.75-4.75,4.74,4.74,0,0,1,4.75,4.75" transform="translate(-0.89 0)"/><path class="cls-2" d="M606.43,139.18a6.25,6.25,0,1,1,6.25-6.24,6.25,6.25,0,0,1-6.25,6.24m0-9.49a3.25,3.25,0,1,0,3.25,3.25,3.25,3.25,0,0,0-3.25-3.25" transform="translate(-0.89 0)"/><polygon class="cls-6" points="555.79 162.51 555.79 144.6 567.56 128.95 577.63 142.37 584.15 133.69 595.02 148.16 620.08 148.16 620.08 162.51 555.79 162.51"/><path class="cls-2" d="M568.45,131.44l10.08,13.42,6.52-8.68,8.3,11.05,1.82,2.43h24.31V161H558.18V145.1Zm0-5-2.4,3.19L555.79,143.3l-0.6.8V164h67.29V146.66H596.66l-0.92-1.23-8.3-11-2.4-3.2-2.4,3.2-4.12,5.49-7.68-10.23Z" transform="translate(-0.89 0)"/><rect class="cls-2" x="634.81" y="217.78" width="10.11" height="3"/><rect class="cls-2" x="596.12" y="217.78" width="34.18" height="3"/><rect class="cls-2" y="217.78" width="10.11" height="3"/><rect class="cls-2" x="14.61" y="217.78" width="34.18" height="3"/><rect class="cls-2" x="381.96" y="217.78" width="88.48" height="3"/><rect class="cls-2" x="209.95" y="217.78" width="75.34" height="3"/><rect class="cls-16" x="507.66" y="132.73" width="8.13" height="37.06"/><path class="cls-2" d="M516.69,171.28h-8.13a1.5,1.5,0,0,1-1.5-1.5V132.72a1.5,1.5,0,0,1,1.5-1.5h8.13a1.5,1.5,0,0,1,1.5,1.5v37.06a1.5,1.5,0,0,1-1.5,1.5m-6.63-3h5.13V134.23h-5.13v34.06Z" transform="translate(-0.89 0)"/><path class="cls-15" d="M512.62,133.41a14.18,14.18,0,0,0,4.06-.58l-4.06-10.55-4.06,10.55a14.16,14.16,0,0,0,4.06.58" transform="translate(-0.89 0)"/><path class="cls-2" d="M512.62,134.91a15.64,15.64,0,0,1-4.49-.65,1.5,1.5,0,0,1-1-2l4.06-10.55a1.5,1.5,0,0,1,2.8,0l4.06,10.55a1.5,1.5,0,0,1-1,2,15.6,15.6,0,0,1-4.49.65m-2-3.16a13.18,13.18,0,0,0,4.08,0l-2-5.3Z" transform="translate(-0.89 0)"/><path class="cls-6" d="M511.3,125.73c0.41,0,.82.06,1.25,0.06a13.63,13.63,0,0,0,1.4-.08l-1.33-3.43Z" transform="translate(-0.89 0)"/><path class="cls-2" d="M512.55,127.29c-0.47,0-.92,0-1.36-0.07l-2-.15,3.43-9,3.45,8.9-2,.2a15.12,15.12,0,0,1-1.55.08" transform="translate(-0.89 0)"/><rect class="cls-6" x="483.96" y="119.88" width="16.99" height="50.45"/><path class="cls-2" d="M503.34,171.83h-20V118.38h20v53.45Zm-17-3h14V121.38h-14v47.45Z" transform="translate(-0.89 0)"/><rect class="cls-2" x="493.23" y="125.59" width="6.69" height="3"/><rect class="cls-2" x="496.32" y="132.8" width="3.6" height="3"/><rect class="cls-2" x="493.23" y="140" width="6.69" height="3"/><rect class="cls-2" x="496.32" y="147.21" width="3.6" height="3"/><rect class="cls-2" x="493.23" y="154.41" width="6.69" height="3"/><rect class="cls-2" x="496.32" y="161.62" width="3.6" height="3"/><path class="cls-10" d="M473,131.08l5.3-1.17c-0.47-1.8-.93-3.54-1.39-5.19a4.28,4.28,0,0,0-4.83,1.06c0.29,1.69.59,3.46,0.92,5.29" transform="translate(-0.89 0)"/><path class="cls-2" d="M471.84,132.88l-0.27-1.54c-0.33-1.83-.63-3.61-0.92-5.31l-0.12-.71,0.48-.54a5.75,5.75,0,0,1,6.53-1.44l0.67,0.28,0.19,0.7c0.45,1.66.91,3.4,1.39,5.2l0.4,1.51Zm1.91-6.53q0.24,1.43.5,2.93l2.24-.49q-0.39-1.47-.77-2.87a2.81,2.81,0,0,0-2,.44" transform="translate(-0.89 0)"/><path class="cls-10" d="M488.48,172.56q-0.38-1.77-.78-3.56c-3.2-14.49-6.47-28.1-9.36-39.09l-5.3,1.17c2,11.19,4.75,24.91,7.92,39.41q0.39,1.79.79,3.56Z" transform="translate(-0.89 0)"/><path class="cls-2" d="M480.62,175.83l-1.12-5c-3.18-14.5-5.92-28.14-7.94-39.47l-0.25-1.42,8.11-1.79,0.37,1.39c3,11.39,6.23,24.92,9.38,39.15l0.78,3.56,0.32,1.46Zm-5.84-43.6c2,11,4.62,24.07,7.66,37.93l0.46,2.09,3.8-.84-0.46-2.09c-3-13.61-6.11-26.59-9-37.64Z" transform="translate(-0.89 0)"/><rect class="cls-2" x="480.69" y="166.38" width="5.97" height="3" transform="translate(-25.69 108.08) rotate(-12.43)"/><polygon class="cls-2" points="471.98 166.59 464.84 134.16 471.56 129.68 474.69 128.99 475.34 131.92 472.75 132.49 468.21 135.52 474.91 165.94 471.98 166.59"/><path class="cls-1" d="M476,167.49v48a4.12,4.12,0,0,0,4.12,4.12h35a4.12,4.12,0,0,0,4.12-4.12v-48H476Z" transform="translate(-0.89 0)"/><path class="cls-2" d="M515.08,221.15h-35a5.62,5.62,0,0,1-5.62-5.62V166H520.7v49.54a5.62,5.62,0,0,1-5.62,5.62M477.46,169v46.54a2.62,2.62,0,0,0,2.62,2.62h35a2.62,2.62,0,0,0,2.62-2.62V169H477.46Z" transform="translate(-0.89 0)"/><rect class="cls-6" x="495.42" y="205.69" width="91.15" height="13.97"/><path class="cls-2" d="M589,221.15H494.82v-17H589v17Zm-91.15-3H586v-11H497.82v11Z" transform="translate(-0.89 0)"/><rect class="cls-12" x="503.51" y="205.69" width="12.5" height="13.97"/><path class="cls-2" d="M518.4,221.15H502.9v-17h15.5v17Zm-12.5-3h9.5v-11h-9.5v11Z" transform="translate(-0.89 0)"/><rect class="cls-10" x="499.83" y="195.03" width="73.51" height="10.29"/><path class="cls-2" d="M575.73,206.82H499.23V193.53h76.51v13.29Zm-73.51-3h70.51v-7.29H502.23v7.29Z" transform="translate(-0.89 0)"/><rect class="cls-10" x="507.92" y="195.03" width="57.33" height="10.29"/><path class="cls-2" d="M567.64,206.82H507.31V193.53h60.33v13.29Zm-57.33-3h54.33v-7.29H510.31v7.29Z" transform="translate(-0.89 0)"/></svg>