<?xml version="1.0" encoding="utf-8"?>
<!-- Generator: Adobe Illustrator 15.0.0, SVG Export Plug-In . SVG Version: 6.00 Build 0)  -->
<!DOCTYPE svg PUBLIC "-//W3C//DTD SVG 1.1//EN" "http://www.w3.org/Graphics/SVG/1.1/DTD/svg11.dtd">
<svg version="1.1" id="Layer_1" xmlns="http://www.w3.org/2000/svg" xmlns:xlink="http://www.w3.org/1999/xlink" x="0px" y="0px"
	 width="102px" height="102px" viewBox="0 0 102 102" enable-background="new 0 0 102 102" xml:space="preserve">
<g>
	<path fill="#FFFFFF" d="M50.969,1c-0.006,0-0.013,0-0.02,0c-0.002,0-0.006,0-0.008,0c-0.005,0-0.008,0-0.012,0
		c-0.003,0-0.006,0-0.008,0c-0.005,0-0.008,0-0.014,0c-0.002,0-0.004,0-0.006,0c-0.006,0-0.009,0-0.014,0c-0.002,0-0.004,0-0.007,0
		c-0.005,0-0.009,0-0.013,0c-0.002,0-0.005,0-0.007,0c-0.005,0-0.009,0-0.015,0c-0.002,0-0.004,0-0.006,0c-0.005,0-0.008,0-0.014,0
		c-0.002,0-0.006,0-0.009,0s-0.007,0-0.011,0c-0.004,0-0.008,0-0.012,0s-0.005,0-0.008,0c-0.004,0-0.008,0-0.012,0s-0.006,0-0.009,0
		c-0.004,0-0.008,0-0.011,0c-0.004,0-0.006,0-0.01,0c-0.004,0-0.006,0-0.01,0s-0.007,0-0.01,0c-0.004,0-0.007,0-0.011,0
		c-0.003,0-0.007,0-0.01,0s-0.007,0-0.01,0.001c-0.003,0-0.007,0-0.011,0c-0.003,0-0.006,0-0.01,0c-0.003,0-0.006,0-0.01,0
		s-0.007,0-0.01,0c-0.004,0-0.008,0-0.011,0s-0.007,0-0.011,0c-0.003,0-0.006,0-0.009,0c-0.004,0-0.007,0-0.011,0s-0.006,0-0.01,0
		s-0.006,0-0.01,0c-0.004,0-0.007,0-0.01,0c-0.004,0-0.007,0-0.01,0c-0.004,0-0.007,0-0.011,0c-0.003,0-0.007,0-0.011,0
		c-0.003,0-0.006,0.001-0.01,0.001c-0.003,0-0.006,0-0.01,0c-0.002,0-0.008,0-0.01,0c-0.004,0-0.008,0-0.011,0
		c-0.002,0-0.008,0-0.009,0c-0.004,0-0.008,0-0.012,0c-0.001,0-0.008,0.001-0.009,0.001c-0.003,0-0.007,0-0.011,0
		c-0.002,0-0.008,0-0.01,0c-0.004,0-0.007,0-0.01,0c-0.004,0-0.007,0-0.01,0c-0.004,0-0.008,0-0.011,0c-0.002,0-0.008,0-0.01,0
		c-0.003,0-0.006,0-0.01,0c-0.003,0-0.007,0-0.011,0c-0.003,0-0.006,0-0.01,0c-0.004,0-0.006,0-0.01,0c-0.003,0-0.007,0-0.01,0
		c-0.004,0-0.007,0-0.01,0c-0.004,0-0.008,0-0.011,0.001c-0.003,0-0.007,0-0.01,0s-0.007,0-0.01,0c-0.003,0-0.007,0-0.011,0
		c-0.003,0-0.006,0-0.01,0c-0.004,0-0.006,0-0.01,0s-0.008,0-0.011,0c-0.003,0-0.006,0-0.009,0c-0.004,0-0.008,0.001-0.012,0.001
		c-0.004,0-0.006,0-0.009,0s-0.007,0-0.011,0c-0.003,0-0.006,0-0.01,0c-0.003,0-0.006,0-0.01,0c-0.003,0-0.007,0-0.01,0
		c-0.004,0-0.007,0-0.01,0c-0.004,0.001-0.008,0.001-0.011,0.001s-0.007,0-0.011,0c-0.002,0-0.006,0-0.01,0
		c-0.002,0-0.006,0-0.01,0.001c-0.003,0-0.006,0-0.01,0s-0.007,0-0.01,0c-0.004,0-0.006,0-0.01,0s-0.008,0-0.011,0
		c-0.003,0-0.006,0-0.009,0c-0.004,0-0.008,0-0.012,0c-0.004,0-0.006,0-0.008,0c-0.004,0-0.008,0-0.012,0
		c-0.004,0-0.006,0.001-0.01,0.001s-0.007,0-0.011,0c-0.003,0-0.005,0-0.009,0s-0.008,0.001-0.011,0.001s-0.006,0-0.009,0
		c-0.004,0-0.008,0-0.012,0s-0.006,0-0.009,0s-0.007,0-0.011,0s-0.006,0-0.01,0s-0.007,0-0.011,0c-0.003,0-0.005,0-0.009,0
		c0.019,0.001,0.016,0.001,0.012,0.001c-0.003,0-0.005,0-0.008,0c-0.004,0-0.008,0-0.012,0s-0.006,0-0.008,0
		c-0.004,0-0.008,0-0.012,0c-0.004,0.001-0.006,0.001-0.01,0.001c-0.003,0-0.007,0-0.01,0c-0.004,0-0.007,0-0.01,0
		c-0.004,0-0.008,0-0.011,0s-0.007,0-0.01,0.001c-0.003,0-0.007,0-0.011,0c-0.003,0-0.006,0-0.009,0
		c-0.003,0.001-0.007,0.001-0.011,0.001c-0.003,0-0.006,0-0.009,0c-0.005,0-0.008,0-0.012,0c-0.003,0-0.005,0-0.009,0
		c-0.004,0-0.007,0-0.01,0c-0.004,0-0.008,0-0.01,0c-0.004,0-0.008,0-0.012,0c-0.003,0-0.006,0-0.009,0
		c-0.003,0-0.007,0-0.011,0.001c-0.003,0-0.006,0-0.01,0c-0.003,0-0.007,0-0.01,0.001c-0.004,0-0.006,0-0.01,0
		c-0.004,0-0.008,0-0.011,0s-0.005,0-0.009,0c-0.004,0-0.008,0-0.012,0.001c-0.003,0-0.006,0-0.008,0c-0.004,0-0.008,0-0.011,0.001
		c-0.003,0-0.009,0-0.01,0c-0.004,0-0.008,0-0.012,0c-0.001,0-0.006,0-0.007,0c-0.004,0-0.009,0-0.013,0c-0.001,0-0.007,0-0.009,0
		c-0.004,0-0.008,0.001-0.012,0.001c-0.001,0-0.007,0-0.009,0c-0.003,0-0.007,0-0.011,0c-0.002,0-0.007,0-0.008,0
		c-0.004,0.001-0.008,0.001-0.012,0.001c-0.002,0-0.007,0-0.008,0c-0.004,0-0.008,0-0.012,0c-0.002,0-0.008,0-0.01,0.001
		c-0.004,0-0.008,0-0.011,0c-0.002,0-0.008,0-0.009,0c-0.004,0-0.008,0-0.012,0c-0.003,0.001-0.006,0.001-0.008,0.001
		c-0.004,0-0.008,0-0.012,0c-0.002,0-0.007,0-0.008,0c-0.004,0-0.008,0-0.012,0.001c-0.004,0-0.006,0-0.009,0
		c-0.004,0-0.008,0.001-0.012,0.001c-0.003,0-0.005,0-0.009,0s-0.008,0-0.012,0c-0.003,0-0.004,0-0.008,0s-0.008,0-0.012,0
		c-0.004,0.001-0.005,0.001-0.008,0.001c-0.004,0-0.008,0-0.012,0c-0.004,0-0.006,0-0.01,0c-0.003,0-0.007,0.001-0.011,0.001
		c-0.003,0-0.005,0-0.008,0c-0.004,0-0.008,0-0.012,0c-0.003,0-0.004,0-0.007,0c-0.005,0.001-0.01,0.001-0.014,0.001
		c-0.002,0-0.002,0-0.004,0.001c-0.006,0-0.011,0-0.016,0c-0.002,0-0.004,0-0.006,0c-0.004,0-0.01,0-0.015,0
		c-0.002,0-0.001,0-0.002,0c-0.007,0.001-0.013,0.001-0.018,0.001c-0.002,0-0.003,0-0.004,0c-0.013,0-0.024,0.001-0.036,0.001
		c-0.002,0-0.002,0-0.004,0c0.004,0-0.007,0.001-0.02,0.001h-0.001c-0.052,0.002-0.104,0.004-0.155,0.005
		c-0.001,0-0.001,0-0.003,0.001c-0.025,0-0.051,0.002-0.076,0.002c-0.001,0-0.001,0-0.003,0C48.965,1.039,48.954,1.04,48.94,1.04
		c-0.001,0,0,0-0.001,0c-0.007,0-0.013,0.001-0.02,0.001c-0.001,0.001,0.001,0-0.001,0.001c-0.004,0-0.01,0-0.015,0
		c-0.001,0-0.004,0-0.005,0c-0.006,0-0.01,0-0.015,0c-0.003,0.001-0.003,0.001-0.005,0.001c-0.006,0-0.01,0.001-0.014,0.001
		c-0.004,0-0.004,0-0.008,0s-0.008,0-0.012,0c-0.004,0-0.004,0-0.008,0s-0.008,0-0.014,0c-0.003,0.001-0.002,0.001-0.006,0.001
		s-0.01,0.001-0.014,0.001c-0.002,0-0.004,0-0.006,0c-0.004,0-0.01,0.001-0.014,0.001c-0.001,0-0.005,0-0.006,0
		c-0.005,0-0.01,0-0.014,0.001c-0.002,0-0.006,0-0.007,0c-0.005,0-0.009,0-0.013,0c-0.002,0-0.006,0-0.008,0
		c-0.004,0-0.009,0.002-0.014,0.002c-0.001,0-0.004,0-0.006,0c-0.004,0-0.009,0-0.014,0c-0.002,0-0.004,0.001-0.006,0.001
		c-0.004,0-0.009,0-0.014,0c-0.001,0-0.004,0-0.006,0.001c-0.004,0-0.009,0-0.013,0c-0.002,0-0.006,0-0.008,0
		c-0.005,0.001-0.009,0.001-0.013,0.002c-0.002,0-0.005,0-0.007,0c-0.005,0-0.009,0-0.013,0c-0.002,0-0.006,0-0.008,0
		c-0.004,0-0.008,0-0.012,0c-0.002,0-0.006,0.001-0.008,0.001c-0.004,0-0.008,0.001-0.012,0.001c-0.002,0-0.006,0-0.008,0
		c-0.004,0-0.009,0.001-0.013,0.001c-0.002,0-0.005,0-0.007,0c-0.005,0-0.01,0.001-0.014,0.001c-0.002,0-0.005,0-0.006,0
		c-0.005,0-0.01,0.001-0.014,0.001c-0.002,0-0.005,0-0.007,0.001c-0.004,0-0.009,0-0.013,0c-0.002,0-0.006,0-0.008,0
		c-0.004,0-0.008,0.001-0.013,0.001c-0.001,0-0.005,0-0.007,0c-0.004,0-0.008,0-0.013,0.001c-0.001,0-0.005,0-0.007,0
		c-0.004,0-0.008,0-0.013,0.001c-0.001,0-0.006,0-0.007,0.001c-0.004,0-0.009,0-0.013,0c-0.003,0-0.005,0-0.008,0
		c-0.005,0-0.009,0.001-0.013,0.001c-0.002,0-0.005,0-0.006,0c-0.006,0-0.01,0.001-0.014,0.001c-0.002,0-0.006,0-0.007,0
		c-0.005,0-0.009,0.001-0.013,0.001c-0.002,0-0.006,0.001-0.008,0.001c-0.004,0-0.008,0-0.012,0s-0.005,0-0.008,0
		c-0.004,0-0.009,0.001-0.013,0.001c-0.003,0-0.003,0-0.007,0C48.304,1.07,48.299,1.07,48.294,1.07c-0.003,0-0.004,0-0.006,0
		c-0.005,0.001-0.01,0.001-0.014,0.002c-0.003,0-0.004,0-0.007,0c-0.004,0-0.009,0-0.013,0c-0.003,0-0.004,0-0.008,0.001
		c-0.004,0-0.008,0-0.012,0.001c-0.004,0-0.004,0-0.007,0c-0.005,0-0.009,0-0.014,0c-0.003,0.001-0.003,0-0.007,0.001
		c-0.004,0-0.008,0-0.013,0c-0.003,0.001-0.003,0.001-0.007,0.001s-0.008,0-0.013,0.001c-0.003,0-0.004,0-0.007,0
		c-0.004,0-0.01,0-0.014,0.001c-0.003,0-0.002,0-0.006,0s-0.01,0.001-0.014,0.001c-0.004,0-0.003,0-0.006,0
		c-0.005,0-0.01,0.001-0.014,0.001c-0.004,0-0.004,0-0.007,0c0.014,0,0.01,0,0.006,0s-0.004,0-0.008,0
		c-0.004,0.001-0.008,0.001-0.012,0.001c-0.002,0-0.006,0-0.008,0.001c-0.004,0-0.008,0.001-0.013,0.001c-0.002,0-0.005,0-0.007,0
		c-0.004,0-0.008,0-0.013,0c-0.002,0.001-0.005,0.001-0.007,0.001c-0.004,0.001-0.009,0.001-0.014,0.001c-0.001,0-0.005,0-0.006,0
		c-0.005,0-0.01,0.001-0.014,0.001c-0.002,0-0.004,0-0.006,0c-0.005,0-0.01,0.001-0.014,0.001c-0.002,0-0.005,0-0.007,0
		c-0.004,0.001-0.009,0.001-0.013,0.002c-0.002,0-0.006,0-0.008,0c-0.004,0-0.008,0-0.012,0c-0.002,0-0.006,0-0.007,0
		c-0.005,0.002-0.009,0.002-0.014,0.002c-0.001,0-0.005,0-0.006,0c-0.005,0-0.009,0.001-0.015,0.001
		c-0.001,0-0.003,0.001-0.006,0.001c-0.004,0-0.009,0-0.014,0c-0.001,0-0.004,0-0.006,0c-0.004,0.001-0.009,0.001-0.014,0.001
		c-0.002,0-0.004,0.001-0.006,0.001c-0.004,0-0.01,0-0.014,0c-0.002,0-0.004,0-0.006,0c-0.005,0.001-0.01,0.002-0.014,0.002
		c-0.002,0-0.004,0-0.006,0c-0.005,0-0.01,0.001-0.014,0.001c-0.002,0-0.005,0-0.007,0c-0.005,0.001-0.009,0.001-0.013,0.001
		c-0.002,0-0.006,0.001-0.007,0.001c-0.005,0-0.009,0.001-0.015,0.001c-0.001,0-0.002,0-0.004,0c-0.005,0-0.01,0.001-0.016,0.001
		c-0.002,0-0.002,0-0.003,0c-0.006,0-0.011,0.001-0.017,0.001c-0.002,0-0.002,0-0.004,0c-0.006,0.001-0.01,0.001-0.016,0.001
		c-0.002,0.001-0.003,0.001-0.005,0.001c-0.005,0-0.01,0-0.015,0c-0.002,0-0.003,0-0.004,0.001c-0.006,0-0.012,0.001-0.016,0.001
		h-0.004c-0.006,0.001-0.011,0.001-0.016,0.001L47.64,1.109c-0.005,0-0.011,0-0.015,0.001c-0.002,0-0.004,0-0.006,0
		c-0.005,0-0.01,0.001-0.015,0.001h-0.003c-0.006,0.001-0.012,0.001-0.017,0.001l-0.003,0.001c-0.006,0-0.012,0-0.018,0.001
		c-0.001,0-0.002,0-0.004,0.001c-0.005,0-0.01,0-0.016,0c-0.002,0-0.002,0-0.004,0c-0.005,0.001-0.01,0.001-0.016,0.001
		c-0.002,0.001-0.002,0.001-0.004,0.001c-0.018,0.002-0.037,0.002-0.055,0.004c-0.002,0,0,0-0.002,0
		c-0.006,0-0.012,0.001-0.019,0.002h-0.001c-0.137,0.008-0.273,0.02-0.411,0.029H47.03c-0.006,0.001-0.012,0.001-0.018,0.002H47.01
		c-0.005,0-0.01,0.001-0.016,0.001L46.99,1.156c-0.006,0-0.011,0-0.016,0.001H46.97c-0.006,0-0.012,0.001-0.018,0.001H46.95
		c-0.006,0.001-0.012,0.002-0.017,0.002H46.93c-0.006,0-0.011,0.001-0.016,0.001L46.91,1.162c-0.006,0-0.011,0-0.016,0.001
		c-0.002,0-0.003,0.001-0.005,0.001c-0.005,0-0.011,0-0.016,0.001H46.87c-0.006,0.001-0.012,0.001-0.017,0.001h-0.004
		c-0.005,0.001-0.011,0.001-0.015,0.002c-0.002,0-0.004,0-0.005,0c-0.006,0.001-0.011,0.002-0.017,0.002h0.018
		c-0.006,0-0.012,0-0.018,0.001H46.81c-0.006,0.001-0.012,0.001-0.018,0.002c-0.002,0-0.002,0-0.003,0
		c-0.005,0.001-0.011,0.001-0.017,0.001c-0.002,0.001-0.002,0.001-0.004,0.001c-0.005,0.001-0.01,0.001-0.016,0.001
		c-0.002,0-0.002,0-0.004,0c-0.005,0.001-0.01,0.001-0.016,0.002c-0.002,0-0.002,0-0.003,0c-0.006,0.001-0.011,0.001-0.017,0.002
		c-0.002,0-0.002,0-0.004,0c-0.004,0-0.01,0.001-0.016,0.002c-0.001,0-0.002,0-0.004,0c-0.005,0-0.01,0-0.015,0
		c-0.002,0-0.003,0.001-0.005,0.001c-0.006,0.001-0.011,0.001-0.016,0.002c-0.002,0-0.002,0-0.004,0
		c-0.006,0.001-0.011,0.001-0.016,0.001c-0.002,0.001-0.002,0-0.004,0.001c-0.005,0-0.01,0.001-0.016,0.001
		c-0.002,0-0.002,0-0.004,0c-0.006,0.001-0.01,0.001-0.016,0.002c-0.002,0-0.002,0-0.004,0c-0.006,0.001-0.011,0.001-0.016,0.001
		c0.004-0.001,0.004-0.001,0.002-0.001c-0.006,0-0.011,0.001-0.016,0.002c-0.002,0-0.002,0-0.004,0c-0.006,0-0.01,0.001-0.016,0.001
		c-0.002,0.001-0.003,0.001-0.004,0.001c-0.006,0-0.011,0-0.016,0.001c-0.002,0-0.003,0-0.004,0.001c-0.006,0-0.012,0-0.017,0
		c-0.001,0-0.001,0-0.003,0c-0.006,0.001-0.012,0.002-0.017,0.002c-0.001,0.001-0.002,0.001-0.003,0.001
		c-0.006,0-0.011,0.001-0.016,0.001c-0.002,0-0.004,0-0.005,0c-0.005,0-0.011,0.001-0.016,0.002h-0.003
		c-0.006,0.001-0.012,0.002-0.017,0.002h-0.003c-0.006,0.001-0.012,0.002-0.017,0.002h-0.003c-0.006,0-0.012,0.001-0.017,0.001
		l-0.004,0.001c-0.005,0-0.011,0.001-0.017,0.002h-0.002c-0.006,0-0.012,0-0.018,0.001h0.004c-0.006,0.001-0.012,0.001-0.018,0.002
		L46.32,1.214c-0.006,0-0.012,0-0.018,0.001c-0.001,0-0.002,0-0.003,0.001c-0.005,0-0.011,0-0.017,0c-0.001,0-0.002,0-0.003,0
		c-0.005,0.001-0.011,0.002-0.016,0.002c-0.002,0.001-0.003,0.001-0.004,0.001c-0.005,0-0.011,0.001-0.017,0.001
		c-0.001,0-0.002,0-0.004,0c-0.004,0.002-0.01,0.002-0.015,0.002c-0.001,0-0.003,0-0.005,0c-0.005,0.002-0.01,0.002-0.016,0.002
		c-0.001,0-0.002,0-0.003,0c-0.005,0.001-0.011,0.002-0.017,0.002c-0.002,0,0,0-0.002,0c-0.006,0.001-0.012,0.001-0.018,0.002
		c-0.002,0,0,0-0.002,0c-0.006,0.001-0.012,0.001-0.018,0.002c-0.002,0-0.001,0-0.002,0c-0.006,0-0.012,0.001-0.018,0.002
		c-0.002,0,0,0-0.002,0c-0.006,0.001-0.012,0.002-0.018,0.002c-0.002,0,0,0-0.002,0c-0.006,0.001-0.012,0.002-0.018,0.002
		c-0.002,0,0,0-0.002,0c-0.006,0-0.012,0.001-0.018,0.002c-0.002,0-0.001,0-0.002,0c-0.006,0-0.012,0-0.018,0.002H46.04
		c-0.045,0.004-0.09,0.008-0.135,0.013l0.199,1.991C47.715,3.081,49.349,3,50.969,3V1L50.969,1L50.969,1z M40.905,2.013
		c-0.272,0.056-0.541,0.113-0.812,0.173l0,0c-0.006,0.002-0.012,0.003-0.018,0.005h-0.002c-0.006,0.002-0.01,0.002-0.016,0.004
		c-0.002,0-0.003,0-0.004,0c-0.006,0.002-0.01,0.002-0.016,0.004c-0.002,0-0.002,0-0.004,0.001c-0.004,0.001-0.01,0.002-0.015,0.003
		c-0.001,0-0.003,0.001-0.005,0.001c-0.004,0.001-0.01,0.003-0.014,0.003c0.001,0-0.001,0.001-0.002,0.001
		c-0.005,0.001-0.009,0.002-0.014,0.003c-0.002,0.001-0.004,0.001-0.006,0.001c-0.003,0.001-0.011,0.002-0.014,0.004
		c-0.002,0-0.003,0-0.005,0c-0.004,0.001-0.011,0.002-0.014,0.004c-0.002,0-0.004,0-0.006,0.001
		c-0.003,0.001-0.01,0.003-0.014,0.003c-0.002,0-0.004,0-0.006,0.002c-0.003,0-0.01,0.002-0.013,0.002
		c-0.002,0-0.004,0.002-0.007,0.002c-0.002,0-0.01,0.002-0.013,0.003c-0.002,0.001-0.004,0.001-0.006,0.001
		c-0.003,0-0.009,0.002-0.013,0.003c-0.002,0-0.004,0.001-0.007,0.001c-0.003,0.002-0.009,0.003-0.013,0.004
		c-0.002,0-0.004,0-0.006,0.001c-0.004,0.001-0.01,0.002-0.012,0.003c-0.003,0-0.006,0.001-0.008,0.002
		c-0.005,0.001-0.008,0.002-0.012,0.002c-0.003,0.001-0.005,0.002-0.008,0.002c-0.004,0.001-0.007,0.002-0.012,0.003
		c-0.002,0.001-0.005,0.001-0.008,0.001c-0.003,0.002-0.008,0.002-0.011,0.004c-0.003,0-0.006,0-0.009,0.001
		c-0.004,0.001-0.007,0.002-0.01,0.003c-0.004,0-0.007,0.001-0.01,0.002c-0.005,0-0.006,0-0.01,0.002
		c-0.004,0-0.007,0.002-0.01,0.002c-0.004,0-0.006,0.002-0.01,0.002c-0.003,0.002-0.006,0.002-0.01,0.003
		c-0.004,0.001-0.006,0.001-0.009,0.001c-0.003,0.002-0.007,0.003-0.011,0.004c-0.004,0-0.005,0.001-0.008,0.002
		c-0.004,0-0.008,0.002-0.011,0.002c-0.003,0.001-0.006,0.002-0.009,0.002c-0.004,0.001-0.007,0.002-0.01,0.002
		c-0.004,0.002-0.006,0.002-0.01,0.002c0.005,0,0.002,0-0.002,0.002c-0.003,0-0.005,0-0.009,0.002c-0.004,0-0.008,0.002-0.013,0.002
		c-0.001,0.001-0.004,0.002-0.005,0.002c-0.005,0-0.01,0.002-0.014,0.003c-0.002,0-0.005,0.001-0.006,0.001
		c-0.006,0.002-0.012,0.002-0.016,0.004c-0.002,0-0.002,0-0.004,0c-0.02,0.006-0.038,0.01-0.057,0.014
		c-0.002,0.001-0.004,0.002-0.006,0.002c-0.005,0-0.01,0.002-0.015,0.004h-0.001c-0.006,0-0.012,0.002-0.018,0.004
		c-0.002,0-0.004,0-0.005,0.001c-0.005,0.001-0.01,0.003-0.015,0.003c-0.002,0.001-0.003,0.002-0.005,0.002
		c-0.005,0-0.009,0.002-0.014,0.003C39.424,2.34,39.423,2.34,39.42,2.34c-0.004,0.002-0.009,0.003-0.013,0.004
		c-0.003,0-0.002,0-0.006,0.001c-0.005,0.001-0.009,0.003-0.013,0.003c-0.004,0.001-0.004,0.001-0.007,0.002
		c-0.005,0-0.009,0.002-0.013,0.002c-0.002,0.001-0.006,0.002-0.007,0.002c-0.004,0.002-0.009,0.002-0.013,0.004
		c-0.002,0-0.004,0-0.008,0.001C39.336,2.36,39.338,2.36,39.335,2.36c-0.002,0-0.007,0.002-0.008,0.002
		c-0.003,0.001-0.007,0.002-0.011,0.003c-0.002,0.001-0.007,0.001-0.008,0.001C39.304,2.368,39.3,2.369,39.296,2.37
		c-0.002,0-0.006,0.001-0.008,0.002c-0.004,0-0.008,0.002-0.012,0.002c-0.001,0-0.006,0.002-0.008,0.002
		c-0.004,0.001-0.008,0.002-0.012,0.003c-0.001,0-0.006,0.001-0.007,0.001c-0.004,0.002-0.008,0.003-0.012,0.004
		c-0.001,0-0.006,0.001-0.007,0.002c-0.004,0-0.008,0.002-0.012,0.002c-0.004,0.001-0.006,0.001-0.008,0.002
		c-0.004,0.002-0.008,0.002-0.012,0.003c-0.002,0.001-0.006,0.001-0.008,0.002c-0.004,0.001-0.008,0.002-0.012,0.003
		c-0.002,0-0.005,0.001-0.008,0.002c-0.004,0-0.007,0.002-0.01,0.002c-0.004,0-0.006,0.002-0.01,0.002
		c-0.003,0.002-0.006,0.002-0.01,0.004c-0.004,0-0.006,0-0.009,0.002c-0.003,0-0.007,0.001-0.011,0.002
		c-0.003,0.001-0.005,0.002-0.008,0.002c-0.004,0.001-0.008,0.002-0.012,0.003c-0.003,0.001-0.004,0.001-0.008,0.002
		c-0.004,0.001-0.008,0.001-0.011,0.003c-0.003,0-0.005,0.001-0.009,0.002c-0.003,0-0.007,0.002-0.011,0.002
		c-0.003,0.001-0.005,0.002-0.008,0.002c-0.003,0.001-0.007,0.002-0.011,0.003c-0.002,0-0.006,0.001-0.009,0.003
		c-0.003,0-0.007,0.001-0.01,0.002c-0.003,0-0.006,0.001-0.009,0.002c-0.004,0.001-0.007,0.002-0.01,0.002
		C39,2.441,38.998,2.442,38.994,2.443c-0.003,0.001-0.006,0.001-0.01,0.003c-0.004,0-0.006,0.001-0.01,0.002
		c-0.002,0-0.006,0.001-0.009,0.002c-0.003,0.001-0.007,0.001-0.01,0.002s-0.007,0.002-0.011,0.003
		c-0.001,0.001-0.006,0.002-0.008,0.002c-0.004,0.001-0.007,0.002-0.01,0.003c-0.002,0-0.008,0.002-0.01,0.002
		c-0.003,0.001-0.006,0.002-0.01,0.002c-0.003,0.002-0.006,0.002-0.009,0.003c-0.003,0.001-0.007,0.001-0.01,0.002
		s-0.007,0.002-0.01,0.003c-0.003,0-0.006,0.001-0.009,0.002s-0.007,0.001-0.01,0.002c-0.004,0.002-0.006,0.002-0.01,0.003
		c-0.003,0.001-0.006,0.001-0.01,0.003c-0.003,0-0.006,0.001-0.009,0.001c-0.003,0.001-0.007,0.003-0.011,0.003
		c-0.002,0.001-0.004,0.001-0.006,0.002c-0.006,0.001-0.008,0.002-0.013,0.003c-0.002,0.001-0.004,0.001-0.006,0.001
		c-0.005,0.002-0.009,0.003-0.013,0.004c-0.002,0-0.005,0.001-0.008,0.002C38.768,2.499,38.765,2.5,38.76,2.501
		c-0.002,0.001-0.004,0.001-0.006,0.001c-0.049,0.013-0.095,0.024-0.143,0.037h-0.002c-0.006,0.002-0.012,0.002-0.018,0.004
		c0,0,0,0-0.001,0c-0.013,0.004-0.024,0.007-0.037,0.01l0,0c-0.007,0.002-0.011,0.003-0.017,0.004
		c-0.001,0.001-0.002,0.001-0.003,0.002c-0.007,0.001-0.011,0.002-0.017,0.004h-0.002c-0.006,0.002-0.01,0.003-0.017,0.004
		c0,0-0.001,0.001-0.003,0.001c-0.006,0.002-0.01,0.003-0.016,0.005c-0.001,0-0.002,0-0.003,0c-0.005,0.002-0.011,0.003-0.015,0.004
		c-0.002,0-0.003,0.001-0.004,0.001c-0.006,0.001-0.01,0.003-0.017,0.005c-0.001,0-0.001,0-0.001,0
		c-0.008,0.002-0.013,0.003-0.019,0.004c-0.001,0.001-0.001,0.001-0.001,0.001c-0.012,0.003-0.023,0.007-0.037,0.009
		c0,0,0,0,0,0.001c-0.006,0.001-0.012,0.003-0.019,0.004l0,0c-0.019,0.005-0.037,0.01-0.056,0.015l0,0
		c-0.782,0.205-1.555,0.426-2.322,0.666L36.6,5.187c1.541-0.482,3.123-0.891,4.706-1.214L40.905,2.013L40.905,2.013z M31.254,5.037
		c-1.557,0.669-3.074,1.414-4.545,2.232l0.972,1.748c1.412-0.785,2.88-1.506,4.362-2.144L31.254,5.037L31.254,5.037z M22.414,9.951
		c-0.377,0.263-0.75,0.53-1.119,0.803v0.001c-0.006,0.003-0.01,0.006-0.016,0.01l0,0c-0.005,0.004-0.01,0.008-0.015,0.012h-0.001
		c-0.01,0.008-0.02,0.015-0.029,0.021c0,0.001,0,0.001-0.001,0.001c-0.05,0.038-0.099,0.073-0.149,0.111v0.001
		c-0.006,0.003-0.009,0.006-0.014,0.01c-0.001,0-0.002,0.001-0.002,0.001c-0.004,0.003-0.008,0.007-0.012,0.009
		c-0.001,0.001-0.003,0.002-0.004,0.004c-0.004,0.002-0.008,0.006-0.012,0.008c-0.001,0.001-0.002,0.002-0.004,0.002
		c-0.003,0.004-0.008,0.007-0.011,0.01c-0.002,0.001-0.003,0.002-0.004,0.003c-0.005,0.003-0.007,0.005-0.012,0.009
		c-0.001,0-0.003,0.002-0.004,0.002c-0.003,0.003-0.008,0.006-0.011,0.008c-0.002,0.002-0.003,0.004-0.005,0.004
		c-0.004,0.003-0.007,0.006-0.011,0.009c-0.002,0.001-0.003,0.002-0.004,0.003c-0.004,0.002-0.008,0.006-0.012,0.009
		c-0.001,0.001-0.002,0.001-0.004,0.002c-0.004,0.003-0.008,0.007-0.011,0.009c-0.002,0.001-0.003,0.002-0.004,0.003
		c-0.004,0.003-0.008,0.006-0.012,0.009c-0.001,0.001-0.003,0.002-0.004,0.003c-0.004,0.003-0.008,0.006-0.012,0.009
		c-0.001,0.001-0.002,0.001-0.002,0.002c-0.004,0.003-0.01,0.006-0.013,0.01c-0.001,0-0.002,0.001-0.003,0.001
		c-0.028,0.021-0.057,0.043-0.085,0.064c-0.001,0-0.002,0.001-0.003,0.002c-0.004,0.003-0.008,0.006-0.012,0.009
		c-0.001,0.001-0.002,0.001-0.004,0.002c-0.004,0.003-0.007,0.007-0.011,0.009c-0.002,0.001-0.003,0.002-0.004,0.003
		c-0.004,0.003-0.008,0.006-0.012,0.009c-0.001,0.001-0.003,0.002-0.004,0.002c-0.004,0.004-0.007,0.006-0.011,0.01
		c-0.001,0-0.003,0.002-0.005,0.002c-0.003,0.004-0.007,0.006-0.01,0.009c-0.002,0.001-0.004,0.003-0.005,0.004
		c-0.004,0.003-0.007,0.005-0.01,0.008c-0.002,0.001-0.004,0.003-0.006,0.004c-0.003,0.002-0.007,0.005-0.01,0.007
		c-0.002,0.002-0.004,0.004-0.006,0.004c-0.003,0.003-0.007,0.006-0.009,0.008s-0.004,0.004-0.007,0.005
		c-0.002,0.001-0.007,0.005-0.009,0.007c-0.002,0.002-0.004,0.004-0.006,0.005c-0.003,0.002-0.007,0.005-0.01,0.007
		c-0.002,0.002-0.004,0.004-0.006,0.004c-0.004,0.004-0.006,0.006-0.009,0.008c-0.002,0.002-0.004,0.004-0.006,0.005
		c-0.004,0.003-0.006,0.003-0.01,0.007c-0.002,0.002-0.004,0.003-0.006,0.004c-0.003,0.004-0.006,0.006-0.01,0.008
		c-0.002,0.002-0.003,0.002-0.005,0.004c-0.004,0.003-0.006,0.005-0.01,0.008c-0.002,0.002-0.005,0.004-0.007,0.004
		c-0.004,0.004-0.005,0.004-0.009,0.008c-0.003,0.002-0.006,0.005-0.009,0.006c-0.003,0.002-0.003,0.003-0.006,0.006
		c-0.003,0.002-0.006,0.004-0.009,0.006c-0.007,0.006-0.01,0.008-0.016,0.013c-0.002,0.001-0.004,0.003-0.006,0.005
		c-0.003,0.002-0.006,0.004-0.008,0.006c-0.003,0.002-0.005,0.004-0.008,0.006c-0.002,0.001-0.005,0.003-0.007,0.005
		c-0.003,0.003-0.006,0.005-0.009,0.007c-0.002,0.002-0.004,0.004-0.007,0.006s-0.005,0.004-0.008,0.006
		c-0.004,0.002-0.005,0.004-0.009,0.006c-0.002,0.002-0.004,0.004-0.007,0.006c-0.004,0.002-0.004,0.003-0.008,0.006
		c-0.002,0.002-0.005,0.004-0.007,0.006c-0.002,0-0.006,0.004-0.008,0.006c-0.003,0.001-0.006,0.004-0.009,0.006
		c-0.002,0.002-0.004,0.004-0.006,0.006c-0.003,0.002-0.006,0.004-0.009,0.006c-0.002,0.002-0.005,0.004-0.008,0.006
		c-0.002,0.002-0.005,0.004-0.007,0.006c-0.003,0.002-0.006,0.004-0.008,0.006c-0.003,0.002-0.005,0.004-0.008,0.006
		c-0.002,0.002-0.005,0.004-0.008,0.006c-0.002,0.002-0.005,0.004-0.008,0.006c-0.002,0.002-0.005,0.004-0.008,0.006
		c-0.002,0.002-0.004,0.004-0.007,0.006c-0.002,0.002-0.006,0.004-0.008,0.006c-0.003,0.002-0.005,0.004-0.008,0.006
		c-0.002,0.002-0.005,0.004-0.008,0.006c-0.002,0.002-0.005,0.005-0.008,0.007c-0.001,0.001-0.006,0.004-0.007,0.005
		c-0.003,0.003-0.007,0.006-0.01,0.008c-0.002,0.002-0.003,0.002-0.005,0.004c-0.004,0.003-0.007,0.005-0.01,0.008
		c-0.003,0.002-0.004,0.002-0.006,0.004c-0.004,0.004-0.008,0.006-0.011,0.01c-0.002,0-0.003,0.001-0.005,0.002
		c-0.005,0.004-0.01,0.008-0.015,0.012l0,0c-0.011,0.009-0.021,0.017-0.031,0.024c-0.001,0.001-0.002,0.003-0.004,0.003
		c-0.004,0.004-0.008,0.006-0.011,0.01c-0.002,0-0.003,0.002-0.004,0.002c-0.004,0.004-0.008,0.007-0.012,0.01
		c-0.003,0.002-0.002,0.001-0.005,0.003c-0.003,0.003-0.007,0.006-0.011,0.009c-0.001,0.001-0.004,0.003-0.005,0.004
		c-0.003,0.002-0.007,0.005-0.01,0.008c-0.002,0.001-0.005,0.004-0.006,0.004c-0.003,0.003-0.007,0.006-0.01,0.008
		c-0.001,0.002-0.004,0.004-0.005,0.004c-0.004,0.003-0.007,0.006-0.011,0.008c-0.001,0.002-0.004,0.004-0.005,0.005
		c-0.004,0.002-0.007,0.005-0.01,0.008c-0.003,0.002-0.003,0.002-0.006,0.004c-0.003,0.003-0.007,0.005-0.01,0.008
		c-0.002,0.002-0.003,0.003-0.006,0.005s-0.007,0.005-0.01,0.008c-0.001,0.001-0.003,0.002-0.005,0.004
		c-0.003,0.002-0.007,0.006-0.011,0.008c-0.001,0.001-0.003,0.003-0.005,0.004c-0.003,0.003-0.007,0.006-0.011,0.008
		c-0.001,0.002-0.003,0.003-0.004,0.004c-0.004,0.003-0.008,0.006-0.011,0.009c-0.002,0.001-0.004,0.002-0.005,0.003
		c-0.004,0.004-0.008,0.007-0.013,0.01l-0.002,0.002c-0.004,0.004-0.009,0.007-0.013,0.01l-0.003,0.003
		c-0.005,0.004-0.01,0.007-0.014,0.011c-0.002,0.002,0,0-0.001,0.001c-0.005,0.004-0.01,0.007-0.014,0.011
		c-0.001,0.001-0.001,0.001-0.002,0.002c-0.021,0.016-0.041,0.032-0.062,0.049c-0.001,0-0.002,0.001-0.003,0.002
		c-0.004,0.003-0.009,0.006-0.013,0.01l-0.003,0.002c-0.004,0.004-0.008,0.007-0.012,0.01c-0.001,0.001-0.004,0.003-0.005,0.004
		c-0.004,0.003-0.007,0.005-0.011,0.008c-0.001,0.001-0.004,0.004-0.005,0.004c-0.003,0.003-0.007,0.006-0.01,0.008
		c-0.001,0.002-0.004,0.004-0.005,0.005c-0.004,0.003-0.008,0.005-0.011,0.009c-0.001,0-0.003,0.002-0.005,0.003
		c-0.003,0.003-0.007,0.006-0.01,0.009c-0.003,0.001-0.003,0.001-0.005,0.004c-0.004,0.002-0.008,0.006-0.011,0.008
		s-0.003,0.002-0.005,0.004c-0.003,0.003-0.007,0.005-0.01,0.008c-0.003,0.002-0.003,0.002-0.006,0.004
		c-0.003,0.004-0.007,0.006-0.01,0.008c-0.001,0.002-0.004,0.004-0.005,0.005c-0.004,0.002-0.007,0.005-0.01,0.008
		c-0.001,0.001-0.005,0.003-0.006,0.004c-0.003,0.003-0.007,0.006-0.01,0.009c-0.001,0-0.004,0.003-0.006,0.004
		c-0.003,0.002-0.006,0.005-0.009,0.008c-0.001,0.001-0.005,0.003-0.006,0.004c-0.004,0.004-0.008,0.006-0.012,0.009
		c-0.001,0.001-0.002,0.003-0.003,0.003c-0.004,0.004-0.008,0.007-0.013,0.01c-0.001,0.001-0.002,0.002-0.003,0.003
		c-0.004,0.004-0.009,0.007-0.014,0.011c-0.001,0.001,0,0-0.001,0.001c-0.011,0.009-0.021,0.017-0.031,0.024
		c-0.001,0.002,0,0-0.001,0.002c-0.005,0.004-0.009,0.007-0.014,0.011c0,0-0.003,0.002-0.004,0.003
		c-0.004,0.003-0.008,0.006-0.011,0.01c-0.003,0.001-0.003,0.001-0.005,0.003c-0.004,0.003-0.007,0.006-0.011,0.009
		c-0.001,0.001-0.004,0.003-0.005,0.004c-0.004,0.003-0.007,0.005-0.01,0.008c-0.002,0.001-0.005,0.004-0.006,0.004
		c-0.003,0.004-0.006,0.006-0.009,0.008c-0.002,0.001-0.006,0.004-0.007,0.006c-0.003,0.002-0.006,0.004-0.009,0.006
		c-0.002,0.003-0.004,0.004-0.007,0.006c-0.002,0.002-0.005,0.004-0.008,0.007c-0.002,0.002-0.005,0.005-0.008,0.006
		c-0.002,0.003-0.005,0.005-0.007,0.007s-0.005,0.004-0.008,0.005c-0.002,0.003-0.005,0.005-0.008,0.007
		c-0.002,0.002-0.005,0.004-0.007,0.006c-0.003,0.002-0.005,0.004-0.008,0.006c-0.002,0.002-0.005,0.004-0.007,0.006
		c-0.003,0.002-0.005,0.004-0.008,0.006c-0.002,0.002-0.006,0.005-0.008,0.007c-0.002,0.002-0.004,0.003-0.007,0.005
		c-0.003,0.004-0.005,0.004-0.008,0.008c-0.003,0.002-0.005,0.004-0.007,0.005c-0.004,0.003-0.005,0.004-0.009,0.007
		c-0.002,0.002-0.005,0.004-0.008,0.006c-0.002,0.002-0.004,0.004-0.007,0.006c-0.002,0.002-0.004,0.004-0.007,0.006
		c-0.002,0.002-0.006,0.005-0.009,0.007c-0.001,0.001-0.002,0.001-0.004,0.003c-0.003,0.004-0.007,0.006-0.011,0.008
		c-0.001,0.002-0.002,0.004-0.003,0.004c-0.018,0.014-0.035,0.029-0.052,0.042c-0.002,0.001-0.003,0.003-0.004,0.003
		c-0.003,0.004-0.006,0.006-0.01,0.008c-0.002,0.002-0.004,0.004-0.005,0.004c-0.004,0.004-0.006,0.005-0.009,0.008
		c-0.002,0.002-0.004,0.004-0.007,0.006c-0.003,0.002-0.006,0.004-0.009,0.008c-0.002,0.001-0.004,0.002-0.005,0.004
		c-0.004,0.002-0.007,0.005-0.011,0.008c-0.001,0.002-0.003,0.002-0.004,0.004c-0.004,0.003-0.007,0.005-0.011,0.008
		c-0.001,0.002-0.003,0.003-0.005,0.004c-0.002,0.002-0.007,0.006-0.009,0.008s-0.004,0.004-0.006,0.005
		c-0.002,0.002-0.008,0.006-0.01,0.009c-0.002,0-0.003,0.002-0.004,0.003c-0.003,0.002-0.009,0.007-0.011,0.009
		c-0.002,0.001-0.003,0.002-0.005,0.004c-0.004,0.002-0.007,0.005-0.01,0.008c-0.002,0.002-0.003,0.002-0.005,0.004
		c-0.004,0.003-0.006,0.005-0.01,0.008c-0.002,0.002-0.003,0.003-0.005,0.004c-0.004,0.004-0.007,0.006-0.011,0.009
		c-0.001,0.001-0.002,0.002-0.003,0.003c-0.004,0.003-0.008,0.006-0.012,0.01c-0.001,0-0.002,0.001-0.003,0.002
		c-0.003,0.003-0.008,0.007-0.012,0.01c-0.001,0-0.002,0.002-0.002,0.002c-0.004,0.003-0.009,0.008-0.013,0.01
		c-0.001,0.001-0.001,0.001-0.002,0.002c-0.253,0.209-0.503,0.42-0.752,0.633l1.303,1.518c1.226-1.053,2.519-2.055,3.843-2.978
		L22.414,9.951L22.414,9.951z M14.74,16.54c-0.391,0.411-0.774,0.828-1.151,1.252l0,0c-0.07,0.08-0.14,0.158-0.21,0.238l0,0
		c-0.004,0.004-0.009,0.01-0.013,0.014l0,0c-0.004,0.006-0.009,0.01-0.013,0.016h-0.001c-0.004,0.005-0.008,0.01-0.012,0.015l0,0
		c-0.004,0.005-0.009,0.01-0.013,0.015l0,0c-0.009,0.01-0.018,0.02-0.026,0.029v0.001c-0.052,0.06-0.104,0.118-0.155,0.179
		c-0.001,0.001,0-0.001-0.001,0c-0.008,0.01-0.017,0.021-0.025,0.03l0,0c-0.004,0.005-0.009,0.01-0.013,0.015l0,0
		c-0.004,0.005-0.008,0.01-0.013,0.015c-0.001,0.001,0,0-0.001,0.001c-0.568,0.659-1.12,1.334-1.653,2.021l1.58,1.226
		c0.989-1.275,2.056-2.516,3.17-3.687L14.74,16.54L14.74,16.54z M8.541,24.532c-0.734,1.176-1.421,2.383-2.059,3.621l0,0
		c-0.003,0.006-0.005,0.01-0.008,0.016c0,0-0.001,0.001-0.001,0.002c-0.003,0.006-0.005,0.01-0.008,0.015l-0.001,0.002
		c-0.003,0.006-0.005,0.009-0.008,0.015c0,0.001-0.001,0.002-0.001,0.002c-0.003,0.006-0.004,0.01-0.007,0.015
		c-0.001,0.001-0.002,0.003-0.002,0.003c-0.003,0.006-0.004,0.008-0.007,0.014c-0.001,0.002-0.001,0.003-0.002,0.004
		c-0.002,0.004-0.005,0.01-0.007,0.014c-0.001,0.002-0.001,0.002-0.002,0.003c-0.003,0.006-0.004,0.009-0.007,0.014
		c-0.001,0.001-0.001,0.002-0.002,0.003c-0.003,0.006-0.004,0.01-0.007,0.015c-0.001,0.001-0.001,0.001-0.001,0.002
		c-0.003,0.006-0.005,0.01-0.008,0.015c0,0.002-0.001,0.002-0.001,0.003c-0.022,0.044-0.044,0.087-0.066,0.13
		c-0.001,0.002-0.001,0.002-0.002,0.004c-0.002,0.004-0.004,0.008-0.007,0.014c0,0-0.001,0.002-0.002,0.003
		c-0.002,0.004-0.004,0.008-0.006,0.013c-0.001,0.002-0.002,0.004-0.003,0.006c-0.002,0.004-0.003,0.006-0.005,0.01
		c-0.001,0.002-0.003,0.004-0.004,0.007c-0.002,0.005-0.002,0.005-0.004,0.009c-0.002,0.004-0.004,0.006-0.005,0.01
		c-0.002,0.002-0.003,0.005-0.004,0.008c-0.002,0.002-0.003,0.006-0.005,0.009c-0.001,0.003-0.003,0.007-0.004,0.009
		c-0.002,0.003-0.003,0.006-0.005,0.008c-0.001,0.004-0.003,0.006-0.004,0.009c-0.002,0.003-0.003,0.007-0.005,0.01
		c-0.001,0.003-0.002,0.005-0.004,0.007c-0.002,0.004-0.003,0.008-0.005,0.012C6.26,28.59,6.26,28.591,6.258,28.594
		c-0.001,0.004-0.003,0.007-0.005,0.011c-0.001,0.003-0.002,0.005-0.004,0.007c-0.002,0.004-0.003,0.008-0.005,0.012
		c-0.001,0.001-0.003,0.004-0.003,0.006c-0.002,0.004-0.004,0.008-0.006,0.012c-0.001,0.001-0.002,0.004-0.003,0.004
		c-0.002,0.006-0.005,0.01-0.007,0.014c0,0.002-0.001,0.003-0.002,0.005c-0.002,0.004-0.004,0.008-0.006,0.011
		c-0.001,0.002-0.003,0.006-0.003,0.007c-0.002,0.005-0.005,0.009-0.007,0.013c0,0.002-0.001,0.004-0.002,0.005
		c-0.044,0.089-0.088,0.177-0.132,0.266l1.795,0.883c0.712-1.448,1.508-2.876,2.364-4.247L8.541,24.532L8.541,24.532z M4.077,33.608
		c-0.365,0.983-0.7,1.982-1.004,2.994c0,0.002,0-0.001,0,0.001c-0.03,0.101-0.061,0.202-0.09,0.303
		c-0.001,0.002-0.001,0.003-0.002,0.005c-0.001,0.005-0.002,0.01-0.004,0.015l-0.001,0.003c-0.001,0.006-0.003,0.011-0.005,0.016
		c0,0.002,0,0.002-0.001,0.005c-0.001,0.004-0.003,0.009-0.004,0.014c-0.001,0.002-0.001,0.004-0.002,0.005
		c-0.001,0.005-0.002,0.009-0.004,0.014c0,0.002-0.001,0.005-0.001,0.006c-0.002,0.005-0.003,0.01-0.004,0.014
		c-0.001,0.002-0.001,0.003-0.002,0.005c-0.001,0.005-0.003,0.009-0.004,0.014c0,0.002-0.001,0.004-0.002,0.006
		c-0.001,0.005-0.002,0.009-0.004,0.013c0,0.002-0.001,0.005-0.001,0.007c-0.002,0.003-0.003,0.008-0.004,0.012
		c-0.001,0.003-0.001,0.005-0.002,0.008c-0.001,0.004-0.002,0.007-0.004,0.011c-0.001,0.003-0.001,0.004-0.002,0.008
		c-0.001,0.003-0.002,0.007-0.003,0.012c-0.001,0.002-0.002,0.004-0.002,0.008c-0.002,0.003-0.003,0.007-0.004,0.01
		c-0.001,0.004-0.001,0.006-0.002,0.009s-0.002,0.007-0.003,0.01c-0.001,0.004-0.002,0.006-0.003,0.009
		c-0.001,0.004-0.002,0.007-0.003,0.011c-0.001,0.003-0.001,0.005-0.002,0.009c-0.001,0.003-0.002,0.007-0.003,0.01
		c-0.001,0.003-0.002,0.006-0.003,0.009s-0.002,0.007-0.003,0.01s0.001,0,0,0.002c-0.001,0.003-0.002,0.007-0.003,0.01
		s-0.002,0.007-0.003,0.01c-0.001,0.004-0.002,0.006-0.003,0.01c0,0.002-0.001,0.006-0.002,0.009s-0.002,0.006-0.003,0.01
		c-0.001,0.003-0.002,0.007-0.003,0.009c-0.001,0.004-0.002,0.007-0.003,0.01s-0.001,0.006-0.002,0.009
		c-0.001,0.004-0.002,0.007-0.003,0.01c-0.001,0.005-0.002,0.005-0.003,0.01c-0.001,0.003-0.002,0.007-0.003,0.01
		c0,0.001-0.002,0.007-0.002,0.008c-0.001,0.005-0.002,0.008-0.003,0.012c-0.001,0.003-0.002,0.005-0.003,0.008
		s-0.002,0.007-0.002,0.01c-0.001,0.003-0.002,0.007-0.003,0.01s-0.002,0.005-0.003,0.007c-0.001,0.006-0.002,0.008-0.003,0.012
		c-0.001,0.003-0.001,0.005-0.002,0.007c-0.001,0.005-0.002,0.007-0.003,0.012c-0.001,0.003-0.002,0.005-0.002,0.007
		c-0.002,0.006-0.002,0.008-0.004,0.012c0,0.002,0,0.004-0.001,0.004c-0.001,0.005-0.003,0.012-0.004,0.016L2.832,37.43
		c-0.003,0.013-0.006,0.021-0.01,0.035l0,0c-0.003,0.013-0.007,0.023-0.01,0.036c0,0,0,0.001-0.001,0.001
		c-0.003,0.012-0.006,0.022-0.009,0.033c0,0.002-0.001,0.004-0.001,0.005c0.001,0,0,0.004-0.001,0.009
		c-0.001,0.001-0.001,0.003-0.002,0.005c-0.001,0.005-0.002,0.008-0.003,0.012c-0.001,0.002-0.001,0.006-0.002,0.008
		c-0.001,0.004-0.002,0.008-0.004,0.012c0,0.002-0.001,0.004-0.001,0.006c-0.002,0.006-0.002,0.008-0.004,0.012
		c0,0.003-0.001,0.006-0.002,0.008c-0.001,0.005-0.002,0.006-0.003,0.012c-0.001,0.002-0.001,0.005-0.002,0.008
		c-0.001,0.004-0.002,0.006-0.003,0.011c-0.001,0.003-0.002,0.005-0.002,0.008c-0.002,0.005-0.002,0.007-0.004,0.012
		c0,0.002-0.001,0.005-0.002,0.006c-0.001,0.005-0.002,0.009-0.003,0.013c-0.001,0.002-0.001,0.005-0.002,0.007
		c-0.001,0.003-0.002,0.009-0.003,0.012c-0.001,0.002-0.002,0.005-0.002,0.007c-0.001,0.004-0.003,0.01-0.004,0.012
		c0,0.003-0.001,0.006-0.002,0.008c-0.001,0.003-0.002,0.008-0.003,0.012c-0.001,0.002-0.001,0.004-0.002,0.007
		s-0.002,0.009-0.003,0.011c-0.001,0.004-0.002,0.006-0.002,0.008c-0.001,0.004-0.003,0.009-0.004,0.012
		c0,0.002-0.001,0.005-0.001,0.007c-0.001,0.003-0.003,0.009-0.004,0.013c0,0.002-0.001,0.004-0.002,0.006
		c-0.001,0.004-0.002,0.01-0.003,0.013s-0.001,0.004-0.002,0.006c-0.001,0.003-0.003,0.011-0.003,0.013
		c-0.001,0.002-0.002,0.005-0.002,0.007c-0.001,0.003-0.003,0.009-0.004,0.013c0,0.002-0.001,0.004-0.001,0.006
		c-0.001,0.003-0.003,0.009-0.004,0.013c0,0.002-0.001,0.005-0.002,0.007c-0.001,0.003-0.002,0.008-0.003,0.012
		c-0.001,0.002-0.001,0.005-0.002,0.007C2.702,37.905,2.701,37.91,2.7,37.913s0-0.004,0,0c-0.002,0.004-0.002,0.006-0.003,0.01
		c-0.001,0.003-0.002,0.006-0.003,0.008c-0.001,0.005-0.001,0.007-0.003,0.012c0,0.002-0.001,0.005-0.002,0.007
		c-0.001,0.005-0.002,0.007-0.003,0.012c0,0.003-0.001,0.005-0.002,0.007c-0.001,0.005-0.002,0.008-0.003,0.012
		c-0.001,0.003-0.001,0.005-0.002,0.007c-0.001,0.005-0.002,0.008-0.003,0.013c-0.001,0.002-0.001,0.004-0.002,0.006
		c-0.001,0.005-0.002,0.008-0.003,0.013c-0.001,0.003-0.002,0.005-0.002,0.007c-0.002,0.005-0.002,0.007-0.004,0.012
		c0,0.002-0.001,0.004-0.001,0.007c-0.002,0.004-0.003,0.008-0.004,0.013c0,0,0,0.002-0.001,0.003
		c-0.007,0.028-0.016,0.059-0.022,0.087c-0.001,0.001-0.001,0.002-0.001,0.004c-0.001,0.003-0.003,0.008-0.003,0.012
		c-0.001,0.002-0.002,0.005-0.003,0.007c0,0.004-0.001,0.007-0.002,0.011c-0.001,0.003-0.002,0.006-0.003,0.008
		c-0.001,0.004-0.001,0.007-0.002,0.01c-0.001,0.004-0.002,0.007-0.003,0.01c0-0.001,0,0.001-0.001,0.004
		c-0.001,0.003-0.002,0.007-0.003,0.011c-0.001,0.004-0.001,0.004-0.002,0.008s-0.002,0.008-0.003,0.012
		c-0.001,0.001-0.002,0.006-0.002,0.008c-0.001,0.004-0.002,0.007-0.003,0.011c-0.001,0.001-0.002,0.007-0.003,0.008
		c0,0.003-0.001,0.007-0.002,0.011c-0.001,0.004-0.002,0.006-0.003,0.01c-0.001,0.003-0.002,0.006-0.003,0.01
		c0,0.002-0.001,0.006-0.002,0.008c-0.001,0.004-0.002,0.008-0.003,0.012c0,0.002-0.001,0.006-0.002,0.008
		c-0.001,0.004-0.002,0.008-0.003,0.012c0,0.001-0.001,0.004-0.002,0.006c-0.001,0.004-0.002,0.008-0.003,0.012
		s-0.001,0.005-0.002,0.008c-0.001,0.004-0.002,0.008-0.003,0.012c-0.001,0.004-0.001,0.004-0.002,0.008
		c-0.001,0.004-0.002,0.008-0.003,0.012s-0.001,0.004-0.002,0.007c-0.001,0.005-0.002,0.009-0.003,0.013
		c-0.001,0.003-0.001,0.004-0.002,0.006c-0.001,0.004-0.002,0.008-0.003,0.013c-0.001,0.001-0.001,0.003-0.001,0.004l1.936,0.501
		c0.405-1.563,0.895-3.123,1.456-4.637L4.077,33.608L4.077,33.608z M1.543,43.399c-0.15,0.991-0.272,1.992-0.365,3.001v0.001
		c-0.001,0.013-0.002,0.025-0.003,0.039l0,0c-0.001,0.006-0.001,0.013-0.002,0.02l0,0c-0.001,0.006-0.001,0.014-0.002,0.02l0,0
		c0,0.008-0.001,0.014-0.002,0.02c0,0,0,0,0,0.001c0,0.007-0.001,0.012-0.001,0.019l-0.001,0.002c0,0.006-0.001,0.012-0.001,0.018
		c0,0,0,0.001,0,0.002c-0.001,0.006-0.001,0.012-0.002,0.018c0,0,0,0.002,0,0.003c-0.001,0.007-0.001,0.011-0.002,0.017
		c0,0.002,0,0.002,0,0.004C1.161,46.59,1.161,46.593,1.161,46.6C1.16,46.599,1.16,46.599,1.16,46.601
		c0,0.006-0.001,0.012-0.001,0.016c0,0.002,0,0.004,0,0.004c-0.001,0.006-0.001,0.011-0.002,0.016c0,0.002,0,0.004,0,0.005
		c-0.001,0.005-0.001,0.011-0.002,0.015c0,0.002,0,0.004,0,0.006c0,0.004-0.001,0.011-0.001,0.014
		c-0.001,0.002-0.001,0.004-0.001,0.006c0,0.006-0.001,0.01-0.001,0.016c0,0.001,0,0.002-0.001,0.004c0,0.005,0,0.01-0.001,0.015
		c0,0.002,0,0.005,0,0.007c-0.001,0.003-0.001,0.009-0.001,0.012c-0.001,0.004-0.001,0.006-0.001,0.009s-0.001,0.008-0.001,0.011
		c0,0.003-0.001,0.006-0.001,0.009s-0.001,0.009-0.001,0.012s0,0.005-0.001,0.008c0,0.003,0,0.008-0.001,0.011
		c0,0.004,0,0.007,0,0.01c-0.001,0.004-0.001,0.008-0.001,0.011c-0.001,0.003-0.001,0.007-0.001,0.01
		c0,0.003-0.001,0.007-0.001,0.01s0,0.007-0.001,0.01c0,0.003,0,0.007-0.001,0.011c0,0.003,0,0.006,0,0.01
		c-0.001,0.003-0.001,0.006-0.001,0.01c0,0.002-0.001,0.006-0.001,0.01c0,0.003-0.001,0.006-0.001,0.01c0,0.003,0,0.007-0.001,0.01
		c0,0.003,0,0.006,0,0.01c-0.001,0.003-0.001,0.006-0.001,0.01c-0.001,0.004-0.001,0.007-0.001,0.01
		c0,0.004-0.001,0.008-0.001,0.012c0,0.002,0,0.004-0.001,0.008c0,0.004,0,0.008-0.001,0.012c0,0.003,0,0.005,0,0.008
		c-0.001,0.004-0.001,0.008-0.001,0.012c-0.001,0.004-0.001,0.005-0.001,0.008c0,0.004-0.001,0.008-0.001,0.012
		c0,0.004,0,0.006-0.001,0.008c0,0.005,0,0.009-0.001,0.013c0,0.003,0,0.005,0,0.008c0,0.004-0.001,0.008-0.001,0.013
		c0,0.001-0.001,0.005-0.001,0.007c0,0.004,0,0.009-0.001,0.014c0,0.001,0,0.004,0,0.005c-0.001,0.006-0.001,0.01-0.001,0.015
		c0-0.011,0-0.008,0-0.005c0,0.004-0.001,0.009-0.001,0.014c0,0.001,0,0.004,0,0.005c-0.001,0.005-0.001,0.01-0.002,0.015
		c0,0.002,0,0.003,0,0.005c0,0.005-0.001,0.011-0.001,0.017c0,0.001,0,0.001,0,0.003c-0.001,0.005-0.001,0.011-0.002,0.016
		c0,0.001,0,0.003,0,0.005c0,0.005-0.001,0.01-0.001,0.016c0,0.002,0,0.002-0.001,0.004c0,0.006,0,0.01-0.001,0.016
		c0,0.002,0,0.002,0,0.004c0,0.006-0.001,0.011-0.001,0.016c0,0.002,0,0.002-0.001,0.004c0,0.006,0,0.011-0.001,0.016
		c0,0.002,0,0.004,0,0.004c-0.001,0.006-0.001,0.012-0.001,0.016c0,0.002,0,0.003-0.001,0.005c0,0.005,0,0.011-0.001,0.016
		c0,0.003,0,0.003,0,0.005c-0.001,0.004-0.001,0.01-0.001,0.016c0,0.002,0,0.001-0.001,0.004c0,0.005,0,0.01-0.001,0.016
		c0,0.002,0,0.002,0,0.004c0,0.006-0.001,0.012-0.001,0.018c0,0.001,0,0,0,0.002C1.1,47.357,1.1,47.363,1.099,47.369
		c0,0.001,0,0,0,0.002c0,0.006-0.001,0.012-0.001,0.018c0,0.002,0,0,0,0.002c-0.001,0.006-0.001,0.012-0.002,0.018
		c0,0.002,0,0,0,0.002c0,0.007-0.001,0.014-0.001,0.02l0,0c-0.001,0.006-0.001,0.013-0.002,0.02l0,0c0,0.008-0.001,0.014-0.001,0.02
		l0,0c-0.001,0.008-0.001,0.014-0.001,0.02c-0.001,0.002,0,0-0.001,0.002c0,0.006,0,0.012-0.001,0.019v0.001
		c0,0.006-0.001,0.012-0.001,0.019v0.001c-0.001,0.007-0.001,0.014-0.002,0.021l0,0c0,0.006-0.001,0.013-0.001,0.02
		c0,0.001,0,0,0,0.001c-0.001,0.007-0.001,0.013-0.001,0.02l-0.001,0.001c0,0.007,0,0.013-0.001,0.019v0.002
		c-0.001,0.013-0.002,0.025-0.003,0.038v0.001c0,0.007,0,0.014-0.001,0.02l0,0c0,0.007-0.001,0.013-0.001,0.02v0.001
		c-0.001,0.013-0.002,0.026-0.003,0.038v0.002c-0.001,0.013-0.002,0.025-0.002,0.038l-0.001,0.001c0,0.014-0.001,0.026-0.002,0.039
		v0.001c-0.001,0.013-0.002,0.026-0.003,0.039v0.001c0,0.006-0.001,0.013-0.001,0.02l0,0c0,0.006-0.001,0.013-0.001,0.02l0,0
		c-0.001,0.014-0.002,0.027-0.003,0.04l0,0c0,0.013-0.001,0.026-0.002,0.038v0.002c-0.001,0.007-0.001,0.013-0.001,0.02l0,0
		c-0.001,0.007-0.001,0.013-0.002,0.02c0,0.001,0,0,0,0.001c0,0.007,0,0.013-0.001,0.019v0.001c0,0.007-0.001,0.013-0.001,0.019
		c0,0.001,0,0.001,0,0.002c0,0.006-0.001,0.012-0.001,0.018v0.002c-0.001,0.006-0.001,0.012-0.001,0.018c0,0.002,0,0.002,0,0.003
		c-0.001,0.006-0.001,0.012-0.001,0.019L1.05,48.118c0,0.005,0,0.011-0.001,0.017c0,0.002,0,0.001,0,0.003
		c0,0.006,0,0.012-0.001,0.018c0,0.002,0,0,0,0.002c0,0.006-0.001,0.012-0.001,0.019v0.003c0,0.005-0.001,0.011-0.001,0.019v0.001
		c0,0.006-0.001,0.012-0.001,0.017c0,0.002,0,0.002,0,0.004c-0.001,0.006-0.001,0.012-0.001,0.016c0,0.003,0,0.002,0,0.004
		c-0.001,0.006-0.001,0.012-0.001,0.019c0,0.001,0,0.002-0.001,0.003c0,0.006,0,0.011,0,0.017c-0.001,0.002-0.001,0.002-0.001,0.003
		c0,0.005,0,0.011-0.001,0.017c0,0.002,0,0.003,0,0.004c0,0.006,0,0.011-0.001,0.016c0,0.002,0,0.002,0,0.005
		c0,0.005,0,0.01-0.001,0.015c0,0.002,0,0.004,0,0.006c0,0.004-0.001,0.009-0.001,0.014c0,0.002,0,0.004,0,0.006
		c0,0.004-0.001,0.01-0.001,0.014c0,0.002,0,0.006,0,0.007c0,0.005-0.001,0.009-0.001,0.013s0,0.004,0,0.007
		c0,0.005-0.001,0.009-0.001,0.014c0,0.003,0,0.003,0,0.007c-0.001,0.004-0.001,0.008-0.001,0.014c0,0.002,0,0.003,0,0.006
		c-0.001,0.004-0.001,0.009-0.001,0.014c0,0.001,0,0.002,0,0.004l1.997,0.101c0.082-1.617,0.246-3.245,0.489-4.838L1.543,43.399
		L1.543,43.399z M3.028,53.402l-1.997,0.101c0.015,0.292,0.031,0.584,0.051,0.875v0.001c0,0.008,0.001,0.014,0.001,0.02l0,0
		c0.001,0.008,0.001,0.014,0.001,0.02c0.001,0.002,0.001,0.002,0.001,0.003c0,0.007,0,0.011,0.001,0.017c0,0.002,0,0.002,0,0.004
		c0,0.006,0.001,0.011,0.001,0.017c0,0.001,0,0.004,0.001,0.005c0,0.006,0,0.01,0.001,0.016c0,0.002,0,0.004,0,0.004
		c0,0.006,0.001,0.011,0.001,0.016c0,0.002,0,0.005,0,0.006c0.001,0.004,0.001,0.01,0.001,0.014c0,0.002,0.001,0.006,0.001,0.006
		c0,0.006,0,0.01,0.001,0.015c0,0.004,0,0.005,0,0.008c0.001,0.005,0.001,0.009,0.001,0.013s0,0.006,0.001,0.008
		c0,0.004,0,0.008,0,0.012c0.001,0.002,0.001,0.007,0.001,0.01c0,0.004,0.001,0.006,0.001,0.01s0,0.008,0.001,0.01
		c0,0.004,0,0.006,0,0.011c0.001,0.003,0.001,0.009,0.001,0.012c0,0.002,0.001,0.007,0.001,0.009s0,0.008,0.001,0.012
		c0,0.002,0,0.006,0,0.008c0,0.004,0.001,0.01,0.001,0.014c0,0.001,0,0.004,0.001,0.006c0,0.004,0,0.01,0.001,0.014
		c0,0.002,0,0.004,0,0.006c0,0.006,0.001,0.011,0.001,0.015c0,0.002,0,0.004,0.001,0.007c0,0.006,0,0.01,0.001,0.016
		c0,0,0,0.002,0,0.004c0.001,0.007,0.001,0.01,0.001,0.017c0,0.001,0,0.002,0.001,0.003c0,0.008,0,0.01,0.001,0.018v0.002
		c0-0.002,0,0.002,0,0.009c0,0.001,0,0.002,0,0.002c0.001,0.007,0.001,0.013,0.002,0.019v0.002c0.001,0.006,0.001,0.012,0.001,0.019
		c0,0.001,0.001,0.001,0.001,0.001c0,0.008,0,0.012,0.001,0.02c0,0,0,0,0,0.002c0.001,0.006,0.001,0.012,0.002,0.019l0,0
		c0.059,0.774,0.136,1.543,0.229,2.306c0,0,0,0,0,0.002c0.001,0.006,0.002,0.012,0.002,0.02H1.35c0,0.006,0.001,0.012,0.002,0.018
		c0,0.001,0,0.001,0,0.002c0.001,0.006,0.001,0.01,0.002,0.018c0,0.002,0,0.002,0.001,0.002c0,0.006,0.001,0.013,0.002,0.017
		c0,0.002,0,0.004,0,0.005c0.001,0.006,0.001,0.01,0.002,0.016c0,0.002,0,0.004,0.001,0.004c0,0.006,0.001,0.01,0.001,0.016
		c0.001,0.002,0.001,0.004,0.001,0.005c0.001,0.005,0.001,0.009,0.002,0.015c0,0.002,0,0.004,0.001,0.006
		c0,0.004,0.001,0.008,0.001,0.013c0.001,0.002,0.001,0.006,0.001,0.008c0.001,0.005,0.001,0.009,0.002,0.011
		c0,0.004,0.001,0.008,0.001,0.01s0.001,0.008,0.001,0.008c0.001,0.005,0.001,0.01,0.002,0.014c0,0.001,0,0.006,0,0.006
		c0.001,0.006,0.002,0.01,0.002,0.014c0,0.002,0.001,0.004,0.001,0.006c0.001,0.005,0.001,0.01,0.002,0.015c0,0.002,0,0.004,0,0.005
		c0.001,0.006,0.002,0.012,0.002,0.016c0.001,0.002,0.001,0.002,0.001,0.004c0.001,0.004,0.001,0.011,0.002,0.016
		c0,0.002,0,0.002,0,0.004c0.001,0.006,0.002,0.012,0.003,0.018l0,0c0.001,0.008,0.001,0.014,0.002,0.02l0,0
		c0.046,0.352,0.095,0.702,0.147,1.051l1.978-0.3C3.271,56.648,3.108,55.021,3.028,53.402L3.028,53.402z M4.482,63.005l-1.937,0.498
		c0.423,1.646,0.929,3.259,1.511,4.833l1.876-0.693C5.373,66.128,4.885,64.566,4.482,63.005L4.482,63.005z M7.848,72.107
		l-1.796,0.881c0.119,0.242,0.239,0.482,0.361,0.724h0.001c0.003,0.007,0.005,0.011,0.007,0.015
		c0.001,0.002,0.001,0.004,0.001,0.004c0.004,0.006,0.005,0.008,0.008,0.014c0.001,0.002,0.001,0.003,0.002,0.004
		c0.002,0.004,0.004,0.009,0.007,0.014c0,0,0.001,0.002,0.002,0.004c0.003,0.006,0.004,0.008,0.007,0.014
		c0,0,0.001,0.002,0.002,0.004c0.003,0.005,0.004,0.008,0.007,0.013c0,0.002,0.001,0.003,0.002,0.005
		c0.003,0.006,0.004,0.008,0.007,0.014c0,0,0.001,0.002,0.002,0.004c0.002,0.004,0.004,0.009,0.006,0.013
		c0.001,0.001,0.002,0.003,0.003,0.004c0.002,0.005,0.005,0.011,0.007,0.015l0.001,0.002c0.003,0.006,0.005,0.008,0.008,0.014
		c0,0.002,0.001,0.002,0.001,0.005c0.003,0.004,0.005,0.01,0.008,0.015c0,0,0,0.002,0.001,0.002c0.003,0.006,0.005,0.01,0.008,0.014
		c0,0.002,0.001,0.002,0.001,0.004c0.005,0.01,0.011,0.021,0.017,0.031l0,0c0.017,0.033,0.034,0.065,0.051,0.098
		c0,0.002,0.001,0.003,0.001,0.004c0.003,0.006,0.005,0.009,0.008,0.016c0,0,0.001,0,0.001,0.002
		c0.002,0.004,0.005,0.008,0.008,0.014c0,0,0.001,0.002,0.002,0.002c0.002,0.006,0.004,0.011,0.007,0.015
		c0,0.002,0.001,0.002,0.002,0.004c0.002,0.005,0.004,0.009,0.006,0.013c0.001,0.002,0.002,0.004,0.003,0.006
		c0.003,0.004,0.004,0.008,0.007,0.013c0,0.001,0.001,0.002,0.001,0.003c0.003,0.004,0.005,0.01,0.008,0.014
		c0,0.002,0.001,0.004,0.002,0.004c0.002,0.004,0.004,0.01,0.007,0.014c0,0,0.001,0.002,0.002,0.004
		c0.002,0.005,0.004,0.009,0.006,0.013c0.001,0.002,0.002,0.003,0.003,0.005c0.002,0.004,0.005,0.01,0.007,0.014
		c0,0,0.001,0.002,0.002,0.004c0.003,0.004,0.005,0.008,0.007,0.012c0.001,0.002,0.002,0.004,0.002,0.006
		c0.003,0.004,0.005,0.008,0.007,0.012c0.001,0.002,0.002,0.004,0.003,0.006c0.002,0.004,0.004,0.008,0.006,0.012
		c0.001,0.002,0.002,0.004,0.003,0.006c0.002,0.004,0.004,0.008,0.006,0.012c0.001,0.002,0.002,0.004,0.002,0.006
		c0.003,0.002,0.005,0.008,0.007,0.012c0.001,0.002,0.002,0.002,0.003,0.004c0.002,0.004,0.004,0.01,0.007,0.014
		c0,0.002,0.001,0.003,0.002,0.005c0.002,0.005,0.004,0.009,0.007,0.013c0,0.002,0.001,0.002,0.002,0.004
		c0.02,0.037,0.039,0.074,0.059,0.109c0.001,0.002,0.001,0.004,0.002,0.004c0.002,0.004,0.004,0.008,0.006,0.012
		c0.001,0.002,0.002,0.004,0.003,0.006c0.002,0.004,0.004,0.009,0.006,0.013c0.001,0.002,0.002,0.003,0.003,0.004
		c0.003,0.006,0.005,0.011,0.007,0.015c0.001,0,0.002,0.002,0.002,0.004c0.003,0.004,0.005,0.008,0.007,0.012
		c0.001,0.002,0.002,0.004,0.003,0.006c0.002,0.004,0.004,0.008,0.006,0.012c0.001,0.002,0.002,0.004,0.003,0.006
		c0.002,0.002,0.005,0.008,0.006,0.012c0.001,0.002,0.002,0.004,0.003,0.004c0.002,0.004,0.005,0.011,0.007,0.014
		c0.001,0.001,0.001,0.003,0.002,0.004c0.003,0.006,0.004,0.008,0.007,0.014c0.001,0.002,0.002,0.004,0.003,0.004
		c0.001,0.004,0.004,0.01,0.006,0.012c0.001,0.003,0.002,0.005,0.003,0.007c0.003,0.004,0.004,0.007,0.007,0.013
		c0,0,0.001,0.002,0.002,0.004c0.002,0.004,0.005,0.008,0.007,0.012c0.001,0.002,0.001,0.004,0.002,0.004
		c0.002,0.005,0.005,0.011,0.008,0.015v0.002c0.004,0.007,0.006,0.009,0.009,0.017c0,0,0,0,0.001,0
		c0.029,0.057,0.058,0.108,0.088,0.164l0.001,0.002c0.003,0.006,0.005,0.01,0.008,0.015c0.001,0.001,0.001,0.002,0.001,0.003
		C6.998,74.82,7,74.826,7.003,74.83c0.001,0.001,0.001,0.003,0.002,0.005c0.002,0.004,0.005,0.009,0.007,0.013
		c0.001,0.002,0.002,0.002,0.002,0.004c0.003,0.004,0.005,0.008,0.008,0.014c0,0,0.001,0.002,0.002,0.004
		c0.003,0.005,0.004,0.008,0.007,0.013c0.001,0.001,0.001,0.003,0.002,0.003c0.003,0.006,0.004,0.008,0.007,0.014
		C7.041,74.9,7.042,74.9,7.042,74.902c0.003,0.006,0.005,0.009,0.008,0.015c0,0,0.001,0.001,0.001,0.002
		c0.004,0.007,0.005,0.009,0.008,0.015c0.001,0,0.001,0.002,0.002,0.004c0.003,0.006,0.005,0.008,0.008,0.014v0.001
		c0.004,0.006,0.006,0.011,0.009,0.017h0.001c0.312,0.569,0.633,1.131,0.965,1.686l0.001,0.002c0.003,0.006,0.006,0.011,0.009,0.016
		l0.001,0.001c0.003,0.007,0.006,0.011,0.009,0.017h0.001c0.003,0.006,0.006,0.01,0.009,0.016c0,0,0.001,0,0.001,0.001
		c0.003,0.006,0.006,0.01,0.009,0.017h0.001c0.003,0.004,0.006,0.01,0.009,0.016h0.001c0.003,0.007,0.006,0.012,0.009,0.017l0,0
		c0.004,0.007,0.007,0.013,0.01,0.017l0,0c0.007,0.012,0.013,0.021,0.02,0.033c0,0,0,0,0.001,0c0.021,0.036,0.044,0.073,0.066,0.109
		c0,0.001,0.001,0.002,0.001,0.003c0.002,0.002,0.004,0.006,0.006,0.009c0.002,0.004,0.003,0.006,0.005,0.01
		c0.002,0.002,0.003,0.004,0.005,0.006c0.002,0.004,0.003,0.006,0.005,0.01s0.003,0.005,0.006,0.009
		c0.001,0.002,0.003,0.005,0.004,0.009c0.003,0.004,0.003,0.004,0.006,0.008c0.001,0.002,0.003,0.006,0.005,0.008
		c0,0.002,0.004,0.006,0.004,0.009c0.002,0.003,0.004,0.006,0.006,0.009c-0.004-0.007-0.001-0.002,0-0.001
		c0.001,0.004,0.003,0.006,0.005,0.011c0.002,0.002,0.003,0.004,0.005,0.006c0.002,0.004,0.004,0.008,0.006,0.01
		c0.002,0.004,0.002,0.004,0.004,0.007c0.002,0.004,0.004,0.008,0.007,0.011c0.001,0.003,0.001,0.003,0.003,0.006
		c0.002,0.004,0.005,0.008,0.007,0.012c0.002,0.002,0.002,0.002,0.004,0.006s0.004,0.006,0.006,0.011
		c0.002,0.003,0.002,0.004,0.004,0.006c0.002,0.004,0.005,0.009,0.007,0.013C8.313,77.1,8.314,77.1,8.315,77.102
		c0.003,0.004,0.005,0.01,0.008,0.014c0.001,0,0.001,0.002,0.002,0.004c0.003,0.004,0.006,0.008,0.009,0.014l0.002,0.002
		c0.003,0.006,0.006,0.01,0.009,0.016l0.001,0.002c0.055,0.09,0.11,0.179,0.166,0.269l1.697-1.06
		C9.352,74.986,8.559,73.559,7.848,72.107L7.848,72.107z M12.984,80.35l-1.582,1.223c0.162,0.211,0.325,0.418,0.489,0.623
		l0.002,0.002c0.004,0.006,0.007,0.01,0.011,0.014c0.001,0.002,0.001,0.002,0.002,0.003c0.004,0.005,0.007,0.009,0.01,0.013
		c0.001,0,0.002,0.002,0.003,0.004c0.003,0.004,0.006,0.008,0.009,0.01c0.001,0.003,0.004,0.006,0.005,0.007
		c0.002,0.004,0.005,0.006,0.007,0.009c0.002,0.004,0.004,0.006,0.006,0.008s0.004,0.006,0.007,0.008
		c0.002,0.004,0.003,0.004,0.005,0.008c0.002,0.002,0.005,0.006,0.007,0.008c0.002,0.003,0.004,0.005,0.006,0.008
		c0.002,0.002,0.004,0.006,0.006,0.008s0.005,0.004,0.007,0.008c0.001,0.002,0.003,0.004,0.005,0.006
		c0.002,0.002,0.005,0.008,0.007,0.011c0.002,0.001,0.003,0.004,0.005,0.006s0.005,0.006,0.007,0.009
		c0.002,0.002,0.004,0.004,0.006,0.006c0.003,0.004,0.004,0.006,0.007,0.01c0.001,0.002,0.003,0.002,0.004,0.004
		c0.003,0.004,0.005,0.008,0.008,0.012c0.001,0,0.002,0.002,0.003,0.003c0.407,0.505,0.825,1.003,1.252,1.491l0,0
		c0.004,0.006,0.008,0.009,0.012,0.014l0.001,0.002c0.004,0.004,0.007,0.006,0.011,0.012c0.001,0,0.001,0.002,0.002,0.002
		c0.003,0.004,0.007,0.008,0.01,0.013c0.001,0.001,0.002,0.002,0.003,0.003c0.003,0.003,0.006,0.007,0.009,0.011
		c0.002,0.001,0.003,0.003,0.004,0.005c0.002,0.002,0.007,0.008,0.009,0.01s0.003,0.004,0.004,0.004
		c0.002,0.004,0.006,0.008,0.008,0.01s0.004,0.004,0.006,0.006c0.002,0.003,0.005,0.007,0.008,0.01
		c0.001,0.002,0.003,0.002,0.004,0.006c0.002,0.002,0.006,0.006,0.008,0.008s0.004,0.004,0.005,0.006
		c0.004,0.004,0.005,0.006,0.008,0.01c0.002,0.002,0.004,0.003,0.005,0.005c0.004,0.004,0.005,0.006,0.008,0.011
		c0.002,0,0.004,0.002,0.005,0.004c0.003,0.004,0.005,0.006,0.009,0.01c0.001,0.002,0.002,0.004,0.004,0.004
		c0.003,0.005,0.005,0.007,0.008,0.011c0.002,0.002,0.004,0.004,0.006,0.007c0.003,0.002,0.005,0.006,0.007,0.008
		c0.004,0.004,0.008,0.008,0.011,0.012c0.001,0.002,0.001,0,0.002,0.002c0.004,0.006,0.008,0.011,0.013,0.015v0.001
		c0.009,0.01,0.018,0.02,0.025,0.029c0.002,0,0.001,0,0.002,0c0.004,0.007,0.008,0.011,0.012,0.015l0.001,0.002
		c0.004,0.005,0.008,0.009,0.012,0.013c0.001,0.002,0.003,0.004,0.004,0.004c0.003,0.004,0.006,0.008,0.009,0.012
		c0.001,0.001,0.002,0.002,0.003,0.002c0.003,0.005,0.007,0.009,0.011,0.013c0.001,0.001,0.001,0.001,0.002,0.003
		c0.004,0.004,0.007,0.008,0.011,0.012c0.001,0.002,0.001,0.002,0.002,0.002c0.004,0.004,0.008,0.008,0.011,0.014
		c0.001,0.001,0.002,0.001,0.003,0.002c0.003,0.005,0.007,0.009,0.011,0.014l0.002,0.002c0.004,0.004,0.008,0.008,0.012,0.014h0.001
		c0.004,0.006,0.008,0.01,0.012,0.015l0.001,0.001c0.004,0.004,0.009,0.01,0.013,0.014c0.001,0.002-0.001,0,0,0.002
		c0.352,0.394,0.708,0.781,1.071,1.164l1.45-1.377C15.037,82.868,13.973,81.626,12.984,80.35L12.984,80.35z M19.671,87.393
		l-1.305,1.518c1.278,1.1,2.612,2.137,3.999,3.105l1.146-1.64C22.188,89.449,20.896,88.447,19.671,87.393L19.671,87.393z
		 M27.631,92.954l-0.975,1.748c0.445,0.247,0.895,0.487,1.348,0.724l0.002,0.002c0.006,0.002,0.01,0.004,0.016,0.008h0.001
		c0.005,0.002,0.009,0.006,0.015,0.008c0.001,0,0.002,0.002,0.002,0.002c0.006,0.002,0.01,0.004,0.016,0.008c0,0,0.001,0,0.002,0
		c0.005,0.004,0.009,0.005,0.014,0.008c0.002,0.001,0.003,0.002,0.004,0.002c0.004,0.002,0.01,0.006,0.014,0.008
		c0.001,0,0.002,0,0.002,0c0.006,0.004,0.01,0.006,0.016,0.008c0,0.002,0.002,0.002,0.002,0.002c0.006,0.002,0.01,0.004,0.015,0.008
		h0.001c0.007,0.004,0.01,0.006,0.016,0.009c0.002,0,0.002,0.002,0.004,0.002c0.004,0.002,0.01,0.005,0.014,0.007
		c0,0.002,0.001,0.002,0.002,0.002c0.016,0.008,0.031,0.016,0.049,0.023h0.001c0.009,0.006,0.017,0.01,0.025,0.015
		c0.003,0.001,0.005,0.002,0.007,0.005c0.005,0.002,0.007,0.002,0.012,0.004c0.002,0.002,0.004,0.004,0.006,0.004
		c0.004,0.002,0.006,0.004,0.01,0.006c0.003,0,0.006,0.002,0.008,0.004c0.002,0,0.006,0.002,0.01,0.004
		c0.002,0.002,0.005,0.002,0.008,0.004c0.004,0.003,0.005,0.003,0.009,0.006c0.003,0,0.005,0.002,0.008,0.004
		c0.005,0.002,0.006,0.002,0.01,0.006c0.003,0,0.005,0.002,0.007,0.002c0.004,0.002,0.006,0.004,0.01,0.006
		c0.003,0.002,0.006,0.002,0.009,0.004s0.005,0.002,0.008,0.004s0.007,0.004,0.009,0.006c0.004,0,0.006,0.002,0.008,0.004
		c0.004,0.001,0.007,0.003,0.01,0.005c0.004,0.001,0.005,0.002,0.008,0.004c0.004,0.002,0.007,0.003,0.01,0.005
		c0.003,0.001,0.004,0.002,0.008,0.004c0.003,0.002,0.006,0.004,0.01,0.006c0.003,0,0.004,0.002,0.008,0.004
		c0.003,0,0.006,0.002,0.01,0.004c0.003,0.002,0.004,0.002,0.007,0.004c0.003,0.002,0.007,0.004,0.011,0.006
		c0.002,0,0.005,0.002,0.006,0.004c0.004,0.002,0.008,0.003,0.012,0.006c0.002,0,0.005,0.001,0.006,0.002
		c0.004,0.002,0.008,0.004,0.013,0.008c0.001,0,0.003,0,0.005,0.002c0.004,0.002,0.009,0.004,0.014,0.006
		c0.001,0.002,0.002,0.002,0.003,0.002c0.005,0.002,0.011,0.006,0.015,0.008l0.003,0.002c0.005,0.002,0.011,0.004,0.017,0.008
		l0.001,0.001c0.005,0.003,0.011,0.005,0.017,0.008c0.002,0.002-0.001,0,0,0.001c0.054,0.025,0.106,0.053,0.16,0.079l0,0
		c0.012,0.006,0.023,0.013,0.035,0.019c0.001,0-0.001,0,0,0c0.006,0.004,0.012,0.006,0.018,0.008l0,0
		c0.006,0.004,0.012,0.007,0.018,0.01h0.001c0.005,0.003,0.011,0.006,0.017,0.009l0,0c0.007,0.003,0.012,0.007,0.018,0.009h0.001
		c0.005,0.004,0.011,0.006,0.017,0.01h0.001c0.006,0.002,0.012,0.006,0.017,0.008c0.002,0.002,0,0,0.001,0
		c0.769,0.381,1.549,0.74,2.339,1.082l0.791-1.838C30.509,94.464,29.042,93.74,27.631,92.954L27.631,92.954z M36.545,96.796
		l-0.6,1.907c0.418,0.132,0.838,0.258,1.262,0.379l0,0c0.012,0.003,0.022,0.007,0.035,0.01c0,0.002,0.002,0.002,0.002,0.002
		c0.006,0.002,0.01,0.002,0.016,0.004c0.002,0,0.002,0,0.004,0.002c0.004,0,0.008,0.002,0.013,0.002
		c0.002,0.002,0.005,0.002,0.007,0.002c0.004,0.002,0.008,0.004,0.014,0.004c0.001,0,0.002,0.002,0.004,0.002
		c0.004,0.002,0.01,0.002,0.014,0.004c0.002,0,0.004,0.002,0.005,0.002c0.005,0,0.009,0.002,0.014,0.004
		c0.001,0,0.003,0.001,0.005,0.001c0.005,0.001,0.009,0.003,0.013,0.004c0.003,0.001,0.005,0.001,0.007,0.002
		c0.004,0.001,0.008,0.002,0.013,0.003c0.001,0.001,0.003,0.002,0.005,0.002c0.005,0.001,0.009,0.002,0.014,0.004
		c0.002,0,0.004,0.002,0.006,0.002c0.004,0.002,0.008,0.002,0.013,0.004c0.002,0,0.004,0,0.006,0.002
		c0.005,0,0.007,0.002,0.013,0.002c0.002,0.002,0.004,0.002,0.006,0.002c0.004,0.002,0.01,0.004,0.014,0.004
		c0.002,0,0.003,0.002,0.005,0.002c0.005,0.002,0.009,0.002,0.013,0.004c0.002,0,0.004,0,0.006,0.002
		c0.004,0,0.01,0.002,0.014,0.003c0.002,0.001,0.004,0.002,0.006,0.002c0.003,0.002,0.008,0.003,0.012,0.004
		c0.002,0,0.006,0.001,0.008,0.002c0.003,0.001,0.008,0.002,0.011,0.003s0.005,0.001,0.007,0.002
		c0.004,0.001,0.009,0.004,0.013,0.004c0.002,0,0.005,0.002,0.007,0.002c0.004,0,0.008,0.002,0.012,0.004
		c0.002,0,0.005,0,0.008,0.002c0.002,0,0.007,0.002,0.01,0.002c0.003,0.002,0.006,0.002,0.01,0.004c0.002,0,0.006,0.002,0.01,0.002
		c0.002,0,0.005,0.002,0.008,0.002s0.008,0.002,0.011,0.004c0.003,0,0.005,0.002,0.008,0.002s0.008,0.002,0.011,0.003
		s0.006,0.001,0.008,0.001c0.004,0.002,0.008,0.004,0.012,0.004c0.002,0.001,0.005,0.002,0.008,0.002
		c0.004,0.002,0.006,0.002,0.011,0.004c0.003,0,0.005,0.001,0.007,0.002c0.004,0.001,0.008,0.002,0.013,0.004
		c0.001,0,0.004,0,0.007,0.002c0.004,0,0.006,0.002,0.012,0.002c0.002,0.002,0.004,0.002,0.007,0.002
		c0.005,0.002,0.007,0.002,0.012,0.004c0.002,0,0.005,0.002,0.007,0.002c0.005,0.002,0.008,0.002,0.012,0.004
		c0.002,0,0.004,0,0.006,0c0.004,0.002,0.009,0.004,0.014,0.004c0.002,0,0.003,0.002,0.004,0.002
		c0.006,0.002,0.01,0.002,0.014,0.005c0.002,0,0.004,0,0.006,0.001c0.004,0.001,0.009,0.003,0.014,0.003
		c0.002,0.001,0.004,0.002,0.006,0.002c0.004,0.002,0.008,0.002,0.013,0.004c0.001,0,0.003,0.001,0.005,0.001
		c0.004,0.001,0.01,0.003,0.014,0.004c0.002,0.002,0.004,0.002,0.006,0.002c0.004,0.002,0.008,0.002,0.014,0.004
		c0.002,0,0.004,0,0.007,0.002c0.003,0,0.009,0.002,0.011,0.004c0.004,0,0.006,0,0.01,0.002c0.003,0,0.006,0.002,0.01,0.002
		c0.001,0,0.002,0,0.002,0c0.018,0.006,0.037,0.012,0.054,0.016l0,0c0.005,0.001,0.011,0.003,0.015,0.004
		c0.002,0,0.003,0.001,0.004,0.001c0.006,0.001,0.01,0.003,0.016,0.005c0.001,0,0.002,0,0.004,0
		c0.004,0.002,0.008,0.004,0.013,0.004c0.002,0,0.004,0.002,0.006,0.002c0.005,0.002,0.007,0.002,0.012,0.004
		c0.003,0,0.005,0,0.007,0.002c0.006,0,0.009,0.002,0.014,0.002c0.002,0.002,0.004,0.002,0.006,0.002
		c0.004,0.002,0.009,0.002,0.014,0.004c0.002,0,0.003,0,0.004,0.002c0.005,0,0.01,0.002,0.015,0.004c0.001,0,0.003,0,0.005,0
		c0.004,0.002,0.008,0.002,0.013,0.005c0.002,0,0.005,0.001,0.007,0.002c0.004,0,0.008,0.001,0.012,0.003
		c0.002,0.001,0.004,0.001,0.006,0.001c0.006,0.001,0.008,0.002,0.014,0.004c0.002,0,0.004,0.001,0.006,0.002
		c0.004,0.001,0.008,0.003,0.013,0.003c0.002,0.002,0.004,0.002,0.007,0.002c0.004,0.002,0.006,0.002,0.011,0.004
		c0.003,0,0.005,0,0.008,0.002c0.003,0,0.009,0.002,0.012,0.002s0.005,0.002,0.007,0.002c0.004,0.002,0.008,0.002,0.013,0.004
		c0.002,0,0.004,0.002,0.005,0.002c0.006,0,0.01,0.002,0.014,0.002c0.003,0.002,0.004,0.002,0.006,0.002
		c0.004,0.002,0.008,0.002,0.014,0.004c0.002,0.001,0.004,0.002,0.006,0.002c0.002,0.001,0.01,0.002,0.013,0.003
		c0.001,0.001,0.003,0.001,0.005,0.002c0.004,0.001,0.011,0.003,0.014,0.003c0.002,0.001,0.004,0.001,0.006,0.002
		c0.004,0.001,0.009,0.002,0.014,0.004c0.002,0,0.004,0,0.005,0.002c0.003,0,0.011,0.002,0.013,0.002
		c0.002,0.002,0.004,0.002,0.006,0.002c0.006,0.002,0.01,0.002,0.014,0.004c0.002,0,0.004,0,0.005,0.002
		c0.005,0,0.01,0.002,0.015,0.004c0.001,0,0.003,0,0.004,0c0.005,0.002,0.01,0.002,0.015,0.004c0.002,0,0.003,0,0.005,0.002
		c0.004,0,0.01,0.002,0.014,0.002c0.002,0,0.004,0.002,0.005,0.002c0.005,0.003,0.01,0.003,0.015,0.005c0.001,0,0.002,0,0.004,0.001
		c0.004,0.001,0.01,0.002,0.014,0.003c0.002,0,0.004,0.002,0.006,0.002c0.004,0.001,0.01,0.002,0.014,0.004c0.002,0,0.004,0,0.005,0
		c0.005,0.002,0.009,0.003,0.014,0.005c0.002,0,0.004,0,0.005,0.002c0.006,0,0.01,0.002,0.015,0.004c0.001,0,0.003,0,0.003,0
		c0.006,0.002,0.012,0.004,0.016,0.004c0.002,0,0.002,0,0.003,0c0.007,0.002,0.011,0.004,0.017,0.006l0,0
		c0.007,0.002,0.013,0.002,0.02,0.004l0,0c0.76,0.193,1.525,0.371,2.298,0.529l0.403-1.959
		C39.668,97.689,38.085,97.279,36.545,96.796L36.545,96.796z M46.055,98.751l-0.202,1.989c1.499,0.152,3.015,0.238,4.55,0.257h0.002
		c0.007,0,0.013,0,0.02,0l0,0c0.007,0,0.012,0,0.02,0c0,0,0,0,0.002,0c0.006,0,0.01,0,0.018,0c0,0,0.001,0,0.002,0
		c0.006,0,0.012,0,0.017,0c0.001,0,0.003,0,0.005,0c0.004,0,0.01,0.001,0.016,0.001c0.001,0,0.002,0,0.004,0c0.005,0,0.01,0,0.016,0
		c0.001,0,0.003,0,0.005,0c0.005,0,0.009,0,0.015,0c0.002,0,0.004,0,0.006,0c0.004,0,0.008,0.001,0.014,0.001
		c0.002,0,0.004,0,0.007,0c0.005,0,0.009,0,0.013,0c0.002,0,0.004,0,0.006,0c0.006,0,0.009,0,0.014,0c0.002,0,0.006,0,0.008,0
		c0.005,0,0.006,0,0.011,0c0.003,0,0.007,0,0.01,0c0.003,0,0.005,0,0.009,0s0.008,0,0.012,0c0.002,0,0.005,0,0.006,0
		c0.005,0,0.01,0,0.014,0c0.004,0,0.004,0,0.008,0s0.009,0,0.014,0h0.004c0.006,0,0.01,0,0.016,0h0.003
		c0.065,0,0.132,0.001,0.198,0.001l0.002-2C49.291,98.998,47.657,98.914,46.055,98.751L46.055,98.751z M60.577,98.038
		c-1.58,0.321-3.197,0.565-4.808,0.726l0.197,1.989c0.432-0.043,0.862-0.091,1.291-0.146h0.001c0.007,0,0.013-0.002,0.021-0.004l0,0
		c0.006,0,0.012,0,0.019,0c0.001-0.002,0.001-0.002,0.003-0.002c0.006,0,0.01-0.002,0.018-0.002h0.002
		c0.007,0,0.013-0.002,0.017-0.002c0.002,0,0.004,0,0.006,0c0.005-0.002,0.011-0.002,0.015-0.004c0.002,0,0.004,0,0.006,0
		c0.005,0,0.009,0,0.014-0.002c0.002,0,0.004,0,0.006,0c0.006,0,0.01-0.002,0.014-0.002s0.006,0,0.008-0.001
		c0.005-0.001,0.008-0.001,0.013-0.001c0.003-0.001,0.006-0.001,0.009-0.002c0.004,0,0.008,0,0.012-0.002c0.002,0,0.006,0,0.01,0
		c0.003,0,0.006-0.001,0.01-0.002c0.004,0,0.006,0,0.01-0.002c0.004,0,0.006,0,0.01,0s0.008-0.001,0.012-0.002
		c0.005,0,0.005,0,0.009,0c0.004-0.001,0.008-0.002,0.013-0.002c0.004-0.002,0.004-0.002,0.008-0.002s0.008,0,0.014-0.002
		c0.003,0,0.002,0,0.006,0s0.009-0.002,0.014-0.002c0.004,0,0.002,0,0.006,0c0.006-0.002,0.012-0.002,0.019-0.004
		c0.001,0,0,0,0.002,0c0.006,0,0.012-0.002,0.019-0.002c0.002,0,0,0,0.002,0c1.141-0.151,2.27-0.34,3.385-0.566L60.577,98.038
		L60.577,98.038z M69.844,95.146c-1.484,0.635-3.02,1.201-4.56,1.683l0.595,1.909c0.359-0.111,0.717-0.227,1.071-0.348h0.001
		c0.005-0.002,0.012-0.004,0.016-0.006c0.002,0,0.002,0,0.004,0c0.004-0.003,0.01-0.004,0.014-0.006
		c0.002,0,0.004-0.002,0.006-0.002c0.005-0.001,0.008-0.002,0.013-0.004c0.002,0,0.004-0.002,0.006-0.002
		c0.005-0.001,0.009-0.003,0.013-0.004c0.002-0.002,0.004-0.002,0.008-0.002c0.002-0.002,0.008-0.004,0.011-0.004
		c0.003-0.002,0.005-0.002,0.007-0.004c0.004,0,0.008-0.002,0.012-0.002c0.002-0.002,0.006-0.004,0.008-0.004
		s0.008-0.002,0.011-0.004c0.003,0,0.006-0.002,0.008-0.002c0.004-0.002,0.009-0.004,0.011-0.004c0.004,0,0.006-0.003,0.01-0.003
		c0.002-0.002,0.006-0.002,0.008-0.004c0.005-0.001,0.008-0.002,0.012-0.004c0.003,0,0.004-0.001,0.008-0.002
		c0.004-0.002,0.008-0.002,0.012-0.004c0.002-0.001,0.004-0.003,0.006-0.003c0.004-0.002,0.011-0.004,0.015-0.004
		c0.002-0.002,0.003-0.002,0.004-0.002c0.006-0.002,0.011-0.004,0.017-0.006c0.002,0,0.002,0,0.004,0
		c0.004-0.002,0.01-0.004,0.016-0.006l0.002-0.002c1.163-0.398,2.307-0.838,3.43-1.318L69.844,95.146L69.844,95.146z M78.334,90.439
		c-1.326,0.924-2.715,1.787-4.126,2.57l0.97,1.748c0.008-0.004,0.016-0.008,0.021-0.012h0.002c0.01-0.008,0.021-0.014,0.031-0.02
		l0,0c0.012-0.006,0.021-0.013,0.033-0.019l0,0c0.016-0.009,0.03-0.019,0.047-0.024c0-0.002,0.002-0.002,0.002-0.002
		c0.004-0.002,0.006-0.004,0.01-0.004c0.002-0.002,0.006-0.005,0.008-0.007c0.004-0.002,0.005-0.002,0.008-0.004
		c0.004-0.002,0.008-0.004,0.01-0.006c0.002-0.001,0.004-0.002,0.008-0.005c0.002-0.002,0.006-0.004,0.011-0.006
		c0.002,0,0.004-0.002,0.006-0.004c0.004-0.002,0.008-0.002,0.011-0.004c0.002-0.002,0.006-0.004,0.008-0.004
		c0.002-0.002,0.006-0.004,0.01-0.006c0.002-0.002,0.006-0.004,0.007-0.004c0.003-0.002,0.007-0.004,0.011-0.006
		c0.001-0.002,0.004-0.004,0.006-0.004c0.004-0.003,0.008-0.004,0.012-0.006c0.002-0.002,0.004-0.004,0.006-0.004
		c0.004-0.002,0.008-0.004,0.012-0.006c0.003-0.002,0.003-0.002,0.005-0.004c0.004-0.002,0.009-0.004,0.013-0.006
		c0.002-0.002,0.004-0.004,0.006-0.004c0.004-0.003,0.008-0.005,0.012-0.007c0.002-0.001,0.004-0.002,0.004-0.003
		c0.006-0.003,0.01-0.005,0.014-0.01c0.002,0,0.002,0,0.004,0c0.006-0.004,0.01-0.006,0.016-0.008c0-0.002,0-0.002,0.002-0.002
		c1.357-0.768,2.677-1.596,3.951-2.481L78.334,90.439L78.334,90.439z M85.71,84.122c-1.114,1.169-2.302,2.295-3.528,3.347
		l1.301,1.518c1.283-1.098,2.512-2.262,3.677-3.482L85.71,84.122L85.71,84.122z M91.672,76.456
		c-0.857,1.366-1.795,2.707-2.787,3.981l1.578,1.229c0.285-0.366,0.566-0.737,0.842-1.112c0,0,0,0,0-0.002
		c0.004-0.005,0.008-0.009,0.012-0.015l0,0c0.004-0.005,0.006-0.009,0.011-0.015c0,0,0-0.002,0.001-0.002
		c0.004-0.004,0.006-0.008,0.01-0.014c0.001-0.001,0.001-0.002,0.002-0.002c0.004-0.006,0.006-0.008,0.01-0.013
		c0-0.001,0.002-0.003,0.002-0.003c0.004-0.004,0.006-0.01,0.01-0.014c0,0,0-0.002,0.002-0.002c0.004-0.006,0.006-0.008,0.009-0.013
		c0.001-0.002,0.002-0.003,0.003-0.004c0.003-0.004,0.006-0.009,0.008-0.013c0.002-0.002,0.004-0.004,0.004-0.004
		c0.004-0.004,0.004-0.006,0.008-0.01c0.002-0.004,0.004-0.006,0.006-0.009c0.002-0.002,0.004-0.006,0.007-0.008
		c0-0.002,0.002-0.004,0.004-0.007c0.002-0.004,0.004-0.006,0.007-0.01c0.001-0.002,0.003-0.002,0.004-0.004
		c0.003-0.004,0.006-0.008,0.008-0.012c0.008-0.011,0.016-0.021,0.022-0.031c0,0,0,0,0.001,0c0.003-0.006,0.007-0.011,0.011-0.016
		c0-0.001,0-0.002,0.002-0.003c0.003-0.004,0.007-0.009,0.011-0.015l0,0c0.004-0.006,0.008-0.01,0.012-0.016l0,0
		c0.004-0.006,0.008-0.011,0.011-0.016l0.001-0.002c0.004-0.006,0.007-0.01,0.01-0.014c0.002-0.002,0.002-0.002,0.002-0.004
		c0.004-0.004,0.008-0.008,0.01-0.014c0.002-0.001,0.002,0,0.002-0.002c0.004-0.004,0.008-0.009,0.011-0.014l0.002-0.002
		c0.004-0.006,0.007-0.01,0.011-0.016h0.001c0.003-0.006,0.007-0.011,0.011-0.017l0,0c0.633-0.877,1.237-1.774,1.813-2.692
		L91.672,76.456L91.672,76.456z M95.967,67.749c-0.563,1.513-1.211,3.015-1.926,4.463l1.793,0.884c0.001,0,0.004-0.007,0.004-0.008
		c0.001-0.001,0.002-0.003,0.002-0.003c0.003-0.007,0.004-0.009,0.008-0.015c0-0.002,0-0.002,0-0.004
		c0.004-0.006,0.006-0.008,0.008-0.014c0-0.002,0.002-0.002,0.002-0.002c0.002-0.007,0.004-0.011,0.008-0.017
		c0.001,0,0.001-0.001,0.001-0.001c0.002-0.006,0.005-0.012,0.008-0.018l0,0c0.688-1.398,1.312-2.836,1.869-4.306
		c0,0,0-0.001,0-0.002c0.002-0.004,0.004-0.009,0.005-0.015c0.001,0,0.001-0.002,0.002-0.004c0.002-0.004,0.003-0.01,0.005-0.014
		c0.001-0.002,0.002-0.003,0.002-0.005c0.002-0.005,0.002-0.007,0.005-0.012c0.002-0.003,0.002-0.005,0.004-0.007
		c0-0.006,0-0.006,0.002-0.01s0.004-0.006,0.004-0.011c0-0.001,0.002-0.006,0.004-0.008c0-0.004,0.002-0.007,0.004-0.011
		c0-0.002,0.002-0.006,0.002-0.008c0.002-0.004,0.004-0.008,0.004-0.01c0.002-0.004,0.002-0.006,0.004-0.01
		c0.001-0.003,0.002-0.007,0.004-0.01c0.001-0.004,0.002-0.004,0.002-0.008c0.002-0.004,0.004-0.008,0.006-0.012
		c0-0.002,0-0.004,0.001-0.006c0.003-0.005,0.005-0.01,0.005-0.015c0.002-0.001,0.002-0.003,0.002-0.005
		c0.002-0.004,0.004-0.01,0.006-0.014c0-0.002,0-0.002,0.002-0.004c0.002-0.006,0.004-0.011,0.006-0.016c0-0.002,0-0.001,0-0.002
		c0.002-0.006,0.006-0.014,0.008-0.02l0,0c0.005-0.013,0.009-0.023,0.014-0.037L95.967,67.749L95.967,67.749z M98.41,58.354
		c-0.246,1.599-0.576,3.199-0.982,4.76l1.936,0.505c0.271-1.039,0.509-2.091,0.713-3.152c0-0.001,0-0.001,0-0.001
		c0.001-0.007,0.001-0.012,0.003-0.018v-0.002c0.002-0.006,0.002-0.012,0.004-0.018v-0.002c0.001-0.006,0.002-0.012,0.003-0.017
		c0.001-0.001,0.001-0.003,0.001-0.003c0-0.006,0.002-0.012,0.002-0.016c0.001-0.002,0.002-0.004,0.002-0.004
		c0-0.007,0.002-0.011,0.002-0.017c0-0.001,0.001-0.003,0.003-0.005c0-0.004,0-0.008,0.002-0.014c0-0.002,0-0.004,0-0.006
		c0.002-0.005,0.002-0.008,0.004-0.013c0-0.003,0-0.005,0-0.009c0.002-0.004,0.002-0.006,0.002-0.01
		c0.002-0.002,0.002-0.006,0.002-0.008c0.002-0.004,0.002-0.009,0.002-0.013c0.002-0.002,0.002-0.006,0.002-0.008
		c0-0.005,0.002-0.009,0.002-0.011c0-0.004,0.002-0.006,0.002-0.01s0.002-0.008,0.002-0.011s0.002-0.006,0.002-0.009
		s0.002-0.008,0.002-0.01c0-0.004,0.001-0.006,0.002-0.01c0-0.004,0.001-0.008,0.002-0.01c0-0.005,0-0.007,0.002-0.011
		c0-0.003,0-0.007,0.001-0.009c0.001-0.004,0.001-0.008,0.002-0.012s0.001-0.006,0.001-0.008c0.002-0.004,0.002-0.008,0.003-0.012
		s0.001-0.004,0.001-0.008c0.001-0.004,0.002-0.008,0.002-0.012c0.001-0.004,0.002-0.004,0.002-0.008s0.002-0.009,0.002-0.013
		c0.002-0.004,0.002-0.004,0.002-0.008c0-0.005,0.002-0.009,0.002-0.013s0-0.004,0.002-0.008c0-0.004,0.002-0.008,0.002-0.013
		c0-0.003,0-0.002,0-0.005c0.002-0.006,0.002-0.01,0.004-0.014c0-0.004,0-0.004,0-0.008c0.002-0.004,0.002-0.008,0.004-0.013
		c0-0.002,0-0.004,0-0.006c0.002-0.005,0.002-0.011,0.004-0.015c0-0.004,0-0.004,0-0.006c0-0.004,0.003-0.01,0.003-0.016
		c0.001-0.002,0.001-0.002,0.001-0.003c0.001-0.005,0.002-0.011,0.003-0.017c0-0.002,0-0.002,0-0.004
		c0.002-0.006,0.003-0.012,0.004-0.018c0-0.001,0,0.001,0-0.001c0.002-0.006,0.002-0.013,0.004-0.021c0,0,0,0.002,0,0
		c0.001-0.006,0.002-0.014,0.004-0.02c0-0.001-0.001,0.001,0,0c0-0.006,0.003-0.012,0.003-0.02c0-0.002,0,0.002,0,0
		c0.075-0.418,0.146-0.836,0.211-1.256L98.41,58.354L98.41,58.354z M100.91,48.558l-1.997,0.096
		c0.037,0.777,0.056,1.566,0.056,2.347c0,0.837-0.021,1.685-0.064,2.519l1.998,0.104c0.031-0.604,0.052-1.206,0.062-1.813l0,0
		c0-0.008,0-0.015,0-0.021l0,0c0-0.008,0-0.014,0-0.02v-0.002c0-0.006,0.001-0.013,0.001-0.02l0,0c0-0.008,0-0.012,0-0.02v-0.002
		c0.001-0.008,0.001-0.01,0.001-0.018c0-0.001,0-0.003,0-0.003c0-0.007,0-0.013,0-0.019c0,0,0-0.002,0-0.004
		c0-0.006,0-0.008,0-0.016c0-0.002,0-0.003,0-0.004c0-0.006,0-0.012,0-0.016c0-0.002,0-0.004,0-0.006c0-0.006,0-0.011,0-0.016
		c0-0.002,0-0.003,0-0.005c0-0.005,0-0.011,0.001-0.017c0-0.002,0-0.004,0-0.004c0-0.004,0-0.013,0-0.016c0-0.002,0-0.004,0-0.006
		c0-0.004,0-0.012,0.001-0.014c0-0.002,0-0.006,0-0.008s0-0.011,0-0.014s0-0.005,0-0.007c0-0.003,0-0.011,0-0.015
		c0-0.002,0-0.004,0-0.006c0-0.004,0-0.012,0-0.015c0-0.002,0-0.005,0-0.007c0-0.003,0-0.01,0-0.013s0-0.006,0-0.008
		c0-0.003,0-0.01,0-0.013c0-0.002,0-0.005,0-0.008s0-0.009,0-0.012c0-0.004,0-0.006,0-0.009s0-0.009,0-0.013
		c0-0.002,0-0.005,0-0.007c0-0.003,0.001-0.01,0.001-0.013s0-0.006,0-0.009s0-0.009,0-0.012s0-0.006,0-0.008
		c0-0.005,0-0.008,0-0.013c0-0.003,0-0.005,0-0.008c0.002-0.005,0.002-0.008,0.002-0.012c0-0.004,0-0.006,0-0.009
		c0-0.005,0-0.007,0-0.013c0-0.002,0-0.005,0-0.008c0-0.005,0-0.008,0-0.012c0-0.003,0-0.006,0-0.008c0-0.005,0-0.008,0-0.013
		c0-0.003,0-0.006,0-0.009c0-0.005,0-0.007,0-0.012c0-0.003,0-0.006,0-0.009c0-0.005,0-0.007,0-0.011s0-0.007,0-0.01
		c0-0.006,0-0.006,0-0.012c0-0.002,0-0.006,0-0.01c0-0.003,0-0.006,0-0.01s0-0.008,0-0.011c0-0.004,0-0.007,0-0.01s0-0.007,0-0.011
		c0-0.003,0-0.006,0-0.01s0-0.007,0-0.01c0-0.004,0-0.008,0-0.011s0-0.005,0-0.009c0-0.004,0-0.008,0-0.012c0-0.002,0-0.005,0-0.008
		c0-0.004,0-0.008,0-0.013c0-0.003,0-0.005,0-0.008c0-0.005,0-0.007,0-0.013c0-0.002,0-0.006,0-0.008c0-0.005,0-0.008,0-0.012
		c0-0.003,0-0.006,0-0.008c0-0.004,0-0.008,0-0.014c0-0.002,0-0.004,0-0.006c0-0.005,0-0.009,0-0.014c0-0.008,0-0.014,0-0.021
		s0-0.013,0-0.021c0-0.001,0-0.004,0-0.006c0-0.004,0-0.008,0-0.014c0-0.002,0-0.004,0-0.007c0-0.005,0-0.007,0-0.013
		c0-0.002,0-0.005,0-0.008c0-0.005,0-0.007,0-0.012c0-0.002,0-0.006,0-0.008c0-0.005,0-0.007,0-0.012c0-0.003,0-0.006,0-0.008
		c0-0.006,0-0.008,0-0.013c0-0.003,0-0.005,0-0.008s0-0.009,0-0.012c0-0.003,0-0.005,0-0.008s0-0.009,0-0.013
		c0-0.002,0-0.005,0-0.008c0-0.004,0-0.008,0-0.012c0-0.002,0-0.005,0-0.008c0-0.004,0-0.008,0-0.012c0-0.002,0-0.005,0-0.008
		c0-0.004,0-0.008,0-0.012c0-0.002,0-0.005,0-0.008c0-0.004,0-0.009,0-0.012c0-0.003,0-0.006,0-0.008c0-0.004,0-0.01,0-0.014
		c0-0.002,0-0.004,0-0.006c0-0.006,0-0.01,0-0.015c0-0.002,0-0.004,0-0.005c0-0.006,0-0.012,0-0.017c0-0.001,0-0.002,0-0.003
		c0-0.006,0-0.011,0-0.016c0-0.002,0-0.004,0-0.006c0-0.006,0-0.011,0-0.018v-0.001c-0.002-0.026-0.002-0.054-0.003-0.081v-0.001
		c0-0.007,0-0.011,0-0.019c0-0.001,0-0.002,0-0.003c0-0.007,0-0.01,0-0.017c0-0.001,0-0.002,0-0.004c0-0.006,0-0.009,0-0.016
		c0-0.002,0-0.003,0-0.005c0-0.005,0-0.011,0-0.016c0-0.001,0-0.003,0-0.004c0-0.007,0-0.009,0-0.017c0,0,0-0.002,0-0.004
		c0-0.004,0-0.01,0-0.016c0-0.001,0-0.003,0-0.004c0-0.006,0-0.009,0-0.016c0-0.002,0-0.003,0-0.005
		c-0.001-0.006-0.001-0.009-0.001-0.016c0-0.001,0-0.002,0-0.003c0-0.007,0-0.011,0-0.019c0-0.001,0-0.002,0-0.002
		c-0.001-0.008-0.001-0.012-0.001-0.019c0-0.001,0-0.001,0-0.001c0-0.008,0-0.013,0-0.021c0,0,0-0.001,0-0.002
		c0-0.006,0-0.012,0-0.019v-0.001c-0.006-0.45-0.019-0.898-0.034-1.346v-0.001c0-0.008,0-0.012-0.002-0.019c0-0.001,0-0.002,0-0.002
		c0-0.007,0-0.011,0-0.018c0-0.001,0-0.002,0-0.003c0-0.007,0-0.01,0-0.017c0-0.001,0-0.003-0.002-0.004c0-0.004,0-0.01,0-0.016
		c0-0.001,0-0.002,0-0.004c0-0.007,0-0.01,0-0.017c0-0.001,0-0.002,0-0.004c0-0.005-0.002-0.011-0.002-0.016
		c0-0.001-0.001-0.002-0.001-0.004c0-0.005,0-0.011,0-0.015c0-0.002,0-0.004,0-0.005c0-0.005,0-0.009-0.001-0.015
		c0-0.002,0-0.004,0-0.006c-0.001-0.005-0.001-0.009-0.001-0.014c0-0.002,0-0.004,0-0.006c0-0.005,0-0.01,0-0.014
		c0-0.003,0-0.004-0.001-0.006c0-0.005,0-0.009-0.001-0.014c0-0.002,0-0.004,0-0.007s0-0.003,0-0.007
		c0-0.015-0.002-0.029-0.002-0.045c0-0.002,0-0.004,0-0.006c0-0.004,0-0.01-0.001-0.014c0-0.002,0-0.004,0-0.005
		c0-0.005,0-0.011-0.001-0.017v-0.002c0-0.006,0-0.012-0.001-0.018v-0.003c-0.001-0.006-0.001-0.011-0.001-0.016
		c0-0.002,0-0.002,0-0.004c0-0.006,0-0.011,0-0.016c0-0.002,0-0.002-0.001-0.003c0-0.006,0-0.012,0-0.018v-0.001
		c-0.001-0.006-0.001-0.012-0.001-0.019v-0.001C100.911,48.569,100.911,48.563,100.91,48.558L100.91,48.558L100.91,48.558z
		 M99.408,38.555l-1.938,0.496c0.399,1.563,0.725,3.165,0.965,4.763l1.978-0.296c-0.091-0.604-0.192-1.206-0.306-1.804l0,0
		c-0.002-0.013-0.004-0.025-0.006-0.037v-0.003c-0.002-0.006-0.002-0.011-0.004-0.017c0-0.002,0-0.001,0-0.004
		c-0.002-0.004-0.002-0.01-0.005-0.014c0-0.002,0-0.004,0-0.006c-0.001-0.004-0.002-0.01-0.003-0.015
		c-0.001-0.001-0.001-0.002-0.001-0.004c-0.001-0.005-0.002-0.01-0.003-0.015c0-0.002-0.001-0.004-0.001-0.005
		c0-0.005-0.002-0.01-0.002-0.015c-0.001-0.002-0.001-0.003-0.002-0.005c0-0.005-0.002-0.009-0.002-0.014
		c0-0.002-0.001-0.004-0.002-0.007c0-0.004-0.002-0.009-0.002-0.014c0-0.002,0-0.003-0.001-0.004
		c-0.002-0.005-0.002-0.01-0.004-0.014c0-0.004,0-0.004,0-0.006c-0.002-0.005-0.002-0.009-0.004-0.013c0-0.004,0-0.005,0-0.007
		c-0.002-0.004-0.002-0.008-0.002-0.011c-0.002-0.004-0.002-0.007-0.002-0.01c-0.002-0.003-0.002-0.006-0.002-0.009
		c0-0.004-0.002-0.008-0.002-0.01c0-0.003-0.002-0.006-0.002-0.009c0-0.005-0.002-0.007-0.002-0.012c0-0.001,0-0.002,0-0.002
		c-0.002-0.007-0.002-0.011-0.004-0.018c0-0.001,0-0.001,0-0.001C99.865,40.453,99.65,39.499,99.408,38.555L99.408,38.555z
		 M95.913,29.063l-1.797,0.879c0.71,1.451,1.353,2.955,1.909,4.469l1.877-0.691c-0.307-0.83-0.633-1.652-0.981-2.461
		c-0.001-0.002-0.001-0.002-0.001-0.002c-0.004-0.011-0.01-0.022-0.014-0.034l0,0c-0.004-0.007-0.006-0.011-0.008-0.017v-0.001
		c-0.004-0.006-0.006-0.011-0.008-0.017v-0.002c-0.004-0.006-0.006-0.01-0.009-0.016l0,0c-0.002-0.006-0.004-0.011-0.007-0.017
		c0,0-0.001,0-0.001-0.001c-0.002-0.007-0.004-0.011-0.007-0.017c-0.002,0-0.002,0-0.002-0.002c-0.002-0.005-0.004-0.01-0.006-0.017
		c0,0-0.002-0.001-0.002-0.002c-0.002-0.006-0.004-0.01-0.006-0.016c0,0,0,0-0.002-0.001c-0.002-0.005-0.004-0.011-0.006-0.017
		h-0.001c-0.005-0.012-0.01-0.022-0.015-0.034c0-0.001,0-0.002,0-0.002c-0.006-0.013-0.01-0.021-0.016-0.034l0,0
		c-0.006-0.012-0.01-0.022-0.017-0.034v-0.001c-0.015-0.034-0.028-0.066-0.043-0.101c-0.002-0.001-0.002-0.002-0.002-0.004
		c-0.002-0.004-0.004-0.009-0.006-0.013c-0.001-0.002-0.002-0.003-0.002-0.004c-0.002-0.005-0.005-0.008-0.007-0.012
		c0-0.003-0.002-0.005-0.002-0.007c-0.002-0.005-0.004-0.006-0.006-0.011c0-0.002-0.002-0.005-0.002-0.007
		c-0.002-0.005-0.004-0.006-0.004-0.011c-0.002-0.002-0.004-0.004-0.004-0.007c-0.002-0.005-0.004-0.007-0.006-0.011
		c0-0.003-0.002-0.004-0.002-0.007c-0.002-0.005-0.004-0.007-0.006-0.011c0-0.002-0.002-0.005-0.003-0.008s-0.003-0.007-0.004-0.01
		c-0.001-0.002-0.003-0.005-0.005-0.008c0-0.003-0.002-0.006-0.004-0.01c0-0.002-0.002-0.006-0.004-0.009
		c0-0.003-0.002-0.005-0.002-0.007c-0.002-0.004-0.004-0.008-0.006-0.011c0-0.003-0.002-0.005-0.002-0.008
		c-0.003-0.003-0.005-0.007-0.007-0.011c-0.001-0.003-0.002-0.004-0.002-0.006c-0.002-0.004-0.004-0.008-0.006-0.012
		c-0.001-0.003-0.002-0.004-0.003-0.007s-0.003-0.007-0.006-0.011c0-0.002-0.002-0.006-0.002-0.007
		c-0.002-0.004-0.004-0.007-0.006-0.011c0-0.002-0.002-0.006-0.002-0.007c-0.002-0.004-0.004-0.009-0.006-0.013
		c0-0.001-0.002-0.004-0.002-0.005c-0.002-0.005-0.005-0.009-0.007-0.013c-0.001-0.002-0.001-0.004-0.002-0.005
		c-0.003-0.005-0.005-0.011-0.007-0.015l-0.001-0.003c-0.003-0.005-0.005-0.011-0.009-0.017v-0.001
		C96.391,30.06,96.154,29.56,95.913,29.063L95.913,29.063z M90.572,20.474l-1.584,1.223c0.988,1.279,1.922,2.623,2.773,3.994
		l1.698-1.057c-0.735-1.186-1.521-2.336-2.353-3.451l0,0c-0.004-0.006-0.008-0.01-0.01-0.016l-0.002-0.001
		c-0.004-0.005-0.008-0.009-0.012-0.015l0,0c-0.004-0.006-0.008-0.01-0.012-0.016c0-0.001,0,0,0-0.001
		c-0.004-0.005-0.008-0.01-0.012-0.015c0-0.001,0,0,0-0.001c-0.004-0.005-0.008-0.01-0.013-0.015v-0.002
		c-0.008-0.01-0.017-0.02-0.022-0.03V21.07c-0.008-0.01-0.017-0.02-0.022-0.029c-0.001-0.002-0.001-0.001-0.002-0.002
		c-0.008-0.01-0.017-0.021-0.022-0.031l-0.002-0.001c-0.004-0.005-0.006-0.01-0.011-0.015c-0.002-0.003-0.002-0.003-0.004-0.006
		c-0.003-0.003-0.005-0.006-0.007-0.009s-0.004-0.005-0.006-0.008c-0.002-0.003-0.004-0.006-0.006-0.009
		c-0.002-0.002-0.004-0.004-0.006-0.007c-0.002-0.002-0.004-0.005-0.006-0.007c-0.004-0.005-0.004-0.005-0.007-0.009
		c-0.002-0.003-0.004-0.005-0.006-0.007c-0.002-0.003-0.004-0.006-0.006-0.01c-0.002-0.002-0.004-0.004-0.006-0.006
		c-0.003-0.004-0.005-0.005-0.007-0.009c-0.002-0.003-0.004-0.005-0.006-0.007c-0.002-0.003-0.004-0.006-0.006-0.009
		c-0.002-0.002-0.004-0.004-0.004-0.006c-0.003-0.003-0.006-0.007-0.008-0.009c-0.002-0.003-0.004-0.005-0.005-0.007
		c-0.002-0.003-0.005-0.007-0.007-0.01c-0.002-0.002-0.004-0.003-0.004-0.005c-0.002-0.002-0.006-0.008-0.008-0.01
		c-0.002-0.002-0.004-0.004-0.004-0.006c-0.004-0.004-0.006-0.007-0.009-0.01c-0.002-0.002-0.002-0.003-0.004-0.004
		c-0.002-0.004-0.006-0.009-0.008-0.012c-0.002-0.002-0.002-0.002-0.002-0.004c-0.004-0.004-0.007-0.008-0.011-0.012l-0.002-0.001
		C90.738,20.69,90.656,20.582,90.572,20.474L90.572,20.474z M83.618,13.13l-1.308,1.514c1.224,1.056,2.405,2.186,3.518,3.358
		l1.451-1.375C86.119,15.401,84.896,14.233,83.618,13.13L83.618,13.13z M75.334,7.327l-0.977,1.746
		c1.408,0.787,2.793,1.656,4.117,2.584l1.147-1.639C78.242,9.052,76.813,8.153,75.334,7.327L75.334,7.327z M66.05,3.314
		l-0.603,1.907C66.986,5.707,68.518,6.279,70,6.92l0.794-1.837c-0.892-0.385-1.798-0.744-2.715-1.079h-0.001
		c-0.023-0.009-0.049-0.019-0.073-0.027h-0.001c-0.074-0.026-0.148-0.054-0.223-0.08c-0.002-0.001,0,0-0.002-0.001
		c-0.006-0.002-0.012-0.004-0.018-0.006L67.76,3.889c-0.005-0.001-0.01-0.004-0.016-0.005c-0.002-0.001-0.002-0.001-0.004-0.002
		c-0.006-0.002-0.01-0.003-0.016-0.006c0,0-0.002,0-0.004,0c-0.005-0.002-0.009-0.004-0.014-0.006c-0.001,0-0.005-0.001-0.007-0.002
		c-0.005-0.001-0.009-0.003-0.013-0.005c0-0.001-0.004-0.001-0.006-0.002c-0.004-0.001-0.008-0.003-0.013-0.004
		c-0.001-0.001-0.005-0.002-0.006-0.003c-0.005-0.001-0.009-0.002-0.013-0.004c-0.002,0-0.004-0.001-0.006-0.002
		c-0.004-0.002-0.008-0.003-0.013-0.005c-0.004-0.001-0.004-0.001-0.007-0.002c-0.005-0.001-0.009-0.003-0.014-0.004
		c-0.002-0.001-0.002-0.001-0.006-0.002c-0.004-0.002-0.008-0.003-0.012-0.005c-0.004,0-0.004-0.001-0.007-0.002
		c-0.004-0.002-0.008-0.004-0.012-0.004c-0.003-0.002-0.005-0.002-0.007-0.004c-0.004,0-0.008-0.002-0.012-0.003
		c-0.002-0.001-0.006-0.001-0.009-0.003c-0.004-0.001-0.006-0.002-0.01-0.004c-0.003,0-0.007-0.001-0.009-0.002
		c-0.004-0.002-0.008-0.002-0.01-0.004c-0.004-0.001-0.006-0.002-0.01-0.004c-0.003,0-0.006-0.001-0.01-0.002
		c-0.003-0.002-0.006-0.002-0.008-0.004c-0.004,0-0.008-0.002-0.01-0.003c-0.004-0.001-0.006-0.002-0.01-0.003
		c-0.002-0.001-0.007-0.002-0.009-0.003c-0.005-0.002-0.006-0.002-0.01-0.004c-0.004-0.001-0.007-0.002-0.009-0.003
		c-0.006-0.002-0.006-0.002-0.012-0.004c-0.002,0-0.004-0.001-0.007-0.002c-0.005-0.002-0.007-0.003-0.011-0.004
		c-0.002,0-0.004-0.001-0.006-0.002c-0.004-0.002-0.01-0.003-0.014-0.005L67.395,3.76c-0.078-0.027-0.154-0.053-0.233-0.08l0,0
		c-0.007-0.002-0.011-0.004-0.019-0.006l0.008,0.002c-0.006-0.001-0.012-0.003-0.019-0.006l0,0
		c-0.019-0.006-0.036-0.013-0.055-0.019l0,0c-0.007-0.002-0.013-0.004-0.019-0.006l0,0C66.725,3.532,66.389,3.421,66.05,3.314
		L66.05,3.314z M56.146,1.265l-0.205,1.989c1.608,0.165,3.226,0.415,4.804,0.741l0.405-1.958c-0.43-0.089-0.856-0.171-1.289-0.249
		c-0.002,0-0.002,0-0.004,0c-0.004-0.001-0.01-0.002-0.016-0.004c-0.001,0-0.002,0-0.003,0c-0.005-0.001-0.009-0.002-0.013-0.003
		c-0.004,0-0.006,0-0.008-0.001c-0.004,0-0.008-0.001-0.012-0.002c-0.002,0-0.004-0.001-0.008-0.001
		c-0.005-0.001-0.007-0.001-0.013-0.002c-0.002-0.001-0.005-0.001-0.007-0.002c-0.006-0.001-0.01-0.001-0.014-0.002
		C59.764,1.77,59.762,1.77,59.76,1.77c-0.005-0.001-0.008-0.002-0.012-0.002c-0.004-0.001-0.006-0.002-0.008-0.002
		c-0.006,0-0.008-0.001-0.012-0.002c-0.004,0-0.006,0-0.008-0.001c-0.006-0.001-0.008-0.001-0.013-0.002
		C59.706,1.76,59.702,1.76,59.7,1.759c-0.005-0.001-0.007-0.001-0.013-0.002c-0.002,0-0.004-0.001-0.008-0.001
		c-0.002,0-0.007-0.002-0.01-0.002c-0.004,0-0.007-0.001-0.01-0.002c-0.004,0-0.006,0-0.01-0.002c-0.004,0-0.006,0-0.01-0.001
		s-0.007-0.001-0.011-0.001c-0.003-0.002-0.006-0.002-0.01-0.002c-0.004-0.002-0.005-0.002-0.011-0.002
		c-0.002-0.001-0.006-0.002-0.008-0.002c-0.004,0-0.008-0.001-0.011-0.002c-0.003,0-0.007-0.001-0.011-0.002
		c-0.002,0-0.006,0-0.008-0.001c-0.004-0.001-0.008-0.001-0.012-0.002c-0.002,0-0.006-0.001-0.008-0.001
		c-0.005-0.001-0.009-0.002-0.013-0.003c-0.002,0-0.004-0.001-0.006-0.001c-0.005-0.001-0.009-0.002-0.015-0.002
		c0,0-0.004-0.001-0.006-0.001c-0.004-0.001-0.01-0.002-0.014-0.003c-0.002,0-0.004,0-0.006,0c-0.004-0.001-0.008-0.002-0.014-0.003
		c-0.002,0-0.004-0.001-0.006-0.001c-0.004,0-0.009-0.002-0.014-0.002c-0.002,0-0.005-0.001-0.007-0.001
		c-0.004-0.001-0.009-0.002-0.013-0.003c-0.002,0-0.006,0-0.008,0c-0.004-0.002-0.008-0.002-0.013-0.003
		c-0.001,0-0.005-0.001-0.007-0.001c0.006,0.001,0.002,0-0.003,0c-0.001,0-0.005-0.001-0.007-0.002
		c-0.004,0-0.008-0.001-0.014-0.002h-0.004c-0.007-0.002-0.011-0.002-0.015-0.003c-0.002-0.001-0.005-0.001-0.006-0.001
		C59.361,1.7,59.357,1.7,59.354,1.7c-0.002,0-0.004-0.001-0.006-0.002c-0.005,0-0.01-0.001-0.014-0.002
		c-0.002,0-0.005,0-0.006-0.001c-0.006-0.001-0.01-0.001-0.014-0.002c-0.002-0.001-0.006-0.001-0.006-0.001
		c-0.006-0.001-0.011-0.002-0.014-0.003c-0.003,0-0.006-0.001-0.008-0.001c-0.006,0-0.01-0.001-0.014-0.002
		c-0.002,0-0.004-0.001-0.006-0.001c-0.004-0.001-0.01-0.001-0.014-0.002c-0.002-0.001-0.004-0.001-0.006-0.001
		c-0.004-0.001-0.01-0.002-0.014-0.002c0,0-0.002,0-0.004-0.001c-0.004,0-0.01-0.001-0.015-0.002c-0.002,0-0.004-0.001-0.005-0.001
		c-0.005-0.001-0.011-0.001-0.016-0.002c-0.002-0.001-0.002-0.001-0.004-0.001c-0.006,0-0.01-0.002-0.016-0.002
		c-0.002,0-0.004-0.001-0.005-0.001c-0.005-0.001-0.01-0.002-0.015-0.003c-0.002,0-0.004,0-0.006-0.001
		c-0.004-0.001-0.008-0.001-0.014-0.002c-0.002,0-0.005-0.001-0.007-0.001c-0.004,0-0.009-0.002-0.014-0.002
		c-0.003,0-0.005-0.001-0.005-0.001c-0.006-0.001-0.01-0.001-0.016-0.003c0,0-0.004,0-0.005-0.001c-0.005,0-0.009-0.001-0.015-0.001
		c-0.001-0.001-0.004-0.002-0.006-0.002c-0.004,0-0.008-0.001-0.014-0.002c-0.002,0-0.004,0-0.004-0.001
		c-0.007-0.001-0.011-0.002-0.017-0.002c-0.002-0.001-0.002-0.001-0.005-0.001c-0.006-0.001-0.01-0.002-0.014-0.003
		c-0.004,0-0.004,0-0.006-0.001c-0.006,0-0.01-0.001-0.015-0.002c-0.003,0-0.003,0-0.006,0c-0.005-0.002-0.009-0.002-0.013-0.003
		s-0.004,0-0.008-0.001c-0.005,0-0.009-0.002-0.014-0.002c-0.003-0.001-0.003-0.001-0.005-0.001
		c-0.007-0.001-0.011-0.001-0.015-0.002c-0.004-0.001-0.004-0.001-0.006-0.001c-0.006-0.001-0.01-0.002-0.014-0.002
		c-0.004-0.001-0.004-0.001-0.006-0.002c-0.006,0-0.01-0.001-0.014-0.002c-0.002,0-0.004,0-0.006-0.001
		c-0.006,0-0.011-0.001-0.016-0.002c-0.001,0-0.003-0.001-0.005-0.001c-0.005,0-0.011-0.001-0.015-0.002
		c-0.002,0-0.004,0-0.006-0.001c-0.004-0.001-0.01-0.001-0.015-0.002c-0.001-0.001-0.003-0.001-0.005-0.001
		c-0.005-0.001-0.01-0.002-0.014-0.002c-0.002,0-0.004-0.001-0.006-0.001c-0.006-0.001-0.01-0.001-0.015-0.003
		c-0.002,0-0.004,0-0.006-0.001c-0.005,0-0.011-0.001-0.015-0.001c-0.002-0.001-0.004-0.001-0.006-0.002
		c-0.004,0-0.01-0.001-0.014-0.002c-0.002,0-0.004-0.001-0.006-0.001c-0.005-0.001-0.01-0.001-0.014-0.002
		c-0.002,0-0.004-0.001-0.006-0.001c-0.004,0-0.01-0.001-0.015-0.002c-0.002,0-0.004-0.001-0.006-0.001
		c-0.004-0.001-0.009-0.001-0.015-0.002c-0.002,0-0.004-0.001-0.006-0.001c-0.004,0-0.008-0.002-0.012-0.002
		c-0.002,0-0.007-0.001-0.008-0.001c-0.004-0.001-0.008-0.001-0.012-0.002c-0.002,0-0.008-0.001-0.008-0.001
		c-0.004-0.001-0.01-0.002-0.014-0.002c0,0-0.006-0.001-0.007-0.002c-0.004,0-0.009,0-0.013-0.001
		c-0.002-0.001-0.006-0.001-0.008-0.001c-0.004-0.001-0.008-0.002-0.014-0.002c-0.002,0-0.004-0.001-0.006-0.002
		c-0.004,0-0.009,0-0.014-0.002c-0.001,0-0.004,0-0.006,0c-0.004-0.001-0.01-0.002-0.014-0.003c-0.002,0-0.004,0-0.007-0.001
		c-0.004,0-0.008,0-0.012-0.002c-0.002,0-0.007,0-0.009,0c-0.004-0.001-0.008-0.002-0.01-0.002c-0.004,0-0.008-0.002-0.01-0.002
		c-0.004,0-0.008,0-0.011-0.001s-0.007-0.001-0.01-0.002c-0.003,0-0.007-0.001-0.009-0.001c-0.006-0.001-0.006-0.001-0.012-0.002
		c-0.003,0-0.007,0-0.009-0.001c0.015,0.002,0.011,0.002,0.009,0.001c-0.004,0-0.008-0.001-0.01-0.001
		c-0.006-0.001-0.006-0.001-0.011-0.002c-0.003,0-0.007,0-0.009-0.001c-0.006-0.001-0.006-0.001-0.012-0.002
		c-0.002,0-0.006-0.001-0.009-0.001c-0.005-0.001-0.006-0.001-0.012-0.002c-0.002,0-0.005,0-0.007-0.001
		c-0.006-0.001-0.008-0.001-0.012-0.002c-0.004,0-0.006-0.001-0.009-0.001c-0.005,0-0.007-0.001-0.013-0.002
		c-0.002,0-0.004,0-0.006-0.001c-0.006-0.001-0.008-0.001-0.014-0.002c-0.002,0-0.004-0.001-0.006-0.001
		c-0.005,0-0.009-0.001-0.015-0.002c-0.002,0-0.004,0-0.005,0c-0.006-0.002-0.01-0.002-0.014-0.002
		c-0.004-0.001-0.004-0.001-0.006-0.002c-0.006,0-0.011-0.001-0.016-0.002c-0.001,0-0.002,0-0.004,0
		c-0.004-0.001-0.01-0.002-0.016-0.002c-0.002-0.001-0.002-0.001-0.004-0.001c-0.006-0.001-0.011-0.002-0.017-0.003
		c-0.001,0-0.002,0-0.004,0c-0.004,0-0.011-0.002-0.017-0.003c0,0,0,0-0.002,0C57.54,1.423,56.846,1.337,56.146,1.265L56.146,1.265z
		 M50.969,1v2h0.115l0.004-2c-0.033,0-0.068,0-0.102,0C50.98,1,50.975,1,50.969,1L50.969,1z"/>
</g>
</svg>
