<?xml version="1.0" encoding="utf-8"?>
<!-- Generator: Adobe Illustrator 15.0.0, SVG Export Plug-In . SVG Version: 6.00 Build 0)  -->
<!DOCTYPE svg PUBLIC "-//W3C//DTD SVG 1.1//EN" "http://www.w3.org/Graphics/SVG/1.1/DTD/svg11.dtd">
<svg version="1.1" id="Layer_1" xmlns="http://www.w3.org/2000/svg" xmlns:xlink="http://www.w3.org/1999/xlink" x="0px" y="0px"
	 width="500px" height="97.5px" viewBox="0 0 500 97.5" enable-background="new 0 0 500 97.5" xml:space="preserve">
<g>
	<g>
		<g>
			<path id="SVGID_1_" fill="#0A577C" d="M206.095,29.979c-5.077,0-9.208-3.345-9.208-7.459c0-0.553,0.447-1,0.999-1
				c0.553,0,1,0.447,1,1c0,3.011,3.234,5.459,7.209,5.459s7.209-2.448,7.209-5.459c0-0.553,0.447-1,1-1s1.001,0.447,1.001,1
				C215.305,26.634,211.174,29.979,206.095,29.979L206.095,29.979z M222.514,29.979c-5.079,0-9.21-3.345-9.21-7.459
				c0-0.553,0.447-1,1-1s1.001,0.447,1.001,1c0,3.011,3.233,5.459,7.209,5.459c3.975,0,7.209-2.448,7.209-5.459
				c0-0.553,0.447-1,0.998-1c0.553,0,1.001,0.447,1.001,1C231.722,26.634,227.59,29.979,222.514,29.979L222.514,29.979z
				 M238.931,29.979c-5.077,0-9.208-3.345-9.208-7.459c0-0.553,0.447-1,0.998-1c0.553,0,1.001,0.447,1.001,1
				c0,3.011,3.233,5.459,7.209,5.459c3.975,0,7.209-2.448,7.209-5.459c0-0.553,0.447-1,1-1s1.001,0.447,1.001,1
				C248.141,26.634,244.009,29.979,238.931,29.979L238.931,29.979z"/>
		</g>
	</g>
	<g>
		<g>
			<path id="SVGID_3_" fill="#0A577C" d="M344.096,79.979c-5.079,0-9.21-3.347-9.21-7.459c0-0.553,0.446-1,1-1
				c0.552,0,1.001,0.447,1.001,1c0,3.01,3.231,5.459,7.209,5.459c3.975,0,7.209-2.449,7.209-5.459c0-0.553,0.447-1,0.998-1
				c0.553,0,1.001,0.447,1.001,1C353.304,76.633,349.172,79.979,344.096,79.979L344.096,79.979z M360.513,79.979
				c-5.077,0-9.208-3.347-9.208-7.459c0-0.553,0.447-1,0.998-1c0.553,0,1.001,0.447,1.001,1c0,3.01,3.232,5.459,7.209,5.459
				c3.975,0,7.209-2.449,7.209-5.459c0-0.553,0.447-1,1-1s1,0.447,1,1C369.722,76.633,365.591,79.979,360.513,79.979L360.513,79.979
				z M376.932,79.979c-5.079,0-9.21-3.347-9.21-7.459c0-0.553,0.447-1,1-1s1,0.447,1,1c0,3.01,3.233,5.459,7.21,5.459
				c3.975,0,7.209-2.449,7.209-5.459c0-0.553,0.447-1,0.998-1c0.553,0,1,0.447,1,1C386.139,76.633,382.008,79.979,376.932,79.979
				L376.932,79.979z"/>
		</g>
	</g>
	<g>
		<g>
			<path id="SVGID_5_" fill="#0A577C" d="M128.557,37.724l-18.57-13.3l18.6-13.32L128.557,37.724L128.557,37.724z M136.054,30.468
				l-8.444-6.049l8.457-6.059L136.054,30.468L136.054,30.468z"/>
		</g>
	</g>
	<g>
		<g>
			<path id="SVGID_7_" fill="#0A577C" d="M482.556,32.724l-18.568-13.3l18.598-13.32L482.556,32.724L482.556,32.724z
				 M490.054,25.468l-8.446-6.049l8.46-6.059L490.054,25.468L490.054,25.468z"/>
		</g>
	</g>
	<g>
		<g>
			<path id="SVGID_9_" fill="#0A577C" d="M295.556,88.727l-18.568-13.303l18.598-13.32L295.556,88.727L295.556,88.727z
				 M303.054,81.469l-8.446-6.051l8.46-6.059L303.054,81.469L303.054,81.469z"/>
		</g>
	</g>
	<g>
		<g>
			<path id="SVGID_11_" fill="#0A577C" d="M27.556,91.727L8.987,78.425l18.599-13.319L27.556,91.727L27.556,91.727z M35.053,84.469
				l-8.443-6.05l8.457-6.06L35.053,84.469L35.053,84.469z"/>
		</g>
	</g>
</g>
</svg>
