<?xml version="1.0" encoding="utf-8"?>
<!-- Generator: Adobe Illustrator 15.0.0, SVG Export Plug-In . SVG Version: 6.00 Build 0)  -->
<!DOCTYPE svg PUBLIC "-//W3C//DTD SVG 1.1//EN" "http://www.w3.org/Graphics/SVG/1.1/DTD/svg11.dtd">
<svg version="1.1" id="Layer_1" xmlns="http://www.w3.org/2000/svg" xmlns:xlink="http://www.w3.org/1999/xlink" x="0px" y="0px"
	 width="90px" height="32px" viewBox="0 0 90 32" enable-background="new 0 0 90 32" xml:space="preserve">
<g>
	<path fill="#13911A" d="M76.18,18.228c-1.451,0-2.848,0.226-4.161,0.639C66.987,7.745,55.774,0,42.738,0
		C30.212,0,19.369,7.151,14.076,17.574C6.265,17.8,0,24.163,0,32h10.625h18.368h33.365H74.85H90
		C90,24.395,83.813,18.228,76.18,18.228z"/>
	<path fill="#23A929" d="M14.076,20.567C19.369,10.144,30.212,2.993,42.738,2.993c13.037,0,24.25,7.746,29.281,18.867
		c1.313-0.413,2.71-0.639,4.161-0.639c6.6,0,12.11,4.613,13.483,10.779H90c0-7.605-6.188-13.772-13.82-13.772
		c-1.451,0-2.848,0.226-4.161,0.639C66.987,7.745,55.774,0,42.738,0C30.212,0,19.369,7.151,14.076,17.574C6.265,17.8,0,24.163,0,32
		h0.318C1.675,25.596,7.289,20.764,14.076,20.567z"/>
</g>
</svg>
