<?xml version="1.0" encoding="utf-8"?>
<!-- Generator: Adobe Illustrator 15.0.0, SVG Export Plug-In . SVG Version: 6.00 Build 0)  -->
<!DOCTYPE svg PUBLIC "-//W3C//DTD SVG 1.1//EN" "http://www.w3.org/Graphics/SVG/1.1/DTD/svg11.dtd">
<svg version="1.1" id="Layer_1" xmlns="http://www.w3.org/2000/svg" xmlns:xlink="http://www.w3.org/1999/xlink" x="0px" y="0px"
	 width="68px" height="68px" viewBox="0 0 68 68" enable-background="new 0 0 68 68" xml:space="preserve">
<g>
	<g>
		<defs>
			<path id="SVGID_1_" d="M9.384,7.435h49.232c2.72,0,4.925,2.137,4.925,4.773v43.495c0,2.637-2.205,4.772-4.925,4.772H9.384
				c-2.721,0-4.925-2.136-4.925-4.772V12.208C4.459,9.571,6.664,7.435,9.384,7.435L9.384,7.435z"/>
		</defs>
		<clipPath id="SVGID_2_">
			<use xlink:href="#SVGID_1_"  overflow="visible"/>
		</clipPath>
	</g>
	<path fill-rule="evenodd" clip-rule="evenodd" fill="#5CACF5" d="M9.384,7.435h49.232c2.72,0,4.925,2.137,4.925,4.773v43.495
		c0,2.637-2.205,4.772-4.925,4.772H9.384c-2.721,0-4.925-2.136-4.925-4.772V12.208C4.459,9.571,6.664,7.435,9.384,7.435L9.384,7.435
		z"/>
	<path fill-rule="evenodd" clip-rule="evenodd" fill="#84C1FA" d="M58.616,7.435H9.384c-2.721,0-4.925,2.137-4.925,4.773v8.139
		h59.082v-8.139C63.541,9.571,61.336,7.435,58.616,7.435z"/>
	<g>
		<defs>
			<polygon id="SVGID_3_" points="7.509,23.321 60.584,23.321 60.584,56.396 7.509,56.396 7.509,23.321 			"/>
		</defs>
		<use xlink:href="#SVGID_3_"  overflow="visible" fill-rule="evenodd" clip-rule="evenodd" fill="#FFFFFF"/>
		<clipPath id="SVGID_4_">
			<use xlink:href="#SVGID_3_"  overflow="visible"/>
		</clipPath>
	</g>
	<g>
		<defs>
			<path id="SVGID_5_" d="M38.734,37.835h-8.168h-9.611h-8.17c-0.664,0-1.202-0.539-1.202-1.202c0-0.664,0.539-1.202,1.202-1.202
				h8.17h9.611h8.168c0.664,0,1.202,0.538,1.202,1.202C39.937,37.296,39.398,37.835,38.734,37.835L38.734,37.835z M30.566,32.066
				H12.784c-0.664,0-1.202-0.536-1.202-1.202c0-0.661,0.539-1.2,1.202-1.2h17.782c0.661,0,1.2,0.539,1.2,1.2
				C31.766,31.53,31.227,32.066,30.566,32.066L30.566,32.066z M12.784,41.678h17.782c0.661,0,1.2,0.539,1.2,1.203
				c0,0.663-0.539,1.199-1.2,1.199H12.784c-0.664,0-1.202-0.536-1.202-1.199C11.582,42.217,12.121,41.678,12.784,41.678
				L12.784,41.678z M12.784,47.926h6.248h11.534h6.246c0.663,0,1.202,0.539,1.202,1.202c0,0.661-0.539,1.2-1.202,1.2h-6.246H19.032
				h-6.248c-0.664,0-1.202-0.539-1.202-1.2C11.582,48.465,12.121,47.926,12.784,47.926L12.784,47.926z"/>
		</defs>
		<use xlink:href="#SVGID_5_"  overflow="visible" fill-rule="evenodd" clip-rule="evenodd" fill="#3173B2"/>
		<clipPath id="SVGID_6_">
			<use xlink:href="#SVGID_5_"  overflow="visible"/>
		</clipPath>
	</g>
	<g>
		<defs>
			<path id="SVGID_7_" d="M11.025,10.283c1.812,0,3.282,1.425,3.282,3.184c0,1.757-1.47,3.182-3.282,3.182
				c-1.813,0-3.282-1.425-3.282-3.182C7.743,11.708,9.211,10.283,11.025,10.283L11.025,10.283z"/>
		</defs>
		<use xlink:href="#SVGID_7_"  overflow="visible" fill-rule="evenodd" clip-rule="evenodd" fill="#E64545"/>
		<clipPath id="SVGID_8_">
			<use xlink:href="#SVGID_7_"  overflow="visible"/>
		</clipPath>
	</g>
	<g>
		<defs>
			<path id="SVGID_9_" d="M20.871,10.283c1.813,0,3.284,1.425,3.284,3.184c0,1.757-1.47,3.182-3.284,3.182
				c-1.812,0-3.282-1.425-3.282-3.182C17.589,11.708,19.059,10.283,20.871,10.283L20.871,10.283z"/>
		</defs>
		<use xlink:href="#SVGID_9_"  overflow="visible" fill-rule="evenodd" clip-rule="evenodd" fill="#FFD02C"/>
		<clipPath id="SVGID_10_">
			<use xlink:href="#SVGID_9_"  overflow="visible"/>
		</clipPath>
	</g>
	<g>
		<defs>
			<path id="SVGID_11_" d="M30.718,10.283c1.813,0,3.282,1.425,3.282,3.184c0,1.757-1.468,3.182-3.282,3.182
				c-1.814,0-3.282-1.425-3.282-3.182C27.437,11.708,28.904,10.283,30.718,10.283L30.718,10.283z"/>
		</defs>
		<use xlink:href="#SVGID_11_"  overflow="visible" fill-rule="evenodd" clip-rule="evenodd" fill="#AEE42D"/>
		<clipPath id="SVGID_12_">
			<use xlink:href="#SVGID_11_"  overflow="visible"/>
		</clipPath>
	</g>
</g>
</svg>
