<?xml version="1.0" encoding="utf-8"?>
<!-- Generator: Adobe Illustrator 15.0.0, SVG Export Plug-In . SVG Version: 6.00 Build 0)  -->
<!DOCTYPE svg PUBLIC "-//W3C//DTD SVG 1.1//EN" "http://www.w3.org/Graphics/SVG/1.1/DTD/svg11.dtd">
<svg version="1.1" id="Layer_1" xmlns="http://www.w3.org/2000/svg" xmlns:xlink="http://www.w3.org/1999/xlink" x="0px" y="0px"
	 width="272px" height="146px" viewBox="0 0 272 146" enable-background="new 0 0 272 146" xml:space="preserve">
<g>
	<g>
		<g>
			<path fill="#FFFFFF" d="M39.418,0c-2.936,0-5.346,2.424-5.346,5.37v124.452c0,2.953,2.41,5.366,5.346,5.366H232.56
				c2.95,0,5.369-2.413,5.369-5.366V5.37c0-2.946-2.419-5.37-5.369-5.37H39.418z"/>
		</g>
		<g>
			<g>
				<path fill="#7FD9F8" d="M226.798,122.383H45.203v-109.3h181.595V122.383z"/>
			</g>
		</g>
		<g>
			<rect x="0" y="135.195" fill="#FFFFFF" width="271.96" height="6.974"/>
			
				<line fill="#FFFFFF" stroke="#27AAE1" stroke-width="1.076" stroke-miterlimit="10" x1="0" y1="135.195" x2="271.961" y2="135.195"/>
			<path fill="#FFFFFF" d="M272,142.169L272,142.169c0,2.115-4.166,3.831-9.303,3.831H9.302C4.167,146,0,144.284,0,142.169l0,0"/>
		</g>
	</g>
	<g>
		<rect x="53.211" y="23.667" fill="#1477AF" width="48.609" height="48.674"/>
		<g>
			<defs>
				<rect id="SVGID_1_" x="53.211" y="23.667" width="48.609" height="48.674"/>
			</defs>
			<clipPath id="SVGID_2_">
				<use xlink:href="#SVGID_1_"  overflow="visible"/>
			</clipPath>
			<g clip-path="url(#SVGID_2_)">
				<path fill="#F7DFA0" d="M51.15,90.114c-0.883,1.039-0.854,1.924-0.854,1.924s-0.117,0.901-0.553,0.753
					c-0.438-0.147-1.582,3.642-2.252,3.318c-1.132-0.55,1.293-4.102,1.293-4.102l-0.385-0.122c0,0-1.51,3.927-2.387,3.503
					c-0.876-0.424,1.558-4.287,1.558-4.287l0.018-0.565c0,0-0.376,0.647-0.78,1.091c-0.404,0.441-1.037,2.611-1.732,2.21
					c-0.697-0.401,1.57-4.058,1.921-4.523c0.354-0.469,2.034-1.786,2.034-1.786s1.75,0.557,3.315-0.284
					C53.186,86.792,52.031,89.072,51.15,90.114L51.15,90.114z M50.948,92.771c-0.901,1.898-1.101,2.644-1.713,2.522
					c-0.617-0.123,0.813-2.412,0.553-2.471c-0.061-1.196-2.157-3.39-2.157-3.39s-0.558-0.652-1.661,0.949
					c-0.65,0.942-1.531,0.353-0.825-0.826c1.067-1.781,2.442-2.819,5.373-3.09l2.148,1.372
					C52.666,87.839,52.474,91.29,50.948,92.771L50.948,92.771z"/>
				<path fill-rule="evenodd" clip-rule="evenodd" fill="none" d="M73.744,56.891c0,0,0.36,2.475-0.678,4.031
					c-1.039,1.556-5.215,1.207-5.312,1.079c-0.06-0.079,1.395,4.494,4.169,7.865c2.038,2.477,2.68,2.837,2.68,2.837
					s4.3-1.334,5.338-4.101c0.047-0.123,0.647-0.626,0.758-0.691c1.293-0.77,3.224-5.552,3.866-5.313
					c1.385,0.519-4.642,0.348-5.073-1.291c-0.783-2.974,1.004-4.589,1.004-4.589L73.744,56.891L73.744,56.891z"/>
				<path fill="none" d="M86.831,93.617L66.064,93.54l-1.789-30.471l6.892-1.524l4.516,2.58l1.033,6.114l0.379-5.608l3.563-2.946
					l6.53,1.474L86.831,93.617L86.831,93.617z M87.092,63.195l12.979,12.009L86.554,86.855l-0.268-5.108l6.982-6.005l-6.176-6.094
					V63.195L87.092,63.195z"/>
				<polygon fill-rule="evenodd" clip-rule="evenodd" fill="none" points="80.183,61.202 77.05,64.933 79.577,67.462 83.374,62.369 
					80.183,61.202 				"/>
				<path fill-rule="evenodd" clip-rule="evenodd" fill="none" d="M80.406,62.162c-3.194,1.85-5.7,0.368-7.296-1.314
					c0.981-1.559,0.635-3.958,0.635-3.958l6.345-0.163c0.055,0.087,0.111,0.175,0.162,0.263c-0.46,0.574-1.354,2.05-0.758,4.316
					C79.583,61.656,79.931,61.938,80.406,62.162L80.406,62.162z"/>
				<path fill-rule="evenodd" clip-rule="evenodd" fill="#FFECBA" d="M73.744,56.891c0,0,0.36,2.475-0.678,4.031
					c-1.039,1.556-5.215,1.207-5.312,1.079c-0.06-0.079,1.395,4.494,4.169,7.865c2.038,2.477,2.68,2.837,2.68,2.837
					s4.3-1.334,5.338-4.101c0.047-0.123,0.16-0.62,0.271-0.685c1.293-0.771,3.711-5.559,4.353-5.32
					c1.385,0.519-4.642,0.348-5.073-1.291c-0.783-2.974,1.004-4.589,1.004-4.589L73.744,56.891L73.744,56.891z"/>
				<path fill-rule="evenodd" clip-rule="evenodd" fill="none" d="M80.406,62.162c-3.194,1.85-5.7,0.368-7.296-1.314
					c0.981-1.559,0.635-3.958,0.635-3.958l6.345-0.163c0.055,0.087,0.111,0.175,0.162,0.263c-0.46,0.574-1.354,2.05-0.758,4.316
					C79.583,61.656,79.931,61.938,80.406,62.162L80.406,62.162z"/>
				<polygon fill="#104C9D" points="86.831,93.617 66.064,93.54 64.275,63.069 71.167,61.545 75.684,64.125 76.717,70.239 
					77.096,64.631 80.659,61.686 87.188,63.16 86.831,93.617 				"/>
				<polygon fill="#104C9D" points="87.092,63.195 100.07,75.204 86.554,86.855 86.286,81.747 93.268,75.742 87.092,69.648 
					87.092,63.195 				"/>
				<polygon fill="#104C9D" points="62.609,77.652 53.042,87.829 50.827,85.195 58.45,75.109 64.275,63.066 68.062,69.878 
					62.609,77.652 				"/>
				<path fill-rule="evenodd" clip-rule="evenodd" fill="none" d="M80.406,62.162c-3.194,1.85-5.7,0.368-7.296-1.314
					c0.981-1.559,0.635-3.958,0.635-3.958l6.345-0.163c0.055,0.087,0.111,0.175,0.162,0.263c-0.46,0.574-1.354,2.05-0.758,4.316
					C79.583,61.656,79.931,61.938,80.406,62.162L80.406,62.162z"/>
				<path fill-rule="evenodd" clip-rule="evenodd" fill="#F3DEAD" d="M80.406,62.162c-3.194,1.85-5.7,0.368-7.296-1.314
					c0.981-1.559,0.635-3.958,0.635-3.958l6.345-0.163c0.055,0.087,0.111,0.175,0.162,0.263c-0.46,0.574-1.354,2.05-0.758,4.316
					C79.583,61.656,79.931,61.938,80.406,62.162L80.406,62.162z"/>
				<path fill-rule="evenodd" clip-rule="evenodd" fill="#FFECBA" d="M63.848,46.192c0,0,3.488,14.042,12.599,14.754
					c9.112,0.712,13.336-10.179,14.123-11.897c0.786-1.718,2.417-14.797,2.417-14.797l-14.44-5.028c0,0-13.27,3.624-13.567,4.238
					C64.682,34.078,63.848,46.192,63.848,46.192L63.848,46.192z"/>
				<path fill-rule="evenodd" clip-rule="evenodd" fill="#D84E3B" d="M73.126,52.616c0,0,5.107,1.874,7.874,0.264
					c-0.819,2.122-1.749,3.335-3.792,3.127C74.842,55.768,73.126,52.616,73.126,52.616L73.126,52.616z"/>
				<path fill-rule="evenodd" clip-rule="evenodd" fill="#664528" d="M68.377,41.867c0,0,4.724-1.521,6.182-1.044
					c-0.063-0.92-0.442-1.429-0.442-1.429S70.534,40.057,68.377,41.867L68.377,41.867z"/>
				<path fill-rule="evenodd" clip-rule="evenodd" fill="#664528" d="M88.443,42.595c0,0-4.724-1.521-6.183-1.044
					c0.063-0.922,0.444-1.43,0.444-1.43S86.286,40.785,88.443,42.595L88.443,42.595z"/>
				<path fill-rule="evenodd" clip-rule="evenodd" fill="#A3704D" d="M78.767,44.091l0.165,4.179l0.702,1.778l-2.188,1.82
					l-1.653-1.902c0,0,1.197,0.456,1.941,0.456c0.744,0,1.281-0.745,1.281-0.745l-0.414-1.365L78.767,44.091L78.767,44.091z"/>
				<path fill-rule="evenodd" clip-rule="evenodd" fill="#302E30" d="M64.386,48.709c0,0-0.605-11.066,2.12-14.401
					c2.876,0.378,7.039-0.759,7.039-0.759l-0.68,1.137c0,0,2.195,4.548,7.114,2.124c4.92-2.426,7.265-4.777,8.78-2.502
					c1.438-0.304,2.792,1.64,2.412,6.869c-0.377,5.231-0.303,6.747-0.303,6.747s4.249-6.339,3.491-15.133
					c-0.756-8.793-10.445-6.063-11.125-12.052c-1.59,1.895-3.483,2.197-3.104-2.654c-2.346,0.303-3.406,4.776-3.406,4.776
					s-1.136-2.729-2.421-2.805c-0.455,1.744-2.348,4.321-5.375,5.685c-3.029,1.365-4.542,2.199-4.467,3.488
					c-2.195,1.895-2.724,4.775-2.119,10.764C62.948,45.98,63.706,47.876,64.386,48.709L64.386,48.709z"/>
				<path fill-rule="evenodd" clip-rule="evenodd" fill="#675236" d="M72.32,48.106c-0.481,0-0.873-1.2-0.873-2.68
					c0-0.263,0.013-0.517,0.036-0.756c0.094,0.072,0.212,0.117,0.341,0.117c0.314,0,0.568-0.255,0.568-0.568
					c0-0.314-0.253-0.57-0.568-0.57c-0.057,0-0.112,0.011-0.164,0.027c0.16-0.568,0.396-0.929,0.66-0.929
					c0.482,0,0.875,1.199,0.875,2.679C73.194,46.906,72.802,48.106,72.32,48.106L72.32,48.106z"/>
				<path fill-rule="evenodd" clip-rule="evenodd" fill="#675236" d="M84.701,46.174c-0.282,1.571-0.929,2.769-1.443,2.677
					c-0.514-0.091-0.701-1.439-0.418-3.009c0.05-0.279,0.114-0.545,0.184-0.796c0.088,0.095,0.205,0.164,0.342,0.189
					c0.334,0.06,0.653-0.162,0.715-0.495c0.06-0.333-0.164-0.653-0.498-0.713c-0.062-0.011-0.122-0.009-0.179-0.002
					c0.279-0.572,0.599-0.91,0.881-0.86C84.798,43.257,84.985,44.605,84.701,46.174L84.701,46.174z"/>
				<path fill-rule="evenodd" clip-rule="evenodd" fill="#3B96F0" d="M51.375,84.256c0.13,0.077,2.843,2.592,2.843,2.592
					l-1.861,1.89l-2.409-2.574C49.947,86.163,51.243,84.177,51.375,84.256L51.375,84.256z"/>
				<path fill="none" d="M82.676,23.749c0,0,2.343,4.593,8.391,4.479C86.434,29.247,83.525,28.897,82.676,23.749L82.676,23.749z
					 M67.221,28.68c4.239-1.301,5.82-1.866,8.533-3.904C75.754,24.776,72.645,29.247,67.221,28.68L67.221,28.68z M80.229,23.755
					c-2.267-1.768-0.792-4.777-0.792-4.777C78.99,20.721,79.729,22.885,80.229,23.755L80.229,23.755z"/>
				<polygon fill-rule="evenodd" clip-rule="evenodd" fill="#3B96F0" points="80.183,61.202 77.05,64.933 79.577,67.462 
					83.374,62.369 80.183,61.202 				"/>
				<polygon fill-rule="evenodd" clip-rule="evenodd" fill="#3B96F0" points="72.578,61.134 76.084,64.4 72.907,66.759 
					69.308,61.905 72.578,61.134 				"/>
				<polygon fill-rule="evenodd" clip-rule="evenodd" fill="#999999" points="66.032,93.049 86.872,93.049 86.872,95.628 
					66.032,95.628 66.032,93.049 				"/>
				<polygon fill-rule="evenodd" clip-rule="evenodd" fill="#D1D1D1" points="74.2,93.046 78.64,93.046 78.64,95.929 74.2,95.929 
					74.2,93.046 				"/>
				<polygon fill-rule="evenodd" clip-rule="evenodd" fill="#5F3B30" points="65.944,95.595 68.109,110.338 74.891,111.099 
					76.173,99.031 78.057,99.239 79.112,111.028 85.066,111.099 86.875,95.585 65.944,95.595 				"/>
			</g>
		</g>
		<rect x="53.211" y="77.935" fill="#1477AF" width="48.609" height="13.823"/>
		<rect x="53.211" y="97.053" fill="#1477AF" width="48.609" height="13.822"/>
	</g>
	<rect x="107.362" y="23.667" fill="#FFFFFF" width="108.971" height="87.208"/>
	<rect x="112.537" y="28.752" fill="#019CDF" width="97.939" height="14.956"/>
	<ellipse fill="#FFC10E" cx="120.535" cy="56.583" rx="7.998" ry="8.009"/>
	<ellipse fill="#1477AF" cx="120.535" cy="77.163" rx="7.998" ry="8.009"/>
	<ellipse fill="#E14A53" cx="120.535" cy="97.742" rx="7.998" ry="8.008"/>
	<rect x="132.758" y="48.574" fill="#ACDEF3" width="77.718" height="16.018"/>
	<rect x="132.758" y="69.153" fill="#ACDEF3" width="77.718" height="16.019"/>
	<rect x="132.758" y="89.733" fill="#ACDEF3" width="77.718" height="16.017"/>
</g>
</svg>
