<?xml version="1.0" encoding="utf-8"?>
<!-- Generator: Adobe Illustrator 15.0.0, SVG Export Plug-In . SVG Version: 6.00 Build 0)  -->
<!DOCTYPE svg PUBLIC "-//W3C//DTD SVG 1.1//EN" "http://www.w3.org/Graphics/SVG/1.1/DTD/svg11.dtd">
<svg version="1.1" id="Layer_1" xmlns="http://www.w3.org/2000/svg" xmlns:xlink="http://www.w3.org/1999/xlink" x="0px" y="0px"
	 width="276px" height="212px" viewBox="0 0 276 212" enable-background="new 0 0 276 212" xml:space="preserve">
<path fill="#0A93CE" d="M169.998,93.949c-2.964,0-5.375-2.411-5.375-5.375s2.411-5.375,5.375-5.375c2.963,0,5.375,2.411,5.375,5.375
	S172.961,93.949,169.998,93.949L169.998,93.949z M169.998,85.198c-1.861,0-3.374,1.515-3.374,3.376s1.513,3.374,3.374,3.374
	s3.374-1.513,3.374-3.374S171.859,85.198,169.998,85.198L169.998,85.198z M182.623,108.699c-2.963,0-5.375-2.411-5.375-5.375
	s2.412-5.375,5.375-5.375c2.964,0,5.375,2.411,5.375,5.375S185.587,108.699,182.623,108.699L182.623,108.699z M182.623,99.948
	c-1.861,0-3.374,1.515-3.374,3.376s1.513,3.375,3.374,3.375s3.374-1.514,3.374-3.375S184.484,99.948,182.623,99.948L182.623,99.948z
	 M186.955,87.407l-19,19c-0.195,0.195-0.452,0.292-0.707,0.292c-0.256,0-0.513-0.097-0.708-0.292c-0.391-0.391-0.391-1.024,0-1.415
	l19.002-19c0.391-0.391,1.022-0.391,1.413,0C187.345,86.382,187.345,87.015,186.955,87.407L186.955,87.407z M176.748,122.163
	c-15.096,0-27.376-12.281-27.376-27.377c0-15.096,12.281-27.377,27.376-27.377s27.377,12.281,27.377,27.377
	C204.125,109.881,191.844,122.163,176.748,122.163L176.748,122.163z M176.748,69.424c-13.986,0-25.361,11.377-25.361,25.362
	c0,13.984,11.375,25.361,25.361,25.361c13.984,0,25.362-11.377,25.362-25.361C202.11,80.801,190.732,69.424,176.748,69.424
	L176.748,69.424z"/>
<path fill="#0A93CE" d="M241.188,55.535h-29.814c-0.58,0-1.108-0.331-1.362-0.852c-0.255-0.521-0.193-1.14,0.161-1.599
	l12.909-16.674l-11.903-13.681c-0.393-0.448-0.485-1.084-0.238-1.627c0.248-0.541,0.788-0.888,1.384-0.888h25.445
	c0.84,0,1.519,0.68,1.519,1.519v4.557c0,0.84-0.679,1.521-1.519,1.521c-0.841,0-1.52-0.681-1.52-1.521v-3.038h-20.591l10.532,12.106
	c0.478,0.546,0.5,1.353,0.057,1.928l-11.777,15.209h25.196V44.52c0-0.839,0.681-1.519,1.521-1.519c0.838,0,1.519,0.68,1.519,1.519
	v9.494C242.707,54.854,242.026,55.535,241.188,55.535L241.188,55.535z M226.248,73.4c-19.914,0-36.116-16.202-36.116-36.115
	c0-19.915,16.202-36.115,36.116-36.115c19.913,0,36.115,16.2,36.115,36.115C262.363,57.198,246.161,73.4,226.248,73.4L226.248,73.4z
	 M226.248,3.169c-18.812,0-34.115,15.304-34.115,34.116c0,18.81,15.304,34.114,34.115,34.114c18.811,0,34.115-15.304,34.115-34.114
	C260.363,18.474,245.059,3.169,226.248,3.169L226.248,3.169z"/>
<path fill="#0A93CE" d="M69.581,112.285H48.416c-0.552,0-1-0.448-1-1c0-0.552,0.448-1,1-1h21.166c0.554,0,1,0.448,1,1
	C70.581,111.837,70.135,112.285,69.581,112.285L69.581,112.285z M58.999,122.783c-1.149,0-2.084-0.935-2.084-2.082
	c0-1.149,0.935-2.084,2.084-2.084s2.083,0.935,2.083,2.084C61.082,121.848,60.148,122.783,58.999,122.783L58.999,122.783z
	 M58.999,104.618c-1.149,0-2.084-0.935-2.084-2.084s0.935-2.082,2.084-2.082s2.083,0.933,2.083,2.082S60.148,104.618,58.999,104.618
	L58.999,104.618z M59.749,130.329c-10.777,0-19.545-8.767-19.545-19.544c0-10.777,8.768-19.544,19.545-19.544
	c10.777,0,19.544,8.768,19.544,19.544C79.293,121.562,70.525,130.329,59.749,130.329L59.749,130.329z M59.749,93.241
	c-9.675,0-17.546,7.87-17.546,17.544c0,9.673,7.872,17.544,17.546,17.544c9.673,0,17.544-7.872,17.544-17.544
	C77.292,101.11,69.421,93.241,59.749,93.241L59.749,93.241z"/>
<path fill="#0A93CE" d="M158.165,147.405v-2.95c0-0.833-0.311-1.214-0.822-1.214c-0.522,0-1.043,0.451-1.246,1.104v3.061h-1.344
	v-2.95c0-0.843-0.311-1.214-0.813-1.214c-0.521,0-1.054,0.442-1.253,1.093v3.071h-1.346v-5.258h1.216v0.975
	c0.39-0.683,1.093-1.065,1.956-1.065c0.872,0,1.344,0.492,1.485,1.113c0.42-0.721,1.103-1.113,1.936-1.113
	c1.294,0,1.576,1.054,1.576,2.067v3.281H158.165L158.165,147.405z M164.902,147.476c-0.502-0.009-0.762-0.251-0.833-0.622
	l-0.03-0.292c-0.472,0.613-1.164,0.944-1.926,0.944c-1.024,0-1.796-0.712-1.796-1.666c0-1.004,0.924-1.695,2.236-1.695
	c0.472,0,0.944,0.08,1.285,0.23v-0.302c0-0.691-0.401-1.083-1.173-1.083c-0.562,0-1.084,0.2-1.646,0.593l-0.413-0.854
	c0.684-0.452,1.405-0.673,2.188-0.673c1.504,0,2.387,0.773,2.387,2.168v1.636c0,0.28,0.1,0.391,0.363,0.401v1.144
	C165.295,147.455,165.064,147.476,164.902,147.476L164.902,147.476z M163.839,145.098c-0.322-0.12-0.721-0.2-1.063-0.2
	c-0.691,0-1.184,0.352-1.184,0.833c0,0.451,0.392,0.792,0.903,0.792c0.452,0,0.893-0.171,1.123-0.441
	c0.141-0.111,0.221-0.251,0.221-0.383V145.098L163.839,145.098z M171.146,147.405h-1.384l-1.154-1.636l-0.089-0.172l-0.092,0.172
	l-1.152,1.636h-1.385l1.905-2.618l-1.876-2.64h1.386l1.122,1.646l0.092,0.181l0.089-0.181l1.125-1.646h1.383l-1.864,2.64
	L171.146,147.405L171.146,147.405z M161.244,160.153c-8.476,0-15.371-6.896-15.371-15.373c0-8.476,6.896-15.371,15.371-15.371
	c8.477,0,15.373,6.896,15.373,15.371C176.616,153.258,169.721,160.153,161.244,160.153L161.244,160.153z M161.244,131.082
	c-7.552,0-13.698,6.146-13.698,13.698c0,7.556,6.146,13.699,13.698,13.699c7.555,0,13.7-6.144,13.7-13.699
	C174.943,137.229,168.799,131.082,161.244,131.082L161.244,131.082z"/>
<path fill="#0A93CE" d="M225.258,204.951c-0.555,0-1-0.446-1-1v-25.499c0-0.553,0.445-1,1-1c0.552,0,1,0.447,1,1v25.499
	C226.258,204.505,225.81,204.951,225.258,204.951L225.258,204.951z M237.258,192.202h-23.501c-0.552,0-1-0.448-1-1.001
	c0-0.552,0.448-1,1-1h23.501c0.553,0,0.999,0.448,0.999,1C238.257,191.754,237.811,192.202,237.258,192.202L237.258,192.202z
	 M225.246,210.83c-10.775,0-19.542-8.77-19.542-19.545c0-10.777,8.767-19.545,19.542-19.545c10.779,0,19.547,8.768,19.547,19.545
	C244.793,202.061,236.025,210.83,225.246,210.83L225.246,210.83z M225.246,173.741c-9.673,0-17.542,7.869-17.542,17.544
	c0,9.673,7.869,17.544,17.542,17.544c9.675,0,17.547-7.871,17.547-17.544C242.793,181.61,234.921,173.741,225.246,173.741
	L225.246,173.741z"/>
<path fill="#0A93CE" d="M260.257,126.202h-23.499c-0.554,0-1-0.448-1-1s0.446-1,1-1h23.499c0.552,0,1,0.448,1,1
	S260.809,126.202,260.257,126.202L260.257,126.202z M248.247,148.329c-12.707,0-23.043-10.339-23.043-23.045
	c0-12.707,10.336-23.044,23.043-23.044s23.045,10.337,23.045,23.044C271.292,137.99,260.954,148.329,248.247,148.329
	L248.247,148.329z M248.247,104.257c-11.593,0-21.026,9.433-21.026,21.027c0,11.595,9.434,21.028,21.026,21.028
	c11.596,0,21.028-9.434,21.028-21.028C269.275,113.69,259.843,104.257,248.247,104.257L248.247,104.257z"/>
<path fill="#0A93CE" d="M115.975,120.491c-0.454,0.307-1.069,0.189-1.379-0.257c-0.082-0.111-0.507-0.625-1.279-0.418
	c-0.673,0.178-1.242,2.197-1.699,3.818c-0.158,0.562-0.32,1.134-0.499,1.701c-0.399,1.279-1.071,4.108-1.781,7.105
	c-0.801,3.382-1.63,6.879-2.142,8.412c-0.588,1.765-1.861,2.369-2.93,2.369c-0.154,0-0.301-0.012-0.444-0.036
	c-1.528-0.247-2.636-1.599-2.636-3.212c0-0.553,0.448-1,1-1c0.552,0,1,0.447,1,1c0,0.712,0.481,1.162,0.956,1.238
	c0.677,0.105,1.019-0.575,1.158-0.993c0.481-1.446,1.299-4.9,2.091-8.239c0.72-3.032,1.398-5.896,1.82-7.241
	c0.171-0.549,0.327-1.104,0.479-1.647c0.718-2.541,1.337-4.737,3.114-5.209c1.751-0.463,2.985,0.548,3.439,1.22
	C116.553,119.56,116.432,120.181,115.975,120.491L115.975,120.491z M113.748,130.411h-8.5c-0.552,0-1-0.446-1-0.998
	c0-0.555,0.448-1,1-1h8.5c0.552,0,1,0.445,1,1C114.748,129.965,114.3,130.411,113.748,130.411L113.748,130.411z M128.267,140.057
	c-0.195,0.194-0.45,0.293-0.707,0.293s-0.511-0.099-0.707-0.293l-9.938-9.938c-0.391-0.391-0.391-1.024,0-1.414
	c0.39-0.391,1.024-0.391,1.415,0l9.937,9.938C128.657,139.033,128.657,139.666,128.267,140.057L128.267,140.057z M127.33,130.119
	l-9.875,9.876c-0.195,0.195-0.45,0.292-0.707,0.292s-0.511-0.097-0.707-0.292c-0.392-0.393-0.392-1.024,0-1.415l9.874-9.875
	c0.391-0.391,1.024-0.391,1.415,0C127.72,129.095,127.72,129.729,127.33,130.119L127.33,130.119z M114.748,152.534
	c-10.907,0-19.749-8.842-19.749-19.749c0-10.909,8.842-19.749,19.749-19.751c10.909,0.002,19.749,8.842,19.751,19.751
	C134.497,143.692,125.657,152.534,114.748,152.534L114.748,152.534z M127.298,120.233c-3.214-3.213-7.646-5.198-12.551-5.198
	s-9.336,1.985-12.551,5.198c-3.214,3.216-5.198,7.646-5.2,12.552c0.002,4.904,1.985,9.335,5.2,12.551
	c3.214,3.213,7.646,5.198,12.551,5.198s9.336-1.985,12.551-5.198c3.214-3.216,5.2-7.646,5.2-12.551
	C132.498,127.879,130.513,123.449,127.298,120.233L127.298,120.233z"/>
<path fill="#0A93CE" d="M15.712,146.589v-3.874c0-1.094-0.407-1.596-1.078-1.596c-0.686,0-1.372,0.594-1.636,1.45v4.02h-1.764
	v-3.874c0-1.106-0.409-1.596-1.069-1.596c-0.684,0-1.383,0.58-1.646,1.438v4.032H6.753v-6.904h1.595v1.277
	c0.513-0.896,1.435-1.396,2.567-1.396c1.147,0,1.766,0.646,1.952,1.463c0.552-0.95,1.45-1.463,2.542-1.463
	c1.701,0,2.069,1.383,2.069,2.714v4.31H15.712L15.712,146.589z M19.002,146.589v-6.904h1.765v6.904H19.002L19.002,146.589z
	 M19.002,136.97h1.765v1.752h-1.765V136.97L19.002,136.97z M26.987,146.589v-3.874c0-1.106-0.407-1.596-1.093-1.596
	c-0.712,0-1.53,0.606-1.79,1.438v4.032h-1.766v-6.904h1.593v1.277c0.513-0.87,1.528-1.396,2.74-1.396
	c1.725,0,2.082,1.37,2.082,2.714v4.31H26.987L26.987,146.589z M17.753,158.396c-9.164,0-16.619-7.453-16.619-16.617
	c0-9.163,7.455-16.618,16.619-16.618s16.618,7.455,16.618,16.618C34.372,150.943,26.917,158.396,17.753,158.396L17.753,158.396z
	 M17.753,127.358c-7.951,0-14.421,6.47-14.421,14.421S9.802,156.2,17.753,156.2s14.421-6.47,14.421-14.421
	S25.705,127.358,17.753,127.358L17.753,127.358z"/>
<polygon fill-rule="evenodd" clip-rule="evenodd" fill="#0A93CE" points="103.248,84.285 113.248,84.285 113.248,94.285 
	103.248,94.285 103.248,84.285 "/>
<polygon fill="#0A93CE" points="70.866,153.068 68.012,156.994 63.398,155.496 63.398,150.642 68.012,149.142 70.866,153.068 "/>
<polygon fill="#0A93CE" points="156.865,121.069 154.014,124.994 149.397,123.495 149.397,118.641 154.014,117.143 156.865,121.069 
	"/>
<polygon fill="#0A93CE" points="274.865,83.067 272.012,86.994 267.397,85.496 267.397,80.642 272.012,79.141 274.865,83.067 "/>
<polygon fill="#0A93CE" points="175.863,41.638 169.353,50.359 165.055,40.36 175.863,41.638 "/>
<polygon fill="#0A93CE" points="262.456,171.069 251.577,171.351 256.772,161.787 262.456,171.069 "/>
<path fill-rule="evenodd" clip-rule="evenodd" fill="#0A93CE" d="M187.414,144.951c2.302,0,4.168,1.864,4.168,4.166
	s-1.866,4.168-4.168,4.168s-4.166-1.866-4.166-4.168S185.112,144.951,187.414,144.951L187.414,144.951z"/>
<path fill-rule="evenodd" clip-rule="evenodd" fill="#0A93CE" d="M22.414,101.95c2.302,0,4.168,1.867,4.168,4.168
	c0,2.299-1.866,4.166-4.168,4.166s-4.166-1.867-4.166-4.166C18.248,103.817,20.112,101.95,22.414,101.95L22.414,101.95z"/>
</svg>
