<svg id="Layer_1" data-name="Layer 1" xmlns="http://www.w3.org/2000/svg" xmlns:xlink="http://www.w3.org/1999/xlink" viewBox="0 0 1020.9741 541.0543"><defs><style>.cls-1{fill:url(#linear-gradient);}.cls-2{fill:#007aff;}</style><linearGradient id="linear-gradient" x1="510.4994" y1="0.0004" x2="510.4994" y2="541.0547" gradientUnits="userSpaceOnUse"><stop offset="0" stop-color="#007aff"/><stop offset="1" stop-color="#00b9ff"/></linearGradient></defs><title>MathLeap Hero images</title><path id="MathLeap_Hero_images" data-name="MathLeap Hero images" class="cls-1" d="M639.042,431.4V385.933a2.276,2.276,0,0,0-2.278-2.274H454.238a2.276,2.276,0,0,0-2.281,2.271V431.4a2.276,2.276,0,0,0,2.279,2.273H636.761a2.276,2.276,0,0,0,2.281-2.271V431.4ZM456.52,429.124V388.206h4.563v15.912a2.282,2.282,0,0,0,4.563,0V388.206h4.563v6.819a2.282,2.282,0,0,0,4.563,0v-6.819h4.563v15.912a2.282,2.282,0,0,0,4.563,0V388.206h4.563v6.819a2.282,2.282,0,0,0,4.563,0v-6.819h4.563v15.912a2.282,2.282,0,0,0,4.563,0V388.206h4.563v6.819a2.282,2.282,0,1,0,4.564,0h0v-6.819h4.563v15.912a2.282,2.282,0,0,0,4.563,0V388.206h4.563v6.819a2.282,2.282,0,0,0,4.563,0v-6.819h4.563v15.912a2.282,2.282,0,0,0,4.563,0V388.206h4.563v6.819a2.282,2.282,0,0,0,4.563,0v-6.819h4.563v15.912a2.282,2.282,0,0,0,4.563,0V388.206h4.563v6.819a2.282,2.282,0,0,0,4.563,0v-6.819H570.6v15.912a2.282,2.282,0,0,0,4.563,0V388.206h4.563v6.819a2.282,2.282,0,1,0,4.564,0h0v-6.819h4.563v15.912a2.282,2.282,0,0,0,4.563,0V388.206h4.563v6.819a2.282,2.282,0,0,0,4.563,0v-6.819H607.1v15.912a2.282,2.282,0,0,0,4.563,0V388.206h4.563v6.819a2.282,2.282,0,0,0,4.563,0v-6.819h4.563v15.912a2.282,2.282,0,0,0,4.563,0V388.206h4.563v40.918H456.52Zm317.527-291.86H655.893a2.28,2.28,0,0,0-2.273,2.287V322.819a2.281,2.281,0,0,0,2.2709,2.291H774.047a2.28,2.28,0,0,0,2.272-2.288V139.554a2.279,2.279,0,0,0-2.268-2.29h-0.004Zm-2.272,183.264H658.165V141.845h113.61V320.528h0ZM664.981,178.5h99.977a2.28,2.28,0,0,0,2.272-2.288V148.718a2.28,2.28,0,0,0-2.269-2.291h-99.98a2.28,2.28,0,0,0-2.272,2.288v27.492a2.28,2.28,0,0,0,2.267,2.293h0.005Zm2.273-27.489h95.432v22.908H667.254V151.011Zm-2.273,73.306h18.178a2.2809,2.2809,0,0,0,2.272-2.29V203.7a2.28,2.28,0,0,0-2.269-2.291H664.981a2.28,2.28,0,0,0-2.272,2.288v18.329a2.281,2.281,0,0,0,2.272,2.289v0.002Zm2.273-18.327h13.633v13.745H667.254V205.99Zm43.171-4.582H692.248a2.28,2.28,0,0,0-2.272,2.288v18.329a2.281,2.281,0,0,0,2.27,2.292h18.179a2.281,2.281,0,0,0,2.273-2.2889V203.7a2.281,2.281,0,0,0-2.2679-2.294H710.425v0.002Zm-2.272,18.327H694.52V205.988h13.633v13.747Zm29.539-18.327H719.514a2.28,2.28,0,0,0-2.272,2.288v18.329a2.281,2.281,0,0,0,2.27,2.292h18.18a2.2809,2.2809,0,0,0,2.272-2.29V203.7a2.28,2.28,0,0,0-2.2659-2.294h-0.006v0.002Zm-2.272,18.327H721.786V205.988H735.42v13.747Zm29.538-18.327H746.781a2.281,2.281,0,0,0-2.273,2.289v18.328a2.281,2.281,0,0,0,2.27,2.292h18.18a2.2809,2.2809,0,0,0,2.272-2.29V203.7a2.28,2.28,0,0,0-2.2659-2.294h-0.006v0.002Zm-2.272,18.327H749.053V205.988h13.633v13.745Zm-97.705,96.214h18.178a2.28,2.28,0,0,0,2.272-2.288V295.329a2.279,2.279,0,0,0-2.268-2.29H664.981a2.2789,2.2789,0,0,0-2.272,2.286v18.331a2.28,2.28,0,0,0,2.2689,2.291h0.0031v0.002Zm2.273-18.327h13.633v13.745H667.254v-13.745Zm43.171-4.581H692.248a2.2789,2.2789,0,0,0-2.272,2.286v18.331a2.28,2.28,0,0,0,2.2689,2.291h18.18a2.281,2.281,0,0,0,2.273-2.2889V295.329a2.28,2.28,0,0,0-2.27-2.29h-0.003Zm-2.272,18.326H694.52V297.62h13.633v13.745Zm29.539-18.326H719.514a2.2789,2.2789,0,0,0-2.272,2.286v18.331a2.28,2.28,0,0,0,2.2689,2.291h18.181a2.28,2.28,0,0,0,2.272-2.288V295.329a2.279,2.279,0,0,0-2.268-2.29H737.692Zm-2.272,18.326H721.786V297.62H735.42v13.745Zm-70.439-22.908h18.178a2.28,2.28,0,0,0,2.272-2.288V267.84a2.28,2.28,0,0,0-2.2689-2.291H664.981a2.28,2.28,0,0,0-2.272,2.288v18.329a2.28,2.28,0,0,0,2.269,2.291h0.003Zm2.273-18.327h13.633v13.745H667.254V270.13Zm43.171-4.581H692.248a2.28,2.28,0,0,0-2.272,2.288v18.329a2.28,2.28,0,0,0,2.2689,2.291h18.18a2.281,2.281,0,0,0,2.273-2.2889V267.84a2.281,2.281,0,0,0-2.2709-2.291H710.425Zm-2.272,18.326H694.52V270.13h13.633v13.745Zm29.539-18.326H719.514a2.28,2.28,0,0,0-2.272,2.288v18.329a2.28,2.28,0,0,0,2.2689,2.291h18.181a2.28,2.28,0,0,0,2.272-2.288V267.84a2.28,2.28,0,0,0-2.2689-2.291h-0.003Zm-2.272,18.326H721.786V270.13H735.42v13.745Zm29.538-18.326H746.781a2.281,2.281,0,0,0-2.273,2.2889v45.8181a2.281,2.281,0,0,0,2.2709,2.291H764.958a2.28,2.28,0,0,0,2.272-2.288V267.84a2.28,2.28,0,0,0-2.2689-2.291H764.958Zm-2.272,45.816H749.053V270.13h13.633v41.235Zm-97.705-50.4h18.178a2.28,2.28,0,0,0,2.272-2.288V240.35a2.28,2.28,0,0,0-2.2689-2.291H664.981a2.28,2.28,0,0,0-2.272,2.288v18.329a2.28,2.28,0,0,0,2.2689,2.291h0.0034Zm2.273-18.326h13.633v13.745H667.254V242.641h0Zm43.171-4.582H692.248a2.28,2.28,0,0,0-2.272,2.288v18.329a2.28,2.28,0,0,0,2.2689,2.291h18.18a2.281,2.281,0,0,0,2.273-2.2889V240.35a2.281,2.281,0,0,0-2.271-2.291h-0.0016Zm-2.272,18.327H694.52V242.641h13.633v13.745h0Zm29.539-18.327H719.514a2.28,2.28,0,0,0-2.272,2.288v18.329a2.28,2.28,0,0,0,2.2689,2.291h18.181a2.28,2.28,0,0,0,2.272-2.288V240.35a2.28,2.28,0,0,0-2.269-2.291h-0.0026Zm-2.272,18.327H721.786V242.641H735.42v13.745h0Zm29.538-18.327H746.781a2.281,2.281,0,0,0-2.273,2.2889v18.3281a2.281,2.281,0,0,0,2.2709,2.291H764.958a2.28,2.28,0,0,0,2.272-2.288V240.35a2.28,2.28,0,0,0-2.269-2.291h-0.0026Zm-2.272,18.327H749.053V242.641h13.633v13.745h0Zm2.272-73.306H719.514a2.28,2.28,0,0,0-2.272,2.288v9.166a2.28,2.28,0,0,0,2.269,2.291h45.447a2.28,2.28,0,0,0,2.272-2.288v-9.166a2.28,2.28,0,0,0-2.269-2.2909h-0.0025Zm-2.272,9.163h-40.9v-4.581h40.9v4.581Zm-97.705-4.581h36.356a2.291,2.291,0,1,0,0-4.582H664.981a2.291,2.291,0,0,0,0,4.5821h0Zm0,9.163h36.356a2.291,2.291,0,1,0,0-4.582H664.981a2.291,2.291,0,1,0,0,4.5821h0ZM356.491,321.206a2.282,2.282,0,0,0-4.151,1.316V505.786a2.286,2.286,0,0,0,2.281,2.291H482.475a2.292,2.292,0,0,0,1.868-3.607ZM356.906,503.5v-4.581h6.849a2.291,2.291,0,0,0,0-4.582h-6.849V489.75h15.981a2.291,2.291,0,0,0,0-4.581H356.906v-4.582h6.849a2.291,2.291,0,0,0,0-4.581h-6.849v-4.582h15.981a2.291,2.291,0,0,0,0-4.582H356.906v-4.581h6.849a2.291,2.291,0,0,0,0-4.582h-6.849V453.1h15.981a2.291,2.291,0,0,0,0-4.581H356.906v-4.582h6.849a2.291,2.291,0,0,0,0-4.581h-6.849v-4.582h15.981a2.291,2.291,0,0,0,0-4.581H356.906v-4.582h6.849a2.291,2.291,0,0,0,0-4.582h-6.849v-4.581h15.981a2.291,2.291,0,0,0,0-4.582H356.906v-4.581h6.849a2.291,2.291,0,0,0,0-4.582h-6.849v-4.582h15.981a2.291,2.291,0,0,0,0-4.581H356.906v-4.582h6.849a2.291,2.291,0,0,0,0-4.582h-6.849v-4.581h15.981a2.291,2.291,0,0,0,0-4.582H356.906v-4.581h6.849a2.291,2.291,0,0,0,0-4.582h-6.849V329.788L478.092,503.5H356.906Zm25.114-22.908h47.833a2.292,2.292,0,0,0,1.868-3.606l-47.833-68.568a2.282,2.282,0,0,0-4.151,1.316V478.3a2.286,2.286,0,0,0,2.283,2.287v0.005ZM384.3,417l41.167,59.011H384.3V417Zm275.332-51.343,2.522-5.063,2.52,5.063A2.283,2.283,0,0,0,668.78,363.66l-0.0261-.0519-4.571-9.179a2.265,2.265,0,0,0-4.059,0l-4.571,9.179a2.3,2.3,0,0,0,1.02,3.073,2.277,2.277,0,0,0,3.0556-1.0162l0.0064-.0128Zm83.6,78.87,5.042,2.531-5.042,2.531a2.29,2.29,0,1,0,2.04,4.1l9.143-4.59a2.282,2.282,0,0,0,0-4.075l-9.143-4.59a2.288,2.288,0,0,0-2.0419,4.0881Zm-174.649,2.531a2.286,2.286,0,0,0,2.28,2.292H659.88v89.374a2.283,2.283,0,0,0,4.565.0955q0.001-.0477,0-0.0955V449.345H735.2a2.292,2.292,0,0,0,0-4.583H664.445V373.72a2.283,2.283,0,0,0-4.565-.0955q-0.001.0477,0,.0955v71.042H570.864a2.285,2.285,0,0,0-2.283,2.287v0.004Zm168.9-9.167a2.286,2.286,0,0,0-2.281-2.291H735.2c-61.627,0-61.627-7.045-61.627-61.875a2.283,2.283,0,0,0-4.565-.0955q-0.001.0477,0,.0955c0,55.009,0,66.458,66.192,66.458a2.286,2.286,0,0,0,2.284-2.288v-0.009ZM586.841,456.22a2.2851,2.2851,0,0,0,2.279,2.291h0.004c61.626,0,61.626,0,61.626,61.875a2.283,2.283,0,0,0,4.565.0955q0.001-.0477,0-0.0955c0-65.214-1.239-66.458-66.191-66.458a2.286,2.286,0,0,0-2.283,2.2889V456.22ZM931.56,405.8459l5.04,2.535-5.04,2.535a2.3129,2.3129,0,0,0-1.26,2.051,2.3614,2.3614,0,0,0,.24,1.026,2.281,2.281,0,0,0,3.0583,1.0259l0.0017-.0009,9.14-4.6a2.2829,2.2829,0,0,0,0-4.082l-9.14-4.6a2.2809,2.2809,0,0,0-3.059,1.0239l-0.0011.0021a2.3536,2.3536,0,0,0-.24,1.025,2.313,2.313,0,0,0,1.26,2.059h0Zm-172.273.24a2.293,2.293,0,0,0,0,4.586H848.22v16.051a2.28,2.28,0,1,0,4.56.0047V410.672h70.68a2.293,2.293,0,0,0,0-4.586H852.78V282.528c14.77,2.62,21.2,30.511,27.42,57.579,6.92,30.184,14.09,61.393,34.14,61.393a2.293,2.293,0,0,0,0-4.585c-16.43,0-23.18-29.4-29.7-57.838-6.65-28.993-13.56-58.851-31.86-61.168V261.633a2.28,2.28,0,0,0-4.56-.0047V277.909c-18.31,2.317-25.218,32.175-31.87,61.168-6.524,28.433-13.271,57.838-29.7,57.838a2.293,2.293,0,0,0,0,4.585c20.054,0,27.219-31.209,34.145-61.393,6.211-27.068,12.645-54.959,27.425-57.579V406.086H759.287Zm88.683-152.6,2.53-5.07,2.52,5.07a2.2739,2.2739,0,0,0,3.0458,1.0321l0.0143-.0071a2.307,2.307,0,0,0,1.02-3.076l-4.58-9.193a2.257,2.257,0,0,0-4.05,0l-4.57,9.193a2.29,2.29,0,0,0,1.0173,3.0746l0.0027,0.0013a2.2,2.2,0,0,0,1.01.242,2.275,2.275,0,0,0,2.04-1.266v-0.001Zm-694.864.876c-51.58,0-93.543,42.133-93.543,93.923s41.963,93.923,93.543,93.923a2.285,2.285,0,0,0,2.281-2.289V350.576h88.98a2.285,2.285,0,0,0,2.282-2.288v-0.002c0-51.786-41.9641-93.923-93.5431-93.923v-0.001Zm0,91.632a2.286,2.286,0,0,0-2.282,2.29V437.51a89.224,89.224,0,0,1-86.7-89.225c0-49.262,39.918-89.342,88.98-89.342,48.291,0,87.638,38.854,88.864,87.051H153.106Zm90.777,9.163H162.232a2.287,2.287,0,0,0-2.282,2.291v82.013a2.0509,2.0509,0,0,0,2.509,2.277,94.003,94.003,0,0,0,11.254-1.917l0.075-.018a93.9359,93.9359,0,0,0,70.465-70.752c0-.028.018-0.048,0.018-0.076a93.1321,93.1321,0,0,0,1.911-11.314,2.3,2.3,0,0,0-2.0881-2.494q-0.1052-.0093-0.2109-0.009v-0.001Zm-4.045,12.762L172.66,435.371q-4.011.909-8.147,1.449V431.7l71.673-71.963h5.1q-0.538,4.157-1.448,8.183v-0.001Zm-75.325,8.8,16.916-16.984h11.8l-28.716,28.832V376.719Zm0,18.326,35.168-35.31h11.8L164.513,406.9V395.045Zm0,18.327,53.42-53.637h11.8l-65.22,65.484V413.372Zm10.463-53.637-10.463,10.5v-10.5h10.463Zm6.668,73.089,55.663-55.889a89.5,89.5,0,0,1-55.663,55.894v-0.005ZM944.71,440.1a2.291,2.291,0,0,0,0-4.581H780.438a2.291,2.291,0,0,0,0,4.581H944.71ZM248.93,299.5h18.252a2.291,2.291,0,0,0,0-4.581h-15.97V116.23h15.97a2.291,2.291,0,1,0,0-4.582H248.93a2.285,2.285,0,0,0-2.281,2.289V297.2a2.284,2.284,0,0,0,2.274,2.294h0.007V299.5ZM431.453,111.648H413.2a2.291,2.291,0,1,0,0,4.582h15.971V294.913H413.2a2.291,2.291,0,0,0,0,4.581h18.253a2.284,2.284,0,0,0,2.281-2.287V113.939a2.285,2.285,0,0,0-2.279-2.291h-0.002Zm-73.009,50.4a2.285,2.285,0,0,0,2.281-2.289V123.1a2.284,2.284,0,0,0-2.278-2.29H321.944a2.284,2.284,0,0,0-2.281,2.287v36.656a2.285,2.285,0,0,0,2.279,2.291h36.502v0.004Zm-34.223-36.653h31.941v32.071H324.221V125.395ZM376.7,162.046h36.5a2.286,2.286,0,0,0,2.282-2.29V123.1a2.285,2.285,0,0,0-2.28-2.29H376.7a2.285,2.285,0,0,0-2.282,2.288v36.655a2.286,2.286,0,0,0,2.279,2.293H376.7Zm2.281-36.653h31.942v32.071H378.977V125.393h0.004Zm-73.009,61.852a2.285,2.285,0,0,0-2.279-2.291H267.191a2.285,2.285,0,0,0-2.281,2.289V223.9a2.285,2.285,0,0,0,2.279,2.291h36.502a2.285,2.285,0,0,0,2.281-2.289V187.245Zm-4.563,34.362H269.464V189.536h31.941v32.071h0.004Zm73.009,2.291a2.286,2.286,0,0,0,2.281,2.291H413.2a2.286,2.286,0,0,0,2.282-2.29V187.245a2.286,2.286,0,0,0-2.281-2.291H376.7a2.286,2.286,0,0,0-2.282,2.29v36.654Zm4.563-34.362h31.942v32.071H378.977V189.536h0.004ZM303.687,249.1h-36.5a2.284,2.284,0,0,0-2.281,2.287V288.04a2.284,2.284,0,0,0,2.277,2.291h36.504a2.284,2.284,0,0,0,2.281-2.287V251.388a2.284,2.284,0,0,0-2.28-2.288h-0.001Zm-2.282,36.653H269.464V253.678h31.941v32.075Zm18.253,2.29a2.284,2.284,0,0,0,2.277,2.291h36.504a2.284,2.284,0,0,0,2.281-2.287V251.388a2.2841,2.2841,0,0,0-2.277-2.291H321.939a2.284,2.284,0,0,0-2.281,2.287v36.659Zm4.563-34.362h31.941V285.75H324.221V253.681ZM285.435,120.812a2.27,2.27,0,0,0-1.615.672l-18.251,18.325a2.3,2.3,0,0,0,0,3.24,2.274,2.274,0,0,0,3.2159.01l0.01-.01,14.358-14.417v28.832H267.182a2.291,2.291,0,1,0,0,4.582h36.5a2.291,2.291,0,0,0,0-4.582H287.716V123.1a2.284,2.284,0,0,0-2.28-2.288h-0.001Zm36.5,100.795a2.291,2.291,0,0,0,0,4.582h36.5a2.291,2.291,0,0,0,0-4.582H342.473V187.245a2.28,2.28,0,0,0-3.9-1.619l-18.251,18.326a2.3,2.3,0,0,0,0,3.239,2.274,2.274,0,0,0,3.2159.01l0.01-.01,14.358-14.416v28.832H321.935ZM376.7,285.75a2.291,2.291,0,0,0,0,4.581h36.5a2.291,2.291,0,0,0,0-4.581H397.23V251.388a2.28,2.28,0,0,0-3.9-1.619l-18.251,18.325a2.3,2.3,0,0,0,0,3.24,2.2739,2.2739,0,0,0,3.2159.01l0.01-.01,14.358-14.416V285.75H376.7Zm86.668-12.644h63.883a11.442,11.442,0,0,0,11.408-11.454V197.509a11.442,11.442,0,0,0-11.408-11.454H463.364a11.441,11.441,0,0,0-11.407,11.454v64.143a11.441,11.441,0,0,0,11.407,11.454h0.004Zm-6.844-75.6a6.866,6.866,0,0,1,6.844-6.873h63.883a6.866,6.866,0,0,1,6.845,6.873v64.143a6.866,6.866,0,0,1-6.845,6.872H463.364a6.866,6.866,0,0,1-6.844-6.872v-64.14Zm171.115-11.454H563.752a11.442,11.442,0,0,0-11.408,11.454v64.143a11.442,11.442,0,0,0,11.408,11.454h63.883a11.441,11.441,0,0,0,11.407-11.454v-64.14a11.441,11.441,0,0,0-11.407-11.454Zm6.844,75.6a6.866,6.866,0,0,1-6.844,6.872H563.752a6.866,6.866,0,0,1-6.845-6.872V197.509a6.866,6.866,0,0,1,6.845-6.873h63.883a6.866,6.866,0,0,1,6.844,6.873v64.143h0.004ZM463.364,373.9h63.883a11.442,11.442,0,0,0,11.408-11.454V298.3a11.442,11.442,0,0,0-11.408-11.454H463.364A11.441,11.441,0,0,0,451.957,298.3v64.143A11.441,11.441,0,0,0,463.364,373.9Zm-6.844-75.6a6.866,6.866,0,0,1,6.844-6.872h63.883a6.866,6.866,0,0,1,6.845,6.872v64.143a6.865,6.865,0,0,1-6.845,6.872H463.364a6.865,6.865,0,0,1-6.844-6.872V298.3h0Zm171.115-11.45H563.752a11.442,11.442,0,0,0-11.408,11.45v64.143A11.442,11.442,0,0,0,563.752,373.9h63.883a11.441,11.441,0,0,0,11.407-11.454V298.3A11.441,11.441,0,0,0,627.635,286.85Zm6.844,75.6a6.865,6.865,0,0,1-6.844,6.872H563.752a6.865,6.865,0,0,1-6.845-6.872V298.3a6.866,6.866,0,0,1,6.845-6.872h63.883a6.866,6.866,0,0,1,6.844,6.872v64.15ZM472.49,337.25h45.631a2.286,2.286,0,0,0,2.282-2.29v-9.164a2.286,2.286,0,0,0-2.281-2.291H472.49a2.285,2.285,0,0,0-2.281,2.289v9.165a2.285,2.285,0,0,0,2.2809,2.2891h0v0.002Zm2.282-9.163H515.84v4.582H474.772v-4.582Zm20.534-9.163a9.164,9.164,0,1,0-9.1259-9.202v0.038a9.157,9.157,0,0,0,9.126,9.1621v0.0019Zm0-13.745a4.582,4.582,0,1,1-4.5629,4.601v-0.02a4.575,4.575,0,0,1,4.563-4.5829v0.0019Zm0,36.653a9.163,9.163,0,1,0,9.1259,9.2v-0.0369a9.157,9.157,0,0,0-9.1259-9.1649v0.0019Zm0,13.745a4.582,4.582,0,1,1,4.5629-4.601v0.019a4.576,4.576,0,0,1-4.5629,4.58v0.0019ZM472.49,236.453h45.631a2.286,2.286,0,0,0,2.282-2.29V225a2.286,2.286,0,0,0-2.281-2.291H472.49a2.285,2.285,0,0,0-2.281,2.289v9.165a2.285,2.285,0,0,0,2.28,2.29h0.001Zm2.282-9.163H515.84v4.581H474.772V227.29Zm143.737-4.582H602.538V206.672a2.286,2.286,0,0,0-2.281-2.291H591.13a2.285,2.285,0,0,0-2.281,2.289v16.038H572.878A2.286,2.286,0,0,0,570.6,225v9.163a2.286,2.286,0,0,0,2.281,2.291h15.972v16.035a2.2851,2.2851,0,0,0,2.279,2.291h9.128a2.286,2.286,0,0,0,2.282-2.29V236.453h15.971a2.285,2.285,0,0,0,2.281-2.289V225a2.285,2.285,0,0,0-2.278-2.292h-0.007Zm-2.282,9.163H600.256a2.285,2.285,0,0,0-2.281,2.289V250.2h-4.563V234.162a2.286,2.286,0,0,0-2.281-2.291H575.159V227.29H591.13a2.286,2.286,0,0,0,2.282-2.29V208.963h4.563V225a2.2851,2.2851,0,0,0,2.279,2.291h15.973v4.58Zm7.562,79.069a2.3,2.3,0,0,0-.668-1.62l-6.457-6.483a2.3431,2.3431,0,0,0-3.227,0l-17.744,17.821-17.744-17.821a2.2739,2.2739,0,0,0-3.2159-.01l-0.01.01-6.457,6.483a2.295,2.295,0,0,0,0,3.239l17.749,17.817-17.749,17.816a2.3,2.3,0,0,0,0,3.24l6.457,6.483a2.341,2.341,0,0,0,3.226,0l17.744-17.821,17.744,17.821a2.275,2.275,0,0,0,3.2173.01l0.01-.01,6.457-6.483a2.3,2.3,0,0,0,0-3.24l-17.749-17.816,17.749-17.817a2.3,2.3,0,0,0,.668-1.6191h0Zm-23.256,17.816a2.295,2.295,0,0,0,0,3.239l17.748,17.817-3.23,3.244-17.745-17.821a2.2739,2.2739,0,0,0-3.2159-.01l-0.01.01-17.744,17.821-3.231-3.244L590.854,332a2.3,2.3,0,0,0,0-3.239L573.105,310.94l3.231-3.244,17.744,17.821a2.341,2.341,0,0,0,3.226,0L615.051,307.7l3.23,3.244ZM322.134,348.1h-45.28a2.28,2.28,0,0,0-2.264,2.2958v9.1992a2.28,2.28,0,0,0,2.26,2.3H322.134a2.28,2.28,0,0,0,2.264-2.2958V350.4a2.28,2.28,0,0,0-2.26-2.3H322.134Zm-2.264,9.2H279.118v-4.6H319.87v4.6Zm-11.32-23a9.057,9.057,0,1,0-9.056,9.2A9.057,9.057,0,0,0,308.55,334.3Zm-13.584,0a4.529,4.529,0,1,1,4.528,4.6A4.529,4.529,0,0,1,294.966,334.3Zm4.528,32.184a9.2,9.2,0,1,0,9.0549,9.3429q0.0011-.074.0011-0.1479a9.138,9.138,0,0,0-9.056-9.19v-0.005Zm0,13.793a4.6,4.6,0,1,1,4.5275-4.6714l0.0005,0.0715a4.567,4.567,0,0,1-4.528,4.6049V380.277ZM256.2,428.791h45.28a2.249,2.249,0,0,0,2.264-2.2339V417.61a2.249,2.249,0,0,0-2.2619-2.236H256.2a2.248,2.248,0,0,0-2.264,2.2319v8.9491a2.248,2.248,0,0,0,2.26,2.236H256.2Zm2.264-8.945h40.752v4.473h-40.75v-4.473h-0.002Zm436.293-27.537h15.849v15.912a2.2661,2.2661,0,0,0,2.259,2.273h9.061a2.267,2.267,0,0,0,2.264-2.27V392.309h15.85a2.268,2.268,0,0,0,2.264-2.272v-9.095a2.268,2.268,0,0,0-2.263-2.273H724.192V362.757a2.2671,2.2671,0,0,0-2.261-2.273h-9.06a2.266,2.266,0,0,0-2.263,2.269v15.916H694.759a2.268,2.268,0,0,0-2.264,2.272v9.095a2.268,2.268,0,0,0,2.263,2.273h-0.001Zm2.264-9.093h15.848a2.268,2.268,0,0,0,2.265-2.271V365.03h4.528v15.912a2.267,2.267,0,0,0,2.26,2.274h15.852v4.546H721.928a2.267,2.267,0,0,0-2.264,2.27v15.916h-4.528V390.036a2.268,2.268,0,0,0-2.262-2.274H697.023v-4.546h-0.002Zm-66.336-254.16h-6.909a84.385,84.385,0,0,0-168.706,0h-6.908a2.282,2.282,0,0,0-2.281,2.283v36.573a2.282,2.282,0,0,0,2.278,2.286H630.687a2.282,2.282,0,0,0,2.281-2.283V131.341a2.282,2.282,0,0,0-2.279-2.285h-0.004Zm-37.735-9.491-6.87,1.215c-0.28-1.243-.745-2.406-1.12-3.611l6.7-2.443a2.2871,2.2871,0,0,0-1.56-4.3l-6.5,2.369c-0.493-1.174-1.2-2.218-1.784-3.343l6.167-3.566a2.2831,2.2831,0,0,0-2.282-3.955h0l-6.063,3.506c-0.686-1.066-1.48-2.034-2.246-3.039l5.44-4.574a2.286,2.286,0,0,0,.281-3.219,2.26,2.26,0,0,0-3.1813-.3076L579.9,94.324l-5.411,4.55c-0.857-.929-1.738-1.811-2.665-2.67l4.542-5.421a2.2822,2.2822,0,0,0-3.494-2.937l-4.566,5.45c-1-.768-1.969-1.563-3.034-2.25l3.5-6.075a2.281,2.281,0,0,0-3.9167-2.3391l-0.0313.0541-3.56,6.178c-1.123-.583-2.165-1.294-3.337-1.788l2.365-6.507a2.2813,2.2813,0,0,0-4.287-1.562h0l-2.439,6.71c-1.2-.375-2.364-0.842-3.6-1.123l1.212-6.882a2.28,2.28,0,1,0-4.491-.794h0l-1.239,7.03c-1.24-.158-2.476-0.319-3.743-0.38V76.48a2.282,2.282,0,0,0-4.563-.0961q-0.001.0481,0,.0961v7.088c-1.268.061-2.5,0.222-3.743,0.38l-1.239-7.03a2.281,2.281,0,0,0-4.502.7375l0.01,0.0565,1.213,6.882c-1.241.281-2.4,0.748-3.6,1.123l-2.439-6.71a2.2813,2.2813,0,0,0-4.287,1.562h0l2.365,6.507c-1.173.494-2.214,1.2-3.337,1.788l-3.56-6.178a2.281,2.281,0,1,0-3.9793,2.2309l0.0313,0.0541,3.5,6.075c-1.064.687-2.03,1.482-3.034,2.25l-4.566-5.45a2.259,2.259,0,0,0-3.18-.3089l-0.0333.0279a2.284,2.284,0,0,0-.28,3.2179h0l4.542,5.421c-0.928.859-1.809,1.741-2.665,2.67l-5.411-4.55a2.283,2.283,0,0,0-2.932,3.5l5.44,4.574c-0.766,1-1.56,1.973-2.246,3.039l-6.064-3.506a2.283,2.283,0,0,0-2.281,3.955l6.167,3.566c-0.582,1.125-1.292,2.169-1.785,3.343l-6.5-2.369a2.2869,2.2869,0,0,0-1.559,4.3l6.7,2.443c-0.375,1.205-.841,2.368-1.121,3.611l-6.87-1.215a2.285,2.285,0,0,0-.793,4.5l7.018,1.241c-0.158,1.242-.318,2.48-0.379,3.75H459.688a80.1362,80.1362,0,0,1,.824-9.335l11.109,1.964a2.0153,2.0153,0,0,0,.4.036,2.286,2.286,0,0,0,.392-4.536L461.207,115.2a78.9731,78.9731,0,0,1,2.481-9.046l10.638,3.881a2.2843,2.2843,0,0,0,1.56-4.294l-10.627-3.878a79.7512,79.7512,0,0,1,3.914-8.52l9.836,5.688a2.273,2.273,0,0,0,3.1076-.8222l0.0074-.0128a2.281,2.281,0,0,0-.8288-3.1176l-0.0042-.0024-9.757-5.643a80.3894,80.3894,0,0,1,5.35-7.686l8.645,7.266a2.274,2.274,0,0,0,3.2044-.272l0.0076-.009a2.284,2.284,0,0,0-.2789-3.218l-0.0012-.001-8.622-7.246a80.5323,80.5323,0,0,1,6.611-6.623l7.233,8.637a2.2822,2.2822,0,1,0,3.494-2.937h0l-7.253-8.66a80.1133,80.1133,0,0,1,7.672-5.361l5.632,9.775a2.281,2.281,0,1,0,3.9793-2.2309l-0.0313-.0541-5.677-9.854a79.3771,79.3771,0,0,1,8.5-3.922l3.87,10.646a2.2813,2.2813,0,0,0,4.287-1.562l-3.874-10.657a78.5119,78.5119,0,0,1,9.029-2.486l1.979,11.227a2.285,2.285,0,0,0,2.241,1.889,2.0245,2.0245,0,0,0,.4-0.036,2.287,2.287,0,0,0,1.849-2.647l-1.962-11.129a79.898,79.898,0,0,1,9.319-.826V62.768a2.282,2.282,0,0,0,4.563.0961q0.001-.0481,0-0.0961V51.459a79.8683,79.8683,0,0,1,9.318.826l-1.961,11.129a2.286,2.286,0,0,0,1.849,2.647,2.0153,2.0153,0,0,0,.4.036,2.285,2.285,0,0,0,2.242-1.889l1.978-11.227a78.47,78.47,0,0,1,9.03,2.486l-3.874,10.657a2.2813,2.2813,0,0,0,4.287,1.562l3.87-10.646a79.46,79.46,0,0,1,8.5,3.922l-5.678,9.854a2.281,2.281,0,0,0,3.9167,2.3391l0.0313-.0541,5.632-9.775a80.127,80.127,0,0,1,7.673,5.361l-7.253,8.66a2.282,2.282,0,1,0,3.4569,2.98l0.0361-.0429,7.234-8.637a80.367,80.367,0,0,1,6.61,6.623l-8.621,7.246a2.286,2.286,0,0,0,1.466,4.036,2.26,2.26,0,0,0,1.466-.536l8.644-7.266a80.2131,80.2131,0,0,1,5.351,7.686l-9.757,5.643a2.285,2.285,0,0,0,1.141,4.263,2.2568,2.2568,0,0,0,1.14-.308l9.837-5.688a79.7512,79.7512,0,0,1,3.914,8.52l-10.627,3.878a2.2843,2.2843,0,1,0,1.56,4.294h0l10.638-3.881a78.9731,78.9731,0,0,1,2.481,9.046l-11.208,1.982a2.286,2.286,0,0,0,.392,4.536,2.0245,2.0245,0,0,0,.4-0.036l11.108-1.964a80.1366,80.1366,0,0,1,.825,9.335H587.107c-0.061-1.27-.221-2.508-0.379-3.75l7.017-1.241a2.285,2.285,0,0,0-.793-4.5H592.95Zm-10.408,9.491H496.307a43.166,43.166,0,0,1,86.237,0h-0.002Zm45.861,36.57H623.84v-16a2.282,2.282,0,0,0-4.563-.0961q-0.001.0481,0,.0961v16h-4.563v-6.857a2.282,2.282,0,0,0-4.563-.0961q-0.001.0481,0,.0961v6.857H605.59v-16a2.282,2.282,0,0,0-4.563-.0961q-0.001.0481,0,.0961v16h-4.563v-6.857a2.282,2.282,0,0,0-4.563-.0961q-0.001.0481,0,.0961v6.857h-4.564v-16a2.282,2.282,0,0,0-4.563-.0961q-0.001.0481,0,.0961v16h-4.563v-6.857a2.282,2.282,0,0,0-4.563-.0961q-0.001.0481,0,.0961v6.857h-4.563v-16a2.282,2.282,0,0,0-4.563-.0961q-0.001.0481,0,.0961v16h-4.563v-6.857a2.282,2.282,0,0,0-4.563-.0961q-0.001.0481,0,.0961v6.857h-4.563v-16a2.282,2.282,0,0,0-4.563-.0961q-0.001.0481,0,.0961v16h-4.563v-6.857a2.282,2.282,0,0,0-4.563-.0961q-0.001.0481,0,.0961v6.857h-4.563v-16a2.282,2.282,0,0,0-4.563-.0961q-0.001.0481,0,.0961v16h-4.563v-6.857a2.282,2.282,0,0,0-4.563-.0961q-0.001.0481,0,.0961v6.857h-4.564v-16a2.282,2.282,0,0,0-4.563-.0961q-0.001.0481,0,.0961v16H505.2v-6.857a2.282,2.282,0,0,0-4.563-.0961q-0.001.0481,0,.0961v6.857h-4.563v-16a2.282,2.282,0,0,0-4.563-.0961q-0.001.0481,0,.0961v16H486.95v-6.857a2.282,2.282,0,0,0-4.563-.0961q-0.001.0481,0,.0961v6.857h-4.563v-16a2.282,2.282,0,0,0-4.563-.0961q-0.001.0481,0,.0961v16H468.7v-6.857a2.282,2.282,0,0,0-4.563-.0961q-0.001.0481,0,.0961v6.857h-4.563v-16a2.282,2.282,0,0,0-4.563-.0961q-0.001.0481,0,.0961v16h-4.563v-32H628.405v32h-0.002ZM231.535,212.7a65.2309,65.2309,0,0,1-38.808-25.638q-0.153,1.175-.3,2.35c33.046-34.058,41.332-86.215,19.687-128.49C192.889,23.375,152.798-.605,110.433.012,67.97,0.63,28.492,25.903,10.464,64.146a112,112,0,0,0,14.733,118c28.874,35.183,77.927,49.574,121.43,35.552a117.1155,117.1155,0,0,0,17.746-7.441H162.4a69.146,69.146,0,0,0,69.6,5.992c2.268-1.069.29-4.413-1.969-3.348a65.2329,65.2329,0,0,1-65.664-5.992,1.956,1.956,0,0,0-1.969,0c-40.707,20.993-91.4,14.243-124.732-17.11A108.172,108.172,0,0,1,8.75,79.099C20.926,40.679,54.839,11.672,94.81,5.232c40.577-6.538,82.462,11.082,106.013,44.547a108.113,108.113,0,0,1,.069,123.428,110.9121,110.9121,0,0,1-11.23,13.469,1.955,1.955,0,0,0-.305,2.349,69.267,69.267,0,0,0,41.14,27.42C232.943,216.992,233.986,213.254,231.535,212.7Zm557.93,0a65.2149,65.2149,0,0,0,38.8-25.638c0.1,0.783.21,1.566,0.31,2.35-33.048-34.058-41.334-86.215-19.689-128.49C828.1149,23.375,868.205-.605,910.5649.012c42.46,0.618,81.94,25.891,99.97,64.134a112.0071,112.0071,0,0,1-14.73,118c-28.88,35.183-77.93,49.574-121.43,35.552a117.2458,117.2458,0,0,1-17.75-7.441h1.97a69.1441,69.1441,0,0,1-69.6,5.992c-2.268-1.069-.29-4.413,1.969-3.348a65.2291,65.2291,0,0,0,65.662-5.992,1.9581,1.9581,0,0,1,1.97,0c40.71,20.993,91.4,14.243,124.73-17.11a108.159,108.159,0,0,0,28.92-110.7c-12.18-38.42-46.09-67.427-86.06-73.867-40.58-6.538-82.46,11.082-106.014,44.547a108.113,108.113,0,0,0-.069,123.428,110.6558,110.6558,0,0,0,11.233,13.469,1.966,1.966,0,0,1,.3,2.349,69.2561,69.2561,0,0,1-41.138,27.42c-2.4408.547-3.4838-3.191-1.0328-3.745h0ZM148.844,79.31h13.292l-1.881-1.867V137.18l1.881-1.867H63.828l1.881,1.867V77.443L63.828,79.31H77.12a1.868,1.868,0,0,0,0-3.734H63.828a1.9,1.9,0,0,0-1.881,1.867V137.18a1.9,1.9,0,0,0,1.881,1.867h98.308a1.9,1.9,0,0,0,1.881-1.867V77.443a1.9,1.9,0,0,0-1.881-1.867H148.844a1.868,1.868,0,0,0,0,3.734h0Zm23.323,78.93H53.8l1.624,2.809q3.1-7.078,6.194-14.156c1-2.277,2.642-4.817,3.166-7.237a7.5922,7.5922,0,0,0,.651-1.487l-1.59.878h0.107a2.8322,2.8322,0,0,0,.357,0c1.623,0.986,7.01,0,8.864,0h57.978c9.593,0,19.563.784,29.129,0,3.447-.283-0.348-0.032.255-0.878-0.373.523,2.461,5.624,2.7,6.167l7.313,16.713c0.962,2.2,4.2.3,3.248-1.885q-5.016-11.463-10.031-22.926a1.845,1.845,0,0,0-1.624-.925H63.828a1.845,1.845,0,0,0-1.624.925q-5.016,11.463-10.031,22.926a1.893,1.893,0,0,0,1.624,2.809h118.37A1.867,1.867,0,0,0,172.167,158.24Zm-49.53,2.586H102.574a3.132,3.132,0,0,1-3.134-3.111h0a3.132,3.132,0,0,1,3.134-3.112h20.063a3.133,3.133,0,0,1,3.135,3.112h0A3.132,3.132,0,0,1,122.637,160.826Zm-18.484-42v2.239a2.8219,2.8219,0,0,1-.2,1.425,1.637,1.637,0,0,1-2.765,0,2.825,2.825,0,0,1-.2-1.425v-2.239h-2.256a2.8812,2.8812,0,0,1-1.436-.2,1.613,1.613,0,0,1,0-2.744,2.893,2.893,0,0,1,1.436-.2h2.256V113.44a2.8293,2.8293,0,0,1,.2-1.426,1.637,1.637,0,0,1,2.765,0,2.8258,2.8258,0,0,1,.2,1.426v2.238h2.255a2.891,2.891,0,0,1,1.436.2,1.613,1.613,0,0,1,0,2.744,2.8791,2.8791,0,0,1-1.436.2h-2.255v0.004Zm24.523-3.144a2.9,2.9,0,0,1-1.437.2h-7.7a2.893,2.893,0,0,1-1.436-.2,1.612,1.612,0,0,1,0-2.744,2.8812,2.8812,0,0,1,1.436-.2h7.7a2.8858,2.8858,0,0,1,1.437.2,1.613,1.613,0,0,1,0,2.74v0.004Zm0,5.942a2.8858,2.8858,0,0,1-1.437.2h-7.7a2.8812,2.8812,0,0,1-1.436-.2,1.612,1.612,0,0,1,0-2.744,2.893,2.893,0,0,1,1.436-.2h7.7a2.9,2.9,0,0,1,1.437.2,1.613,1.613,0,0,1,0,2.74v0.004Zm8.757-52.64a24.452,24.452,0,1,1-24.6353-24.2673q0.0922-.0007.1843-0.0007c13.59,0,24.1,11.048,24.451,24.268,0.063,2.4,3.825,2.408,3.762,0A28.232,28.232,0,0,0,91.287,51.1c-16.39,19.552,1.142,49.591,26.331,45.491,13.692-2.229,23.222-14.1,23.577-27.615,0.063-2.399-3.695-2.398-3.762.004v0.0039ZM111.6,54.109c0,5.244-.685,10.931,0,16.121,0.239,1.813,0,.5.291,0.248-0.933.825-1.768,1.807-2.639,2.7q-2.751,2.814-5.5,5.627c-1.687,1.725.97,4.368,2.66,2.64,2.729-2.789,8.247-6.451,8.954-10.344,0.964-5.3,0-11.582,0-16.988,0-2.4-3.761-2.406-3.761,0h0ZM906.407,90.216h-51.16c-9.02,0-15.93,5.178-16.1,14.764-0.15,9.311-.13,18.665,0,27.977,0.08,5.763,2.57,11.055,7.97,13.611,4.42,2.084,9.89,1.332,14.62,1.332-0.62-.627-1.25-1.254-1.87-1.881v20.566a1.889,1.889,0,0,0,3.19,1.33l17.76-16.289c1.18-1.089,2.53-2.126,3.61-3.318,0.28-.305.63-0.562,0.92-0.846-0.36.343-1.67,0.108-.53,0.438,1.48,0.425,3.73,0,5.26,0h8.12c8.85,0,19.25.079,21.72-10.845,0.66-2.91.34-6.152,0.34-9.108V112.322c0-3.45.39-7.207-.24-10.627-1.24-6.783-6.94-11.115-13.61-11.479-2.4-.132-2.4,3.631,0,3.762,12.05,0.657,10.11,13.67,10.11,22.114v13.032c0,3.347.38,6.963-1.38,9.971-4.41,7.5-17.36,5.043-24.62,5.043-2.23,0-5.45-.63-7.5.4-1.75.885-3.43,3.118-4.85,4.424q-8.88,8.145-17.75,16.289c1.06,0.443,2.13.886,3.19,1.33V146.019a1.9,1.9,0,0,0-1.87-1.881c-3.63,0-7.87.6-11.41-.38-5.85-1.629-7.43-6.9-7.43-12.272,0-8.549-.12-17.107,0-25.655,0.09-6.257,3.28-11.5,10.1-11.853,1.7-.089,3.43,0,5.13,0h48.28c2.4131,0,2.4231-3.762.0032-3.762H906.407Zm-15.35-11.538c0.71-13.059,16.92-10.158,25.8-10.158h37.46c8.66,0,20.48-1.492,20.85,10.886,0.33,10.9,0,21.863,0,32.769,0,3.99.78,9.194-.55,13.062-2.93,8.557-12.98,6.863-20.04,6.863a1.9,1.9,0,0,0-1.87,1.881v21.067c1.06-.443,2.13-0.887,3.19-1.33q-7.56-7.439-15.13-14.878c-1.88-1.848-3.91-4.683-6.18-6.073-2.15-1.319-5.23-.667-7.71-0.667-2.41,0-2.41,3.762,0,3.762,1.5,0,3.45.351,4.92,0,1.23-.3,1.57.6,0.1-0.479a3.4292,3.4292,0,0,1,.63.62c1.75,2.493,4.75,4.67,6.91,6.791q6.915,6.792,13.82,13.584a1.888,1.888,0,0,0,3.19-1.33V133.981c-0.62.627-1.25,1.254-1.87,1.881,6.03,0,13.28,1.135,18.49-2.588,4.77-3.411,5.84-8.6,5.84-14.089,0-12.9.09-25.8,0-38.7-0.04-6.053-2.2-11.647-7.97-14.392-3.59-1.708-7.62-1.333-11.48-1.333h-41.72c-11.58,0-29.52-2.758-30.42,13.92-0.13,2.419,3.61,2.412,3.74,0h0Z" transform="translate(-0.0124 -0.0004)"/><rect class="cls-2" x="99.4276" y="153.4996" width="26.332" height="8.5268" rx="4.2634" ry="4.2634"/></svg>