<?xml version="1.0" encoding="utf-8"?>
<!-- Generator: Adobe Illustrator 15.0.0, SVG Export Plug-In . SVG Version: 6.00 Build 0)  -->
<!DOCTYPE svg PUBLIC "-//W3C//DTD SVG 1.1//EN" "http://www.w3.org/Graphics/SVG/1.1/DTD/svg11.dtd">
<svg version="1.1" id="Layer_1" xmlns="http://www.w3.org/2000/svg" xmlns:xlink="http://www.w3.org/1999/xlink" x="0px" y="0px"
	 width="1600px" height="760px" viewBox="0 0 1600 760" enable-background="new 0 0 1600 760" xml:space="preserve">
<g opacity="0.25">
	<polygon fill="#128EC2" points="1059.466,578.059 1369.249,268.272 1679.031,578.059 1059.466,578.059 	"/>
	<polygon fill="#128EC2" points="1206.658,578.059 1516.44,268.272 1826.227,578.059 1206.658,578.059 	"/>
	<polygon fill="#128EC2" points="186.949,578.059 496.736,268.272 806.518,578.059 186.949,578.059 	"/>
	<polygon fill="#128EC2" points="-181.309,578.059 128.474,268.272 438.26,578.059 -181.309,578.059 	"/>
	<polygon fill="#128EC2" points="497.952,604.057 807.734,294.275 1117.516,604.057 497.952,604.057 	"/>
	<polygon fill="#128EC2" points="718.465,578.059 1028.248,268.272 1338.034,578.059 718.465,578.059 	"/>
	<polygon fill="#31A2D1" points="1278.466,631.058 1588.249,321.276 1898.031,631.058 1278.466,631.058 	"/>
	<polygon fill="#31A2D1" points="895.66,631.058 1205.442,321.276 1515.225,631.058 895.66,631.058 	"/>
	<polygon fill="#31A2D1" points="504.95,631.058 814.737,321.276 1124.518,631.058 504.95,631.058 	"/>
	<polygon fill="#31A2D1" points="41.692,631.058 351.474,321.276 661.261,631.058 41.692,631.058 	"/>
	<polygon fill="#0A83B5" points="698.368,599.057 957.779,339.643 1217.193,599.057 698.368,599.057 	"/>
	<polygon fill="#0A83B5" points="1129.391,605.056 1388.805,345.646 1648.216,605.056 1129.391,605.056 	"/>
	<polygon fill="#0A83B5" points="1512.581,599.057 1771.991,339.643 2031.405,599.057 1512.581,599.057 	"/>
	<polygon fill="#0A83B5" points="378.561,599.057 637.975,339.643 897.386,599.057 378.561,599.057 	"/>
	<polygon fill="#0A83B5" points="-27.306,599.057 232.104,339.643 491.519,599.057 -27.306,599.057 	"/>
	<polygon fill="#0A83B5" points="378.561,696.055 637.975,436.645 897.386,696.055 378.561,696.055 	"/>
	<polygon fill="#0A83B5" points="5.694,693.058 265.104,433.644 524.52,693.058 5.694,693.058 	"/>
	<polygon fill="#0478A9" points="424.502,654.059 649.102,429.46 873.697,654.059 424.502,654.059 	"/>
	<polygon fill="#0478A9" points="874.734,654.059 1099.333,429.46 1323.928,654.059 874.734,654.059 	"/>
	<polygon fill="#0478A9" points="874.734,690.056 1099.333,465.458 1323.928,690.056 874.734,690.056 	"/>
	<polygon fill="#0478A9" points="1254.508,654.059 1479.108,429.46 1703.703,654.059 1254.508,654.059 	"/>
	<polygon fill="#0478A9" points="-29.002,654.059 195.597,429.46 420.192,654.059 -29.002,654.059 	"/>
	<polygon fill="#0478A9" points="-472.171,654.059 -247.573,429.46 -22.978,654.059 -472.171,654.059 	"/>
	<polygon fill="#0478A9" points="-32.169,690.057 192.425,465.462 417.024,690.057 -32.169,690.057 	"/>
	<polygon fill="#0478A9" points="423.826,690.057 648.426,465.462 873.02,690.057 423.826,690.057 	"/>
	<polygon fill="#0478A9" points="1253.829,690.057 1478.423,465.462 1703.022,690.057 1253.829,690.057 	"/>
	<polygon fill="#0C3E59" points="186.435,759.39 419.103,526.726 651.768,759.39 186.435,759.39 	"/>
	<polygon fill="#0C3E59" points="652.843,759.39 885.507,526.726 1118.175,759.39 652.843,759.39 	"/>
	<polygon fill="#0C3E59" points="1116.705,759.39 1349.369,526.726 1582.038,759.39 1116.705,759.39 	"/>
	<polygon fill="#0C3E59" points="-279.361,759.39 -46.697,526.726 185.971,759.39 -279.361,759.39 	"/>
	<polygon fill="#0D4868" points="372.396,760.049 605.064,526.726 837.729,760.049 372.396,760.049 	"/>
	<polygon fill="#0D4868" points="838.804,760.049 1071.468,526.726 1304.137,760.049 838.804,760.049 	"/>
	<polygon fill="#0D4868" points="1302.666,760.049 1535.33,526.726 1767.999,760.049 1302.666,760.049 	"/>
	<polygon fill="#0D4868" points="-97.401,760.049 135.263,526.726 367.932,760.049 -97.401,760.049 	"/>
</g>
</svg>
