<?xml version="1.0" encoding="utf-8"?>
<!-- Generator: Adobe Illustrator 15.0.0, SVG Export Plug-In . SVG Version: 6.00 Build 0)  -->
<!DOCTYPE svg PUBLIC "-//W3C//DTD SVG 1.1//EN" "http://www.w3.org/Graphics/SVG/1.1/DTD/svg11.dtd">
<svg version="1.1" id="Layer_1" xmlns="http://www.w3.org/2000/svg" xmlns:xlink="http://www.w3.org/1999/xlink" x="0px" y="0px"
	 width="40px" height="84px" viewBox="0 0 40 84" enable-background="new 0 0 40 84" xml:space="preserve">
<g>
	<g>
		<g>
			<rect x="28" y="18" fill="#27AAE1" width="8" height="32"/>
			<rect x="32" y="18" opacity="0.1" fill="#231F20" width="4" height="32"/>
			<polyline fill="#F2B588" points="28,18 32,10 36,18 			"/>
		</g>
		<polygon opacity="0.1" fill="#231F20" points="32,18 36,18 32,10 		"/>
		<polygon fill="#231F20" points="32,10 30.084,14 33.917,14 		"/>
	</g>
	<g>
		<rect x="16" y="12" fill="#FF6225" width="8" height="34"/>
		<rect x="20" y="12" opacity="0.1" fill="#231F20" width="4" height="34"/>
		<rect x="16" y="8" fill="#F9ED32" width="6" height="4"/>
		<rect x="16" y="8" fill="#EE2A7B" width="8" height="4"/>
		<rect x="20" y="8" opacity="0.1" fill="#231F20" width="4" height="4"/>
	</g>
	<g>
		<g>
			<rect x="2" fill="#FDAF33" width="10" height="50"/>
		</g>
		<g>
			<g>
				<rect x="2" y="3.932" fill="#231F20" width="4" height="2"/>
			</g>
			<g>
				<rect x="2" y="8" fill="#231F20" width="4" height="2"/>
			</g>
			<g>
				<rect x="2" y="12" fill="#231F20" width="4" height="2"/>
			</g>
			<g>
				<rect x="2" y="16" fill="#231F20" width="4" height="2"/>
			</g>
			<g>
				<rect x="2" y="20" fill="#231F20" width="4" height="2"/>
			</g>
			<g>
				<rect x="2" y="24" fill="#231F20" width="4" height="2"/>
			</g>
			<g>
				<rect x="2" y="28" fill="#231F20" width="4" height="2"/>
			</g>
			<g>
				<rect x="2" y="32" fill="#231F20" width="4" height="2"/>
			</g>
		</g>
	</g>
	<g>
		<g>
			<rect y="36" fill="#BCBEC0" width="40" height="48"/>
		</g>
		<g opacity="0.5">
			<rect y="36" fill="#FFFFFF" width="12" height="48"/>
		</g>
		<g opacity="0.1">
			<rect x="28" y="36" fill="#231F20" width="12" height="48"/>
		</g>
	</g>
</g>
</svg>
