<?xml version="1.0" encoding="utf-8"?>
<!-- Generator: Adobe Illustrator 15.0.0, SVG Export Plug-In . SVG Version: 6.00 Build 0)  -->
<!DOCTYPE svg PUBLIC "-//W3C//DTD SVG 1.1//EN" "http://www.w3.org/Graphics/SVG/1.1/DTD/svg11.dtd">
<svg version="1.1" id="Layer_1" xmlns="http://www.w3.org/2000/svg" xmlns:xlink="http://www.w3.org/1999/xlink" x="0px" y="0px"
	 width="42px" height="42px" viewBox="0 0 42 42" enable-background="new 0 0 42 42" xml:space="preserve">
<path opacity="0.55" fill="#FFFFFF" d="M21,1C9.954,1,1,9.954,1,21s8.954,20,20,20s20-8.954,20-20S32.046,1,21,1z M29.137,16.964
	c0.008,0.175,0.012,0.35,0.012,0.525c0,5.365-4.223,11.552-11.944,11.552c-2.371,0-4.577-0.673-6.435-1.824
	c0.328,0.037,0.662,0.056,1.001,0.056c1.967,0,3.777-0.648,5.213-1.737c-1.836-0.033-3.387-1.207-3.92-2.82
	c0.256,0.049,0.519,0.074,0.789,0.074c0.383,0,0.754-0.05,1.105-0.144c-1.92-0.372-3.366-2.014-3.366-3.98c0-0.018,0-0.033,0-0.051
	c0.565,0.304,1.213,0.486,1.901,0.508c-1.127-0.728-1.867-1.971-1.867-3.379c0-0.744,0.207-1.441,0.568-2.041
	c2.07,2.457,5.163,4.072,8.651,4.242c-0.071-0.297-0.108-0.607-0.108-0.926c0-2.242,1.879-4.06,4.198-4.06
	c1.207,0,2.299,0.493,3.064,1.282c0.955-0.183,1.854-0.521,2.664-0.985c-0.313,0.948-0.979,1.744-1.846,2.246
	c0.85-0.099,1.658-0.316,2.412-0.64C30.668,15.677,29.955,16.392,29.137,16.964z"/>
</svg>
