<?xml version="1.0" encoding="utf-8"?>
<!-- Generator: Adobe Illustrator 15.0.0, SVG Export Plug-In . SVG Version: 6.00 Build 0)  -->
<!DOCTYPE svg PUBLIC "-//W3C//DTD SVG 1.1//EN" "http://www.w3.org/Graphics/SVG/1.1/DTD/svg11.dtd">
<svg version="1.1" id="Layer_1" xmlns="http://www.w3.org/2000/svg" xmlns:xlink="http://www.w3.org/1999/xlink" x="0px" y="0px"
	 width="174px" height="128px" viewBox="0 0 174 128" enable-background="new 0 0 174 128" xml:space="preserve">
<g>
	<g>
		<defs>
			<path id="SVGID_1_" d="M85.907,25.955c27.615,0,50,22.385,50,50c0,27.614-22.385,50-50,50c-27.616,0-50-22.386-50-50
				C35.906,48.339,58.291,25.955,85.907,25.955L85.907,25.955z M85.907,27.954c26.509,0,48,21.49,48,48.001
				c0,26.511-21.49,48.001-48,48.001c-26.51,0-48-21.49-48-48.001C37.906,49.443,59.397,27.954,85.907,27.954L85.907,27.954z"/>
		</defs>
		<use xlink:href="#SVGID_1_"  overflow="visible" fill-rule="evenodd" clip-rule="evenodd" fill="#1193CD"/>
		<clipPath id="SVGID_2_">
			<use xlink:href="#SVGID_1_"  overflow="visible"/>
		</clipPath>
	</g>
	<g>
		<defs>
			<path id="SVGID_3_" d="M85.907,38.955c20.436,0,37,16.565,37,37c0,20.434-16.563,36.999-37,36.999c-20.436,0-37-16.565-37-36.999
				C48.906,55.521,65.471,38.955,85.907,38.955L85.907,38.955z M85.907,40.955c19.329,0,35,15.669,35,35c0,19.33-15.671,35-35,35
				c-19.329,0-35-15.67-35-35C50.907,56.624,66.578,40.955,85.907,40.955L85.907,40.955z"/>
		</defs>
		<use xlink:href="#SVGID_3_"  overflow="visible" fill-rule="evenodd" clip-rule="evenodd" fill="#1193CD"/>
		<clipPath id="SVGID_4_">
			<use xlink:href="#SVGID_3_"  overflow="visible"/>
		</clipPath>
	</g>
	<g>
		<defs>
			<path id="SVGID_5_" d="M84.907,76.954V53.955h1.981v22.999H84.907L84.907,76.954z M84.907,76.967v-1.982h15.187v1.982H84.907
				L84.907,76.967z"/>
		</defs>
		<use xlink:href="#SVGID_5_"  overflow="visible" fill="#F7901E"/>
		<clipPath id="SVGID_6_">
			<use xlink:href="#SVGID_5_"  overflow="visible"/>
		</clipPath>
	</g>
	<g>
		<defs>
			<path id="SVGID_7_" d="M84.907,108.954v-3h1.981v3H84.907L84.907,108.954z M84.907,45.955v-3h1.981v3H84.907L84.907,45.955z
				 M52.891,76.952V74.97h3v1.982H52.891L52.891,76.952z M115.893,76.952V74.97h2.998v1.982H115.893L115.893,76.952z"/>
		</defs>
		<use xlink:href="#SVGID_7_"  overflow="visible" fill="#1193CD"/>
		<clipPath id="SVGID_8_">
			<use xlink:href="#SVGID_7_"  overflow="visible"/>
		</clipPath>
	</g>
	<g>
		<defs>
			<path id="SVGID_9_" d="M56.788,26.905L45.29,6.986l1.716-0.99l11.498,19.92L56.788,26.905L56.788,26.905z M145.906,76.967v-1.982
				h15.188v1.982H145.906L145.906,76.967z M12.906,72.968v-1.981h15.188v1.981H12.906L12.906,72.968z M129.836,34.044l-1.4-1.399
				l10.738-10.74l1.4,1.401L129.836,34.044L129.836,34.044z M37.836,126.046l-1.402-1.402l10.74-10.738l1.4,1.4L37.836,126.046
				L37.836,126.046z"/>
		</defs>
		<use xlink:href="#SVGID_9_"  overflow="visible" fill="#9AE2F6"/>
		<clipPath id="SVGID_10_">
			<use xlink:href="#SVGID_9_"  overflow="visible"/>
		</clipPath>
	</g>
	<g>
		<defs>
			<path id="SVGID_11_" d="M141.025,56.857l-2.236-0.728v-2.352l2.236-0.728l1.381,1.904L141.025,56.857L141.025,56.857z
				 M28.407,53.455c-0.829,0-1.5-0.672-1.5-1.5c0-0.83,0.671-1.501,1.5-1.501s1.5,0.671,1.5,1.501
				C29.907,52.783,29.236,53.455,28.407,53.455L28.407,53.455z"/>
		</defs>
		<use xlink:href="#SVGID_11_"  overflow="visible" fill="#9AE2F6"/>
		<clipPath id="SVGID_12_">
			<use xlink:href="#SVGID_11_"  overflow="visible"/>
		</clipPath>
	</g>
	<g>
		<defs>
			<path id="SVGID_13_" d="M100.656,6.08c-1.379,0-2.498-1.119-2.498-2.5c0-1.382,1.119-2.501,2.498-2.501
				c1.381,0,2.5,1.119,2.5,2.501C103.156,4.961,102.037,6.08,100.656,6.08L100.656,6.08z M41.407,117.079
				c-1.242,0-2.25-1.008-2.25-2.25s1.008-2.248,2.25-2.248s2.25,1.006,2.25,2.248S42.649,117.079,41.407,117.079L41.407,117.079z
				 M155.906,112.581c-0.967,0-1.75-0.785-1.75-1.752s0.783-1.75,1.75-1.75s1.752,0.783,1.752,1.75S156.873,112.581,155.906,112.581
				L155.906,112.581z"/>
		</defs>
		<use xlink:href="#SVGID_13_"  overflow="visible" fill="#9AE2F6"/>
		<clipPath id="SVGID_14_">
			<use xlink:href="#SVGID_13_"  overflow="visible"/>
		</clipPath>
	</g>
	<g>
		<defs>
			<polygon id="SVGID_15_" points="129.906,120.956 126.553,121.024 123.338,121.997 122.236,118.825 120.32,116.069 
				122.994,114.044 125.021,111.368 127.777,113.284 130.947,114.388 129.975,117.599 129.906,120.956 			"/>
		</defs>
		<use xlink:href="#SVGID_15_"  overflow="visible" fill="#9AE2F6"/>
		<clipPath id="SVGID_16_">
			<use xlink:href="#SVGID_15_"  overflow="visible"/>
		</clipPath>
	</g>
	<g>
		<defs>
			<polygon id="SVGID_17_" points="45.907,32.955 42.551,33.023 39.338,33.996 38.238,30.824 36.319,28.068 38.995,26.043 
				41.022,23.367 43.776,25.284 46.948,26.387 45.975,29.599 45.907,32.955 			"/>
		</defs>
		<use xlink:href="#SVGID_17_"  overflow="visible" fill="#9AE2F6"/>
		<clipPath id="SVGID_18_">
			<use xlink:href="#SVGID_17_"  overflow="visible"/>
		</clipPath>
	</g>
</g>
</svg>
