<?xml version="1.0" encoding="utf-8"?>
<!-- Generator: Adobe Illustrator 15.0.0, SVG Export Plug-In . SVG Version: 6.00 Build 0)  -->
<!DOCTYPE svg PUBLIC "-//W3C//DTD SVG 1.1//EN" "http://www.w3.org/Graphics/SVG/1.1/DTD/svg11.dtd">
<svg version="1.1" id="Layer_1" xmlns="http://www.w3.org/2000/svg" xmlns:xlink="http://www.w3.org/1999/xlink" x="0px" y="0px"
	 width="102px" height="124px" viewBox="0 0 102 124" enable-background="new 0 0 102 124" xml:space="preserve">
<g>
	<g>
		<g>
			<path fill-rule="evenodd" clip-rule="evenodd" fill="#13911A" d="M50.588,12.501c19.957,0,36.135,16.178,36.135,36.134
				c0,19.957-16.178,36.134-36.135,36.134c-19.956,0-36.134-16.178-36.134-36.134C14.454,28.679,30.632,12.501,50.588,12.501z"/>
			<path fill-rule="evenodd" clip-rule="evenodd" fill="#13911A" d="M28.621,6.489c10.834,0,19.618,8.783,19.618,19.619
				s-8.784,19.619-19.618,19.619c-10.836,0-19.62-8.783-19.62-19.619S17.785,6.489,28.621,6.489z"/>
			<path fill-rule="evenodd" clip-rule="evenodd" fill="#13911A" d="M17.104,51.708c8.716,0,15.78,7.065,15.78,15.78
				c0,8.717-7.064,15.781-15.78,15.781s-15.78-7.064-15.78-15.781C1.324,58.774,8.389,51.708,17.104,51.708z"/>
			<path fill-rule="evenodd" clip-rule="evenodd" fill="#13911A" d="M75.086,21.686c14.133,0,25.59,11.457,25.59,25.591
				c0,14.133-11.457,25.59-25.59,25.59s-25.59-11.458-25.59-25.59C49.496,33.143,60.953,21.686,75.086,21.686z"/>
			<path fill-rule="evenodd" clip-rule="evenodd" fill="#13911A" d="M74.256,0.514c6.596,0,11.942,5.347,11.942,11.942
				s-5.347,11.942-11.942,11.942c-6.594,0-11.941-5.347-11.941-11.942S67.662,0.514,74.256,0.514z"/>
			<path fill-rule="evenodd" clip-rule="evenodd" fill="#13911A" d="M63.875,62.884c9.598,0,17.374,7.776,17.374,17.374
				c0,9.596-7.776,17.373-17.374,17.373c-9.594,0-17.373-7.777-17.373-17.373C46.502,70.66,54.281,62.884,63.875,62.884z"/>
		</g>
	</g>
	<g>
		<path fill-rule="evenodd" clip-rule="evenodd" fill="#23A929" d="M28.621,12.396c5.896,0,11.172,2.614,14.768,6.731
			c2.327-0.471,4.734-0.719,7.199-0.719c4.178,0,8.185,0.717,11.917,2.021c-0.118-0.672-0.19-1.359-0.19-2.065
			c0-6.597,5.348-11.942,11.941-11.942c5.586,0,10.261,3.838,11.566,9.018c0.246-0.953,0.376-1.952,0.376-2.982
			c0-6.596-5.347-11.942-11.942-11.942c-6.594,0-11.941,5.347-11.941,11.942c0,0.706,0.072,1.394,0.19,2.065
			c-3.732-1.304-7.739-2.021-11.917-2.021c-2.465,0-4.872,0.248-7.199,0.719c-3.596-4.117-8.871-6.731-14.768-6.731
			c-10.836,0-19.62,8.783-19.62,19.619c0,1.028,0.083,2.036,0.235,3.021C10.636,19.666,18.769,12.396,28.621,12.396z"/>
	</g>
	<g>
		<g>
			<g>
				<g>
					<path fill="#09700C" d="M44.695,123.486V30.782c0-2.188,1.773-3.962,3.961-3.962s3.962,1.773,3.962,3.962v92.705"/>
				</g>
			</g>
			<g>
				<g>
					<path fill="#09700C" d="M48.656,49.797c-0.507,0-1.014-0.193-1.4-0.58c-0.773-0.773-0.773-2.028,0-2.801l17.097-17.096
						c0.772-0.773,2.028-0.773,2.801,0c0.774,0.773,0.774,2.028,0,2.801L50.057,49.217C49.67,49.604,49.163,49.797,48.656,49.797z"
						/>
				</g>
			</g>
			<g>
				<g>
					<path fill="#09700C" d="M48.656,68.814c-0.507,0-1.014-0.193-1.4-0.58L27.613,48.591c-0.773-0.773-0.773-2.027,0-2.801
						s2.028-0.773,2.801,0l19.643,19.643c0.773,0.773,0.773,2.027,0,2.801C49.67,68.621,49.163,68.814,48.656,68.814z"/>
				</g>
			</g>
			<g>
				<g>
					<path fill="#09700C" d="M48.656,81.002c-0.507,0-1.014-0.193-1.4-0.58c-0.773-0.773-0.773-2.027,0-2.801l19.13-19.129
						c0.772-0.773,2.028-0.773,2.801,0c0.774,0.774,0.774,2.027,0,2.802l-19.13,19.128C49.67,80.809,49.163,81.002,48.656,81.002z"
						/>
				</g>
			</g>
		</g>
	</g>
	<path fill-rule="evenodd" clip-rule="evenodd" fill="#23A929" d="M71.684,49.728c0,3.476-3.203,6.293-3.203,6.293
		s-3.203-2.817-3.203-6.293c0-3.477,3.203-6.295,3.203-6.295S71.684,46.251,71.684,49.728z"/>
	<path fill-rule="evenodd" clip-rule="evenodd" fill="#23A929" d="M26.744,37.433c2.457,2.458,2.186,6.716,2.186,6.716
		s-4.258,0.272-6.715-2.186c-2.459-2.458-2.187-6.716-2.187-6.716S24.286,34.975,26.744,37.433z"/>
	<path fill-rule="evenodd" clip-rule="evenodd" fill="#23A929" d="M36.992,42.393c-2.457,2.458-6.715,2.186-6.715,2.186
		s-0.273-4.258,2.185-6.716s6.716-2.185,6.716-2.185S39.449,39.935,36.992,42.393z"/>
	<path fill-rule="evenodd" clip-rule="evenodd" fill="#23A929" d="M77.459,8.528c0.001,3.476-3.203,6.294-3.203,6.294
		s-3.203-2.818-3.203-6.294c0-3.478,3.203-6.295,3.203-6.295S77.459,5.051,77.459,8.528z"/>
	<path fill-rule="evenodd" clip-rule="evenodd" fill="#23A929" d="M42.167,23.952c-2.458,2.458-6.716,2.186-6.716,2.186
		s-0.271-4.258,2.186-6.716c2.459-2.458,6.716-2.186,6.716-2.186S44.625,21.494,42.167,23.952z"/>
	<path fill-rule="evenodd" clip-rule="evenodd" fill="#23A929" d="M78.658,35.535c-3.477,0.001-6.295-3.203-6.295-3.203
		s2.819-3.202,6.295-3.203c3.477,0,6.294,3.203,6.294,3.203S82.134,35.535,78.658,35.535z"/>
	<path fill-rule="evenodd" clip-rule="evenodd" fill="#23A929" d="M9.52,76.563c-2.457,2.459-6.715,2.186-6.715,2.186
		s-0.272-4.258,2.185-6.715c2.459-2.459,6.716-2.186,6.716-2.186S11.978,74.105,9.52,76.563z"/>
	<path fill-rule="evenodd" clip-rule="evenodd" fill="#23A929" d="M16.648,76.563c-2.458-2.457-2.186-6.715-2.186-6.715
		s4.258-0.273,6.716,2.186c2.459,2.459,2.186,6.715,2.186,6.715S19.106,79.021,16.648,76.563z"/>
	<path fill-rule="evenodd" clip-rule="evenodd" fill="#23A929" d="M66.068,88.719c-2.458-2.457-2.186-6.715-2.186-6.715
		s4.258-0.271,6.717,2.186c2.459,2.459,2.186,6.715,2.186,6.715S68.527,91.178,66.068,88.719z"/>
	<path fill-rule="evenodd" clip-rule="evenodd" fill="#23A929" d="M75.269,59.832c-3.476,0-6.294-3.203-6.294-3.203
		s2.818-3.203,6.294-3.203s6.294,3.203,6.294,3.203S78.744,59.832,75.269,59.832z"/>
</g>
</svg>
