<?xml version="1.0" encoding="utf-8"?>
<!-- Generator: Adobe Illustrator 15.0.0, SVG Export Plug-In . SVG Version: 6.00 Build 0)  -->
<!DOCTYPE svg PUBLIC "-//W3C//DTD SVG 1.1//EN" "http://www.w3.org/Graphics/SVG/1.1/DTD/svg11.dtd">
<svg version="1.1" id="Layer_1" xmlns="http://www.w3.org/2000/svg" xmlns:xlink="http://www.w3.org/1999/xlink" x="0px" y="0px"
	 width="260px" height="400px" viewBox="0 0 260 400" enable-background="new 0 0 260 400" xml:space="preserve">
<g>
	<g>
		<path fill="#FFC20E" d="M212.395,135.786c5.922,5.149-8.423,15.764-22.623,24.912c-14.201,9.151-28.178,12.455-28.305,7.296
			c-0.086-3.576,2.814-15.001,17.014-24.149C192.682,134.695,208.64,132.521,212.395,135.786"/>
		<path fill="#0C4C9D" d="M165.412,172.851c-5.795,0-6.334-3.671-6.361-4.799c-0.1-3.986,2.967-16.479,18.121-26.242
			c11.312-7.289,22.834-9.874,29.265-9.874c3.462,0,6.001,0.682,7.545,2.024c1.573,1.367,2.327,3.142,2.184,5.132
			c-0.397,5.568-7.666,12.417-25.083,23.641C181.541,168.878,171.466,172.851,165.412,172.851 M163.885,167.807
			c0.218,0.088,0.697,0.205,1.527,0.205c4.114,0,13.081-2.924,23.049-9.347c18.59-11.977,22.701-17.442,22.88-19.918
			c0.028-0.391-0.053-0.716-0.533-1.137c-0.099-0.087-1.06-0.837-4.371-0.837c-6.229,0-16.884,2.815-26.646,9.104
			C166.759,154.275,163.892,164.632,163.885,167.807"/>
		<g opacity="0.5">
			<g>
				<defs>
					<rect id="SVGID_1_" x="163.837" y="136.563" width="48.782" height="34.158"/>
				</defs>
				<clipPath id="SVGID_2_">
					<use xlink:href="#SVGID_1_"  overflow="visible"/>
				</clipPath>
				<path clip-path="url(#SVGID_2_)" fill="#DC661E" d="M211.161,138.133c5.922,5.15-7.189,13.417-21.39,22.565
					c-14.201,9.151-25.809,12.831-25.933,7.673c-0.088-3.576,1.674-13.679,15.875-22.829
					C193.914,136.393,207.407,134.869,211.161,138.133"/>
			</g>
		</g>
		<path fill="#1293CD" d="M212.734,242.255c0,0,24.556,17.896,25.803,60.763c1.249,42.867-43.698,76.993-70.334,75.744
			C141.567,377.515,212.734,242.255,212.734,242.255"/>
		<path fill="#0C4C9D" d="M169.639,380.609c-0.514,0-1.017-0.012-1.521-0.034c-2.692-0.128-4.802-1.394-6.1-3.662
			c-11.234-19.63,42.9-123.702,49.109-135.503l0.978-1.858l1.697,1.236c1.03,0.753,25.288,18.917,26.548,62.177
			c0.544,18.697-7.512,37.597-22.687,53.221C203.252,371.021,184.4,380.609,169.639,380.609 M213.293,245.097
			c-17.229,33.032-56.617,115.175-48.125,130.016c0.688,1.202,1.651,1.77,3.119,1.837c13.959,0.66,32.557-8.654,46.772-23.292
			c14.486-14.914,22.18-32.879,21.663-50.588C235.706,268.115,218.695,249.988,213.293,245.097"/>
		<path fill="#0C4C9D" d="M242.791,330.409c-0.395-0.493-9.786-12.677-18.396-43.705c-0.238-0.858-0.431-1.833-0.528-2.7
			c-0.1-0.866-0.097-1.539,0.006-1.868l5.437-17.21c0.116-0.369,0.352-0.242,0.633,0.338c0.279,0.576,0.576,1.551,0.797,2.611
			l12.214,59.07c0.229,1.122,0.351,2.21,0.317,2.901c-0.021,0.449-0.104,0.696-0.23,0.725
			C242.969,330.585,242.887,330.533,242.791,330.409 M225.956,287.207c5.846,19.904,12.108,30.873,14.717,34.914l-10.185-49.261
			L225.956,287.207z"/>
		<path fill="#FFC20E" d="M225.723,285.721c-0.083-0.742-0.081-1.319,0.006-1.604l4.661-14.758c0.102-0.316,0.301-0.211,0.543,0.287
			c0.242,0.495,0.496,1.334,0.686,2.246l10.472,50.648c0.197,0.961,0.301,1.894,0.273,2.489c-0.019,0.384-0.089,0.599-0.199,0.62
			c-0.058,0.012-0.13-0.029-0.21-0.135c-0.339-0.428-8.394-10.873-15.778-37.479C225.973,287.299,225.809,286.463,225.723,285.721"
			/>
		<path fill="#1293CD" d="M79.451,325.488c0,0-2.264-16.857,9.812-47.298c12.076-30.442,38.241-60.634,66.923-66.419
			c28.68-5.788,50.569,11.573,59.878,40.505c9.308,28.934,4.276,60.884-2.267,80.005c-6.54,19.12-33.46,46.795-57.611,51.575
			c-24.154,4.78-53.84,3.272-69.187-19.373C71.652,341.841,79.451,325.488,79.451,325.488"/>
		<path fill="#0C4C9D" d="M134.685,387.882c-22.257,0-39.265-7.738-49.187-22.38c-14.45-21.318-9.137-37.26-7.901-40.295
			c-0.291-3.138-1.112-19.725,9.98-47.687c11.165-28.143,37.284-61.28,68.25-67.528c3.764-0.759,7.506-1.145,11.12-1.145
			c23.198,0,42.205,16.027,50.842,42.873c9.109,28.306,4.797,60.479-2.274,81.147c-6.829,19.967-34.661,47.956-58.977,52.769
			C149.01,387.126,141.655,387.882,134.685,387.882 M166.946,212.477c-3.375,0-6.874,0.359-10.403,1.072
			c-29.64,5.98-54.778,38.048-65.594,65.311c-11.716,29.532-9.721,46.226-9.7,46.391l0.068,0.531l-0.229,0.489
			c-0.293,0.628-7.103,15.779,7.412,37.197c11.645,17.179,31.542,20.786,46.185,20.786c6.736,0,13.853-0.731,21.147-2.178
			c23.181-4.587,49.726-31.313,56.25-50.383c6.883-20.117,11.089-51.4,2.253-78.861
			C206.204,227.563,188.488,212.477,166.946,212.477"/>
		<path fill="#FFC20E" d="M86.127,324.397c0,0-15.722,1.511-26.307-4.232c-10.582-5.745-24.492-14.213-28.121-13.004
			c-3.628,1.211-9.676,34.773,3.932,60.476c0,0,11.489,2.419,24.794,0.303c13.305-2.116,22.074-4.535,34.168,1.209
			C106.69,374.895,95.804,329.537,86.127,324.397"/>
		<path fill="#0C4C9D" d="M96.512,372.068h-0.003c-0.932,0-1.924-0.249-2.953-0.734c-4.857-2.309-9.3-3.337-14.404-3.337
			c-4.382,0-8.905,0.761-14.141,1.637c-1.354,0.229-2.752,0.462-4.205,0.692c-3.747,0.596-7.7,0.898-11.751,0.898
			c-8.023,0-13.686-1.172-13.922-1.221l-1.109-0.233l-0.531-1.002c-11.827-22.341-9.487-50.617-5.683-60.113
			c0.879-2.193,1.844-3.361,3.124-3.79c0.481-0.159,1.02-0.238,1.604-0.238c4.034,0,11.525,4.008,22.496,10.125
			c2.034,1.135,4.042,2.253,5.941,3.285c6.604,3.585,15.615,4.121,20.4,4.121c2.712,0,4.503-0.167,4.523-0.169l0.721-0.07
			l0.645,0.342c8.695,4.619,17.26,34.074,14.597,44.758C100.725,371.576,97.742,372.068,96.512,372.068 M79.152,363.159
			c5.781,0,11.017,1.208,16.48,3.804c0.508,0.242,0.785,0.268,0.879,0.268c0.033,0,0.048-0.002,0.048-0.002
			c-0.007,0,1.121-0.941,0.943-6.079c-0.419-12.084-6.974-30.601-11.98-34.281c-0.849,0.057-2.299,0.127-4.147,0.127
			c-6.404,0-15.543-0.817-22.709-4.704c-1.915-1.04-3.937-2.17-5.988-3.313c-7.053-3.933-16.66-9.289-19.944-9.508
			c-2.773,4.277-7.079,33.034,4.498,55.999c1.952,0.321,6.321,0.918,11.823,0.918c3.797,0,7.494-0.28,10.991-0.836
			c1.438-0.229,2.824-0.462,4.167-0.688C69.661,363.948,74.368,363.159,79.152,363.159"/>
		<path fill="#67686B" d="M88.735,92.69c0,0-6.623,1.753-2.663,8.44c0,0-2.467,1.883-2.013,5.195
			c0.455,3.311,4.415,3.895,4.415,3.895s-1.299,2.012-0.455,3.96c0.845,1.948,10.065,2.468,13.635,1.558s2.986-4.35,1.363-5.713
			c0,0,3.697-0.714,4.284-4.285c0.583-3.572-1.753-4.545-1.753-4.545s2.272-2.467,1.753-4.611c-0.52-2.141-4.481-3.308-4.481-3.308
			S91.723,91.976,88.735,92.69"/>
		<path fill="#0C4C9D" d="M96.984,117.383L96.984,117.383c-2.087,0-8.979-0.195-10.074-2.721c-0.583-1.346-0.403-2.687-0.1-3.653
			c-1.479-0.558-3.578-1.816-3.948-4.519c-0.371-2.698,0.852-4.606,1.711-5.582c-1.067-2.126-1.26-4.042-0.578-5.709
			c1.139-2.778,4.296-3.644,4.429-3.679c0.725-0.172,1.756-0.254,3.183-0.254c4.407,0,11.072,0.774,11.354,0.808l0.202,0.042
			c0.473,0.138,4.647,1.442,5.313,4.184c0.431,1.783-0.481,3.578-1.228,4.675c0.818,0.847,1.667,2.383,1.246,4.959
			c-0.427,2.614-2.167,3.977-3.529,4.66c0.492,0.975,0.669,2.109,0.434,3.129c-0.207,0.915-0.934,2.548-3.445,3.188
			C100.76,117.215,98.996,117.383,96.984,117.383 M89.017,93.867c0.001,0-2.116,0.602-2.787,2.261
			c-0.461,1.142-0.165,2.619,0.882,4.387l0.55,0.926l-0.857,0.652c-0.07,0.055-1.896,1.527-1.548,4.067
			c0.329,2.386,3.364,2.86,3.394,2.864l1.859,0.275l-1.021,1.579c-0.002,0.009-0.929,1.508-0.36,2.823
			c0.412,0.484,3.474,1.263,7.855,1.263c1.789,0,3.384-0.144,4.372-0.396c0.966-0.246,1.533-0.71,1.687-1.378
			c0.187-0.823-0.261-1.783-0.803-2.237l-1.944-1.632l2.493-0.48c0.112-0.025,2.882-0.625,3.319-3.294
			c0.406-2.479-0.898-3.174-1.051-3.244l-1.482-0.704l1.084-1.221c0.473-0.52,1.764-2.283,1.467-3.505
			c-0.234-0.969-2.222-1.992-3.553-2.408c-0.881-0.098-6.998-0.778-10.966-0.778C90.092,93.686,89.362,93.784,89.017,93.867"/>
		<path fill="#DC661E" d="M80.474,202.445c0,0.482-5.175,22.83,2.892,28.461c8.067,5.633,17.199,2.74,20.547-1.521
			c3.348-4.262,8.067-18.263,9.131-21.156c1.067-2.893,4.565-19.178,3.958-20.242c-0.608-1.066-15.981-9.742-20.7-7.001
			C91.583,183.725,80.474,201.986,80.474,202.445"/>
		<path fill="#FFC20E" d="M164.24,238.612c0,0-17.455-11.883-19.126-21.168c-1.67-9.28,4.645-19.492,2.973-33.789
			c-1.671-14.298-11.14-19.495-11.14-19.495s2.975-16.709-8.722-28.035c-11.696-11.325-30.447-15.968-51.425-18.01
			c-20.981-2.043-49.202-10.026-61.641,8.354c-12.438,18.379-9.835,43.074-6.309,62.012c3.528,18.938,14.852,26.365,20.422,26.735
			s30.074-1.299,49.197-8.354c19.125-7.056,30.45-24.323,31.378-24.694c0.929-0.372-4.827,7.054-5.384,19.123
			c-0.557,12.067,0.743,28.035-10.211,31.006c-10.955,2.971-16.896-8.356-13.925-23.58l-4.827,1.857c0,0-3.34,13.739,2.228,24.693
			c5.569,10.953,26.919,8.54,33.234-2.786c0,0,9.939,10.272,8.427,22.368c-1.512,12.095-26.812,56.846-26.812,56.846
			s-14.614,26.005-2.217,50.498c12.399,24.492,60.477,21.771,77.105,9.677c0,0,13.909,8.465,32.96,7.257
			c19.049-1.21,33.867-2.116,46.565-26.913c12.701-24.794,6.351-44.751-3.326-51.402c-9.675-6.652-27.214,1.512-35.681,12.096
			c-8.465,10.581-13.303,14.815-19.955,20.258c0,0,14.513-42.937-1.512-78.014c0,0,28.725-17.537,38.703-48.682
			c9.979-31.145-3.93-61.382-13.305-70.15c0,0-16.934,29.329-47.17,34.471c0,0,17.84,10.884,16.629,32.05
			C180.167,224.008,164.24,238.612,164.24,238.612"/>
		<path fill="#0C4C9D" d="M131.903,383.297c-21.335,0-37.263-7.295-43.699-20.012c-12.833-25.352,1.644-51.666,2.266-52.774
			c6.974-12.336,25.328-46.43,26.52-55.96c0.954-7.642-3.265-14.61-5.861-18.078c-4.806,5.701-12.858,8.289-19.414,8.289
			c-7.434,0-13.469-3.139-16.143-8.397c-4.962-9.759-3.4-21.304-2.687-25.1c-17.366,5.18-36.023,6.421-41.798,6.421
			c-0.795,0-1.46-0.02-1.975-0.054c-6.771-0.45-18.903-8.643-22.64-28.706c-3.667-19.693-6.222-44.743,6.684-63.812
			c5.955-8.801,15.467-12.9,29.929-12.9c7.495,0,15.3,1.073,22.847,2.108c3.904,0.537,7.589,1.044,11.102,1.385
			c25.473,2.479,42.274,8.416,52.875,18.68c10.434,10.104,10.095,23.916,9.629,28.595c2.953,2.18,9.541,8.309,10.954,20.394
			c0.935,8-0.489,14.699-1.747,20.61c-1.044,4.912-1.946,9.156-1.248,13.033c1.098,6.1,11.089,14.502,16.465,18.434
			c3.757-4.012,14.069-16.431,15-32.75c1.115-19.492-15.31-29.746-15.476-29.847l-5.518-3.367l6.373-1.083
			c28.784-4.892,45.316-33.011,45.479-33.295l1.523-2.639l2.226,2.082c9.989,9.346,24.337,40.25,13.954,72.655
			c-8.804,27.48-31.391,44.397-37.965,48.852c11.235,26.496,6.295,56.329,2.931,70.146c4.017-3.617,7.962-7.752,13.607-14.809
			c7.142-8.927,19.369-15.409,29.072-15.409c3.815,0,7.135,0.954,9.868,2.831c11.481,7.894,16.822,29.678,4.107,54.5
			c-13.309,25.985-29.609,27.019-48.486,28.218c-1.365,0.088-2.676,0.129-3.97,0.129c-14.421,0-25.344-4.988-29.09-6.954
			C159.465,379.956,145.701,383.297,131.903,383.297 M110.435,228.46l2.267,2.341c0.437,0.452,10.724,11.255,9.087,24.35
			c-1.554,12.427-26.063,55.893-27.105,57.738c-0.135,0.24-13.813,25.199-2.165,48.212c5.501,10.868,20.225,17.358,39.384,17.358
			c13.603,0,27.002-3.355,34.141-8.546l1.304-0.949l1.377,0.84c0.114,0.068,11.801,7.022,27.964,7.022
			c1.192,0,2.399-0.037,3.583-0.113c18.908-1.2,32.512-2.065,44.566-25.601c12.85-25.085,5.26-42.943-2.543-48.307
			c-1.91-1.313-4.307-1.979-7.126-1.979c-8.222,0-19.097,5.842-25.296,13.593c-8.617,10.771-13.637,15.155-20.312,20.618
			l-6.514,5.329l2.69-7.976c0.141-0.421,14.008-42.466-1.422-76.234l-0.891-1.947l1.828-1.119
			c0.282-0.172,28.089-17.475,37.663-47.359c8.898-27.776-1.901-54.998-10.632-65.48c-4.761,7.073-19.136,25.711-41.93,31.789
			c5.56,4.902,14.334,15.218,13.436,30.939c-1.252,21.896-17.237,36.793-17.917,37.417l-1.413,1.295l-1.584-1.078
			c-1.872-1.274-18.344-12.743-20.144-22.737c-0.865-4.811,0.176-9.711,1.278-14.897c1.18-5.546,2.517-11.83,1.675-19.042
			c-1.493-12.774-9.571-17.468-9.916-17.662l-1.493-0.842l0.287-1.696c0.026-0.151,2.573-15.612-8.023-25.873
			c-9.771-9.462-25.653-14.973-49.978-17.34c-3.608-0.353-7.34-0.865-11.291-1.407c-7.387-1.015-15.026-2.064-22.189-2.064
			c-12.712,0-20.949,3.423-25.923,10.774c-11.919,17.612-9.431,41.431-5.934,60.214c3.323,17.843,13.895,24.477,18.205,24.763
			c0.432,0.03,0.987,0.044,1.654,0.044c7.887,0,29.642-2.018,46.546-8.253c15.107-5.574,25.113-17.734,28.878-22.314
			c1.338-1.625,1.698-2.061,2.438-2.357l0.433-0.171l1.871-0.014l0.746,1.168c0.766,1.241,0.227,2.315-0.458,3.676
			c-1.281,2.545-4.277,8.508-4.661,16.822c-0.075,1.604-0.115,3.279-0.156,4.983c-0.273,11.229-0.616,25.201-11.838,28.243
			c-5.35,1.45-10.178,0.02-13.437-3.934c-2.905-3.528-4.381-8.739-4.309-14.857c-0.446,4.688-0.435,12.077,2.744,18.332
			c1.858,3.656,6.17,5.752,11.83,5.752c7.26,0,14.304-3.544,17.134-8.617L110.435,228.46z M83.008,207.612l-0.305,1.569
			c-1.525,7.809-0.597,14.702,2.482,18.438c2.06,2.499,4.945,3.288,8.434,2.343c7.74-2.1,8.011-13.076,8.268-23.693
			c0.044-1.741,0.085-3.451,0.162-5.089c0.134-2.906,0.547-5.546,1.096-7.892C98.3,198.131,91.538,203.742,83.008,207.612"/>
		<path fill="#0C4C9D" d="M28.813,335.287c0,0,9.824-0.298,11.709-7.739c1.884-7.44-7.047-10.913-11.512-10.714
			C29.01,316.834,26.431,332.808,28.813,335.287"/>
		<path fill="#0C4C9D" d="M27.813,337.738l-0.746-0.775c-2.657-2.769-1.709-12.685-0.444-20.517l0.313-1.942l1.966-0.087
			c3.767-0.173,9.403,1.698,12.292,5.408c1.863,2.396,2.444,5.273,1.673,8.317c-2.309,9.105-13.505,9.551-13.981,9.564
			L27.813,337.738z M31.07,319.406c-0.766,5.539-1.042,10.89-0.702,13.266c2.427-0.423,6.798-1.734,7.809-5.719
			c0.402-1.587,0.14-2.947-0.802-4.158C35.997,321.026,33.378,319.823,31.07,319.406"/>
		<path fill="#FFC20E" d="M112.737,379.732c0,0-5.745,12.548-20.712,13.303c0,0,22.073,6.956,35.227-11.338L112.737,379.732z"/>
		<path fill="#0C4C9D" d="M101.883,395.543h-0.002c-5.855,0-10.044-1.298-10.221-1.354l-6.419-2.022l6.722-0.339
			c14.024-0.709,19.451-12.118,19.676-12.601l0.375-0.812l17.395,2.353l-1.175,1.635
			C120.426,393.264,109.594,395.543,101.883,395.543 M98.956,393.008c0.911,0.072,1.891,0.116,2.925,0.116h0.002
			c6.74,0,16.052-1.873,23.138-10.509l-11.601-1.57C112.124,383.403,107.742,390.174,98.956,393.008"/>
		<path fill="#0C4C9D" d="M179.498,347.566L179.498,347.566c0.074-0.079,5.313-10.856,7.828-16.584l4.429,1.945
			C188.894,339.448,179.826,347.227,179.498,347.566"/>
		<path fill="#0C4C9D" d="M166.123,374.56l-2.311-3.096c3.612-2.126,8.844-8.857,9.476-10.529
			C173.171,361.246,171.932,371.143,166.123,374.56"/>
		<path fill="#0C4C9D" d="M155.271,244.973l-0.042-0.287c0.06-0.052,5.947-5.317,8.751-9.367l3.978,2.754
			C164.823,242.6,155.531,244.742,155.271,244.973"/>
		<path fill="#0C4C9D" d="M111.739,235.652l-3.788-3.008c4.86-6.122,4.918-13.741,4.918-13.817
			C112.87,219.209,117.639,228.224,111.739,235.652"/>
		<path fill="#0C4C9D" d="M98.626,196.996c0,0-7.662,7.659-7.862,20.158c0,0-1.055-6.045-0.608-9.355
			c0.447-3.313-5.03-1.465-5.03-1.465s4.967-3.63,6.178-4.267C92.511,201.431,98.626,196.996,98.626,196.996"/>
		<path fill="#0C4C9D" d="M113.987,185.633c-0.412-2.47-2.236-3.705-3.588-4.306c-2.444-1.083-6.613,0.162-6.646,0.186
			c0.185-0.119,3.981-4.021,7.63-2.396C113.522,180.071,114.714,182.462,113.987,185.633"/>
		<path fill="#FFF349" d="M89.216,96.378c0,0,1.99-6.8-4.974-12.604c-6.964-5.805-17.908-13.266-14.094-29.849
			c3.813-16.583,28.254-25.739,43.113-12.272c15.918,14.428,7.958,30.844,1.493,35.818c-5.862,4.51-9.784,6.964-11.275,11.443
			c-1.493,4.477-0.664,8.456-0.664,8.456S94.355,102.017,89.216,96.378"/>
		<path fill="#0C4C9D" d="M95.826,100.379c-3.052,0-5.576-1.071-7.503-3.188l-0.457-0.501l0.188-0.652
			c0.069-0.244,1.642-6.143-4.586-11.334c-0.484-0.403-0.99-0.817-1.507-1.241c-7.051-5.76-16.707-13.654-12.991-29.807
			c2.583-11.23,14.295-19.699,27.246-19.699c6.772,0,12.948,2.353,17.858,6.803c8.384,7.599,9.895,15.387,9.686,20.583
			c-0.31,7.647-4.375,14.094-8.269,17.088c-0.776,0.599-1.52,1.16-2.229,1.696c-4.491,3.396-7.46,5.638-8.637,9.169
			c-1.362,4.089-0.632,7.793-0.625,7.831L104.178,98l-0.779,0.43C103.252,98.511,99.803,100.379,95.826,100.379 M90.536,95.993
			c1.392,1.306,3.169,1.968,5.29,1.968c2.366,0,4.562-0.81,5.662-1.295c-0.171-1.522-0.31-4.681,0.843-8.135
			c1.413-4.242,4.793-6.798,9.471-10.334c0.704-0.531,1.443-1.089,2.215-1.685c3.334-2.565,7.05-8.438,7.326-15.268
			c0.27-6.711-2.806-13.176-8.896-18.694c-4.458-4.039-10.071-6.174-16.232-6.174c-11.852,0-22.553,7.661-24.89,17.821
			C67.949,68.884,76.568,75.93,83.493,81.59c0.522,0.43,1.034,0.845,1.524,1.255C91.234,88.028,90.884,93.954,90.536,95.993"/>
		<path fill="#0C4C9D" d="M96.122,103.221L96.122,103.221c0.544-0.011,6.469-1.421,8.73-3.013l1.394,1.978
			C103.089,104.407,96.169,103.221,96.122,103.221"/>
		<path fill="#0C4C9D" d="M100.194,111.313c-1.677,0-5.051-1.945-5.325-1.982c1.147,0.154,6.569,0.222,8.063-0.347l0.861,2.26
			C102.779,111.631,101.479,111.313,100.194,111.313"/>
		<path fill="#0C4C9D" d="M94.076,98.955l-1.18-0.261c0.028-0.13,2.809-13.04-1.927-20.093c-1.833-2.729-4.014-4.847-5.767-6.548
			c-2.209-2.142-3.804-3.691-3.793-5.401c0.002-0.077,0.005-0.154,0.012-0.23c-1.351-1.776-2.008-4.215-0.676-6.967
			c1.154-2.386,3.141-3.783,5.742-4.043c2.751-0.27,5.908,0.821,8.474,2.806c1.302-1.63,3.287-2.662,5.535-2.833
			c2.616-0.193,5.029,1.172,6.497,3.667c1.425-1.001,2.908-1.445,4.159-1.175c0.997,0.215,2.304,0.963,2.876,3.309
			c1.29,5.268-3.268,9.459-7.38,12.522c-4.342,3.233-10.868,13.652-7.051,24.204l-1.136,0.411
			c-4.034-11.15,2.87-22.166,7.464-25.585c5.666-4.217,7.802-7.692,6.93-11.265c-0.341-1.394-1-2.208-1.959-2.413
			c-0.951-0.206-2.167,0.208-3.356,1.083c0.92,2.224,0.81,4.594-0.354,6.268c-1.012,1.458-1.913,1.702-2.497,1.637
			c-0.606-0.063-1.118-0.481-1.401-1.149c-0.531-1.247-0.329-3.442,1.313-5.54c0.453-0.577,0.937-1.095,1.437-1.545
			c-0.013-0.021-0.024-0.042-0.036-0.064c-1.223-2.141-3.239-3.321-5.415-3.158c-1.951,0.146-3.613,1.006-4.703,2.402
			c0.625,0.569,1.2,1.196,1.711,1.869c1.75,2.306,2.361,4.614,1.631,6.175c-0.365,0.778-1.028,1.246-1.819,1.282
			c-1.094,0.042-2.205-0.734-3.033-2.149c-1.233-2.105-1.294-4.651-0.163-6.808c0.025-0.048,0.05-0.095,0.078-0.144
			c-2.331-1.833-5.184-2.849-7.683-2.603c-2.159,0.214-3.81,1.378-4.772,3.364c-0.93,1.924-0.669,3.669,0.125,5.053
			c0.17-0.242,0.38-0.481,0.629-0.716c2.187-2.063,4.599-1.605,6.023-0.236c1.219,1.173,1.78,3.131,0.492,4.6
			c-1.103,1.261-3.417,1.117-5.626-0.347c-0.09-0.058-0.179-0.119-0.266-0.184c0.611,0.881,1.644,1.883,2.831,3.033
			c1.796,1.742,4.028,3.909,5.93,6.743C96.999,85.413,94.198,98.406,94.076,98.955 M82.737,66.108
			c0.427,0.479,0.911,0.889,1.406,1.218c1.613,1.067,3.391,1.312,4.05,0.559c0.788-0.898,0.384-2.158-0.42-2.932
			c-0.934-0.898-2.634-1.378-4.353,0.244C83.089,65.507,82.863,65.811,82.737,66.108 M95.228,60.032
			c-0.878,1.762-0.809,3.819,0.192,5.529c0.585,1,1.275,1.57,1.933,1.549c0.426-0.02,0.658-0.328,0.777-0.586
			c0.396-0.845,0.241-2.642-1.497-4.929C96.208,61.035,95.737,60.513,95.228,60.032 M106.561,60.981
			c-0.348,0.337-0.686,0.713-1.009,1.125c-1.272,1.623-1.542,3.399-1.153,4.32c0.064,0.146,0.202,0.397,0.414,0.417
			c0.281,0.025,0.775-0.251,1.38-1.121C107.045,64.495,107.16,62.702,106.561,60.981"/>
		<polygon fill="#0C4C9D" points="41.982,76.248 57.102,67.983 58.31,72.821 		"/>
		<path fill="#0C4C9D" d="M38.101,77.68l19.396-10.605l1.554,6.208L38.101,77.68z M56.704,68.887l-10.84,5.928l11.708-2.457
			L56.704,68.887z"/>
		<polygon fill="#0C4C9D" points="52.264,26.052 65.706,36.832 61.702,39.81 		"/>
		<path fill="#0C4C9D" d="M61.56,40.67L49.449,23.02l17.243,13.83L61.56,40.67z M55.077,29.084l6.77,9.865l2.87-2.134L55.077,29.084
			z"/>
		<polygon fill="#0C4C9D" points="94.856,8.597 97.358,25.653 92.4,25.112 		"/>
		<path fill="#0C4C9D" d="M98.071,26.336l-6.361-0.693l3.149-21.187L98.071,26.336z M93.092,24.578l3.555,0.387l-1.794-12.23
			L93.092,24.578z"/>
		<polygon fill="#0C4C9D" points="138.912,24.183 126.619,36.27 124.129,31.946 		"/>
		<path fill="#0C4C9D" d="M126.486,37.249l-3.193-5.547l18.961-9.956L126.486,37.249z M124.967,32.189l1.786,3.099l8.816-8.666
			L124.967,32.189z"/>
		<polygon fill="#0C4C9D" points="144.021,74.98 127.289,70.882 129.648,66.493 		"/>
		<path fill="#0C4C9D" d="M147.854,76.542l-21.467-5.26l3.027-5.63L147.854,76.542z M128.192,70.48l11.996,2.938l-10.304-6.085
			L128.192,70.48z"/>
		<g opacity="0.5">
			<g>
				<defs>
					<rect id="SVGID_3_" x="191.311" y="301.047" width="60.288" height="75.104"/>
				</defs>
				<clipPath id="SVGID_4_">
					<use xlink:href="#SVGID_3_"  overflow="visible"/>
				</clipPath>
				<path clip-path="url(#SVGID_4_)" fill="#DC661E" d="M202.657,323.037c-0.29,0.501-9.563,13.091-11.163,32.303
					c-1.602,19.211,7.299,24.578,28.113,18.335c20.813-6.246,26.745-23.713,30.108-37.161s2.675-25.693-5.791-32.005
					c-8.465-6.311-18.694-3.018-25.896,2.105C210.824,311.737,205.539,318.075,202.657,323.037"/>
			</g>
		</g>
	</g>
	<g>
		<defs>
			<path id="SVGID_5_" d="M119.597,246.583c0,0,3.996,9.323-2.132,25.307c-6.126,15.984-6.125,21.042-6.125,21.042
				s-12.655,8.348-19.849,27.261c-7.192,18.914-3.282,43.534,11.37,52.323c14.651,8.789,36.717,7.793,50.569,4.33
				s21.311-17.316,27.171-31.968c5.858-14.649,8.25-19.134,9.848-33.785c1.599-14.652,1.293-43.52-7.021-56.884l-19.345-12.688
				L119.597,246.583z"/>
		</defs>
		<clipPath id="SVGID_6_">
			<use xlink:href="#SVGID_5_"  overflow="visible"/>
		</clipPath>
		<defs>
			<filter id="Adobe_OpacityMaskFilter" filterUnits="userSpaceOnUse" x="84.299" y="241.521" width="107.748" height="139.784">
				<feColorMatrix  type="matrix" values="1 0 0 0 0  0 1 0 0 0  0 0 1 0 0  0 0 0 1 0"/>
			</filter>
		</defs>
		<mask maskUnits="userSpaceOnUse" x="84.299" y="241.521" width="107.748" height="139.784" id="SVGID_7_">
			<g filter="url(#Adobe_OpacityMaskFilter)">
				
					<linearGradient id="SVGID_8_" gradientUnits="userSpaceOnUse" x1="-856.9961" y1="1200.0605" x2="-856.7871" y2="1200.0605" gradientTransform="matrix(0 -659.5117 -659.5117 0 791591.3125 -564819.5625)">
					<stop  offset="0" style="stop-color:#FFFFFF"/>
					<stop  offset="0.0054" style="stop-color:#FFFFFF"/>
					<stop  offset="0.8226" style="stop-color:#000000"/>
					<stop  offset="1" style="stop-color:#000000"/>
				</linearGradient>
				<rect x="84.299" y="241.521" clip-path="url(#SVGID_6_)" fill="url(#SVGID_8_)" width="107.748" height="139.784"/>
			</g>
		</mask>
		
			<linearGradient id="SVGID_9_" gradientUnits="userSpaceOnUse" x1="-856.9961" y1="1200.0605" x2="-856.7871" y2="1200.0605" gradientTransform="matrix(0 -659.5117 -659.5117 0 791591.3125 -564819.5625)">
			<stop  offset="0" style="stop-color:#FFFCD5"/>
			<stop  offset="0.0054" style="stop-color:#FFFCD5"/>
			<stop  offset="0.8226" style="stop-color:#FFC20E"/>
			<stop  offset="1" style="stop-color:#FFC20E"/>
		</linearGradient>
		
			<rect x="84.299" y="241.521" clip-path="url(#SVGID_6_)" mask="url(#SVGID_7_)" fill="url(#SVGID_9_)" width="107.748" height="139.784"/>
	</g>
	<g>
		<path fill="#0C4C9D" d="M162.02,361.157c-0.365-0.236-38.658-23.645-76.116-9.236l-0.434-1.129
			c38.041-14.634,75.392,9.493,75.761,9.731L162.02,361.157z"/>
		<path fill="#0C4C9D" d="M208.287,313.512c0,0,6.048,2.569,12.398-1.059c6.35-3.629,5.593-11.641,5.593-11.641
			S213.428,307.161,208.287,313.512"/>
		<path fill="#0C4C9D" d="M213.365,316.814L213.365,316.814c-3.395,0-5.765-0.967-6.023-1.077l-2.954-1.255l2.019-2.494
			c5.413-6.685,18.258-13.076,18.803-13.346l3.148-1.556l0.33,3.497c0.038,0.392,0.814,9.616-6.803,13.969
			C219.262,316.054,216.395,316.814,213.365,316.814 M213.237,311.974c0.042,0.001,0.085,0.003,0.128,0.003
			c2.175,0,4.235-0.547,6.12-1.623c2.294-1.313,3.405-3.393,3.938-5.258C220.467,306.778,216.402,309.286,213.237,311.974"/>
		<path fill="#0C4C9D" d="M239.734,300.207c0,0-1.966,2.722,0.908,9.827c2.872,7.106,11.489,4.99,11.489,4.99
			S248.957,302.021,239.734,300.207"/>
		<path fill="#0C4C9D" d="M249.276,317.737L249.276,317.737c-5.242,0-9.105-2.415-10.878-6.798
			c-3.209-7.943-1.084-11.514-0.625-12.15l0.907-1.254l1.521,0.297c10.619,2.089,14.136,16.023,14.282,16.618l0.572,2.346
			l-2.346,0.575C252.558,317.408,251.168,317.737,249.276,317.737 M241.5,303.354c0.014,1.223,0.305,3.104,1.386,5.773
			c0.969,2.4,2.985,3.666,5.997,3.766C247.724,309.922,245.385,305.313,241.5,303.354"/>
		<path fill="#0C4C9D" d="M253.19,324.095c0,0-5.141,0.605-6.804,6.954c-1.663,6.351,3.779,11.34,3.779,11.34
			S254.552,331.806,253.19,324.095"/>
		<path fill="#0C4C9D" d="M251.078,346.506l-2.546-2.336c-0.267-0.243-6.494-6.063-4.485-13.734c2.059-7.854,8.584-8.711,8.86-8.743
			l2.27-0.269l0.396,2.249c1.467,8.312-2.98,19.183-3.171,19.642L251.078,346.506z M251.033,327.713
			c-0.885,0.76-1.791,1.984-2.306,3.949c-0.548,2.09-0.072,4.02,0.655,5.548C250.163,334.555,250.978,331.024,251.033,327.713"/>
		<path fill="#F7911E" d="M9.937,182.248c0,0,2.888,14.559,7.478,22.167c4.591,7.609,8.658,8.002,16.66,8.527
			c8.001,0.524,31.22-2.624,43.944-7.869c12.723-5.249,25.578-17.71,29.514-23.875c0,0-1.79-1.077-3.781,0.315
			c-1.992,1.391-5.926,8.999-16.944,15.819c-11.02,6.821-38.553,14.694-49.06,14.582C23.839,211.762,15.447,205.858,9.937,182.248"
			/>
		<path fill="#F7911E" d="M112.87,218.827c0,0,8.163,13.4,16.69,19.698c8.526,6.295,14.951,2.753,15.346-2.362
			c0.396-5.115-3.016-14.429-2.623-20.333c0,0-0.396,10.887,18.888,23.088l-5.899,6.055c0,0,8.39-0.809,15.996-10.516
			c7.608-9.707,8.789-14.953,8.789-14.953s-7.349,17.055-10.759,22.825c-3.41,5.77,2.625,13.905,7.609,17.053
			c0,0,2.491,19.546-9.706,34.499C155,308.835,135.85,313.688,135.85,313.688s-14.429-12.461-24.135-11.937
			c-9.707,0.524-16.923,10.103-16.923,10.103s7.139-12.429,18.064-16.644c0,0,6.597,1.426,12.761,4.706
			c6.165,3.278,12.978,6.759,12.978,6.759s15.486-6.366,23.75-21.583c8.264-15.217,8.396-25.841,8.396-25.841
			s-19.675-15.48-49.453-11.151c0,0-0.655-9.052-7.346-16.003C113.943,232.098,116.387,225.235,112.87,218.827"/>
		<path fill="#F7911E" d="M30.65,344.558c0,0,20.41,3.649,33.353,1.161c12.944-2.488,14.271-16.096,10.287-19.082
			c0,0,6.306,0.83,9.624,0.499c0,0-4.976,18.251,5.145,37.664c0,0-5.474-1.824-20.74-0.331c-15.266,1.492-23.508,3.492-31.085,1
			C37.232,365.469,30.815,353.682,30.65,344.558"/>
		<path fill="#F7911E" d="M195.68,158.349c0,0,16.463,18.196,16.173,42.456c-0.288,24.26-19.455,45.291-28.426,53.404
			c0,0,22.217-11.092,36.224-38.675c14.007-27.581,5.773-59.163-7.365-75.284C212.285,140.25,201.89,153.004,195.68,158.349"/>
		<path fill="#0C4C9D" d="M192.559,162.859c1.47,2.077,3.313,3.716,5.326,4.742c4.914,2.5,10.191,1.139,13.772-3.551
			c4.769-6.238-0.53-13-3.996-15.707l-1.148-0.895l-1.328,0.596c-6.034,2.704-12.366,11.646-12.632,12.026l-0.983,1.396
			L192.559,162.859z"/>
		<path fill="#FFC20E" d="M92.578,311.696c0,0-14.111-24.594-2.419-44.751c11.693-20.158,56.042-22.979,78.215-6.047
			c0,0-2.017,30.236-29.834,43.139c0,0-9.242-3.813-14.16-7.093c-4.917-3.277-11.86-4.24-11.86-4.24S99.538,298.101,92.578,311.696"
			/>
		<path fill="#0C4C9D" d="M92.699,316.77l-2.219-3.87c-0.605-1.054-14.665-26.046-2.415-47.167
			c6.562-11.311,22.957-18.337,42.789-18.337c15.141,0,29.351,4.22,38.988,11.58l1.033,0.787l-0.089,1.296
			c-0.085,1.292-2.44,31.82-31.229,45.172l-0.962,0.445l-0.979-0.403c-0.386-0.16-9.521-3.943-14.578-7.315
			c-3.565-2.375-8.424-3.428-10.182-3.746c-2.524,1.221-12.498,6.596-18.125,17.586L92.699,316.77z M130.854,252.233
			c-17.837,0-32.99,6.251-38.601,15.925c-8.185,14.112-2.703,30.918,0.531,38.403c7.471-11.274,18.3-15.882,18.808-16.092
			l0.608-0.253l0.654,0.09c0.304,0.042,7.552,1.082,12.868,4.625c3.745,2.497,10.289,5.393,12.759,6.453
			c22.127-10.849,26.564-33.713,27.335-39.369C157.029,255.786,144.384,252.233,130.854,252.233"/>
		<path fill="#0C4C9D" d="M144.486,299.452c0,0-5.594-5.596-2.419-11.339c3.175-5.746,10.583-3.629,13.759,1.208
			C155.826,289.321,147.511,298.997,144.486,299.452"/>
		<path fill="#0C4C9D" d="M143.638,302.023l-0.861-0.861c-0.28-0.282-6.835-6.965-2.827-14.222c1.655-2.989,4.496-4.708,7.797-4.708
			c3.839,0,7.804,2.262,10.102,5.762l0.997,1.521l-1.186,1.383c-3.323,3.869-9.411,10.434-12.814,10.945L143.638,302.023z
			 M147.747,287.069c-1.552,0-2.752,0.745-3.562,2.212c-1.518,2.745-0.125,5.583,0.979,7.174c1.698-1.218,4.647-4.039,7.486-7.188
			C151.254,287.927,149.413,287.069,147.747,287.069"/>
		<path fill="#0C4C9D" d="M167.986,262.384c-2.254-1.184-4.64-1.81-6.898-1.81c-5.512,0-9.6,3.608-10.666,9.412
			c-1.418,7.722,6.371,11.347,10.688,12.184l1.429,0.278l0.914-1.135c4.15-5.144,5.738-15.985,5.803-16.445l0.242-1.69
			L167.986,262.384z"/>
		<path fill="#0C4C9D" d="M191.511,288.838c-0.091-0.098-9.157-9.719-26.149-14.027l0.297-1.172
			c17.359,4.4,26.648,14.278,26.739,14.377L191.511,288.838z"/>
		<path fill="#0C4C9D" d="M173.989,321.251c-0.336-0.224-34.117-22.251-79.348-11.423l-0.281-1.178
			C140.116,297.695,173.649,321.024,173.989,321.251"/>
		<path fill="#0C4C9D" d="M95.083,292.928l-0.08-0.027c0.061-0.015,0.834-0.648,0.984-0.718c6.947-3.274,14.547-2.748,17.846-1.55
			l-0.824,2.273c-2.954-1.069-7.71-3.007-15.692-0.591C96.868,292.449,95.295,292.928,95.083,292.928"/>
		<path fill="#F7911E" d="M92.253,268.158c0,0-4.281,11.558-1.658,19.689c2.624,8.134,4.985,4.592,4.985,4.592
			s7.476-2.362,13.511-0.656c0,0-12.282,6.602-16.307,14.778C92.784,306.562,81.841,285.985,92.253,268.158"/>
		<g opacity="0.5">
			<g>
				<defs>
					<rect id="SVGID_10_" x="150.479" y="222.061" width="25.971" height="15.256"/>
				</defs>
				<clipPath id="SVGID_11_">
					<use xlink:href="#SVGID_10_"  overflow="visible"/>
				</clipPath>
				<path clip-path="url(#SVGID_11_)" fill="#0C4C9D" d="M150.48,224.92c-0.205-0.409,14.439-4.765,23.105-1.877
					c8.664,2.888-4.911,9.963-6.787,11.554c-1.876,1.587-4.188,3.177-4.766,2.599C161.456,236.616,152.07,228.099,150.48,224.92"/>
			</g>
		</g>
		<g opacity="0.5">
			<g>
				<defs>
					<rect id="SVGID_12_" x="187.448" y="237.628" width="25.484" height="91.553"/>
				</defs>
				<clipPath id="SVGID_13_">
					<use xlink:href="#SVGID_12_"  overflow="visible"/>
				</clipPath>
				<path clip-path="url(#SVGID_13_)" fill="#0C4C9D" d="M212.864,248.17c-0.313,0.779-10.397,9.386-10.831,17.472
					c-0.434,8.087,6.499,35.38,2.889,47.943c0,0-5.198,9.097-6.644,10.107c-1.443,1.012-6.643,5.488-7.22,5.488
					c-0.578,0,2.602-15.309,3.61-22.383c1.011-7.077-1.444-33.502-1.878-36.101c-0.434-2.6-5.342-15.452-5.342-15.452
					s8.086-6.787,10.686-8.231c2.599-1.444,11.984-9.386,11.984-9.386S213.441,246.725,212.864,248.17"/>
			</g>
		</g>
		<path fill="#FFF680" d="M55.274,117.591c0,0-25.71-6.376-36.872,9.167c-11.16,15.55-16.375,43.337,0.383,82.062
			c0,0,10.648,10.047,47.688,0.069c0,0-31.145,5.442-43.089-0.907c0,0-15.944-37.375-7.574-65.674
			C24.185,113.999,47.107,116.993,55.274,117.591"/>
		<path fill="#FFF680" d="M104.059,181.245c0,0,5.119-3.596,7.816-1.902c3.306,2.068,2.282,5.365,1.807,7.186
			c0,0,3.188-3.309,1.69-6.775C113.716,175.899,107.542,175.86,104.059,181.245"/>
		<path fill="#0C4C9D" d="M117.042,159.347c0,0-8.51,10.483-23.176,14.574c0,0-14.31-2.176-16.192-18.183
			c-1.882-16.006,18.022-23.915,26.879-18.809c14.883,8.573,9.126,23.562,9.083,24.045L117.042,159.347z"/>
		<path fill="#FFFFFF" d="M111.062,162.088c0,0,5.264-11.43-3.285-19.778c-8.545-8.348-22.102-3.587-27.168,5.419
			c-5.067,9.007,3.276,22.315,13.71,24.175C94.319,171.904,106.263,169.6,111.062,162.088"/>
		<path fill="#0C4C9D" d="M94.408,172.357l-0.169,0.003c-5.665-1.013-11.107-5.452-13.875-11.31
			c-2.256-4.777-2.311-9.719-0.159-13.545c2.596-4.615,7.32-8.146,12.637-9.457c5.701-1.403,11.26,0.028,15.255,3.934
			c8.681,8.473,3.435,20.179,3.353,20.349c-4.115,6.439-13.373,9.148-16.115,9.823C94.749,172.3,94.408,172.357,94.408,172.357
			 M81.011,147.956c-2.006,3.568-1.938,8.196,0.19,12.702c2.619,5.565,7.767,9.787,13.115,10.782
			c0.127-0.03,0.406-0.089,0.799-0.186c2.657-0.653,11.629-3.263,15.529-9.364c0.05-0.11,5.032-11.219-3.193-19.253
			c-3.815-3.728-8.921-5.04-14.387-3.692C87.988,140.194,83.483,143.565,81.011,147.956"/>
		<path fill="#0C4C9D" d="M107.231,145.455c-1.317-5.351-6.708-8.637-12.014-7.331c-2.351,0.578-4.296,1.963-5.621,3.789
			c0.149-0.057,0.292-0.121,0.451-0.161c2.142-0.526,4.305,0.781,4.833,2.924c0.184,0.75,0.133,1.496-0.085,2.179
			c0.047-0.016,0.088-0.038,0.138-0.05c1.28-0.315,2.57,0.466,2.885,1.746c0.314,1.276-0.464,2.568-1.746,2.883
			c-1.281,0.315-2.568-0.469-2.882-1.744c-0.058-0.234-0.068-0.463-0.055-0.692c-0.357,0.228-0.744,0.415-1.177,0.522
			c-1.678,0.412-3.356-0.313-4.266-1.671c0.004,0.775,0.088,1.562,0.282,2.347c1.316,5.351,6.709,8.641,12.019,7.335
			C105.303,156.225,108.552,150.806,107.231,145.455"/>
		<path fill="#FFFFFF" d="M91.958,149.521c0.433-0.108,0.82-0.294,1.177-0.522c-0.013,0.229-0.003,0.458,0.056,0.692
			c0.313,1.276,1.6,2.06,2.882,1.745c1.281-0.315,2.06-1.607,1.746-2.883c-0.315-1.28-1.605-2.061-2.885-1.746
			c-0.049,0.013-0.091,0.035-0.138,0.05c0.218-0.684,0.27-1.428,0.085-2.179c-0.528-2.143-2.691-3.451-4.833-2.924
			c-0.159,0.04-0.301,0.104-0.451,0.161c-1.869,0.704-2.966,2.69-2.477,4.675c0.116,0.466,0.32,0.885,0.572,1.261
			C88.602,149.208,90.28,149.932,91.958,149.521"/>
		<g opacity="0.17">
			<g>
				<defs>
					<rect id="SVGID_14_" x="69.372" y="126.915" width="49.528" height="47.421"/>
				</defs>
				<clipPath id="SVGID_15_">
					<use xlink:href="#SVGID_14_"  overflow="visible"/>
				</clipPath>
				<path clip-path="url(#SVGID_15_)" fill="#910508" d="M118.689,158.045c0,0,2.58-19.431-10.311-27.444
					c-12.893-8.014-28.711-1.916-36.182,8.313c-7.467,10.226-0.028,34.495,21.105,35.422l1.018-2.432
					c0,0-10.995-4.571-13.188-14.553c-2.187-9.979,7.871-17.25,17.343-16.653c9.466,0.602,14.976,11.625,12.755,19.365
					c0,0,1.5,1.309,2.406,0.912C114.554,160.579,118.689,158.045,118.689,158.045"/>
			</g>
		</g>
		<path fill="#F7911E" d="M37.842,137.388c0.412,0.233-3.902,1.555-4.129,5.225c-0.227,3.669,2.339,8.698,2.339,8.698
			s-2.504,1.102-4.769-0.482c-1.034-0.718-3.765-4.167-2.662-8.348C29.734,138.299,33.248,134.768,37.842,137.388"/>
		<path fill="#0C4C9D" d="M28.145,143.579c-0.442,4.65,2.074,8.711,5.609,9.044c3.533,0.336,6.771-3.175,7.214-7.828
			c0.438-4.647-2.081-8.706-5.611-9.039C31.822,135.418,28.587,138.928,28.145,143.579 M29.19,143.68
			c0.384-4.071,3.107-7.163,6.064-6.882c0.813,0.079,1.56,0.408,2.202,0.918c-0.067-0.013-0.138-0.032-0.21-0.035
			c-2.049-0.196-3.998,2.693-4.357,6.449c-0.347,3.677,0.951,6.809,2.92,7.14c-0.625,0.254-1.284,0.376-1.956,0.307
			C30.897,151.301,28.799,147.756,29.19,143.68"/>
		<path fill="#F7911E" d="M8.917,139.808c0.769-3.063,2.775-4.946,4.481-4.187c0.47,0.203,0.858,0.595,1.169,1.103
			c-0.039-0.028-0.078-0.052-0.118-0.07c-1.176-0.517-2.711,1.346-3.418,4.17c-0.694,2.76-0.348,5.402,0.763,6.019
			c-0.402,0.08-0.805,0.058-1.189-0.119C8.9,145.972,8.146,142.873,8.917,139.808"/>
		<path fill="#0C4C9D" d="M10.407,147.512c2.032,0.898,4.401-1.216,5.279-4.709c0.878-3.492-0.06-7.069-2.091-7.968
			c-2.029-0.898-4.4,1.209-5.279,4.704C7.438,143.036,8.378,146.609,10.407,147.512 M8.917,139.808
			c0.769-3.063,2.775-4.946,4.481-4.187c0.47,0.203,0.858,0.595,1.169,1.103c-0.039-0.028-0.078-0.052-0.118-0.07
			c-1.176-0.517-2.711,1.346-3.418,4.17c-0.694,2.76-0.348,5.402,0.763,6.019c-0.402,0.08-0.805,0.058-1.189-0.119
			C8.9,145.972,8.146,142.873,8.917,139.808"/>
	</g>
</g>
</svg>
